<svg id="Layer_1" data-name="Layer 1" xmlns="http://www.w3.org/2000/svg" viewBox="0 0 566.93 147.18"><defs><style>.cls-1{fill:#fff;}</style></defs><path class="cls-1" d="M125.61,12.25v24h-71a1.42,1.42,0,0,0-1.42,1.42V71.25a1.18,1.18,0,0,0,.34.84h0a1.22,1.22,0,0,0,.84.35H77.06A12.33,12.33,0,0,1,89.39,84.77v23.89h-35a1.18,1.18,0,0,0-.84.35h0a1.17,1.17,0,0,0-.34.83v35H17V121a12.33,12.33,0,0,1,12.33-12.33H52a1.21,1.21,0,0,0,.84-.35h0a1.19,1.19,0,0,0,.35-.84V73.63a1.19,1.19,0,0,0-.35-.84h0a1.16,1.16,0,0,0-.84-.35H29.09A12.15,12.15,0,0,1,17,60.29V0h96.41A12.25,12.25,0,0,1,125.61,12.25Zm44.08,129.37a36.75,36.75,0,0,0,13.49-9.77l-12.1-12.1a20.31,20.31,0,0,1-8.06,5.89,27.58,27.58,0,0,1-10.39,1.87,22.83,22.83,0,0,1-11.17-2.64,17.65,17.65,0,0,1-7.37-7.68,26,26,0,0,1-2.56-11.86,25.82,25.82,0,0,1,2.41-11.56,17.41,17.41,0,0,1,6.9-7.52,20.45,20.45,0,0,1,10.55-2.64A18.39,18.39,0,0,1,161,85.94a15.65,15.65,0,0,1,6.05,6.82,27.18,27.18,0,0,1,2.33,11.17l8.37-6.36-53.66.16v15.2l63.12-.16a26.35,26.35,0,0,0,.78-4.57q.15-2.1.15-4.11a39.86,39.86,0,0,0-4.65-19.39,33.64,33.64,0,0,0-13-13.34,37.36,37.36,0,0,0-18.92-4.81,40.05,40.05,0,0,0-20.16,5.12,37.88,37.88,0,0,0-14.19,14,38.67,38.67,0,0,0-5.2,20,38.53,38.53,0,0,0,5.28,20.16,37.94,37.94,0,0,0,14.5,14,42.59,42.59,0,0,0,21,5.12A43.27,43.27,0,0,0,169.69,141.62Zm51.49,1.55V31H200.86V143.17Zm64.21-1.78a26.91,26.91,0,0,0,10.39-9.23A25.84,25.84,0,0,0,300,118.82V92.14a24.26,24.26,0,0,0-4.27-13A27.84,27.84,0,0,0,285.23,70a31.55,31.55,0,0,0-14.58-3.33,34,34,0,0,0-18.53,5.12,36.93,36.93,0,0,0-13,14,41.11,41.11,0,0,0-4.81,20,40.77,40.77,0,0,0,4.81,19.85,36.93,36.93,0,0,0,13,14,34,34,0,0,0,18.53,5.12A31.92,31.92,0,0,0,285.39,141.39Zm-20.94-18a17.67,17.67,0,0,1-6.75-7.14,22.54,22.54,0,0,1-2.4-10.62,22.2,22.2,0,0,1,2.4-10.47A17.89,17.89,0,0,1,264.37,88a19.16,19.16,0,0,1,10-2.56,18.11,18.11,0,0,1,16.51,9.78,22,22,0,0,1,2.41,10.54,21.6,21.6,0,0,1-2.41,10.39,18.3,18.3,0,0,1-6.74,7.14,20,20,0,0,1-19.7.08ZM312.53,31H291.9V86.56l3.57,18.15L292.06,123v20.16h20.47Zm70.41,110.59a36.87,36.87,0,0,0,13.5-9.77l-12.1-12.1a20.34,20.34,0,0,1-8.07,5.89,27.55,27.55,0,0,1-10.39,1.87,22.79,22.79,0,0,1-11.16-2.64,17.6,17.6,0,0,1-7.37-7.68,25.82,25.82,0,0,1-2.56-11.86,26,26,0,0,1,2.4-11.56,17.49,17.49,0,0,1,6.91-7.52,20.42,20.42,0,0,1,10.54-2.64,18.43,18.43,0,0,1,9.62,2.33,15.71,15.71,0,0,1,6.05,6.82,27.19,27.19,0,0,1,2.32,11.17L391,97.57l-53.66.16v15.2l63.12-.16a28.41,28.41,0,0,0,.78-4.57q.15-2.1.15-4.11a39.86,39.86,0,0,0-4.65-19.39,33.71,33.71,0,0,0-13-13.34,37.36,37.36,0,0,0-18.92-4.81,40.09,40.09,0,0,0-20.17,5.12,38,38,0,0,0-14.19,14,38.76,38.76,0,0,0-5.19,20,38.53,38.53,0,0,0,5.27,20.16,38,38,0,0,0,14.5,14,42.63,42.63,0,0,0,21,5.12A43.22,43.22,0,0,0,382.94,141.62Zm51.49,1.55V68.26H414.12v74.91Zm4.11-53.82a14.54,14.54,0,0,1,10.63-4,16.59,16.59,0,0,1,5.5.85A9.47,9.47,0,0,1,458.78,89L471.5,74.31a21.71,21.71,0,0,0-7.83-5.82,25.38,25.38,0,0,0-9.85-1.78q-12.56,0-19.23,8t-8.07,21.79l7.91,5.42Q434.43,93.39,438.54,89.35Zm83.76,52.11a25.92,25.92,0,0,0,10.23-9.07,25.44,25.44,0,0,0,4.11-13.1V92.14A25,25,0,0,0,532.46,79a27.12,27.12,0,0,0-10.24-9A30.87,30.87,0,0,0,508,66.71a34,34,0,0,0-18.53,5.12,35.8,35.8,0,0,0-12.8,14,42.29,42.29,0,0,0-4.65,20,41.94,41.94,0,0,0,4.65,19.85,35.8,35.8,0,0,0,12.8,14,33.71,33.71,0,0,0,18.37,5.12A31.61,31.61,0,0,0,522.3,141.46Zm-20.4-18.14a18.39,18.39,0,0,1-6.75-7.14,22,22,0,0,1-2.4-10.54,21.74,21.74,0,0,1,2.4-10.39,18.56,18.56,0,0,1,6.67-7.14,18.35,18.35,0,0,1,9.85-2.64A18.72,18.72,0,0,1,521.6,88a18.42,18.42,0,0,1,6.67,7.22,22.07,22.07,0,0,1,2.48,10.54,20.54,20.54,0,0,1-5.27,14.43A17.9,17.9,0,0,1,511.67,126,18.42,18.42,0,0,1,501.9,123.32ZM550,143.17V68.26H529.51v18.3l3.41,18.15L529.51,123v20.16Z"/></svg>