<svg id="Layer_1" data-name="Layer 1" xmlns="http://www.w3.org/2000/svg" viewBox="0 0 155.91 155.91"><defs><style>.cls-1{fill:#4b4fff;}</style></defs><path class="cls-1" d="M23.62,5.51h96.71a11.95,11.95,0,0,1,11.95,11.95V41.73a0,0,0,0,1,0,0H23.62a0,0,0,0,1,0,0V5.51A0,0,0,0,1,23.62,5.51Z"/><path class="cls-1" d="M59.84,78H83.73A12.33,12.33,0,0,1,96.06,90.29v23.88a0,0,0,0,1,0,0H59.84a0,0,0,0,1,0,0V78A0,0,0,0,1,59.84,78Z"/><path class="cls-1" d="M23.62,41.73H47.51A12.33,12.33,0,0,1,59.84,54.07V78a0,0,0,0,1,0,0H23.62a0,0,0,0,1,0,0V41.73A0,0,0,0,1,23.62,41.73Z" transform="translate(83.47 119.69) rotate(180)"/><path class="cls-1" d="M23.62,114.17H47.51a12.33,12.33,0,0,1,12.33,12.33v23.88a0,0,0,0,1,0,0H23.62a0,0,0,0,1,0,0V114.17A0,0,0,0,1,23.62,114.17Z" transform="translate(-90.55 174.02) rotate(-90)"/></svg>