<?xml version="1.0" encoding="UTF-8"?><svg id="Layer_2" xmlns="http://www.w3.org/2000/svg" viewBox="59.8 -1 170 170"><g id="Full_color"><path d="M162.68,82.79c-2.82.21-5.62.63-8.37,1.26,0,0,0,0-.02,0-8.94-20.45-20.57-38.09-56.45-84.06-1.93,9.37-.38,30.6,6.11,48.98-9.89-6.66-21.47-14.04-35.04-22.12,2.44,10.54,6.43,20.46,11.75,29.31-7.03-3.45-13.7-6.73-19.74-9.7,8.67,19.81,23.31,44.75,48.46,52.71-1.76.65-3.47,1.44-5.07,2.4-11.34,6.72-19.76,19.24-33.07,22.27-9.21,1.86-17.74-3.3-26.71-4.38-15.09-2.51-31.53.22-44.54,7.11,4.82,2.47,9.34,5.44,13.47,8.9,9.07-5.37,19.79-7.77,30.5-6.54-8.84,2.24-16.93,6.93-23.26,13.49,4.2,4.61,7.77,9.75,10.67,15.33,11.99-12.94,23.25-22.15,37.94-29.44,62.58-30.38,114.94,26.31,146.17-29.18,1.44-2.6,2.64-5.38,3.5-8.21-.36-.13-1.35-.54-2.94-1.1-16.92-6.09-35.29-8.36-53.37-7.03ZM193.3,101.99c-7.46,1.46-9.81-9.58-2.45-11.32,7.48-1.51,9.88,9.6,2.45,11.32Z"/><path d="M218.65,74.08c3.93-4.9,7.2-10.34,9.79-15.96h.01c-8.98,2.53-16.83,5-23.67,7.35-.01-.01-.02,0-.02.01h-.01s.01-.02.02-.03h-.01c6.76-10.13,10.39-22.12,11.85-34.06-25.05,19.75-39.16,33.99-46.9,43.04,3.76,0,7.53.12,11.28.36,4.73.3,9.45.79,14.13,1.5,2.48.35,4.95.78,7.41,1.25,3.59.71,7.16,1.52,10.69,2.46,2.8.74,5.57,1.56,8.31,2.45l7.45-10.57h0s-10.32,2.19-10.34,2.2Z"/></g></svg>