<?xml version="1.0" encoding="UTF-8"?><svg id="Layer_2" xmlns="http://www.w3.org/2000/svg" viewBox="0 0 654 283.36"><defs><style>.cls-1{fill:#fff;}</style></defs><g id="Full_color"><path class="cls-1" d="M15.4,154.2c0-22.22,9.9-32.56,33.22-32.56,3.08,0,9.68.22,15.84,2.2v17.6c-5.06-1.98-10.34-2.2-14.74-2.2-9.46,0-14.52,5.5-14.52,16.06v23.54h29.26v15.4h-29.26v86.9H15.4v-126.95h0Z"/><path class="cls-1" d="M71.49,228.79c0-33.88,23.1-52.14,52.58-52.14,32.78,0,49.5,28.82,49.5,55.22,0,3.3-.22,3.52-.22,5.5h-81.63c0,12.98,12.1,28.38,31.02,28.38,16.94,0,25.08-8.14,33.34-19.8l16.5,7.7c-9.14,18.92-25.86,29.7-49.62,29.7-31.9,0-51.48-24.64-51.48-54.56h0ZM153.77,221.97c-2.42-16.72-13.86-27.72-32.12-27.72-16.06,0-30.36,11.66-30.36,27.72h62.48Z"/><path class="cls-1" d="M187.17,251.89V123.84h19.8v121.67c0,11.22,4.18,18.04,13.42,18.04,4.4,0,8.58-.66,13.64-2.2v19.8c-6.16,1.98-9.46,2.2-13.2,2.2-20.9,0-33.66-9.02-33.66-31.46Z"/><path class="cls-1" d="M242.02,230.55c0-30.8,19.14-53.9,44.22-53.9,15.84,0,28.16,9.02,34.54,20.9v-73.7h19.8v157.31h-19.8l-.22-18.7c-5.94,12.32-18.82,20.9-34.44,20.9-25.3,0-44.1-22.22-44.1-52.8h0ZM320.78,232.75v-6.16c-.88-21.34-13.2-32.34-29.04-32.34-17.82,0-29.92,14.3-29.92,36.08s12.2,35.42,29.82,35.42c16.5,0,28.28-11.66,29.16-33h-.02Z"/><path class="cls-1" d="M354.94,228.79c0-33.88,23.1-52.14,52.58-52.14,32.78,0,49.5,28.82,49.5,55.22,0,3.3-.22,3.52-.22,5.5h-81.62c0,12.98,12.1,28.38,31.02,28.38,16.94,0,25.08-8.14,33.34-19.8l16.5,7.7c-9.14,18.92-25.86,29.7-49.62,29.7-31.9,0-51.48-24.64-51.48-54.56ZM437.24,221.97c-2.42-16.72-13.86-27.72-32.12-27.72-16.06,0-30.36,11.66-30.36,27.72h62.48,0Z"/><path class="cls-1" d="M471.02,178.85h20.02v18.7c3.96-14.52,14.3-20.9,29.7-20.9,11,0,18.26,2.42,22,7.26l-3.3,19.8c-4.18-6.82-11.66-9.46-20.68-9.46-16.72,0-27.94,10.78-27.94,27.28v59.62h-19.8v-102.31h0Z"/><path class="cls-1" d="M547.08,252.55c0-25.08,16.5-31.17,40.04-34.54,15.4-2.2,32.56-1.76,32.56-12.1,0-8.36-10.78-11.66-20.46-11.66-11.88,0-22.22,4.84-25.52,15.4l-17.6-7.7c3.08-16.72,19.14-25.3,42.02-25.3,20.46,0,41.36,6.82,41.36,36.74v40.26c0,6.82.88,12.1,7.04,12.1,2.64,0,5.94-.66,7.48-1.32v16.72c-4.62,1.98-8.36,2.2-11,2.2-14.52,0-22.88-7.7-23.1-18.92-6.38,14.96-21.34,18.92-34.98,18.92-21.12,0-37.84-12.32-37.84-30.8h0ZM619.9,243.75v-19.58c-5.72,8.36-23.32,10.1-31.46,11.44-13.42,2.2-21.56,4.84-21.56,13.86,0,11.22,9.02,16.28,20.24,16.28,19.36,0,32.78-14.08,32.78-22h0Z"/><path class="cls-1" d="M0,194.25v-15.4h15.4c0,8.51-6.89,15.4-15.4,15.4Z"/><path class="cls-1" d="M573.54,81c-2.57.19-5.12.57-7.65,1.11,1.44,3.3,2.81,6.66,4.19,10.22,0,.01,0,.02,0,.04,0,.01.01.02.02.03,0,0,0,0,0,.01,0,.01,0,.03,0,.04,0,.03,0,.07.01.1,0,.03,0,.05,0,.08,0,.01,0,.02,0,.03,0,.01,0,.02,0,.03,0,0,0,.02,0,.02,0,.03-.02.05-.03.08,0,0,0,0,0,0,0,.03,0,.05-.02.08,0,.01,0,.02-.01.03,0,0,0,.02-.01.03-.02.03-.04.06-.06.09-.02.02-.02.05-.04.07,0,0,0,0,0,0,0,0,0,0,0,0,0,0,0,0-.01,0,0,0,0,0,0,0,0,0-.01.02-.02.03,0,0-.02.01-.03.02-.04.04-.09.07-.14.1,0,0-.01.01-.02.01,0,0,0,0,0,0,0,0-.02,0-.02.01,0,0,0,0-.02,0,0,0,0,0,0,0-11.55,4.95-22.38,7.42-32.47,7.42-6.3,0-12.32-.97-18.04-2.9-1.38.56-2.72,1.21-4,1.98-11.34,6.72-19.76,19.24-33.07,22.27-9.21,1.86-17.74-3.3-26.71-4.38-15.09-2.51-31.53.22-44.54,7.11,4.82,2.47,9.34,5.44,13.47,8.9,9.07-5.37,19.79-7.77,30.5-6.54-8.84,2.24-16.93,6.93-23.26,13.49,4.2,4.61,7.77,9.75,10.67,15.33,11.99-12.94,23.25-22.15,37.94-29.44,62.58-30.38,114.94,26.31,146.17-29.18,1.44-2.6,2.64-5.38,3.5-8.21-.36-.13-1.35-.54-2.94-1.1-16.92-6.09-35.29-8.36-53.37-7.03ZM604.16,100.2c-7.46,1.46-9.81-9.58-2.45-11.32,7.48-1.51,9.88,9.6,2.45,11.32Z"/><path class="cls-1" d="M616.08,64.32c-2.4,3.54-5.16,6.84-8.35,9.68,1.75.27,3.61.6,5.65.98l15.71-3.37c3.38-4.25,6.34-8.99,8.83-14.12-7.76,2.22-15.1,4.51-21.84,6.83Z"/><path class="cls-1" d="M627.64,75.63c-.68.74-1.38,1.47-2.09,2.19,2.16.59,4.36,1.25,6.55,1.95l6.04-8.57c-2.6.55-7.12,1.52-8.21,1.76-.72.9-1.5,1.8-2.29,2.67Z"/><path class="cls-1" d="M582.2,71.9c3.14.03,6.33.14,9.51.34,7.64-3.45,15.26-6.36,23.41-9.18,5.82-8.79,9.64-19.46,11.37-31.73-23.46,18.62-36.92,32.14-44.28,40.56Z"/><path class="cls-1" d="M612.82,65.45c-6.05,2.14-12.06,4.45-17.93,7.01,3.71.3,7.35.72,10.87,1.24,2.99-2.48,5.6-5.39,7.9-8.54-.27.1-.56.19-.83.29Z"/><path class="cls-1" d="M617.06,75.75c2.35.51,4.6,1.05,6.79,1.63,1.28-1.24,2.51-2.55,3.68-3.89-5.07,1.1-8.34,1.81-10.47,2.26Z"/><path class="cls-1" d="M527.98,71.32c-6.49-6.57-10.67-15.04-13.79-23.65-10.09-6.79-21.27-13.86-33.27-21.05,2.43,9.75,6.17,18.88,11.13,27.17,9.01,4.42,27.16,13.34,36.13,17.74-.07-.07-.14-.14-.21-.21Z"/><path class="cls-1" d="M522.53,51.56c15.66,11.08,31.3,22.52,44.32,36.67-9.27-22.79-19.63-39.4-57.7-88.23-1.46,10.13.41,29.95,6.29,46.7,2.4,1.62,4.74,3.23,7.09,4.86Z"/><path class="cls-1" d="M534.33,74.56h0c1.26.61,2.33,1.14,4.34,2.13h0s0,0,0,0h0c5.71,2.8,22.13,10.86,28.09,13.78-14.59-16.23-32.55-28.95-50.44-41.35,3.78,9.71,9.07,19.59,18.01,25.44Z"/><path class="cls-1" d="M560.95,94.09c-28.46,1.52-55.76-14.78-69.95-39.15-6.24-3.06-12.2-5.99-17.68-8.69,17.99,40.68,46.92,63.95,90.73,47.67-1.03.07-2.06.12-3.09.17Z"/><path class="cls-1" d="M493.56,56.2c15.14,24.66,44.32,39.71,73.24,35.95,0,0-71.24-34.97-73.24-35.95Z"/></g></svg>