<svg width="350" height="180" xmlns="http://www.w3.org/2000/svg" xmlns:xlink="http://www.w3.org/1999/xlink" overflow="hidden"><g><rect x="0" y="0" width="1280" height="720" fill="#FFFFFF"/><rect x="142.5" y="13.5001" width="77" height="54" stroke="#000000" stroke-width="3" stroke-miterlimit="8" fill="none"/><text font-family="Cambria Math,Cambria Math_MSFontService,sans-serif" font-weight="400" font-size="24" transform="translate(169.685 49)">ğ‘ƒ</text><path d="M113.078 37.0015 132.011 37.7394 131.855 41.7363 112.922 40.9985ZM130.168 33.6645 141.926 40.1272 129.701 45.6554Z"/><path d="M219.07 37.0012 242.503 37.8181 242.364 41.8157 218.93 40.9988ZM240.644 33.7508 252.427 40.1652 240.225 45.7435Z"/><text font-family="Cambria Math,Cambria Math_MSFontService,sans-serif" font-weight="400" font-size="24" transform="translate(90.2764 48)">ğ¼</text><text font-family="Cambria Math,Cambria Math_MSFontService,sans-serif" font-weight="400" font-size="24" transform="translate(264.49 48)">ğ‘‚</text><rect x="142.5" y="120.5" width="77" height="54" stroke="#000000" stroke-width="3" stroke-miterlimit="8" fill="none"/><text font-family="Cambria Math,Cambria Math_MSFontService,sans-serif" font-weight="400" font-size="24" transform="translate(169.685 156)">ğ‘ƒ</text><path d="M111.038 145 131.645 145.393 131.569 149.392 110.962 149ZM129.722 141.355 141.606 147.583 129.494 153.353Z"/><path d="M219.07 145.001 242.503 145.818 242.364 149.816 218.93 148.999ZM240.644 141.751 252.427 148.165 240.225 153.744Z"/><text font-family="Cambria Math,Cambria Math_MSFontService,sans-serif" font-weight="400" font-size="24" transform="translate(30.0544 156)">ğ¼</text><text font-family="Cambria Math,Cambria Math_MSFontService,sans-serif" font-weight="400" font-size="24" transform="translate(45.3144 156)">+</text><text font-family="Cambria Math,Cambria Math_MSFontService,sans-serif" font-weight="400" font-size="24" transform="translate(68.6478 156)">Î”</text><text font-family="Cambria Math,Cambria Math_MSFontService,sans-serif" font-weight="400" font-size="24" transform="translate(82.9811 156)">ğ¼</text><text font-family="Cambria Math,Cambria Math_MSFontService,sans-serif" font-weight="400" font-size="24" transform="translate(92.9078 156)"></text><text font-family="Cambria Math,Cambria Math_MSFontService,sans-serif" font-weight="400" font-size="24" transform="translate(264.776 156)">ğ‘‚</text><text font-family="Cambria Math,Cambria Math_MSFontService,sans-serif" font-weight="400" font-size="24" transform="translate(286.863 156)">+</text><text font-family="Cambria Math,Cambria Math_MSFontService,sans-serif" font-weight="400" font-size="24" transform="translate(310.196 156)">Î”</text><text font-family="Cambria Math,Cambria Math_MSFontService,sans-serif" font-weight="400" font-size="24" transform="translate(324.53 156)">ğ‘‚</text><path d="M272 60.5 272 121.422 269 121.422 269 60.5001ZM275 119.922 270.5 128.922 266 119.922Z" fill="#4472C4"/><text font-family="Calibri,Calibri_MSFontService,sans-serif" font-weight="400" font-size="24" transform="translate(279.206 97)">reuse</text></g></svg>
