<svg width="24" height="24" viewBox="0 0 24 24" fill="none" xmlns="http://www.w3.org/2000/svg"><path d="M11.120 2.039 C 8.336 2.318,5.905 3.624,4.193 5.760 C 1.474 9.155,1.267 13.917,3.682 17.533 C 6.770 22.155,12.946 23.386,17.560 20.299 C 22.155 17.225,23.377 11.041,20.299 6.440 C 18.728 4.092,16.319 2.562,13.493 2.119 C 12.909 2.027,11.660 1.985,11.120 2.039 M12.726 4.040 C 14.632 4.226,16.298 5.011,17.644 6.356 C 18.666 7.378,19.371 8.595,19.724 9.942 C 20.309 12.179,19.929 14.475,18.653 16.410 C 18.512 16.625,18.383 16.800,18.367 16.800 C 18.350 16.800,18.248 16.709,18.138 16.597 C 17.178 15.615,15.257 14.849,13.081 14.581 C 10.564 14.272,7.207 15.208,5.862 16.595 C 5.752 16.708,5.650 16.800,5.633 16.800 C 5.617 16.800,5.488 16.625,5.347 16.410 C 5.065 15.982,4.692 15.267,4.533 14.848 C 3.654 12.531,3.889 9.951,5.173 7.847 C 5.838 6.757,6.814 5.792,7.925 5.126 C 9.347 4.274,11.085 3.880,12.726 4.040 M11.462 6.042 C 10.369 6.214,9.404 6.908,8.900 7.885 C 8.374 8.902,8.374 10.098,8.900 11.115 C 9.344 11.975,10.152 12.625,11.102 12.887 C 11.558 13.012,12.442 13.012,12.898 12.887 C 13.848 12.625,14.656 11.975,15.100 11.115 C 15.626 10.098,15.626 8.902,15.100 7.885 C 14.656 7.024,13.822 6.357,12.891 6.117 C 12.530 6.024,11.813 5.986,11.462 6.042 M12.520 8.099 C 12.917 8.239,13.243 8.570,13.402 8.994 C 13.533 9.343,13.503 9.814,13.329 10.169 C 13.175 10.480,12.924 10.722,12.600 10.873 C 12.414 10.960,12.322 10.976,12.000 10.977 C 11.652 10.978,11.598 10.968,11.356 10.850 C 11.055 10.704,10.819 10.470,10.653 10.154 C 10.549 9.957,10.540 9.905,10.540 9.500 C 10.540 9.097,10.549 9.042,10.650 8.851 C 10.864 8.446,11.187 8.178,11.601 8.061 C 11.859 7.989,12.254 8.006,12.520 8.099 M13.001 16.578 C 14.663 16.799,16.421 17.510,16.829 18.127 C 16.951 18.310,16.995 18.258,16.360 18.685 C 13.767 20.430,10.233 20.430,7.640 18.685 C 7.004 18.257,7.049 18.311,7.174 18.122 C 7.570 17.524,9.341 16.803,10.960 16.580 C 11.471 16.510,12.484 16.509,13.001 16.578 " fill="#C533B9" stroke="none" fill-rule="evenodd"></path></svg>