<svg width="24" height="24" viewBox="0 0 24 24" fill="none" xmlns="http://www.w3.org/2000/svg"><path d="M5.680 2.026 C 5.473 2.060,5.093 2.215,4.891 2.349 C 4.471 2.626,4.146 3.103,4.044 3.592 C 3.982 3.892,3.982 20.108,4.044 20.408 C 4.201 21.158,4.842 21.799,5.592 21.956 C 5.891 22.018,18.109 22.018,18.408 21.956 C 19.158 21.799,19.799 21.158,19.956 20.408 C 20.018 20.108,20.018 3.892,19.956 3.592 C 19.818 2.931,19.341 2.387,18.660 2.116 L 18.420 2.020 12.100 2.015 C 8.624 2.012,5.735 2.017,5.680 2.026 M7.000 8.500 L 7.000 13.000 8.500 11.875 L 10.000 10.750 11.500 11.875 L 13.000 13.000 13.000 8.500 L 13.000 4.000 15.500 4.000 L 18.000 4.000 18.000 12.000 L 18.000 20.000 12.000 20.000 L 6.000 20.000 6.000 12.000 L 6.000 4.000 6.500 4.000 L 7.000 4.000 7.000 8.500 M11.000 6.501 L 11.000 9.002 10.522 8.641 C 10.259 8.443,10.024 8.280,10.000 8.280 C 9.976 8.280,9.741 8.443,9.478 8.641 L 9.000 9.002 9.000 6.501 L 9.000 4.000 10.000 4.000 L 11.000 4.000 11.000 6.501 " fill="#C533B9" stroke="none" fill-rule="evenodd"></path></svg>