<svg width="24" height="24" viewBox="0 0 24 24" fill="none" xmlns="http://www.w3.org/2000/svg"><path d="M10.340 2.360 L 8.700 4.000 6.350 4.000 L 4.000 4.000 4.000 6.350 L 4.000 8.700 2.350 10.350 L 0.700 12.000 2.350 13.650 L 4.000 15.300 4.000 17.650 L 4.000 20.000 6.350 20.000 L 8.700 20.000 10.350 21.650 L 12.000 23.300 13.650 21.650 L 15.300 20.000 17.650 20.000 L 20.000 20.000 20.000 17.650 L 20.000 15.300 21.650 13.650 L 23.300 12.000 21.650 10.350 L 20.000 8.700 20.000 6.350 L 20.000 4.000 17.650 4.000 L 15.300 4.000 13.660 2.360 C 12.758 1.458,12.011 0.720,12.000 0.720 C 11.989 0.720,11.242 1.458,10.340 2.360 M13.260 4.760 L 14.500 6.000 16.250 6.000 L 18.000 6.000 18.000 7.750 L 18.000 9.500 19.240 10.740 L 20.480 11.980 19.240 13.220 L 18.000 14.460 18.000 16.230 L 18.000 18.000 16.230 18.000 L 14.460 18.000 13.230 19.230 L 12.000 20.460 10.770 19.230 L 9.540 18.000 7.770 18.000 L 6.000 18.000 6.000 16.230 L 6.000 14.460 4.760 13.220 L 3.520 11.980 4.760 10.740 L 6.000 9.500 6.000 7.750 L 6.000 6.000 7.750 6.000 L 9.500 6.000 10.740 4.760 C 11.422 4.078,11.989 3.520,12.000 3.520 C 12.011 3.520,12.578 4.078,13.260 4.760 M11.060 6.583 C 8.787 6.981,6.981 8.793,6.576 11.080 C 6.488 11.579,6.488 12.421,6.576 12.920 C 6.932 14.933,8.350 16.573,10.294 17.220 C 10.867 17.411,11.362 17.489,12.000 17.489 C 12.638 17.489,13.133 17.411,13.706 17.220 C 15.641 16.576,17.070 14.922,17.422 12.920 C 17.510 12.422,17.510 11.578,17.422 11.080 C 17.020 8.789,15.194 6.965,12.923 6.583 C 12.458 6.505,11.506 6.505,11.060 6.583 M12.900 8.616 C 13.191 8.696,13.731 8.949,13.990 9.126 C 14.475 9.457,14.881 9.943,15.158 10.523 C 15.413 11.059,15.460 11.287,15.460 12.000 C 15.460 12.713,15.413 12.941,15.158 13.477 C 14.950 13.913,14.711 14.244,14.386 14.549 C 13.648 15.239,12.610 15.590,11.634 15.479 C 10.667 15.370,9.724 14.825,9.178 14.059 C 8.965 13.761,8.705 13.225,8.616 12.900 C 8.517 12.541,8.496 11.690,8.575 11.305 C 8.856 9.947,9.898 8.895,11.280 8.575 C 11.588 8.504,12.585 8.529,12.900 8.616 " fill="#C533B9" stroke="none" fill-rule="evenodd"></path></svg>