<svg width="24" height="24" viewBox="0 0 24 24" fill="none" xmlns="http://www.w3.org/2000/svg"><path d="M11.120 2.039 C 8.336 2.318,5.905 3.624,4.193 5.760 C 1.474 9.155,1.267 13.917,3.682 17.533 C 6.770 22.155,12.946 23.386,17.560 20.299 C 22.155 17.225,23.377 11.041,20.299 6.440 C 18.728 4.092,16.319 2.562,13.493 2.119 C 12.909 2.027,11.660 1.985,11.120 2.039 M12.726 4.040 C 15.771 4.337,18.339 6.275,19.459 9.120 C 20.337 11.353,20.114 14.006,18.874 16.075 C 16.720 19.668,12.225 21.015,8.500 19.184 C 5.198 17.560,3.427 13.939,4.178 10.348 C 4.630 8.191,6.001 6.279,7.925 5.126 C 9.347 4.274,11.085 3.880,12.726 4.040 M13.290 10.890 L 10.000 14.180 8.710 12.890 L 7.419 11.600 6.720 12.300 L 6.020 13.000 8.020 15.000 L 10.020 17.000 14.020 13.000 L 18.019 9.000 17.320 8.300 C 16.936 7.915,16.612 7.600,16.600 7.600 C 16.589 7.600,15.099 9.080,13.290 10.890 " fill="#C533B9" stroke="none" fill-rule="evenodd"></path></svg>