<svg xmlns="http://www.w3.org/2000/svg" width="24" height="24" fill="none" viewBox="0 0 24 24"><path d="M5.800 8.037 C 5.505 8.097,5.256 8.293,5.110 8.579 C 4.994 8.807,4.998 9.199,5.118 9.440 C 5.245 9.695,11.305 15.755,11.560 15.882 C 11.691 15.947,11.811 15.972,12.000 15.972 C 12.189 15.972,12.309 15.947,12.440 15.882 C 12.695 15.755,18.755 9.695,18.882 9.440 C 19.063 9.078,18.983 8.594,18.695 8.305 C 18.406 8.017,17.922 7.937,17.560 8.118 C 17.432 8.182,16.597 8.990,14.690 10.893 L 12.000 13.579 9.310 10.893 C 7.575 9.162,6.563 8.180,6.460 8.129 C 6.270 8.036,5.994 7.997,5.800 8.037 " stroke="none" fill-rule="evenodd" fill="black"></path></svg>