<svg xmlns="http://www.w3.org/2000/svg" width="24" height="24" fill="none" viewBox="0 0 24 24"><path d="M11.280 1.043 C 9.068 1.180,6.878 2.029,5.121 3.429 C 4.632 3.819,3.819 4.632,3.429 5.121 C 2.454 6.345,1.693 7.893,1.325 9.406 C 0.922 11.056,0.922 12.944,1.325 14.594 C 1.693 16.107,2.454 17.655,3.429 18.879 C 3.819 19.368,4.632 20.181,5.121 20.571 C 6.036 21.300,7.322 22.011,8.386 22.375 C 11.203 23.340,14.216 23.150,16.860 21.842 C 18.021 21.267,18.860 20.666,19.763 19.763 C 20.666 18.860,21.267 18.021,21.842 16.860 C 22.620 15.287,22.967 13.788,22.967 12.000 C 22.967 10.212,22.620 8.713,21.842 7.140 C 21.267 5.979,20.666 5.140,19.763 4.237 C 18.859 3.332,18.018 2.730,16.860 2.160 C 15.459 1.469,14.199 1.136,12.622 1.039 C 11.963 0.999,11.996 0.998,11.280 1.043 M12.992 3.043 C 16.476 3.427,19.464 5.857,20.561 9.200 C 20.861 10.113,21.000 11.002,21.000 12.000 C 21.000 13.987,20.385 15.829,19.192 17.418 C 18.883 17.830,18.065 18.720,17.996 18.720 C 17.976 18.720,17.960 18.670,17.960 18.609 C 17.960 18.411,17.799 17.910,17.629 17.581 C 17.503 17.337,17.376 17.173,17.102 16.898 C 16.693 16.490,16.323 16.270,15.778 16.112 L 15.460 16.020 12.000 16.020 L 8.540 16.020 8.222 16.112 C 7.679 16.269,7.307 16.490,6.897 16.898 C 6.598 17.196,6.502 17.324,6.352 17.625 C 6.250 17.829,6.139 18.128,6.100 18.305 C 6.062 18.478,6.022 18.647,6.012 18.680 C 5.986 18.765,5.206 17.948,4.810 17.421 C 4.006 16.350,3.456 15.144,3.186 13.859 C 3.049 13.208,3.000 12.715,3.000 12.000 C 3.000 11.285,3.049 10.792,3.186 10.141 C 3.701 7.690,5.248 5.538,7.428 4.239 C 8.449 3.631,9.790 3.177,10.960 3.044 C 11.400 2.994,12.544 2.994,12.992 3.043 M11.579 6.042 C 9.871 6.210,8.456 7.489,8.098 9.191 C 8.012 9.600,8.012 10.400,8.098 10.809 C 8.425 12.365,9.635 13.575,11.191 13.902 C 11.600 13.988,12.400 13.988,12.809 13.902 C 14.154 13.619,15.251 12.675,15.738 11.382 C 15.900 10.951,15.967 10.546,15.967 10.000 C 15.967 9.101,15.752 8.412,15.249 7.700 C 14.418 6.523,13.036 5.899,11.579 6.042 M12.476 8.042 C 13.140 8.196,13.804 8.860,13.958 9.524 C 14.010 9.750,14.010 10.250,13.958 10.476 C 13.804 11.140,13.140 11.804,12.476 11.958 C 12.250 12.010,11.750 12.010,11.524 11.958 C 10.860 11.804,10.196 11.140,10.042 10.476 C 9.990 10.250,9.990 9.750,10.042 9.524 C 10.193 8.870,10.860 8.196,11.508 8.044 C 11.718 7.994,12.264 7.994,12.476 8.042 M15.420 18.094 C 15.657 18.204,15.845 18.405,15.936 18.646 C 15.990 18.787,16.000 18.941,15.991 19.455 L 15.980 20.091 15.620 20.250 C 13.351 21.252,10.649 21.252,8.380 20.250 L 8.020 20.091 8.009 19.455 C 8.000 18.941,8.010 18.787,8.064 18.646 C 8.155 18.405,8.343 18.204,8.580 18.094 L 8.780 18.001 12.000 18.001 L 15.220 18.001 15.420 18.094 " stroke="none" fill-rule="evenodd" fill="black"></path></svg>