<svg width="24" height="24" viewBox="0 0 24 24" fill="none" version="1.1" id="svg1" xmlns="http://www.w3.org/2000/svg" xmlns:svg="http://www.w3.org/2000/svg"><path d="M11.340 2.023 C 10.776 2.080,10.370 2.135,10.020 2.205 C 7.003 2.803,4.410 4.799,3.040 7.580 C 1.329 11.050,1.759 15.123,4.160 18.207 C 4.493 18.635,5.365 19.507,5.793 19.840 C 6.850 20.663,8.046 21.273,9.285 21.621 C 12.379 22.491,15.708 21.823,18.217 19.828 C 21.098 17.538,22.492 13.835,21.836 10.220 C 21.420 7.930,20.190 5.808,18.434 4.352 C 16.965 3.133,15.320 2.393,13.469 2.117 C 12.966 2.042,11.707 1.987,11.340 2.023 M12.700 4.041 C 15.532 4.308,17.951 5.971,19.181 8.500 C 19.796 9.764,20.077 11.223,19.965 12.570 C 19.806 14.478,19.092 16.121,17.845 17.449 C 16.599 18.776,15.066 19.590,13.220 19.906 C 12.664 20.002,11.335 20.001,10.780 19.906 C 8.085 19.444,5.920 17.826,4.777 15.420 C 3.619 12.985,3.788 10.072,5.220 7.763 C 6.788 5.234,9.744 3.764,12.700 4.041 M8.470 8.470 L 7.760 9.180 9.170 10.590 L 10.580 12.000 9.170 13.410 L 7.760 14.820 8.470 15.530 L 9.180 16.240 10.590 14.830 L 12.000 13.420 13.410 14.830 L 14.820 16.240 15.530 15.530 L 16.240 14.820 14.830 13.410 L 13.420 12.000 14.830 10.590 L 16.240 9.180 15.530 8.470 L 14.820 7.760 13.410 9.170 L 12.000 10.580 10.590 9.170 L 9.180 7.760 8.470 8.470 " fill="#c533b9" stroke="none" fill-rule="evenodd"></path></svg>