<svg width="24" height="24" viewBox="0 0 24 24" fill="none" xmlns="http://www.w3.org/2000/svg"><path d="M3.680 1.027 C 3.474 1.059,3.093 1.215,2.891 1.349 C 2.471 1.626,2.146 2.103,2.044 2.592 C 2.013 2.742,2.000 4.875,2.000 9.902 L 2.000 17.000 3.000 17.000 L 4.000 17.000 4.000 10.000 L 4.000 3.000 10.000 3.000 L 16.000 3.000 16.000 2.000 L 16.000 1.000 9.890 1.005 C 6.529 1.008,3.735 1.018,3.680 1.027 M7.680 5.026 C 7.473 5.060,7.093 5.215,6.891 5.349 C 6.471 5.626,6.146 6.103,6.044 6.592 C 5.982 6.892,5.982 21.108,6.044 21.408 C 6.201 22.158,6.842 22.799,7.592 22.956 C 7.891 23.018,19.109 23.018,19.408 22.956 C 20.158 22.799,20.799 22.158,20.956 21.408 C 21.018 21.108,21.018 6.892,20.956 6.592 C 20.818 5.931,20.341 5.387,19.660 5.116 L 19.420 5.020 13.600 5.015 C 10.399 5.012,7.735 5.017,7.680 5.026 M19.000 14.000 L 19.000 21.000 13.500 21.000 L 8.000 21.000 8.000 14.000 L 8.000 7.000 13.500 7.000 L 19.000 7.000 19.000 14.000 " fill="#C533B9" stroke="none" fill-rule="evenodd"></path></svg>