<svg width="18" height="18" fill="none" viewBox="3 3 18 19" xmlns="http://www.w3.org/2000/svg">
<path d="M19.3 6.65C19.3 7.97548 16.0765 9.05 12.1 9.05C8.12357 9.05 4.90002 7.97548 4.90002 6.65M19.3 6.65C19.3 5.32452 16.0765 4.25 12.1 4.25C8.12357 4.25 4.90002 5.32452 4.90002 6.65M19.3 6.65V10.75M4.90002 6.65L4.90002 17.85C4.89952 18.3689 5.40364 18.874 6.33682 19.2894C7.27 19.7047 8.58196 20.0081 10.076 20.154M4.90003 12.25C4.89887 12.6973 5.27278 13.1358 5.97957 13.5161C6.68636 13.8964 8.79798 14.2032 10.0001 14.402" stroke="#393C41" stroke-width="1.6" stroke-linecap="round" stroke-linejoin="round"/>
<path d="M19 14.25L13 20.25M19 20.25L13 14.25" stroke="#393C41" stroke-width="1.6" stroke-linecap="round" stroke-linejoin="round"/>
</svg>
