<svg width="24" height="24" viewBox="0 0 24 24" fill="none" xmlns="http://www.w3.org/2000/svg"><path d="M9.000 3.500 L 8.501 4.000 6.751 4.000 L 5.000 4.000 5.000 5.000 L 5.000 6.000 12.000 6.000 L 19.000 6.000 19.000 5.000 L 19.000 4.000 17.249 4.000 L 15.499 4.000 15.000 3.500 L 14.501 3.000 12.000 3.000 L 9.499 3.000 9.000 3.500 M6.000 13.098 C 6.000 17.395,6.013 19.259,6.044 19.408 C 6.201 20.158,6.842 20.799,7.592 20.956 C 7.889 21.018,16.111 21.018,16.408 20.956 C 17.158 20.799,17.799 20.158,17.956 19.408 C 17.987 19.259,18.000 17.395,18.000 13.098 L 18.000 7.000 12.000 7.000 L 6.000 7.000 6.000 13.098 M16.000 14.000 L 16.000 19.000 12.000 19.000 L 8.000 19.000 8.000 14.000 L 8.000 9.000 12.000 9.000 L 16.000 9.000 16.000 14.000 " fill="#C533B9" stroke="none" fill-rule="evenodd"></path></svg>