<svg width="24" height="24" viewBox="0 0 24 24" fill="none" xmlns="http://www.w3.org/2000/svg"><path d="M17.400 3.035 C 17.163 3.113,17.011 3.244,16.100 4.157 L 15.140 5.120 17.010 6.990 L 18.880 8.860 19.859 7.881 C 20.954 6.787,21.022 6.690,20.992 6.283 C 20.983 6.160,20.942 5.988,20.901 5.900 C 20.797 5.675,18.363 3.239,18.123 3.119 C 17.933 3.025,17.563 2.981,17.400 3.035 M8.530 11.730 L 3.000 17.260 3.000 19.130 L 3.000 21.000 4.870 21.000 L 6.740 21.000 12.270 15.470 L 17.800 9.940 15.930 8.070 L 14.060 6.200 8.530 11.730 M14.537 9.477 L 14.973 9.915 10.460 14.457 L 5.947 19.000 5.473 19.000 L 5.000 19.000 5.000 18.550 L 5.000 18.100 9.530 13.570 C 12.021 11.079,14.069 9.040,14.081 9.040 C 14.092 9.040,14.298 9.237,14.537 9.477 " fill="#C533B9" stroke="none" fill-rule="evenodd"></path></svg>