<svg width="24" height="24" viewBox="0 0 24 24" fill="none" xmlns="http://www.w3.org/2000/svg"><path d="M11.440 2.024 C 10.623 2.120,10.069 2.246,9.519 2.458 C 6.793 3.511,5.002 6.105,5.002 9.000 C 5.002 11.184,6.054 13.284,7.803 14.590 L 8.000 14.737 8.000 15.941 C 8.000 17.322,8.016 17.419,8.299 17.701 C 8.610 18.013,8.456 18.000,12.000 18.000 C 15.544 18.000,15.390 18.013,15.701 17.701 C 15.984 17.419,16.000 17.322,16.000 15.941 L 16.000 14.737 16.197 14.590 C 17.456 13.650,18.398 12.240,18.783 10.718 C 19.787 6.742,17.183 2.776,13.120 2.095 C 12.780 2.038,11.704 1.992,11.440 2.024 M12.601 4.042 C 13.369 4.136,14.154 4.432,14.824 4.881 C 15.229 5.152,15.848 5.771,16.119 6.176 C 17.332 7.987,17.275 10.281,15.975 12.013 C 15.637 12.464,15.248 12.819,14.567 13.300 L 14.000 13.699 14.000 14.850 L 14.000 16.000 12.000 16.000 L 10.000 16.000 10.000 14.850 L 10.000 13.699 9.433 13.300 C 9.122 13.080,8.734 12.776,8.572 12.625 C 7.443 11.571,6.853 9.940,7.042 8.399 C 7.136 7.631,7.432 6.846,7.881 6.176 C 8.152 5.771,8.771 5.152,9.176 4.881 C 10.209 4.190,11.409 3.895,12.601 4.042 M9.000 20.573 C 9.000 21.259,9.052 21.454,9.299 21.701 C 9.601 22.003,9.573 22.000,12.000 22.000 C 14.427 22.000,14.399 22.003,14.701 21.701 C 14.948 21.454,15.000 21.259,15.000 20.573 L 15.000 20.000 12.000 20.000 L 9.000 20.000 9.000 20.573 " fill="#C533B9" stroke="none" fill-rule="evenodd"></path></svg>