<svg width="24" height="24" viewBox="0 0 24 24" fill="none" xmlns="http://www.w3.org/2000/svg"><path d="M11.340 1.046 C 10.340 1.173,9.304 1.674,8.550 2.395 C 7.645 3.259,7.101 4.411,7.013 5.647 L 6.988 6.000 7.989 6.000 L 8.990 6.000 9.017 5.727 C 9.142 4.450,10.059 3.395,11.320 3.076 C 11.606 3.004,12.394 3.004,12.680 3.076 C 13.610 3.311,14.394 3.976,14.759 4.840 C 14.963 5.323,14.971 5.390,14.989 6.729 L 15.007 7.998 10.293 8.009 L 5.580 8.020 5.340 8.116 C 4.659 8.387,4.182 8.931,4.044 9.592 C 3.982 9.890,3.982 20.110,4.044 20.408 C 4.201 21.158,4.842 21.799,5.592 21.956 C 5.891 22.018,18.109 22.018,18.408 21.956 C 19.158 21.799,19.799 21.158,19.956 20.408 C 20.018 20.110,20.018 9.890,19.956 9.592 C 19.818 8.929,19.333 8.378,18.660 8.119 C 18.451 8.039,18.329 8.024,17.714 8.009 L 17.007 7.991 16.990 6.626 C 16.973 5.308,16.969 5.246,16.866 4.848 C 16.735 4.337,16.529 3.832,16.292 3.440 C 15.258 1.731,13.320 0.793,11.340 1.046 M18.000 15.000 L 18.000 20.000 12.000 20.000 L 6.000 20.000 6.000 15.000 L 6.000 10.000 12.000 10.000 L 18.000 10.000 18.000 15.000 M11.680 13.024 C 11.625 13.034,11.472 13.080,11.340 13.127 C 9.948 13.613,9.552 15.359,10.596 16.404 C 11.393 17.200,12.607 17.200,13.404 16.404 C 14.449 15.358,14.061 13.641,12.662 13.123 C 12.428 13.037,11.900 12.983,11.680 13.024 " fill="#C533B9" stroke="none" fill-rule="evenodd"></path></svg>