<svg xmlns="http://www.w3.org/2000/svg" width="24" height="24" fill="none" viewBox="0 0 24 24"><path d="M11.323 1.045 C 8.759 1.352,6.660 3.268,6.142 5.776 C 6.037 6.284,6.002 6.970,6.001 8.524 L 6.000 9.988 5.250 10.012 C 4.387 10.040,4.105 10.101,3.581 10.371 C 3.337 10.497,3.173 10.624,2.898 10.898 C 2.490 11.307,2.270 11.677,2.112 12.222 L 2.020 12.540 2.020 16.500 L 2.020 20.460 2.112 20.778 C 2.270 21.323,2.490 21.693,2.898 22.102 C 3.307 22.510,3.677 22.730,4.222 22.888 L 4.540 22.980 12.000 22.980 L 19.460 22.980 19.778 22.888 C 20.323 22.730,20.693 22.510,21.102 22.102 C 21.510 21.693,21.730 21.323,21.888 20.778 L 21.980 20.460 21.980 16.500 L 21.980 12.540 21.888 12.222 C 21.730 11.677,21.510 11.307,21.102 10.898 C 20.701 10.498,20.337 10.279,19.799 10.114 L 19.500 10.022 13.748 10.010 L 7.995 9.997 8.009 8.129 L 8.023 6.260 8.134 5.900 C 8.361 5.164,8.725 4.587,9.299 4.050 C 9.714 3.663,10.165 3.389,10.670 3.217 C 11.164 3.048,11.506 2.994,12.060 2.995 C 12.915 2.997,13.672 3.250,14.359 3.763 C 15.150 4.355,15.668 5.129,15.896 6.061 C 15.984 6.423,16.099 6.625,16.309 6.784 C 16.792 7.153,17.493 6.989,17.770 6.443 C 17.910 6.166,17.912 5.941,17.780 5.446 C 17.332 3.773,16.149 2.351,14.583 1.601 C 14.100 1.369,13.546 1.188,13.058 1.103 C 12.598 1.022,11.754 0.994,11.323 1.045 M19.420 12.095 C 19.660 12.209,19.807 12.358,19.917 12.600 C 19.997 12.777,19.998 12.843,19.998 16.500 C 19.998 20.157,19.997 20.223,19.917 20.400 C 19.807 20.642,19.660 20.791,19.420 20.905 L 19.220 20.999 12.000 20.999 L 4.780 20.999 4.580 20.905 C 4.340 20.791,4.193 20.642,4.083 20.400 C 4.003 20.223,4.002 20.157,4.002 16.500 C 4.002 12.843,4.003 12.777,4.083 12.600 C 4.193 12.358,4.340 12.209,4.580 12.095 L 4.780 12.001 12.000 12.001 L 19.220 12.001 19.420 12.095 " stroke="none" fill-rule="evenodd" fill="black"></path></svg>