<svg xmlns="http://www.w3.org/2000/svg" width="24" height="24" fill="none" viewBox="0 0 24 24"><path d="M3.800 5.037 C 3.338 5.131,3.028 5.517,3.028 6.000 C 3.028 6.398,3.213 6.698,3.579 6.894 L 3.740 6.980 12.000 6.980 L 20.260 6.980 20.421 6.894 C 20.787 6.698,20.972 6.398,20.972 6.000 C 20.972 5.602,20.787 5.302,20.421 5.106 L 20.260 5.020 12.100 5.014 C 7.612 5.011,3.877 5.021,3.800 5.037 M3.800 11.037 C 3.338 11.131,3.028 11.517,3.028 12.000 C 3.028 12.398,3.213 12.698,3.579 12.894 L 3.740 12.980 12.000 12.980 L 20.260 12.980 20.421 12.894 C 20.787 12.698,20.972 12.398,20.972 12.000 C 20.972 11.602,20.787 11.302,20.421 11.106 L 20.260 11.020 12.100 11.014 C 7.612 11.011,3.877 11.021,3.800 11.037 M3.800 17.037 C 3.338 17.131,3.028 17.517,3.028 18.000 C 3.028 18.398,3.213 18.698,3.579 18.894 L 3.740 18.980 12.000 18.980 L 20.260 18.980 20.421 18.894 C 20.787 18.698,20.972 18.398,20.972 18.000 C 20.972 17.602,20.787 17.302,20.421 17.106 L 20.260 17.020 12.100 17.014 C 7.612 17.011,3.877 17.021,3.800 17.037 " stroke="none" fill-rule="evenodd" fill="black"></path></svg>