<svg xmlns="http://www.w3.org/2000/svg" width="24" height="24" fill="none" viewBox="0 0 24 24"><path d="M11.320 2.039 C 9.285 2.179,7.323 2.948,5.720 4.233 C 3.755 5.807,2.436 8.170,2.097 10.720 C 2.008 11.388,2.008 12.612,2.097 13.280 C 2.340 15.107,3.082 16.844,4.233 18.280 C 5.802 20.238,8.155 21.556,10.700 21.902 C 11.342 21.989,12.653 21.989,13.300 21.901 C 15.117 21.656,16.857 20.910,18.279 19.768 C 20.237 18.194,21.569 15.819,21.897 13.318 C 21.930 13.065,21.962 12.615,21.968 12.318 C 21.977 11.844,21.968 11.759,21.895 11.600 C 21.723 11.228,21.410 11.028,21.000 11.028 C 20.668 11.028,20.517 11.104,20.100 11.480 C 19.298 12.201,18.396 12.635,17.300 12.826 C 16.764 12.919,15.794 12.882,15.260 12.746 C 14.174 12.472,13.335 11.987,12.591 11.205 C 11.920 10.499,11.506 9.737,11.254 8.740 C 11.118 8.206,11.081 7.236,11.174 6.700 C 11.365 5.603,11.808 4.682,12.521 3.900 C 12.875 3.512,12.974 3.308,12.972 2.978 C 12.970 2.709,12.880 2.491,12.695 2.305 C 12.429 2.040,12.136 1.983,11.320 2.039 M9.842 4.356 C 9.726 4.573,9.502 5.191,9.399 5.580 C 9.011 7.041,9.052 8.439,9.524 9.860 C 10.348 12.340,12.449 14.195,15.025 14.716 C 16.147 14.944,17.274 14.905,18.420 14.601 C 18.810 14.497,19.427 14.274,19.645 14.157 C 19.715 14.120,19.720 14.126,19.696 14.228 C 19.580 14.723,19.089 15.797,18.731 16.340 C 17.469 18.253,15.573 19.503,13.320 19.905 C 12.683 20.019,11.233 20.011,10.600 19.890 C 7.883 19.373,5.664 17.596,4.619 15.100 C 4.214 14.134,4.043 13.330,4.011 12.256 C 3.972 10.929,4.175 9.888,4.707 8.697 C 5.479 6.969,6.965 5.480,8.689 4.711 C 9.069 4.541,9.767 4.283,9.851 4.281 C 9.869 4.280,9.864 4.314,9.842 4.356 " stroke="none" fill-rule="evenodd" fill="black"></path></svg>