<svg width="24" height="24" viewBox="0 0 24 24" fill="none" xmlns="http://www.w3.org/2000/svg"><path d="M5.680 10.024 C 5.625 10.034,5.472 10.080,5.340 10.127 C 3.948 10.613,3.552 12.359,4.596 13.404 C 5.393 14.200,6.607 14.200,7.404 13.404 C 8.449 12.358,8.061 10.641,6.662 10.123 C 6.428 10.037,5.900 9.983,5.680 10.024 M11.680 10.024 C 11.625 10.034,11.472 10.080,11.340 10.127 C 9.948 10.613,9.552 12.359,10.596 13.404 C 11.393 14.200,12.607 14.200,13.404 13.404 C 14.449 12.358,14.061 10.641,12.662 10.123 C 12.428 10.037,11.900 9.983,11.680 10.024 M17.680 10.024 C 17.625 10.034,17.472 10.080,17.340 10.127 C 15.948 10.613,15.552 12.359,16.596 13.404 C 17.393 14.200,18.607 14.200,19.404 13.404 C 20.449 12.358,20.061 10.641,18.662 10.123 C 18.428 10.037,17.900 9.983,17.680 10.024 " fill="#C533B9" stroke="none" fill-rule="evenodd"></path></svg>