<svg xmlns="http://www.w3.org/2000/svg" width="24" height="24" fill="none" viewBox="0 0 24 24"><path d="M6.661 3.045 C 5.856 3.162,5.160 3.873,5.042 4.700 C 4.987 5.083,4.987 18.917,5.042 19.300 C 5.163 20.146,5.854 20.837,6.700 20.958 C 7.063 21.010,8.937 21.010,9.300 20.958 C 10.146 20.837,10.837 20.146,10.958 19.300 C 11.013 18.917,11.013 5.083,10.958 4.700 C 10.837 3.854,10.146 3.163,9.300 3.042 C 8.963 2.993,6.997 2.996,6.661 3.045 M14.661 3.045 C 13.856 3.162,13.160 3.873,13.042 4.700 C 12.987 5.083,12.987 18.917,13.042 19.300 C 13.163 20.146,13.854 20.837,14.700 20.958 C 15.063 21.010,16.937 21.010,17.300 20.958 C 18.146 20.837,18.837 20.146,18.958 19.300 C 19.013 18.917,19.013 5.083,18.958 4.700 C 18.837 3.854,18.146 3.163,17.300 3.042 C 16.963 2.993,14.997 2.996,14.661 3.045 M9.000 12.000 L 9.000 19.000 8.000 19.000 L 7.000 19.000 7.000 12.000 L 7.000 5.000 8.000 5.000 L 9.000 5.000 9.000 12.000 M17.000 12.000 L 17.000 19.000 16.000 19.000 L 15.000 19.000 15.000 12.000 L 15.000 5.000 16.000 5.000 L 17.000 5.000 17.000 12.000 " stroke="none" fill-rule="evenodd" fill="black"></path></svg>