<svg width="24" height="24" viewBox="0 0 24 24" fill="none" xmlns="http://www.w3.org/2000/svg"><path d="M11.540 4.024 C 9.847 4.275,8.576 5.378,8.132 6.983 C 8.034 7.337,8.022 7.447,8.022 8.000 C 8.022 8.551,8.034 8.663,8.130 9.011 C 8.526 10.439,9.561 11.474,10.989 11.870 C 11.337 11.966,11.449 11.978,12.000 11.978 C 12.553 11.978,12.663 11.966,13.017 11.868 C 14.256 11.525,15.252 10.643,15.715 9.480 C 16.400 7.758,15.790 5.745,14.269 4.712 C 13.917 4.473,13.343 4.214,12.958 4.120 C 12.630 4.040,11.809 3.984,11.540 4.024 M12.662 6.124 C 13.248 6.342,13.651 6.744,13.881 7.340 C 13.957 7.536,13.974 7.657,13.974 8.000 C 13.974 8.343,13.957 8.464,13.881 8.660 C 13.684 9.172,13.315 9.584,12.866 9.796 C 11.777 10.309,10.562 9.807,10.119 8.660 C 9.985 8.315,9.986 7.684,10.119 7.340 C 10.290 6.901,10.539 6.581,10.893 6.347 C 11.089 6.217,11.462 6.065,11.680 6.024 C 11.901 5.983,12.428 6.037,12.662 6.124 M11.120 14.044 C 9.840 14.156,8.233 14.521,7.149 14.945 C 6.594 15.162,5.945 15.488,5.520 15.763 C 5.013 16.090,4.426 16.682,4.251 17.041 C 4.020 17.515,4.000 17.662,4.000 18.888 L 4.000 20.000 12.003 20.000 L 20.005 20.000 19.992 18.790 C 19.979 17.586,19.978 17.579,19.871 17.311 C 19.356 16.017,17.474 14.920,14.780 14.342 C 13.368 14.039,12.233 13.947,11.120 14.044 M12.820 16.043 C 13.394 16.093,14.057 16.203,14.636 16.344 C 16.093 16.698,17.673 17.433,17.932 17.876 L 18.005 18.000 12.001 18.000 C 6.107 18.000,5.998 17.999,6.038 17.924 C 6.149 17.717,6.558 17.426,7.140 17.141 C 8.853 16.300,11.007 15.884,12.820 16.043 " fill="#C533B9" stroke="none" fill-rule="evenodd"></path></svg>