<svg width="24" height="24" viewBox="0 0 24 24" fill="none" xmlns="http://www.w3.org/2000/svg"><path d="M8.000 12.005 C 8.000 17.603,8.010 19.002,8.050 18.971 C 8.078 18.950,10.544 17.379,13.531 15.480 C 16.518 13.580,18.957 12.012,18.951 11.995 C 18.945 11.977,16.645 10.503,13.840 8.719 C 11.035 6.934,8.574 5.367,8.370 5.237 L 8.000 5.000 8.000 12.005 M13.074 10.600 C 14.265 11.359,15.240 11.989,15.240 12.000 C 15.240 12.016,10.734 14.906,10.113 15.289 L 10.000 15.359 10.000 12.000 L 10.000 8.642 10.454 8.931 C 10.704 9.090,11.882 9.841,13.074 10.600 " fill="#C533B9" stroke="none" fill-rule="evenodd"></path></svg>