<svg xmlns="http://www.w3.org/2000/svg" width="24" height="24" fill="none" viewBox="0 0 24 24"><path d="M11.800 4.037 C 11.507 4.097,11.262 4.289,11.106 4.579 C 11.020 4.739,11.020 4.755,11.009 7.869 L 10.997 10.997 7.869 11.009 C 4.755 11.020,4.739 11.020,4.579 11.106 C 4.213 11.302,4.028 11.602,4.028 12.000 C 4.028 12.398,4.213 12.698,4.579 12.894 C 4.739 12.980,4.755 12.980,7.869 12.991 L 10.997 13.003 11.009 16.131 C 11.020 19.245,11.020 19.261,11.106 19.421 C 11.302 19.787,11.602 19.972,12.000 19.972 C 12.398 19.972,12.698 19.787,12.894 19.421 C 12.980 19.261,12.980 19.245,12.991 16.131 L 13.003 13.003 16.131 12.991 C 19.245 12.980,19.261 12.980,19.421 12.894 C 19.787 12.698,19.972 12.398,19.972 12.000 C 19.972 11.602,19.787 11.302,19.421 11.106 C 19.261 11.020,19.245 11.020,16.131 11.009 L 13.003 10.997 12.991 7.869 C 12.980 4.755,12.980 4.739,12.894 4.579 C 12.672 4.165,12.234 3.948,11.800 4.037 " stroke="none" fill-rule="evenodd" fill="black"></path></svg>