<svg xmlns="http://www.w3.org/2000/svg" width="24" height="24" fill="none" viewBox="0 0 24 24"><path d="M21.160 1.039 C 18.594 1.180,16.245 1.978,14.080 3.445 C 12.863 4.270,11.779 5.302,10.865 6.505 L 10.591 6.867 10.365 6.815 C 9.893 6.704,9.157 6.601,8.570 6.562 C 7.193 6.470,6.121 6.701,5.341 7.258 C 4.668 7.738,4.035 8.691,3.563 9.933 C 3.243 10.773,2.982 11.846,3.026 12.134 C 3.076 12.461,3.271 12.729,3.579 12.894 C 3.738 12.979,3.772 12.980,6.162 12.992 L 8.584 13.003 9.791 14.212 L 10.997 15.420 11.009 17.840 C 11.020 20.229,11.021 20.262,11.106 20.421 C 11.271 20.729,11.539 20.924,11.866 20.974 C 12.172 21.021,13.291 20.740,14.161 20.398 C 16.087 19.640,17.044 18.696,17.339 17.261 C 17.533 16.315,17.488 15.186,17.193 13.646 C 17.152 13.430,17.153 13.387,17.202 13.360 C 17.325 13.291,17.920 12.808,18.348 12.431 C 20.518 10.515,22.019 7.980,22.640 5.180 C 22.848 4.244,22.953 3.336,22.968 2.340 C 22.978 1.679,22.946 1.557,22.695 1.305 C 22.420 1.031,22.154 0.985,21.160 1.039 M20.959 3.150 C 20.955 3.683,20.689 4.972,20.402 5.840 C 19.597 8.282,18.062 10.315,15.820 11.909 C 15.039 12.464,13.489 13.316,12.533 13.717 L 12.260 13.831 11.214 12.790 L 10.169 11.749 10.366 11.305 C 10.793 10.345,11.463 9.139,12.072 8.233 C 13.717 5.785,16.237 4.031,19.125 3.323 C 19.661 3.192,20.507 3.050,20.790 3.044 C 20.950 3.040,20.960 3.047,20.959 3.150 M9.200 8.602 C 9.343 8.629,9.465 8.654,9.470 8.659 C 9.476 8.663,9.379 8.855,9.254 9.084 C 9.026 9.503,8.434 10.743,8.382 10.910 L 8.355 11.000 6.818 11.000 L 5.282 11.000 5.385 10.710 C 5.543 10.263,5.860 9.618,6.057 9.342 C 6.271 9.043,6.458 8.872,6.711 8.746 C 6.876 8.664,6.987 8.629,7.340 8.543 C 7.488 8.508,8.937 8.553,9.200 8.602 M15.374 14.690 C 15.517 15.495,15.512 16.605,15.364 17.040 C 15.252 17.367,15.064 17.628,14.770 17.862 C 14.518 18.063,13.746 18.456,13.290 18.616 L 13.000 18.718 13.000 17.185 L 13.000 15.651 13.210 15.570 C 13.521 15.451,14.445 15.010,14.880 14.773 C 15.089 14.660,15.280 14.565,15.306 14.563 C 15.331 14.561,15.361 14.618,15.374 14.690 M5.300 15.060 C 3.691 15.363,2.610 16.803,1.878 19.620 C 1.667 20.433,1.507 21.328,1.529 21.578 C 1.557 21.918,1.765 22.238,2.054 22.387 C 2.353 22.542,3.089 22.457,4.380 22.121 C 7.089 21.415,8.496 20.409,8.909 18.880 C 8.997 18.552,9.007 17.646,8.925 17.320 C 8.847 17.008,8.632 16.555,8.423 16.262 C 7.747 15.315,6.499 14.834,5.300 15.060 M6.284 17.042 C 6.697 17.151,7.014 17.599,7.018 18.077 C 7.025 18.925,6.169 19.556,4.271 20.103 C 4.005 20.179,3.782 20.235,3.773 20.227 C 3.749 20.203,4.024 19.279,4.182 18.853 C 4.487 18.032,4.904 17.386,5.268 17.173 C 5.617 16.969,5.882 16.934,6.284 17.042 " stroke="none" fill-rule="evenodd" fill="black"></path></svg>