<svg xmlns="http://www.w3.org/2000/svg" width="24" height="24" fill="none" viewBox="0 0 24 24"><path d="M4.640 2.039 C 3.966 2.111,3.412 2.385,2.898 2.898 C 2.490 3.307,2.270 3.677,2.112 4.222 L 2.020 4.540 2.020 12.000 L 2.020 19.460 2.112 19.778 C 2.270 20.323,2.490 20.693,2.898 21.102 C 3.307 21.510,3.677 21.730,4.222 21.888 L 4.540 21.980 12.000 21.980 L 19.460 21.980 19.778 21.888 C 20.323 21.730,20.693 21.510,21.102 21.102 C 21.510 20.693,21.730 20.323,21.888 19.778 L 21.980 19.460 21.980 13.620 L 21.980 7.780 21.888 7.580 C 21.814 7.417,21.314 6.898,19.208 4.792 C 17.102 2.686,16.583 2.186,16.420 2.112 L 16.220 2.020 10.560 2.015 C 7.447 2.013,4.783 2.023,4.640 2.039 M6.008 6.130 C 6.020 8.221,6.022 8.263,6.106 8.421 C 6.215 8.625,6.375 8.785,6.579 8.894 L 6.740 8.980 11.000 8.980 L 15.260 8.980 15.421 8.894 C 15.787 8.698,15.972 8.398,15.972 8.000 C 15.972 7.602,15.787 7.302,15.421 7.106 C 15.260 7.020,15.257 7.020,11.630 7.009 L 8.000 6.998 8.000 5.499 L 8.000 4.000 11.790 4.000 L 15.580 4.000 17.790 6.210 L 20.000 8.420 19.999 13.820 C 19.998 19.166,19.997 19.222,19.917 19.400 C 19.807 19.642,19.660 19.791,19.420 19.905 C 19.237 19.991,19.168 19.999,18.611 20.000 L 18.002 20.000 17.991 16.370 C 17.980 12.743,17.980 12.740,17.894 12.579 C 17.785 12.375,17.625 12.215,17.421 12.106 L 17.260 12.020 12.000 12.020 L 6.740 12.020 6.579 12.106 C 6.375 12.215,6.215 12.375,6.106 12.579 C 6.020 12.740,6.020 12.743,6.009 16.370 L 5.998 20.000 5.389 19.999 C 4.863 19.998,4.755 19.987,4.600 19.917 C 4.358 19.807,4.209 19.660,4.095 19.420 L 4.001 19.220 4.001 12.000 C 4.002 4.822,4.002 4.779,4.083 4.600 C 4.193 4.358,4.340 4.209,4.580 4.095 C 4.763 4.009,4.832 4.001,5.388 4.000 L 5.996 4.000 6.008 6.130 M16.000 17.000 L 16.000 20.000 12.000 20.000 L 8.000 20.000 8.000 17.000 L 8.000 14.000 12.000 14.000 L 16.000 14.000 16.000 17.000 " stroke="none" fill-rule="evenodd" fill="black"></path></svg>