<svg width="24" height="24" viewBox="0 0 24 24" fill="none" xmlns="http://www.w3.org/2000/svg"><path d="M3.643 1.069 C 3.546 1.103,3.392 1.206,3.300 1.298 C 2.998 1.600,3.000 1.580,3.000 3.927 L 3.000 6.000 2.000 6.000 L 1.000 6.000 1.000 11.142 C 1.000 16.962,0.982 16.605,1.319 17.301 C 1.621 17.927,2.211 18.496,2.813 18.743 L 3.000 18.820 3.000 20.910 L 3.000 23.000 4.000 23.000 L 5.000 23.000 5.000 20.910 L 5.000 18.820 5.187 18.743 C 5.496 18.616,5.939 18.295,6.213 17.999 C 6.492 17.698,6.734 17.274,6.886 16.820 L 6.980 16.540 6.991 11.270 L 7.002 6.000 6.001 6.000 L 5.000 6.000 5.000 3.927 C 5.000 1.581,5.002 1.600,4.701 1.299 C 4.424 1.021,4.024 0.934,3.643 1.069 M11.643 1.069 C 11.546 1.103,11.392 1.206,11.300 1.298 C 10.998 1.600,11.000 1.580,11.000 3.927 L 11.000 6.000 10.000 6.000 L 9.000 6.000 9.000 11.142 C 9.000 16.962,8.982 16.605,9.319 17.301 C 9.621 17.927,10.211 18.496,10.813 18.743 L 11.000 18.820 11.000 20.910 L 11.000 23.000 12.000 23.000 L 13.000 23.000 13.000 20.910 L 13.000 18.820 13.187 18.743 C 13.496 18.616,13.939 18.295,14.213 17.999 C 14.492 17.698,14.734 17.274,14.886 16.820 L 14.980 16.540 14.991 11.270 L 15.002 6.000 14.001 6.000 L 13.000 6.000 13.000 3.927 C 13.000 1.581,13.002 1.600,12.701 1.299 C 12.424 1.021,12.024 0.934,11.643 1.069 M19.643 1.069 C 19.546 1.103,19.392 1.206,19.300 1.298 C 18.998 1.600,19.000 1.580,19.000 3.927 L 19.000 6.000 18.000 6.000 L 17.000 6.000 17.000 11.142 C 17.000 16.962,16.982 16.605,17.319 17.301 C 17.621 17.927,18.211 18.496,18.813 18.743 L 19.000 18.820 19.000 20.910 L 19.000 23.000 20.000 23.000 L 21.000 23.000 21.000 20.910 L 21.000 18.820 21.187 18.743 C 21.496 18.616,21.939 18.295,22.213 17.999 C 22.492 17.698,22.734 17.274,22.886 16.820 L 22.980 16.540 22.991 11.270 L 23.002 6.000 22.001 6.000 L 21.000 6.000 21.000 3.927 C 21.000 1.581,21.002 1.600,20.701 1.299 C 20.424 1.021,20.024 0.934,19.643 1.069 M5.000 10.000 L 5.000 12.000 4.000 12.000 L 3.000 12.000 3.000 10.000 L 3.000 8.000 4.000 8.000 L 5.000 8.000 5.000 10.000 M13.000 10.000 L 13.000 12.000 12.000 12.000 L 11.000 12.000 11.000 10.000 L 11.000 8.000 12.000 8.000 L 13.000 8.000 13.000 10.000 M21.000 10.000 L 21.000 12.000 20.000 12.000 L 19.000 12.000 19.000 10.000 L 19.000 8.000 20.000 8.000 L 21.000 8.000 21.000 10.000 M5.000 15.053 C 5.000 16.289,4.975 16.427,4.705 16.697 C 4.310 17.092,3.692 17.094,3.299 16.701 C 3.021 16.423,3.000 16.308,3.000 15.073 L 3.000 14.000 4.000 14.000 L 5.000 14.000 5.000 15.053 M13.000 15.053 C 13.000 16.289,12.975 16.427,12.705 16.697 C 12.310 17.092,11.692 17.094,11.299 16.701 C 11.021 16.423,11.000 16.308,11.000 15.073 L 11.000 14.000 12.000 14.000 L 13.000 14.000 13.000 15.053 M21.000 15.053 C 21.000 16.289,20.975 16.427,20.705 16.697 C 20.310 17.092,19.692 17.094,19.299 16.701 C 19.021 16.423,19.000 16.308,19.000 15.073 L 19.000 14.000 20.000 14.000 L 21.000 14.000 21.000 15.053 " fill="#C533B9" stroke="none" fill-rule="evenodd"></path></svg>