<svg width="24" height="24" viewBox="0 0 24 24" fill="none" xmlns="http://www.w3.org/2000/svg"><path d="M9.768 2.067 C 9.695 2.103,9.609 2.183,9.577 2.246 C 9.545 2.308,9.438 2.922,9.339 3.610 C 9.241 4.297,9.151 4.907,9.138 4.964 C 9.120 5.048,9.040 5.106,8.697 5.276 C 8.467 5.390,8.089 5.611,7.857 5.765 L 7.437 6.047 6.178 5.543 C 5.348 5.211,4.869 5.040,4.770 5.040 C 4.471 5.040,4.448 5.071,3.330 7.009 C 2.190 8.985,2.176 9.017,2.363 9.255 C 2.409 9.313,2.922 9.732,3.502 10.186 L 4.558 11.011 4.529 11.376 C 4.492 11.836,4.492 12.164,4.529 12.625 L 4.558 12.989 3.509 13.810 C 2.932 14.262,2.424 14.671,2.380 14.720 C 2.322 14.785,2.300 14.864,2.301 15.014 C 2.301 15.210,2.351 15.306,3.332 17.000 C 3.899 17.979,4.410 18.819,4.467 18.866 C 4.685 19.046,4.719 19.038,6.123 18.478 L 7.432 17.956 7.846 18.234 C 8.074 18.387,8.453 18.607,8.689 18.724 C 9.037 18.897,9.121 18.956,9.138 19.038 C 9.150 19.094,9.240 19.703,9.339 20.392 C 9.443 21.110,9.546 21.695,9.582 21.765 C 9.704 21.999,9.714 22.000,12.000 22.000 C 14.288 22.000,14.296 21.999,14.418 21.763 C 14.456 21.691,14.556 21.119,14.662 20.370 C 14.761 19.672,14.850 19.063,14.860 19.018 C 14.872 18.960,15.011 18.869,15.329 18.711 C 15.577 18.586,15.957 18.366,16.174 18.220 L 16.568 17.955 17.834 18.462 C 19.167 18.996,19.319 19.036,19.508 18.895 C 19.564 18.853,20.075 18.017,20.654 17.020 C 21.648 15.307,21.698 15.210,21.699 15.014 C 21.700 14.864,21.679 14.785,21.620 14.720 C 21.576 14.671,21.066 14.261,20.488 13.809 L 19.435 12.986 19.465 12.723 C 19.502 12.385,19.502 11.615,19.465 11.278 L 19.435 11.016 20.488 10.193 C 21.066 9.740,21.576 9.330,21.620 9.281 C 21.678 9.216,21.700 9.136,21.699 8.986 C 21.698 8.790,21.647 8.692,20.659 6.985 C 19.553 5.073,19.529 5.040,19.230 5.040 C 19.131 5.040,18.653 5.211,17.824 5.542 L 16.568 6.045 16.174 5.780 C 15.957 5.634,15.577 5.414,15.329 5.289 C 15.011 5.131,14.872 5.040,14.860 4.982 C 14.850 4.937,14.761 4.328,14.662 3.630 C 14.563 2.931,14.455 2.308,14.423 2.245 C 14.296 1.999,14.300 2.000,11.994 2.001 C 10.142 2.002,9.885 2.009,9.768 2.067 M12.698 4.090 C 12.709 4.139,12.782 4.657,12.861 5.240 C 12.941 5.823,13.018 6.342,13.034 6.394 C 13.057 6.470,13.173 6.534,13.637 6.724 C 14.625 7.130,14.941 7.313,15.792 7.976 L 16.237 8.322 17.376 7.861 C 18.002 7.607,18.529 7.400,18.548 7.400 C 18.566 7.400,18.737 7.669,18.926 7.997 L 19.272 8.594 18.296 9.363 C 17.745 9.797,17.320 10.160,17.320 10.196 C 17.321 10.231,17.357 10.547,17.400 10.898 C 17.501 11.704,17.501 12.296,17.400 13.102 C 17.357 13.453,17.321 13.769,17.320 13.805 C 17.320 13.842,17.734 14.194,18.298 14.636 L 19.276 15.402 18.937 15.988 C 18.751 16.311,18.592 16.581,18.584 16.589 C 18.576 16.597,18.051 16.397,17.418 16.143 L 16.267 15.682 15.804 16.035 C 14.896 16.727,14.590 16.903,13.619 17.296 L 13.059 17.523 12.880 18.761 L 12.702 20.000 12.001 20.000 L 11.300 20.000 11.128 18.771 C 11.025 18.035,10.937 17.530,10.908 17.512 C 10.882 17.496,10.608 17.381,10.300 17.256 C 9.384 16.885,9.075 16.705,8.227 16.049 L 7.754 15.683 7.547 15.765 C 7.433 15.810,6.920 16.016,6.407 16.223 C 5.895 16.430,5.460 16.600,5.441 16.600 C 5.422 16.600,5.286 16.389,5.139 16.130 C 4.991 15.871,4.837 15.604,4.796 15.536 L 4.721 15.412 5.684 14.660 C 6.213 14.247,6.655 13.886,6.666 13.858 C 6.677 13.830,6.648 13.504,6.603 13.134 C 6.499 12.290,6.498 11.710,6.600 10.898 C 6.643 10.547,6.679 10.231,6.680 10.195 C 6.680 10.158,6.272 9.812,5.720 9.382 C 5.192 8.970,4.753 8.621,4.745 8.606 C 4.732 8.586,5.365 7.462,5.419 7.408 C 5.426 7.401,5.949 7.603,6.582 7.858 L 7.733 8.320 8.257 7.926 C 9.160 7.244,9.384 7.115,10.341 6.724 L 10.941 6.478 11.120 5.239 L 11.298 4.000 11.988 4.000 C 12.672 4.000,12.679 4.001,12.698 4.090 M11.540 8.024 C 9.847 8.275,8.576 9.378,8.132 10.983 C 8.034 11.337,8.022 11.447,8.022 12.000 C 8.022 12.551,8.034 12.663,8.130 13.011 C 8.526 14.439,9.561 15.474,10.989 15.870 C 11.337 15.966,11.449 15.978,12.000 15.978 C 12.553 15.978,12.663 15.966,13.017 15.868 C 14.256 15.525,15.252 14.643,15.715 13.480 C 16.400 11.758,15.790 9.745,14.269 8.712 C 13.917 8.473,13.343 8.214,12.958 8.120 C 12.630 8.040,11.809 7.984,11.540 8.024 M12.662 10.124 C 13.248 10.342,13.651 10.744,13.881 11.340 C 13.957 11.536,13.974 11.657,13.974 12.000 C 13.974 12.343,13.957 12.464,13.881 12.660 C 13.438 13.807,12.223 14.309,11.134 13.796 C 10.685 13.584,10.316 13.172,10.119 12.660 C 9.985 12.315,9.986 11.684,10.119 11.340 C 10.290 10.901,10.539 10.581,10.893 10.347 C 11.089 10.217,11.462 10.065,11.680 10.024 C 11.901 9.983,12.428 10.037,12.662 10.124 " fill="#C533B9" stroke="none" fill-rule="evenodd"></path></svg>