<svg xmlns="http://www.w3.org/2000/svg" width="24" height="24" fill="none" viewBox="0 0 24 24"><path d="M4.640 2.038 C 3.966 2.111,3.412 2.385,2.898 2.898 C 2.490 3.307,2.270 3.677,2.112 4.222 L 2.020 4.540 2.020 12.000 L 2.020 19.460 2.112 19.778 C 2.270 20.323,2.490 20.693,2.898 21.102 C 3.307 21.510,3.677 21.730,4.222 21.888 L 4.540 21.980 12.000 21.980 L 19.460 21.980 19.778 21.888 C 20.323 21.730,20.693 21.510,21.102 21.102 C 21.510 20.693,21.730 20.323,21.888 19.778 L 21.980 19.460 21.980 12.000 L 21.980 4.540 21.888 4.222 C 21.730 3.677,21.510 3.307,21.102 2.898 C 20.701 2.498,20.338 2.279,19.799 2.113 L 19.500 2.021 12.200 2.016 C 8.185 2.013,4.783 2.023,4.640 2.038 M19.420 4.095 C 19.660 4.209,19.807 4.358,19.917 4.600 C 19.998 4.779,19.998 4.822,19.998 12.000 C 19.998 19.178,19.998 19.221,19.917 19.400 C 19.807 19.642,19.660 19.791,19.420 19.905 L 19.220 19.999 12.000 19.999 C 4.822 19.998,4.779 19.998,4.600 19.917 C 4.358 19.807,4.209 19.660,4.095 19.420 L 4.001 19.220 4.001 12.000 C 4.002 4.822,4.002 4.779,4.083 4.600 C 4.193 4.358,4.340 4.209,4.580 4.095 L 4.780 4.001 12.000 4.001 L 19.220 4.001 19.420 4.095 " stroke="none" fill-rule="evenodd" fill="black"></path></svg>