<svg xmlns="http://www.w3.org/2000/svg" width="24" height="24" fill="none" viewBox="0 0 24 24"><path d="M11.800 1.037 C 11.507 1.097,11.262 1.289,11.106 1.579 C 11.023 1.734,11.020 1.787,11.020 3.000 C 11.020 4.213,11.023 4.266,11.106 4.421 C 11.302 4.787,11.602 4.972,12.000 4.972 C 12.398 4.972,12.698 4.787,12.894 4.421 C 12.977 4.266,12.980 4.213,12.980 3.000 C 12.980 1.787,12.977 1.734,12.894 1.579 C 12.672 1.165,12.234 0.948,11.800 1.037 M4.499 4.044 C 4.134 4.237,3.959 4.522,3.961 4.924 C 3.962 5.347,4.030 5.446,4.932 6.345 C 5.376 6.787,5.801 7.181,5.876 7.219 C 6.058 7.312,6.417 7.340,6.640 7.280 C 6.887 7.214,7.214 6.887,7.280 6.640 C 7.340 6.417,7.312 6.058,7.219 5.876 C 7.104 5.651,5.569 4.137,5.360 4.043 C 5.110 3.930,4.714 3.931,4.499 4.044 M18.640 4.041 C 18.430 4.138,16.894 5.654,16.781 5.876 C 16.688 6.058,16.660 6.417,16.720 6.640 C 16.786 6.887,17.113 7.214,17.360 7.280 C 17.582 7.340,17.942 7.312,18.124 7.219 C 18.199 7.181,18.631 6.779,19.084 6.325 C 20.020 5.389,20.061 5.326,20.034 4.852 C 20.015 4.525,19.880 4.290,19.599 4.101 C 19.446 3.998,19.377 3.979,19.120 3.969 C 18.883 3.960,18.782 3.975,18.640 4.041 M11.530 7.044 C 9.435 7.231,7.643 8.776,7.159 10.813 C 6.555 13.357,7.970 15.905,10.447 16.737 C 11.368 17.046,12.632 17.046,13.553 16.737 C 14.956 16.266,16.055 15.238,16.617 13.871 C 17.092 12.717,17.092 11.283,16.617 10.129 C 15.773 8.077,13.744 6.846,11.530 7.044 M12.940 9.137 C 13.494 9.324,13.973 9.660,14.337 10.116 C 14.613 10.461,14.730 10.670,14.866 11.060 C 14.970 11.357,14.978 11.425,14.978 12.000 C 14.978 12.575,14.970 12.643,14.866 12.940 C 14.730 13.330,14.613 13.539,14.337 13.884 C 13.975 14.337,13.500 14.671,12.940 14.866 C 12.643 14.970,12.575 14.978,12.000 14.978 C 11.425 14.978,11.357 14.970,11.060 14.866 C 10.670 14.730,10.461 14.613,10.116 14.337 C 9.428 13.787,9.049 13.048,9.010 12.177 C 8.966 11.229,9.233 10.527,9.880 9.880 C 10.524 9.235,11.153 8.990,12.100 9.015 C 12.537 9.026,12.671 9.045,12.940 9.137 M1.800 11.036 C 1.335 11.135,1.028 11.518,1.028 12.000 C 1.028 12.398,1.213 12.698,1.579 12.894 C 1.734 12.977,1.787 12.980,3.000 12.980 C 4.213 12.980,4.266 12.977,4.421 12.894 C 4.787 12.698,4.972 12.398,4.972 12.000 C 4.972 11.602,4.787 11.302,4.421 11.106 C 4.268 11.024,4.203 11.020,3.100 11.013 C 2.462 11.009,1.877 11.019,1.800 11.036 M19.800 11.036 C 19.335 11.135,19.028 11.518,19.028 12.000 C 19.028 12.398,19.213 12.698,19.579 12.894 C 19.734 12.977,19.787 12.980,21.000 12.980 C 22.213 12.980,22.266 12.977,22.421 12.894 C 22.787 12.698,22.972 12.398,22.972 12.000 C 22.972 11.602,22.787 11.302,22.421 11.106 C 22.268 11.024,22.203 11.020,21.100 11.013 C 20.462 11.009,19.877 11.019,19.800 11.036 M5.992 16.736 C 5.787 16.810,5.566 17.004,4.777 17.806 C 3.996 18.600,3.940 18.691,3.966 19.148 C 3.985 19.476,4.121 19.710,4.401 19.898 C 4.546 19.996,4.631 20.021,4.852 20.034 C 5.326 20.061,5.389 20.020,6.325 19.084 C 6.779 18.631,7.181 18.199,7.219 18.124 C 7.312 17.942,7.340 17.582,7.280 17.360 C 7.217 17.125,6.887 16.787,6.660 16.725 C 6.449 16.666,6.175 16.671,5.992 16.736 M17.300 16.738 C 17.078 16.820,16.779 17.142,16.719 17.364 C 16.660 17.583,16.689 17.943,16.781 18.124 C 16.819 18.199,17.221 18.631,17.675 19.084 C 18.617 20.026,18.679 20.065,19.155 20.031 C 19.373 20.015,19.468 19.987,19.605 19.895 C 19.876 19.712,20.007 19.485,20.031 19.155 C 20.065 18.679,20.026 18.617,19.084 17.675 C 18.631 17.221,18.197 16.818,18.120 16.779 C 17.933 16.684,17.505 16.662,17.300 16.738 M11.800 19.037 C 11.507 19.097,11.262 19.289,11.106 19.579 C 11.023 19.734,11.020 19.787,11.020 21.000 C 11.020 22.213,11.023 22.266,11.106 22.421 C 11.302 22.787,11.602 22.972,12.000 22.972 C 12.398 22.972,12.698 22.787,12.894 22.421 C 12.977 22.266,12.980 22.213,12.980 21.000 C 12.980 19.787,12.977 19.734,12.894 19.579 C 12.672 19.165,12.234 18.948,11.800 19.037 " stroke="none" fill-rule="evenodd" fill="black"></path></svg>