<svg width="24" height="24" viewBox="0 0 24 24" fill="none" xmlns="http://www.w3.org/2000/svg"><path d="M4.680 3.027 C 4.474 3.059,4.093 3.215,3.891 3.349 C 3.471 3.626,3.146 4.103,3.044 4.592 C 2.982 4.892,2.982 19.108,3.044 19.408 C 3.201 20.158,3.842 20.799,4.592 20.956 C 4.892 21.018,19.108 21.018,19.408 20.956 C 20.158 20.799,20.799 20.158,20.956 19.408 C 20.987 19.260,20.999 17.752,20.998 14.388 C 20.995 9.032,21.009 9.302,20.722 8.829 C 20.628 8.674,19.772 7.792,17.943 5.967 C 15.512 3.541,15.279 3.320,15.040 3.208 C 14.897 3.141,14.673 3.067,14.543 3.043 C 14.318 3.002,4.933 2.987,4.680 3.027 M16.590 7.410 L 19.000 9.820 19.000 14.410 L 19.000 19.000 12.000 19.000 L 5.000 19.000 5.000 12.000 L 5.000 5.000 9.590 5.000 L 14.180 5.000 16.590 7.410 M7.000 8.000 L 7.000 9.000 10.500 9.000 L 14.000 9.000 14.000 8.000 L 14.000 7.000 10.500 7.000 L 7.000 7.000 7.000 8.000 M7.000 12.000 L 7.000 13.000 12.000 13.000 L 17.000 13.000 17.000 12.000 L 17.000 11.000 12.000 11.000 L 7.000 11.000 7.000 12.000 M7.000 16.000 L 7.000 17.000 12.000 17.000 L 17.000 17.000 17.000 16.000 L 17.000 15.000 12.000 15.000 L 7.000 15.000 7.000 16.000 " fill="#C533B9" stroke="none" fill-rule="evenodd"></path></svg>