<svg xmlns="http://www.w3.org/2000/svg" width="24" height="24" fill="none" viewBox="0 0 24 24"><path d="M9.629 1.045 C 8.620 1.175,7.599 2.012,7.206 3.031 C 7.061 3.407,7.000 3.843,7.000 4.507 L 7.000 4.996 4.870 5.008 C 2.779 5.020,2.737 5.022,2.579 5.106 C 2.213 5.302,2.028 5.602,2.028 6.000 C 2.028 6.399,2.216 6.703,2.579 6.892 C 2.717 6.963,2.831 6.977,3.370 6.992 L 4.000 7.010 4.000 13.496 C 4.000 17.795,4.014 20.095,4.042 20.318 C 4.207 21.632,5.368 22.793,6.682 22.958 C 7.144 23.016,16.856 23.016,17.318 22.958 C 18.632 22.793,19.793 21.632,19.958 20.318 C 19.986 20.095,20.000 17.795,20.000 13.496 L 20.000 7.010 20.630 6.992 C 21.169 6.977,21.283 6.963,21.421 6.892 C 21.784 6.703,21.972 6.399,21.972 6.000 C 21.972 5.602,21.787 5.302,21.421 5.106 C 21.263 5.022,21.221 5.020,19.130 5.008 L 17.000 4.996 17.000 4.507 C 17.000 4.238,16.981 3.867,16.958 3.682 C 16.793 2.368,15.632 1.207,14.318 1.042 C 13.914 0.992,10.026 0.994,9.629 1.045 M14.343 3.082 C 14.544 3.179,14.862 3.506,14.942 3.700 C 14.984 3.798,15.000 4.003,15.000 4.419 L 15.000 5.000 12.000 5.000 L 9.000 5.000 9.000 4.419 C 9.000 3.746,9.025 3.658,9.301 3.364 C 9.659 2.980,9.511 3.000,11.997 3.000 C 14.108 3.000,14.180 3.003,14.343 3.082 M18.000 13.587 C 18.000 20.138,18.000 20.176,17.918 20.343 C 17.821 20.544,17.494 20.862,17.300 20.942 C 17.183 20.992,16.402 21.000,11.994 21.000 C 6.872 21.000,6.824 20.999,6.657 20.918 C 6.456 20.821,6.138 20.494,6.058 20.300 C 6.008 20.182,6.000 19.219,6.000 13.581 L 6.000 7.000 12.000 7.000 L 18.000 7.000 18.000 13.587 M9.800 10.037 C 9.507 10.097,9.262 10.289,9.106 10.579 C 9.020 10.740,9.020 10.741,9.020 14.000 C 9.020 17.259,9.020 17.260,9.106 17.421 C 9.302 17.787,9.602 17.972,10.000 17.972 C 10.398 17.972,10.698 17.787,10.894 17.421 C 10.980 17.260,10.980 17.259,10.980 14.000 C 10.980 10.741,10.980 10.740,10.894 10.579 C 10.672 10.165,10.234 9.948,9.800 10.037 M13.800 10.037 C 13.507 10.097,13.262 10.289,13.106 10.579 C 13.020 10.740,13.020 10.741,13.020 14.000 C 13.020 17.259,13.020 17.260,13.106 17.421 C 13.302 17.787,13.602 17.972,14.000 17.972 C 14.398 17.972,14.698 17.787,14.894 17.421 C 14.980 17.260,14.980 17.259,14.980 14.000 C 14.980 10.741,14.980 10.740,14.894 10.579 C 14.672 10.165,14.234 9.948,13.800 10.037 " stroke="none" fill-rule="evenodd" fill="black"></path></svg>