<svg xmlns="http://www.w3.org/2000/svg" width="24" height="24" fill="none" viewBox="0 0 24 24"><path d="M11.419 2.056 C 11.087 2.119,10.723 2.261,10.414 2.446 C 10.123 2.621,9.692 3.043,9.503 3.338 C 9.181 3.841,1.297 17.673,1.212 17.885 C 0.940 18.557,0.935 19.387,1.199 20.088 C 1.376 20.560,1.839 21.150,2.258 21.439 C 2.541 21.634,2.986 21.831,3.316 21.909 C 3.603 21.976,4.096 21.980,12.000 21.980 C 18.655 21.980,20.425 21.969,20.600 21.929 C 21.658 21.683,22.492 20.944,22.820 19.961 C 23.018 19.364,23.014 18.591,22.808 18.011 C 22.732 17.797,21.431 15.483,18.642 10.600 C 16.411 6.695,14.518 3.399,14.436 3.276 C 14.194 2.915,13.759 2.543,13.344 2.339 C 13.144 2.241,12.872 2.132,12.740 2.098 C 12.408 2.010,11.763 1.990,11.419 2.056 M12.270 4.021 C 12.694 4.147,12.496 3.825,16.844 11.440 C 19.049 15.301,20.885 18.532,20.925 18.620 C 21.143 19.097,20.895 19.691,20.380 19.925 C 20.227 19.995,19.868 19.998,11.990 19.999 C 3.788 20.000,3.759 20.000,3.586 19.918 C 3.371 19.817,3.180 19.635,3.068 19.422 C 2.948 19.194,2.952 18.805,3.079 18.560 C 3.240 18.248,11.000 4.670,11.142 4.452 C 11.324 4.174,11.657 3.980,11.983 3.964 C 12.028 3.962,12.157 3.987,12.270 4.021 M11.800 8.037 C 11.507 8.097,11.262 8.289,11.106 8.579 C 11.021 8.738,11.020 8.764,11.020 11.000 C 11.020 13.236,11.021 13.262,11.106 13.421 C 11.302 13.787,11.602 13.972,12.000 13.972 C 12.398 13.972,12.698 13.787,12.894 13.421 C 12.979 13.262,12.980 13.236,12.980 11.000 C 12.980 8.764,12.979 8.738,12.894 8.579 C 12.672 8.165,12.234 7.948,11.800 8.037 M11.800 16.037 C 11.044 16.192,10.759 17.148,11.305 17.695 C 11.582 17.971,12.075 18.061,12.420 17.897 C 12.749 17.741,13.000 17.353,13.000 17.000 C 13.000 16.654,12.748 16.256,12.438 16.113 C 12.265 16.033,11.983 16.000,11.800 16.037 " stroke="none" fill-rule="evenodd" fill="black"></path></svg>