<svg width="24" height="24" viewBox="0 0 24 24" fill="none" xmlns="http://www.w3.org/2000/svg"><path d="M6.492 11.510 L 1.011 20.980 6.506 20.990 C 9.528 20.996,14.473 20.996,17.495 20.990 L 22.990 20.980 17.507 11.510 C 14.491 6.301,12.013 2.040,11.999 2.040 C 11.985 2.040,9.507 6.301,6.492 11.510 M15.777 12.520 L 19.516 18.980 15.758 18.990 C 13.691 18.996,10.309 18.996,8.242 18.990 L 4.483 18.980 8.229 12.509 C 10.289 8.950,11.989 6.043,12.006 6.049 C 12.024 6.055,13.721 8.967,15.777 12.520 M11.000 12.000 L 11.000 14.000 12.000 14.000 L 13.000 14.000 13.000 12.000 L 13.000 10.000 12.000 10.000 L 11.000 10.000 11.000 12.000 M11.000 17.000 L 11.000 18.000 12.000 18.000 L 13.000 18.000 13.000 17.000 L 13.000 16.000 12.000 16.000 L 11.000 16.000 11.000 17.000 " fill="#C533B9" stroke="none" fill-rule="evenodd"></path></svg>