<svg width="24" height="24" viewBox="0 0 24 24" fill="none" xmlns="http://www.w3.org/2000/svg"><path d="M6.011 6.410 C 6.024 9.738,6.027 9.829,6.111 10.191 C 6.247 10.773,6.424 11.259,6.684 11.761 C 6.989 12.352,7.325 12.797,7.846 13.302 C 8.697 14.127,9.615 14.607,10.890 14.897 L 11.000 14.922 11.000 16.961 L 11.000 19.000 9.500 19.000 L 8.000 19.000 8.000 20.000 L 8.000 21.000 12.000 21.000 L 16.000 21.000 16.000 20.000 L 16.000 19.000 14.500 19.000 L 13.000 19.000 13.000 16.961 L 13.000 14.922 13.110 14.897 C 14.385 14.607,15.303 14.127,16.154 13.302 C 16.675 12.797,17.011 12.352,17.316 11.761 C 17.576 11.259,17.753 10.773,17.889 10.191 C 17.973 9.829,17.976 9.738,17.989 6.410 L 18.004 3.000 12.000 3.000 L 5.996 3.000 6.011 6.410 M16.000 6.500 L 16.000 8.000 12.000 8.000 L 8.000 8.000 8.000 6.500 L 8.000 5.000 12.000 5.000 L 16.000 5.000 16.000 6.500 M15.839 10.050 C 15.835 10.179,15.555 10.821,15.379 11.104 C 15.148 11.476,14.641 12.017,14.294 12.266 C 13.957 12.506,13.372 12.774,12.940 12.885 C 12.424 13.018,11.576 13.018,11.060 12.885 C 10.626 12.774,10.042 12.506,9.706 12.265 C 9.367 12.022,8.889 11.519,8.658 11.162 C 8.462 10.859,8.233 10.362,8.182 10.129 L 8.154 10.000 11.997 10.000 C 15.045 10.000,15.840 10.010,15.839 10.050 " fill="#C533B9" stroke="none" fill-rule="evenodd"></path></svg>