<?xml version="1.0" encoding="UTF-8"?><svg id="Layer_2" xmlns="http://www.w3.org/2000/svg" viewBox="0 0 654 285.15"><defs><style>.cls-1{fill:#dc85d5;}.cls-2{fill:#c533b9;}.cls-3{fill:#c42339;}.cls-4{fill:#fff;}.cls-5{fill:#fcaf4f;}.cls-6{fill:#d95c41;}</style></defs><g id="Full_color"><path class="cls-4" d="M626.91,89.82c-16.92-6.09-35.29-8.36-53.37-7.03-2.82.21-5.62.63-8.38,1.26,1.45,3.32,2.83,6.72,4.23,10.33-19.73,8.46-35.89,8.98-49.13,4.79-1.76.65-3.47,1.44-5.08,2.4-11.34,6.72-19.76,19.24-33.07,22.27-9.21,1.86-17.74-3.3-26.71-4.38-15.09-2.51-31.53.22-44.54,7.11,4.82,2.47,9.34,5.44,13.47,8.9,9.07-5.37,19.79-7.77,30.5-6.54-8.84,2.24-16.93,6.93-23.26,13.49,4.2,4.61,7.77,9.75,10.67,15.33,11.99-12.94,23.25-22.15,37.94-29.44,62.58-30.38,114.94,26.31,146.17-29.18,1.44-2.6,2.64-5.38,3.5-8.21-.36-.13-1.35-.54-2.94-1.1ZM604.16,101.99c-7.46,1.46-9.81-9.58-2.45-11.32,7.48-1.51,9.88,9.6,2.45,11.32Z"/><path class="cls-5" d="M639.31,58.11h0s-.01,0-.01,0c-2.59,5.62-5.86,11.06-9.79,15.96,0,0-16.07,3.5-16.12,3.46-2.46-.47-4.93-.9-7.41-1.25,3.77-3.07,6.94-6.8,9.62-10.81h.02s.01-.02.02-.01c6.84-2.35,14.69-4.82,23.67-7.36Z"/><path class="cls-1" d="M629.51,74.08h-.01c-1.59,2.01-3.47,4.06-5.42,5.92,2.8.74,5.57,1.56,8.31,2.45l7.45-10.57h0s-10.32,2.19-10.34,2.2Z"/><path class="cls-2" d="M627.47,31.39c-1.46,11.94-5.09,23.93-11.85,34.06h.01s-.02.02-.02.03c-9.86,3.38-17.66,6.53-23.76,9.31-3.75-.24-7.52-.36-11.28-.36,7.74-9.05,21.85-23.29,46.9-43.04Z"/><path class="cls-3" d="M615.6,65.48c-2.68,4.01-5.85,7.74-9.62,10.81-4.68-.71-9.4-1.2-14.13-1.5,6.1-2.78,13.89-5.92,23.75-9.31Z"/><path class="cls-4" d="M15.4,155.99c0-22.22,9.9-32.56,33.22-32.56,3.08,0,9.68.22,15.84,2.2v17.6c-5.06-1.98-10.34-2.2-14.74-2.2-9.46,0-14.52,5.5-14.52,16.06v23.54h29.26v15.4h-29.26v86.9H15.4v-126.95h0Z"/><path class="cls-4" d="M71.49,230.58c0-33.88,23.1-52.14,52.58-52.14,32.78,0,49.5,28.82,49.5,55.22,0,3.3-.22,3.52-.22,5.5h-81.63c0,12.98,12.1,28.38,31.02,28.38,16.94,0,25.08-8.14,33.34-19.8l16.5,7.7c-9.14,18.92-25.86,29.7-49.62,29.7-31.9,0-51.48-24.64-51.48-54.56h0ZM153.77,223.76c-2.42-16.72-13.86-27.72-32.12-27.72-16.06,0-30.36,11.66-30.36,27.72h62.48Z"/><path class="cls-4" d="M187.17,253.68V125.63h19.8v121.67c0,11.22,4.18,18.04,13.42,18.04,4.4,0,8.58-.66,13.64-2.2v19.8c-6.16,1.98-9.46,2.2-13.2,2.2-20.9,0-33.66-9.02-33.66-31.46Z"/><path class="cls-4" d="M242.02,232.34c0-30.8,19.14-53.9,44.22-53.9,15.84,0,28.16,9.02,34.54,20.9v-73.7h19.8v157.31h-19.8l-.22-18.7c-5.94,12.32-18.82,20.9-34.44,20.9-25.3,0-44.1-22.22-44.1-52.8h0ZM320.78,234.54v-6.16c-.88-21.34-13.2-32.34-29.04-32.34-17.82,0-29.92,14.3-29.92,36.08s12.2,35.42,29.82,35.42c16.5,0,28.28-11.66,29.16-33h-.02Z"/><path class="cls-4" d="M354.94,230.58c0-33.88,23.1-52.14,52.58-52.14,32.78,0,49.5,28.82,49.5,55.22,0,3.3-.22,3.52-.22,5.5h-81.62c0,12.98,12.1,28.38,31.02,28.38,16.94,0,25.08-8.14,33.34-19.8l16.5,7.7c-9.14,18.92-25.86,29.7-49.62,29.7-31.9,0-51.48-24.64-51.48-54.56ZM437.24,223.76c-2.42-16.72-13.86-27.72-32.12-27.72-16.06,0-30.36,11.66-30.36,27.72h62.48,0Z"/><path class="cls-4" d="M471.02,180.64h20.02v18.7c3.96-14.52,14.3-20.9,29.7-20.9,11,0,18.26,2.42,22,7.26l-3.3,19.8c-4.18-6.82-11.66-9.46-20.68-9.46-16.72,0-27.94,10.78-27.94,27.28v59.62h-19.8v-102.31h0Z"/><path class="cls-4" d="M547.08,254.34c0-25.08,16.5-31.17,40.04-34.54,15.4-2.2,32.56-1.76,32.56-12.1,0-8.36-10.78-11.66-20.46-11.66-11.88,0-22.22,4.84-25.52,15.4l-17.6-7.7c3.08-16.72,19.14-25.3,42.02-25.3,20.46,0,41.36,6.82,41.36,36.74v40.26c0,6.82.88,12.1,7.04,12.1,2.64,0,5.94-.66,7.48-1.32v16.72c-4.62,1.98-8.36,2.2-11,2.2-14.52,0-22.88-7.7-23.1-18.92-6.38,14.96-21.34,18.92-34.98,18.92-21.12,0-37.84-12.32-37.84-30.8h0ZM619.9,245.54v-19.58c-5.72,8.36-23.32,10.1-31.46,11.44-13.42,2.2-21.56,4.84-21.56,13.86,0,11.22,9.02,16.28,20.24,16.28,19.36,0,32.78-14.08,32.78-22h0Z"/><path class="cls-4" d="M0,196.04v-15.4h15.4c0,8.51-6.89,15.4-15.4,15.4Z"/><path class="cls-6" d="M613.39,77.54l16.12-3.46h-.01c-1.59,2.01-3.47,4.06-5.42,5.92-3.53-.94-7.1-1.75-10.69-2.46h0Z"/><path class="cls-5" d="M533.92,76.99s0,0,0,0c-8.7-5.52-14.93-16.17-19.12-28.01-9.89-6.66-21.47-14.04-35.04-22.12,2.44,10.54,6.43,20.46,11.75,29.31,0,0,0,0,0,0,13.45,6.61,28.22,13.86,42.39,20.82Z"/><path class="cls-2" d="M569.39,94.39c-10.03-25.81-18.98-40.95-60.69-94.39-1.93,9.37-.38,30.6,6.11,48.98,44.52,29.98,54.58,45.41,54.58,45.41Z"/><path class="cls-3" d="M514.81,48.98c4.18,11.84,10.42,22.49,19.12,28.01.03,0,.05.02.07.04.22.1.43.21.64.31.7.34,1.93.95,3.54,1.74.05.03.11.05.16.08,11.17,5.48,21.84,10.71,31.05,15.23,0,0-10.06-15.43-54.58-45.41Z"/><path class="cls-1" d="M491.53,56.16c-7.03-3.45-13.7-6.73-19.74-9.7,13.24,30.24,40.38,72.45,97.6,47.92-34.3,4.84-62.02-11.91-77.86-38.22Z"/><path class="cls-6" d="M538.34,79.16c-.05-.03-.11-.05-.16-.08-1.61-.79-2.84-1.39-3.54-1.74-.21-.1-.42-.21-.64-.31-.02-.02-.04-.03-.07-.04,0,0,0,0,0,0-14.17-6.96-28.94-14.21-42.39-20.82,0,0,0,0,0,0,15.84,26.31,43.56,43.06,77.86,38.22-9.21-4.52-19.88-9.75-31.05-15.23Z"/></g></svg>