<?xml version="1.0" encoding="UTF-8"?><svg id="Layer_2" xmlns="http://www.w3.org/2000/svg" viewBox="0 0 228.99 157.75"><defs><style>.cls-1{fill:#360e3b;}.cls-2{fill:#dc85d5;}.cls-3{fill:#c533b9;}.cls-4{fill:#c42339;}.cls-5{fill:#fcaf4f;}.cls-6{fill:#d95c41;}</style></defs><g id="Full_color"><path class="cls-1" d="M216.05,89.82c-16.92-6.09-35.29-8.36-53.37-7.03-2.82.21-5.62.63-8.38,1.26,1.45,3.32,2.83,6.72,4.23,10.33-19.73,8.46-35.89,8.98-49.13,4.79-1.76.65-3.47,1.44-5.08,2.4-11.34,6.72-19.76,19.24-33.07,22.27-9.21,1.86-17.74-3.3-26.71-4.38-15.09-2.51-31.53.22-44.54,7.11,4.82,2.47,9.34,5.44,13.47,8.9,9.07-5.37,19.79-7.77,30.5-6.54-8.84,2.24-16.93,6.93-23.26,13.49,4.2,4.61,7.77,9.75,10.67,15.33,11.99-12.94,23.25-22.15,37.94-29.44,62.58-30.38,114.94,26.31,146.17-29.18,1.44-2.6,2.64-5.38,3.5-8.21-.36-.13-1.35-.54-2.94-1.1ZM193.3,101.99c-7.46,1.46-9.81-9.58-2.45-11.32,7.48-1.51,9.88,9.6,2.45,11.32Z"/><path class="cls-5" d="M228.45,58.11h0s-.01,0-.01,0c-2.59,5.62-5.86,11.06-9.79,15.96,0,0-16.07,3.5-16.12,3.46-2.46-.47-4.93-.9-7.41-1.25,3.77-3.07,6.94-6.8,9.62-10.81h.02s.01-.02.02-.01c6.84-2.35,14.69-4.82,23.67-7.36Z"/><path class="cls-2" d="M218.65,74.08h-.01c-1.59,2.01-3.47,4.06-5.42,5.92,2.8.74,5.57,1.56,8.31,2.45l7.45-10.57h0s-10.32,2.19-10.34,2.2Z"/><path class="cls-3" d="M216.61,31.39c-1.46,11.94-5.09,23.93-11.85,34.06h.01s-.02.02-.02.03c-9.86,3.38-17.66,6.53-23.76,9.31-3.75-.24-7.52-.36-11.28-.36,7.74-9.05,21.85-23.29,46.9-43.04Z"/><path class="cls-4" d="M204.74,65.48c-2.68,4.01-5.85,7.74-9.62,10.81-4.68-.71-9.4-1.2-14.13-1.5,6.1-2.78,13.89-5.92,23.75-9.31Z"/><path class="cls-6" d="M202.53,77.54l16.12-3.46h-.01c-1.59,2.01-3.47,4.06-5.42,5.92-3.53-.94-7.1-1.75-10.69-2.46h0Z"/><path class="cls-5" d="M123.06,76.99s0,0,0,0c-8.7-5.52-14.93-16.17-19.12-28.01-9.89-6.66-21.47-14.04-35.04-22.12,2.44,10.54,6.43,20.46,11.75,29.31,0,0,0,0,0,0,13.45,6.61,28.22,13.86,42.39,20.82Z"/><path class="cls-3" d="M158.53,94.39c-10.03-25.81-18.98-40.95-60.69-94.39-1.93,9.37-.38,30.6,6.11,48.98,44.52,29.98,54.58,45.41,54.58,45.41Z"/><path class="cls-4" d="M103.95,48.98c4.18,11.84,10.42,22.49,19.12,28.01.03,0,.05.02.07.04.22.1.43.21.64.31.7.34,1.93.95,3.54,1.74.05.03.11.05.16.08,11.17,5.48,21.84,10.71,31.05,15.23,0,0-10.06-15.43-54.58-45.41Z"/><path class="cls-2" d="M80.67,56.16c-7.03-3.45-13.7-6.73-19.74-9.7,13.24,30.24,40.38,72.45,97.6,47.92-34.3,4.84-62.02-11.91-77.86-38.22Z"/><path class="cls-6" d="M127.48,79.16c-.05-.03-.11-.05-.16-.08-1.61-.79-2.84-1.39-3.54-1.74-.21-.1-.42-.21-.64-.31-.02-.02-.04-.03-.07-.04,0,0,0,0,0,0-14.17-6.96-28.94-14.21-42.39-20.82,0,0,0,0,0,0,15.84,26.31,43.56,43.06,77.86,38.22-9.21-4.52-19.88-9.75-31.05-15.23Z"/></g></svg>
