<svg id="Layer_1" data-name="Layer 1" xmlns="http://www.w3.org/2000/svg" viewBox="0 0 533.03 144.88"><defs><style>.cls-1{fill:#4b4fff;}</style></defs><path class="cls-1" d="M108.66,12.25v24h-71a1.43,1.43,0,0,0-1.42,1.42V71.25a1.15,1.15,0,0,0,.35.84h0a1.19,1.19,0,0,0,.84.35h22.7A12.33,12.33,0,0,1,72.44,84.77v23.89h-35a1.15,1.15,0,0,0-.84.35h0a1.14,1.14,0,0,0-.35.83v35H0V121a12.33,12.33,0,0,1,12.33-12.33H35a1.19,1.19,0,0,0,.84-.35h0a1.19,1.19,0,0,0,.35-.84V73.63a1.19,1.19,0,0,0-.35-.84h0a1.15,1.15,0,0,0-.84-.35H12.15A12.15,12.15,0,0,1,0,60.29V0H96.41A12.25,12.25,0,0,1,108.66,12.25Zm44.08,129.37a36.75,36.75,0,0,0,13.49-9.77l-12.09-12.1a20.41,20.41,0,0,1-8.07,5.89,27.58,27.58,0,0,1-10.39,1.87,22.85,22.85,0,0,1-11.17-2.64,17.63,17.63,0,0,1-7.36-7.68,25.82,25.82,0,0,1-2.56-11.86A26,26,0,0,1,117,93.77a17.41,17.41,0,0,1,6.9-7.52,20.48,20.48,0,0,1,10.55-2.64,18.39,18.39,0,0,1,9.61,2.33,15.65,15.65,0,0,1,6,6.82,27,27,0,0,1,2.33,11.17l8.38-6.36-53.67.16v15.2l63.13-.16a27.26,27.26,0,0,0,.77-4.57c.1-1.4.16-2.77.16-4.11a39.75,39.75,0,0,0-4.66-19.39,33.68,33.68,0,0,0-13-13.34,37.42,37.42,0,0,0-18.93-4.81,40.08,40.08,0,0,0-20.16,5.12,37.88,37.88,0,0,0-14.19,14,38.67,38.67,0,0,0-5.2,20,38.53,38.53,0,0,0,5.28,20.16,38,38,0,0,0,14.5,14,42.61,42.61,0,0,0,21,5.12A43.27,43.27,0,0,0,152.74,141.62Zm51.49,1.55V31H183.91V143.17Zm64.21-1.78a26.84,26.84,0,0,0,10.39-9.23A25.75,25.75,0,0,0,283,118.82V92.14a24.26,24.26,0,0,0-4.27-13A27.89,27.89,0,0,0,268.29,70a31.61,31.61,0,0,0-14.58-3.33,34,34,0,0,0-18.54,5.12,37,37,0,0,0-12.95,14,41.22,41.22,0,0,0-4.81,20,40.88,40.88,0,0,0,4.81,19.85,37,37,0,0,0,12.95,14,34,34,0,0,0,18.54,5.12A31.88,31.88,0,0,0,268.44,141.39Zm-20.94-18a17.64,17.64,0,0,1-6.74-7.14,22.42,22.42,0,0,1-2.41-10.62,22.09,22.09,0,0,1,2.41-10.47A17.79,17.79,0,0,1,247.42,88a19.16,19.16,0,0,1,10-2.56,18.35,18.35,0,0,1,9.85,2.64A18.56,18.56,0,0,1,274,95.25a22.07,22.07,0,0,1,2.4,10.54,21.71,21.71,0,0,1-2.4,10.39,18.39,18.39,0,0,1-6.75,7.14,18.73,18.73,0,0,1-9.93,2.64A19,19,0,0,1,247.5,123.4ZM295.58,31H275V86.56l3.56,18.15L275.11,123v20.16h20.47ZM366,141.62a36.92,36.92,0,0,0,13.49-9.77l-12.1-12.1a20.31,20.31,0,0,1-8.06,5.89,27.62,27.62,0,0,1-10.39,1.87,22.8,22.8,0,0,1-11.17-2.64,17.65,17.65,0,0,1-7.37-7.68,25.82,25.82,0,0,1-2.56-11.86,25.82,25.82,0,0,1,2.41-11.56,17.41,17.41,0,0,1,6.9-7.52,20.44,20.44,0,0,1,10.54-2.64,18.43,18.43,0,0,1,9.62,2.33,15.71,15.71,0,0,1,6.05,6.82,27.18,27.18,0,0,1,2.33,11.17l8.37-6.36-53.66.16v15.2l63.12-.16a28.41,28.41,0,0,0,.78-4.57q.15-2.1.15-4.11A39.86,39.86,0,0,0,379.8,84.7a33.71,33.71,0,0,0-13-13.34,37.36,37.36,0,0,0-18.92-4.81,40,40,0,0,0-20.16,5.12,37.88,37.88,0,0,0-14.19,14,38.67,38.67,0,0,0-5.2,20,38.62,38.62,0,0,0,5.27,20.16,38.08,38.08,0,0,0,14.5,14,42.63,42.63,0,0,0,21,5.12A43.3,43.3,0,0,0,366,141.62Zm51.49,1.55V68.26H397.17v74.91Zm4.11-53.82a14.5,14.5,0,0,1,10.62-4,16.69,16.69,0,0,1,5.51.85A9.53,9.53,0,0,1,441.84,89l12.71-14.73a21.71,21.71,0,0,0-7.83-5.82,25.31,25.31,0,0,0-9.85-1.78q-12.56,0-19.23,8t-8.06,21.79l7.91,5.42Q417.49,93.39,421.6,89.35Zm83.75,52.11a26,26,0,0,0,10.24-9.07,25.53,25.53,0,0,0,4.11-13.1V92.14A25,25,0,0,0,515.51,79a27.12,27.12,0,0,0-10.24-9A30.84,30.84,0,0,0,491,66.71a34,34,0,0,0-18.53,5.12,35.8,35.8,0,0,0-12.8,14,42.29,42.29,0,0,0-4.65,20,41.94,41.94,0,0,0,4.65,19.85,35.8,35.8,0,0,0,12.8,14,33.74,33.74,0,0,0,18.38,5.12A31.56,31.56,0,0,0,505.35,141.46ZM485,123.32a18.3,18.3,0,0,1-6.74-7.14,21.93,21.93,0,0,1-2.41-10.54,21.62,21.62,0,0,1,2.41-10.39,18.14,18.14,0,0,1,16.51-9.78A18.72,18.72,0,0,1,504.65,88a18.35,18.35,0,0,1,6.67,7.22,22.07,22.07,0,0,1,2.48,10.54,20.54,20.54,0,0,1-5.27,14.43A17.9,17.9,0,0,1,494.72,126,18.44,18.44,0,0,1,485,123.32ZM533,143.17V68.26H512.56v18.3L516,104.71,512.56,123v20.16Z"/></svg>