<svg id="Layer_1" data-name="Layer 1" xmlns="http://www.w3.org/2000/svg" viewBox="0 0 566.93 174.66"><defs><style>.cls-1{fill:#4b4fff;}.cls-2{fill:#000336;}</style></defs><path class="cls-1" d="M169.69,155.36a36.75,36.75,0,0,0,13.49-9.77l-12.1-12.1a20.34,20.34,0,0,1-8.06,5.9,27.78,27.78,0,0,1-10.39,1.86,22.83,22.83,0,0,1-11.17-2.64,17.6,17.6,0,0,1-7.37-7.68,25.92,25.92,0,0,1-2.56-11.86,25.82,25.82,0,0,1,2.41-11.56,17.41,17.41,0,0,1,6.9-7.52,20.55,20.55,0,0,1,10.55-2.63A18.39,18.39,0,0,1,161,99.68a15.62,15.62,0,0,1,6.05,6.83,27.13,27.13,0,0,1,2.33,11.16l8.37-6.36-53.66.16v15.2l63.12-.16a26.35,26.35,0,0,0,.78-4.57q.15-2.1.15-4.11a39.86,39.86,0,0,0-4.65-19.39,33.71,33.71,0,0,0-13-13.34,37.36,37.36,0,0,0-18.92-4.81,40.05,40.05,0,0,0-20.16,5.12,38,38,0,0,0-14.19,14,38.7,38.7,0,0,0-5.2,20,38.53,38.53,0,0,0,5.28,20.16,37.86,37.86,0,0,0,14.5,14,42.59,42.59,0,0,0,21,5.12A43.27,43.27,0,0,0,169.69,155.36Zm51.49,1.55V44.78H200.86V156.91Zm64.21-1.78a26.83,26.83,0,0,0,10.39-9.23A25.81,25.81,0,0,0,300,132.56V105.89a24.29,24.29,0,0,0-4.27-13,27.84,27.84,0,0,0-10.47-9.08,31.55,31.55,0,0,0-14.58-3.33,34.12,34.12,0,0,0-18.53,5.12,36.93,36.93,0,0,0-13,14,41.11,41.11,0,0,0-4.81,20,40.84,40.84,0,0,0,4.81,19.86,37.08,37.08,0,0,0,13,14,34.11,34.11,0,0,0,18.53,5.11A31.92,31.92,0,0,0,285.39,155.13Zm-20.94-18A17.67,17.67,0,0,1,257.7,130a22.51,22.51,0,0,1-2.4-10.62,22.2,22.2,0,0,1,2.4-10.47,17.79,17.79,0,0,1,6.67-7.13,19.06,19.06,0,0,1,10-2.56A18.08,18.08,0,0,1,290.89,109a22,22,0,0,1,2.41,10.54,21.64,21.64,0,0,1-2.41,10.4,18.27,18.27,0,0,1-6.74,7.13,20,20,0,0,1-19.7.08Zm48.08-92.36H291.9V100.3l3.57,18.15-3.41,18.3v20.16h20.47Zm70.41,110.58a36.87,36.87,0,0,0,13.5-9.77l-12.1-12.1a20.37,20.37,0,0,1-8.07,5.9,27.74,27.74,0,0,1-10.39,1.86,22.79,22.79,0,0,1-11.16-2.64,17.55,17.55,0,0,1-7.37-7.68,25.79,25.79,0,0,1-2.56-11.86,26,26,0,0,1,2.4-11.56A17.49,17.49,0,0,1,354.1,100a20.51,20.51,0,0,1,10.54-2.63,18.43,18.43,0,0,1,9.62,2.32,15.68,15.68,0,0,1,6.05,6.83,27.14,27.14,0,0,1,2.32,11.16l8.38-6.36-53.66.16v15.2l63.12-.16a28.41,28.41,0,0,0,.78-4.57q.15-2.1.15-4.11a39.86,39.86,0,0,0-4.65-19.39,33.77,33.77,0,0,0-13-13.34,37.36,37.36,0,0,0-18.92-4.81,40.09,40.09,0,0,0-20.17,5.12,38.1,38.1,0,0,0-14.19,14,38.79,38.79,0,0,0-5.19,20,38.53,38.53,0,0,0,5.27,20.16,37.93,37.93,0,0,0,14.5,14,42.63,42.63,0,0,0,21,5.12A43.22,43.22,0,0,0,382.94,155.36Zm51.49,1.55V82H414.12v74.91Zm4.11-53.82a14.58,14.58,0,0,1,10.63-4,16.59,16.59,0,0,1,5.5.85,9.47,9.47,0,0,1,4.11,2.87L471.5,88.05a21.71,21.71,0,0,0-7.83-5.82,25.57,25.57,0,0,0-9.85-1.78q-12.56,0-19.23,8t-8.07,21.79l7.91,5.43Q434.43,107.13,438.54,103.09Zm83.76,52.12a25.94,25.94,0,0,0,10.23-9.08,25.41,25.41,0,0,0,4.11-13.1V105.89a25,25,0,0,0-4.18-13.19,27,27,0,0,0-10.24-9A30.88,30.88,0,0,0,508,80.45a34.07,34.07,0,0,0-18.53,5.12,35.8,35.8,0,0,0-12.8,14,42.29,42.29,0,0,0-4.65,20,42,42,0,0,0,4.65,19.86,35.94,35.94,0,0,0,12.8,14,33.78,33.78,0,0,0,18.37,5.11A31.73,31.73,0,0,0,522.3,155.21Zm-20.4-18.15a18.37,18.37,0,0,1-6.75-7.13,22.11,22.11,0,0,1-2.4-10.55,21.74,21.74,0,0,1,2.4-10.39,18.67,18.67,0,0,1,33.12,0,22.1,22.1,0,0,1,2.48,10.54A20.53,20.53,0,0,1,525.48,134q-5.28,5.74-13.81,5.74A18.42,18.42,0,0,1,501.9,137.06ZM550,156.91V82H529.51v18.3l3.41,18.15-3.41,18.3v20.16Z"/><path class="cls-2" d="M17.28,13.74H114a11.95,11.95,0,0,1,11.95,11.95V50a0,0,0,0,1,0,0H17.28a0,0,0,0,1,0,0V13.74A0,0,0,0,1,17.28,13.74Z"/><path class="cls-2" d="M53.5,86.18H77.38A12.33,12.33,0,0,1,89.72,98.51V122.4a0,0,0,0,1,0,0H53.5a0,0,0,0,1,0,0V86.18A0,0,0,0,1,53.5,86.18Z"/><path class="cls-2" d="M17.28,50H41.16A12.33,12.33,0,0,1,53.5,62.3V86.18a0,0,0,0,1,0,0H17.28a0,0,0,0,1,0,0V50A0,0,0,0,1,17.28,50Z" transform="translate(70.78 136.14) rotate(180)"/><path class="cls-2" d="M17.28,122.4H41.16A12.33,12.33,0,0,1,53.5,134.73v23.88a0,0,0,0,1,0,0H17.28a0,0,0,0,1,0,0V122.4A0,0,0,0,1,17.28,122.4Z" transform="translate(-105.12 175.9) rotate(-90)"/></svg>