<svg xmlns="http://www.w3.org/2000/svg" width="24" height="24" fill="none" viewBox="0 0 24 24"><path d="M11.800 4.037 C 11.505 4.097,11.256 4.293,11.110 4.579 C 10.994 4.807,10.998 5.199,11.118 5.440 C 11.182 5.568,11.990 6.403,13.893 8.309 L 16.577 10.998 10.659 11.009 L 4.740 11.020 4.579 11.106 C 4.213 11.302,4.028 11.602,4.028 12.000 C 4.028 12.398,4.213 12.698,4.579 12.894 L 4.740 12.980 10.659 12.991 L 16.577 13.002 13.893 15.691 C 11.990 17.597,11.182 18.432,11.118 18.560 C 10.937 18.922,11.017 19.406,11.305 19.695 C 11.594 19.983,12.078 20.063,12.440 19.882 C 12.696 19.755,19.755 12.696,19.882 12.440 C 19.947 12.309,19.972 12.189,19.972 12.000 C 19.972 11.811,19.947 11.691,19.882 11.560 C 19.762 11.320,12.696 4.245,12.460 4.129 C 12.270 4.036,11.994 3.997,11.800 4.037 " stroke="none" fill-rule="evenodd" fill="black"></path></svg>