<svg xmlns="http://www.w3.org/2000/svg" width="24" height="24" fill="none" viewBox="0 0 24 24"><path d="M11.800 4.037 C 11.507 4.097,11.262 4.289,11.106 4.579 L 11.020 4.740 11.009 10.659 L 10.998 16.577 8.309 13.893 C 6.403 11.990,5.568 11.182,5.440 11.118 C 5.078 10.937,4.594 11.017,4.305 11.305 C 4.017 11.594,3.937 12.078,4.118 12.440 C 4.245 12.696,11.304 19.755,11.560 19.882 C 11.808 20.006,12.192 20.006,12.440 19.882 C 12.696 19.755,19.755 12.696,19.882 12.440 C 20.063 12.078,19.983 11.594,19.695 11.305 C 19.406 11.017,18.922 10.937,18.560 11.118 C 18.432 11.182,17.597 11.990,15.691 13.893 L 13.002 16.577 12.991 10.659 L 12.980 4.740 12.894 4.579 C 12.672 4.165,12.234 3.948,11.800 4.037 " stroke="none" fill-rule="evenodd" fill="black"></path></svg>