<svg xmlns="http://www.w3.org/2000/svg" width="24" height="24" viewBox="0 0 24 24"><path d="M1.800 2.037 C 1.508 2.096,1.262 2.288,1.106 2.579 L 1.020 2.740 1.020 10.500 L 1.020 18.260 1.106 18.421 C 1.215 18.625,1.375 18.785,1.579 18.894 C 1.740 18.980,1.745 18.980,5.620 19.000 L 9.500 19.020 9.717 19.112 C 9.986 19.226,10.126 19.321,10.374 19.556 C 10.781 19.943,10.941 20.282,11.003 20.889 C 11.047 21.319,11.117 21.507,11.305 21.695 C 11.683 22.073,12.317 22.073,12.695 21.695 C 12.883 21.507,12.953 21.319,12.997 20.889 C 13.059 20.282,13.219 19.943,13.626 19.556 C 13.874 19.321,14.014 19.226,14.283 19.112 L 14.500 19.020 18.380 19.000 C 22.255 18.980,22.260 18.980,22.421 18.894 C 22.625 18.785,22.785 18.625,22.894 18.421 L 22.980 18.260 22.980 10.500 L 22.980 2.740 22.894 2.579 C 22.785 2.375,22.625 2.215,22.421 2.106 C 22.261 2.020,22.242 2.020,19.220 2.008 C 16.043 1.995,15.407 2.017,14.812 2.159 C 13.869 2.385,12.886 2.979,12.271 3.694 C 12.135 3.851,12.014 3.980,12.000 3.980 C 11.986 3.980,11.865 3.851,11.729 3.694 C 11.273 3.164,10.579 2.674,9.871 2.383 C 9.416 2.195,8.968 2.091,8.400 2.041 C 7.884 1.996,2.024 1.992,1.800 2.037 M8.940 4.133 C 9.502 4.330,9.976 4.664,10.337 5.116 C 10.612 5.460,10.730 5.669,10.867 6.060 L 10.980 6.380 10.991 11.950 C 10.997 15.013,10.992 17.520,10.979 17.520 C 10.967 17.520,10.887 17.484,10.802 17.441 C 10.557 17.316,10.144 17.169,9.829 17.095 C 9.572 17.034,9.175 17.025,6.270 17.011 L 3.000 16.995 3.000 10.496 L 3.000 3.997 5.810 4.008 L 8.620 4.020 8.940 4.133 M21.000 10.497 L 21.000 16.995 17.730 17.011 C 14.825 17.025,14.428 17.034,14.171 17.095 C 13.856 17.169,13.443 17.316,13.198 17.441 C 13.113 17.484,13.033 17.520,13.022 17.520 C 13.010 17.520,13.000 15.068,13.001 12.070 C 13.001 6.192,12.995 6.386,13.212 5.852 C 13.492 5.163,14.163 4.492,14.853 4.212 C 15.351 4.009,15.392 4.007,18.290 4.003 L 21.000 4.000 21.000 10.497 " stroke="none" fill-rule="evenodd" fill="black"></path></svg>