<svg xmlns="http://www.w3.org/2000/svg" width="24" height="24" fill="none" viewBox="0 0 24 24"><path d="M19.800 5.037 C 19.723 5.053,19.597 5.098,19.520 5.137 C 19.443 5.176,17.045 7.542,14.190 10.393 L 9.000 15.579 6.810 13.394 C 5.275 11.862,4.566 11.181,4.440 11.118 C 4.078 10.937,3.594 11.017,3.305 11.305 C 3.017 11.594,2.937 12.078,3.118 12.440 C 3.245 12.694,8.306 17.755,8.560 17.882 C 8.808 18.006,9.192 18.006,9.440 17.882 C 9.697 17.754,20.754 6.697,20.882 6.440 C 21.002 6.199,21.006 5.806,20.890 5.579 C 20.681 5.170,20.235 4.948,19.800 5.037 " stroke="none" fill-rule="evenodd" fill="black"></path></svg>