<svg width="24" height="24" viewBox="0 0 24 24" fill="none" xmlns="http://www.w3.org/2000/svg">
<path d="M12.3258 20.25C7.90754 20.25 4.32582 16.6683 4.32582 12.25C4.32582 7.83172 7.90754 4.25 12.3258 4.25C15.6187 4.25 18.447 6.2395 19.6741 9.08206M14.7258 9.85L14.7258 14.65L9.92582 14.65L9.92582 9.85L14.7258 9.85Z" stroke="#393C41" stroke-width="1.6" stroke-linecap="round" stroke-linejoin="round"/>
<path d="M20.8 16.45V14.85C20.8 14.4257 20.6314 14.0187 20.3314 13.7186C20.0313 13.4186 19.6243 13.25 19.2 13.25C18.7757 13.25 18.3687 13.4186 18.0686 13.7186C17.7686 14.0187 17.6 14.4257 17.6 14.85V16.45M16.8 16.45H21.6C22.0418 16.45 22.4 16.8082 22.4 17.25V19.65C22.4 20.0918 22.0418 20.45 21.6 20.45H16.8C16.3582 20.45 16 20.0918 16 19.65V17.25C16 16.8082 16.3582 16.45 16.8 16.45Z" stroke="#393C41" stroke-width="1.6" stroke-linecap="round" stroke-linejoin="round"/>
</svg>

