<svg xmlns="http://www.w3.org/2000/svg" width="24" height="24" fill="none" viewBox="0 0 24 24"><path d="M11.280 1.043 C 9.068 1.180,6.878 2.029,5.121 3.429 C 4.632 3.819,3.819 4.632,3.429 5.121 C 2.454 6.345,1.693 7.893,1.325 9.406 C 0.922 11.056,0.922 12.944,1.325 14.594 C 1.693 16.107,2.454 17.655,3.429 18.879 C 3.819 19.368,4.632 20.181,5.121 20.571 C 6.036 21.300,7.322 22.011,8.386 22.375 C 11.203 23.340,14.216 23.150,16.860 21.842 C 18.021 21.267,18.860 20.666,19.763 19.763 C 20.666 18.860,21.267 18.021,21.842 16.860 C 22.620 15.287,22.967 13.788,22.967 12.000 C 22.967 10.212,22.620 8.713,21.842 7.140 C 21.267 5.979,20.666 5.140,19.763 4.237 C 18.859 3.332,18.018 2.730,16.860 2.160 C 15.459 1.469,14.199 1.136,12.622 1.039 C 11.963 0.999,11.996 0.998,11.280 1.043 M12.992 3.043 C 16.476 3.427,19.464 5.857,20.561 9.200 C 21.257 11.321,21.131 13.652,20.208 15.710 C 19.473 17.350,18.159 18.816,16.580 19.756 C 14.386 21.063,11.642 21.363,9.200 20.561 C 6.482 19.669,4.331 17.517,3.438 14.799 C 3.137 13.882,3.000 13.007,3.000 12.000 C 3.000 11.285,3.049 10.792,3.186 10.141 C 3.701 7.690,5.248 5.538,7.428 4.239 C 8.449 3.631,9.790 3.177,10.960 3.044 C 11.400 2.994,12.544 2.994,12.992 3.043 M11.800 7.037 C 11.507 7.097,11.262 7.289,11.106 7.579 C 11.021 7.738,11.020 7.764,11.020 10.000 C 11.020 12.236,11.021 12.262,11.106 12.421 C 11.302 12.787,11.602 12.972,12.000 12.972 C 12.398 12.972,12.698 12.787,12.894 12.421 C 12.979 12.262,12.980 12.236,12.980 10.000 C 12.980 7.764,12.979 7.738,12.894 7.579 C 12.672 7.165,12.234 6.948,11.800 7.037 M11.800 15.037 C 11.044 15.192,10.759 16.148,11.305 16.695 C 11.582 16.971,12.075 17.061,12.420 16.897 C 12.749 16.741,13.000 16.353,13.000 16.000 C 13.000 15.654,12.748 15.256,12.438 15.113 C 12.265 15.033,11.983 15.000,11.800 15.037 " stroke="none" fill-rule="evenodd" fill="black"></path></svg>