<svg xmlns="http://www.w3.org/2000/svg" width="24" height="24" fill="none" viewBox="0 0 24 24"><path d="M11.141 1.045 C 9.591 1.164,8.002 1.648,6.616 2.423 C 5.676 2.949,5.027 3.446,4.218 4.256 C 2.844 5.634,1.949 7.172,1.421 9.060 C 1.144 10.050,1.034 10.894,1.033 12.036 C 1.031 14.563,1.872 16.934,3.474 18.919 C 4.958 20.757,7.106 22.116,9.384 22.659 C 10.316 22.881,11.017 22.961,12.037 22.962 C 13.076 22.963,13.908 22.853,14.920 22.580 C 18.900 21.508,22.006 18.154,22.774 14.100 C 22.929 13.279,22.968 12.835,22.974 11.793 C 22.980 10.868,22.976 10.812,22.894 10.659 C 22.698 10.293,22.398 10.108,22.000 10.108 C 21.601 10.108,21.298 10.296,21.108 10.659 C 21.032 10.806,21.022 10.917,20.994 11.920 C 20.976 12.525,20.952 13.083,20.938 13.160 C 20.662 14.776,20.265 15.818,19.465 17.020 C 17.837 19.469,14.975 21.000,12.026 21.000 C 9.086 21.000,6.356 19.592,4.656 17.199 C 3.764 15.943,3.220 14.501,3.038 12.911 C 2.969 12.313,3.009 11.119,3.117 10.504 C 3.449 8.619,4.285 7.001,5.620 5.657 C 6.818 4.451,8.225 3.654,9.884 3.244 C 10.580 3.072,11.226 2.997,12.020 2.997 C 13.226 2.997,14.213 3.191,15.439 3.670 C 15.856 3.833,15.921 3.848,16.151 3.829 C 16.652 3.789,17.001 3.437,17.033 2.940 C 17.062 2.474,16.879 2.160,16.462 1.961 C 14.966 1.247,12.976 0.904,11.141 1.045 M21.800 3.037 C 21.723 3.053,21.597 3.098,21.520 3.137 C 21.443 3.176,19.270 5.316,16.691 7.893 L 12.001 12.578 10.811 11.394 C 10.021 10.608,9.559 10.179,9.440 10.119 C 9.079 9.937,8.594 10.017,8.305 10.305 C 8.017 10.594,7.937 11.078,8.118 11.440 C 8.244 11.692,11.308 14.756,11.560 14.882 C 11.808 15.006,12.191 15.006,12.440 14.882 C 12.697 14.754,22.754 4.697,22.882 4.440 C 23.002 4.199,23.006 3.806,22.890 3.579 C 22.681 3.170,22.235 2.948,21.800 3.037 " stroke="none" fill-rule="evenodd" fill="black"></path></svg>