<svg xmlns="http://www.w3.org/2000/svg" width="24" height="24" fill="none" viewBox="0 0 24 24"><path d="M3.620 1.041 C 2.455 1.174,1.452 2.045,1.113 3.220 L 1.020 3.540 1.020 9.000 L 1.020 14.460 1.113 14.780 C 1.268 15.317,1.491 15.691,1.900 16.100 C 2.479 16.679,3.120 16.959,3.890 16.970 C 4.193 16.974,4.289 16.959,4.421 16.891 C 4.784 16.703,4.972 16.399,4.972 16.000 C 4.972 15.453,4.617 15.080,4.037 15.018 C 3.559 14.967,3.266 14.781,3.095 14.420 L 3.001 14.220 3.001 9.000 C 3.002 3.835,3.003 3.778,3.083 3.600 C 3.193 3.358,3.340 3.209,3.580 3.095 L 3.780 3.001 9.000 3.001 L 14.220 3.001 14.420 3.095 C 14.781 3.266,14.967 3.559,15.018 4.037 C 15.080 4.617,15.453 4.972,16.000 4.972 C 16.399 4.972,16.703 4.784,16.891 4.421 C 16.959 4.290,16.973 4.194,16.969 3.900 C 16.957 3.118,16.679 2.479,16.100 1.900 C 15.699 1.499,15.329 1.275,14.800 1.114 L 14.500 1.022 9.200 1.016 C 6.285 1.012,3.774 1.024,3.620 1.041 M9.640 7.038 C 8.965 7.112,8.412 7.385,7.898 7.898 C 7.490 8.307,7.270 8.677,7.112 9.222 L 7.020 9.540 7.020 15.000 L 7.020 20.460 7.112 20.778 C 7.270 21.323,7.490 21.693,7.898 22.102 C 8.307 22.510,8.677 22.730,9.222 22.888 L 9.540 22.980 15.000 22.980 L 20.460 22.980 20.778 22.888 C 21.323 22.730,21.693 22.510,22.102 22.102 C 22.510 21.693,22.730 21.323,22.888 20.778 L 22.980 20.460 22.980 15.000 L 22.980 9.540 22.888 9.222 C 22.730 8.677,22.510 8.307,22.102 7.898 C 21.701 7.498,21.337 7.278,20.799 7.114 L 20.500 7.022 15.200 7.016 C 12.285 7.013,9.783 7.023,9.640 7.038 M20.420 9.095 C 20.660 9.209,20.807 9.358,20.917 9.600 C 20.997 9.778,20.998 9.835,20.999 15.000 L 20.999 20.220 20.905 20.420 C 20.791 20.660,20.642 20.807,20.400 20.917 C 20.222 20.997,20.166 20.998,15.000 20.998 C 9.834 20.998,9.778 20.997,9.600 20.917 C 9.358 20.807,9.209 20.660,9.095 20.420 L 9.001 20.220 9.001 15.000 C 9.002 9.835,9.003 9.778,9.083 9.600 C 9.193 9.358,9.340 9.209,9.580 9.095 L 9.780 9.001 15.000 9.001 L 20.220 9.001 20.420 9.095 " stroke="none" fill-rule="evenodd" fill="black"></path></svg>