<svg xmlns="http://www.w3.org/2000/svg" width="24" height="24" fill="none" viewBox="0 0 24 24"><path d="M11.564 10.181 C 10.880 10.373,10.300 10.987,10.158 11.671 C 10.092 11.987,10.130 12.525,10.238 12.809 C 10.424 13.300,10.891 13.767,11.391 13.966 C 11.584 14.043,11.695 14.057,12.100 14.057 C 12.505 14.057,12.616 14.043,12.809 13.966 C 13.307 13.768,13.768 13.307,13.966 12.809 C 14.043 12.616,14.057 12.505,14.057 12.100 C 14.057 11.695,14.043 11.584,13.966 11.391 C 13.768 10.891,13.301 10.426,12.809 10.237 C 12.508 10.122,11.876 10.093,11.564 10.181 " stroke="none" fill-rule="evenodd" fill="black"></path></svg>