<svg xmlns="http://www.w3.org/2000/svg" width="24" height="24" fill="none" viewBox="0 0 24 24"><path d="M5.640 1.039 C 4.966 1.111,4.412 1.385,3.898 1.898 C 3.490 2.307,3.270 2.677,3.112 3.222 L 3.020 3.540 3.020 12.000 L 3.020 20.460 3.112 20.778 C 3.270 21.323,3.490 21.693,3.898 22.102 C 4.307 22.510,4.677 22.730,5.222 22.888 L 5.540 22.980 12.000 22.980 L 18.460 22.980 18.778 22.888 C 19.323 22.730,19.693 22.510,20.102 22.102 C 20.510 21.693,20.730 21.323,20.888 20.778 L 20.980 20.460 20.980 13.620 L 20.980 6.780 20.888 6.580 C 20.814 6.417,20.314 5.898,18.208 3.792 C 16.102 1.686,15.583 1.186,15.420 1.112 L 15.220 1.020 10.560 1.015 C 7.997 1.013,5.783 1.023,5.640 1.039 M13.010 4.750 C 13.030 6.729,13.036 6.769,13.371 7.419 C 13.603 7.868,14.132 8.397,14.581 8.629 C 15.231 8.964,15.271 8.970,17.250 8.990 L 19.000 9.008 19.000 14.614 L 18.999 20.220 18.905 20.420 C 18.791 20.660,18.642 20.807,18.400 20.917 C 18.221 20.998,18.172 20.998,12.000 20.998 C 5.828 20.998,5.779 20.998,5.600 20.917 C 5.358 20.807,5.209 20.660,5.095 20.420 L 5.001 20.220 5.001 12.000 C 5.002 3.816,5.002 3.779,5.083 3.600 C 5.193 3.358,5.340 3.209,5.580 3.095 L 5.780 3.001 9.386 3.000 L 12.992 3.000 13.010 4.750 M17.190 6.991 C 15.996 7.001,15.798 6.994,15.646 6.936 C 15.405 6.845,15.204 6.657,15.094 6.420 C 15.002 6.223,15.001 6.202,15.000 4.820 L 15.000 3.420 16.780 5.200 L 18.560 6.980 17.190 6.991 M7.800 8.036 C 7.335 8.135,7.028 8.518,7.028 9.000 C 7.028 9.398,7.213 9.698,7.579 9.894 C 7.734 9.977,7.787 9.980,9.000 9.980 C 10.213 9.980,10.266 9.977,10.421 9.894 C 10.787 9.698,10.972 9.398,10.972 9.000 C 10.972 8.602,10.787 8.302,10.421 8.106 C 10.268 8.024,10.203 8.020,9.100 8.013 C 8.462 8.009,7.877 8.019,7.800 8.036 M7.800 12.037 C 7.337 12.132,7.028 12.517,7.028 13.000 C 7.028 13.398,7.213 13.698,7.579 13.894 L 7.740 13.980 12.000 13.980 L 16.260 13.980 16.421 13.894 C 16.787 13.698,16.972 13.398,16.972 13.000 C 16.972 12.602,16.787 12.302,16.421 12.106 L 16.260 12.020 12.100 12.014 C 9.812 12.011,7.877 12.021,7.800 12.037 M7.800 16.037 C 7.337 16.132,7.028 16.517,7.028 17.000 C 7.028 17.398,7.213 17.698,7.579 17.894 L 7.740 17.980 12.000 17.980 L 16.260 17.980 16.421 17.894 C 16.787 17.698,16.972 17.398,16.972 17.000 C 16.972 16.602,16.787 16.302,16.421 16.106 L 16.260 16.020 12.100 16.014 C 9.812 16.011,7.877 16.021,7.800 16.037 " stroke="none" fill-rule="evenodd" fill="black"></path></svg>