<svg xmlns="http://www.w3.org/2000/svg" width="24" height="24" fill="none" viewBox="0 0 24 24"><path d="M11.180 2.041 C 7.701 2.351,4.689 4.369,3.122 7.440 C 2.333 8.987,2.002 10.487,2.052 12.295 C 2.088 13.623,2.293 14.624,2.759 15.754 L 2.929 16.168 1.977 18.974 C 1.143 21.430,1.024 21.810,1.025 22.020 C 1.029 22.560,1.437 22.968,1.978 22.972 C 2.190 22.973,2.563 22.857,5.010 22.026 C 6.545 21.506,7.813 21.080,7.828 21.080 C 7.842 21.080,8.033 21.153,8.252 21.243 C 8.956 21.532,9.658 21.726,10.500 21.866 C 11.058 21.959,12.816 21.971,13.380 21.885 C 14.904 21.654,16.227 21.159,17.460 20.357 C 19.884 18.781,21.479 16.264,21.905 13.340 C 22.001 12.684,22.001 11.325,21.905 10.660 C 21.579 8.403,20.644 6.522,19.061 4.939 C 17.501 3.379,15.645 2.444,13.460 2.117 C 12.855 2.026,11.755 1.990,11.180 2.041 M12.940 4.046 C 15.655 4.360,18.033 6.060,19.225 8.540 C 20.207 10.583,20.268 12.991,19.392 15.080 C 18.110 18.133,15.069 20.093,11.780 19.987 C 10.609 19.949,9.685 19.728,8.560 19.216 C 7.916 18.923,8.034 18.903,5.644 19.716 C 4.535 20.093,3.621 20.395,3.613 20.387 C 3.605 20.379,3.906 19.465,4.282 18.356 C 5.092 15.963,5.073 16.078,4.783 15.440 C 4.278 14.325,4.058 13.422,4.014 12.280 C 3.924 9.974,4.838 7.753,6.529 6.170 C 8.290 4.520,10.553 3.770,12.940 4.046 M11.560 6.024 C 10.321 6.168,9.282 6.775,8.630 7.735 C 8.345 8.155,8.146 8.626,8.128 8.926 C 8.107 9.258,8.161 9.424,8.361 9.652 C 8.653 9.984,9.142 10.072,9.547 9.866 C 9.798 9.740,9.879 9.640,10.080 9.211 C 10.278 8.787,10.614 8.425,10.995 8.225 C 11.321 8.054,11.570 7.994,11.940 7.997 C 12.469 8.002,12.884 8.172,13.282 8.547 C 13.865 9.098,14.079 9.884,13.803 10.467 C 13.544 11.015,12.778 11.579,11.669 12.039 C 11.163 12.249,10.946 12.537,10.945 13.000 C 10.943 13.485,11.252 13.859,11.739 13.960 C 11.856 13.984,12.002 13.992,12.065 13.978 C 12.494 13.882,13.352 13.475,13.920 13.097 C 14.772 12.532,15.283 11.987,15.603 11.304 C 15.814 10.852,15.888 10.512,15.888 9.980 C 15.888 9.269,15.772 8.777,15.456 8.160 C 14.919 7.109,13.912 6.342,12.748 6.098 C 12.461 6.037,11.798 5.996,11.560 6.024 M11.800 16.037 C 11.044 16.192,10.759 17.148,11.305 17.695 C 11.582 17.971,12.075 18.061,12.420 17.897 C 12.749 17.741,13.000 17.353,13.000 17.000 C 13.000 16.654,12.748 16.256,12.438 16.113 C 12.265 16.033,11.983 16.000,11.800 16.037 " stroke="none" fill-rule="evenodd" fill="black"></path></svg>