<svg xmlns="http://www.w3.org/2000/svg" width="24" height="24" fill="none" viewBox="0 0 24 24"><path d="M9.661 1.045 C 8.856 1.162,8.160 1.873,8.042 2.700 C 7.989 3.067,7.989 6.933,8.042 7.300 C 8.132 7.934,8.554 8.509,9.128 8.780 C 9.480 8.947,9.800 8.998,10.490 8.999 L 11.000 9.000 11.000 10.000 L 11.000 11.000 8.490 11.001 C 7.033 11.001,5.863 11.018,5.700 11.042 C 4.854 11.163,4.163 11.854,4.042 12.700 C 4.020 12.854,4.001 13.434,4.001 13.990 L 4.000 15.000 3.490 15.001 C 2.800 15.002,2.480 15.053,2.128 15.220 C 1.554 15.491,1.132 16.066,1.042 16.700 C 0.989 17.067,0.989 20.933,1.042 21.300 C 1.163 22.146,1.854 22.837,2.700 22.958 C 3.067 23.011,6.933 23.011,7.300 22.958 C 8.146 22.837,8.837 22.146,8.958 21.300 C 9.011 20.933,9.011 17.067,8.958 16.700 C 8.868 16.066,8.446 15.491,7.872 15.220 C 7.520 15.053,7.200 15.002,6.510 15.001 L 6.000 15.000 6.000 14.000 L 6.000 13.000 12.000 13.000 L 18.000 13.000 18.000 14.000 L 18.000 15.000 17.490 15.001 C 16.800 15.002,16.480 15.053,16.128 15.220 C 15.554 15.491,15.132 16.066,15.042 16.700 C 14.989 17.067,14.989 20.933,15.042 21.300 C 15.163 22.146,15.854 22.837,16.700 22.958 C 17.067 23.011,20.933 23.011,21.300 22.958 C 22.146 22.837,22.837 22.146,22.958 21.300 C 23.011 20.933,23.011 17.067,22.958 16.700 C 22.868 16.066,22.446 15.491,21.872 15.220 C 21.520 15.053,21.200 15.002,20.510 15.001 L 20.000 15.000 19.999 13.990 C 19.999 13.434,19.980 12.854,19.958 12.700 C 19.837 11.854,19.146 11.163,18.300 11.042 C 18.137 11.018,16.967 11.001,15.510 11.001 L 13.000 11.000 13.000 10.000 L 13.000 9.000 13.510 8.999 C 14.200 8.998,14.520 8.947,14.872 8.780 C 15.446 8.509,15.868 7.934,15.958 7.300 C 16.011 6.933,16.011 3.067,15.958 2.700 C 15.837 1.854,15.146 1.163,14.300 1.042 C 13.958 0.993,10.000 0.995,9.661 1.045 M14.000 5.000 L 14.000 7.000 12.000 7.000 L 10.000 7.000 10.000 5.000 L 10.000 3.000 12.000 3.000 L 14.000 3.000 14.000 5.000 M7.000 19.000 L 7.000 21.000 5.000 21.000 L 3.000 21.000 3.000 19.000 L 3.000 17.000 5.000 17.000 L 7.000 17.000 7.000 19.000 M21.000 19.000 L 21.000 21.000 19.000 21.000 L 17.000 21.000 17.000 19.000 L 17.000 17.000 19.000 17.000 L 21.000 17.000 21.000 19.000 " stroke="none" fill-rule="evenodd" fill="black"></path></svg>