<svg xmlns="http://www.w3.org/2000/svg" width="24" height="24" fill="none" viewBox="0 0 24 24"><path d="M4.640 2.038 C 3.966 2.111,3.412 2.385,2.898 2.898 C 2.490 3.307,2.270 3.677,2.112 4.222 L 2.020 4.540 2.020 12.000 L 2.020 19.460 2.112 19.778 C 2.270 20.323,2.490 20.693,2.898 21.102 C 3.307 21.510,3.677 21.730,4.222 21.888 L 4.540 21.980 12.000 21.980 L 19.460 21.980 19.778 21.888 C 20.323 21.730,20.693 21.510,21.102 21.102 C 21.510 20.693,21.730 20.323,21.888 19.778 L 21.980 19.460 21.980 12.000 L 21.980 4.540 21.888 4.222 C 21.730 3.677,21.510 3.307,21.102 2.898 C 20.701 2.498,20.338 2.279,19.799 2.113 L 19.500 2.021 12.200 2.016 C 8.185 2.013,4.783 2.023,4.640 2.038 M8.000 12.000 L 8.000 20.000 6.390 19.999 C 4.857 19.998,4.771 19.994,4.600 19.917 C 4.358 19.807,4.209 19.660,4.095 19.420 L 4.001 19.220 4.001 12.000 C 4.002 4.822,4.002 4.779,4.083 4.600 C 4.193 4.358,4.340 4.209,4.580 4.095 C 4.780 4.001,4.781 4.001,6.390 4.000 L 8.000 4.000 8.000 12.000 M19.400 4.083 C 19.642 4.193,19.791 4.340,19.905 4.580 L 19.999 4.780 19.999 12.000 L 19.999 19.220 19.905 19.420 C 19.791 19.660,19.642 19.807,19.400 19.917 C 19.222 19.997,19.161 19.998,14.610 19.999 L 10.000 20.000 10.000 12.000 L 10.000 4.000 14.610 4.001 C 19.161 4.002,19.222 4.003,19.400 4.083 " stroke="none" fill-rule="evenodd" fill="black"></path></svg>