<svg xmlns="http://www.w3.org/2000/svg" width="24" height="24" fill="none" viewBox="0 0 24 24"><path d="M17.592 1.920 C 16.958 1.998,16.435 2.243,15.898 2.716 C 15.701 2.890,12.758 5.819,9.357 9.226 C 4.702 13.889,3.157 15.460,3.108 15.580 C 2.980 15.887,2.031 19.773,2.027 20.000 C 2.020 20.495,2.377 20.905,2.881 20.979 C 3.031 21.001,3.404 20.919,5.160 20.482 C 6.315 20.194,7.332 19.929,7.420 19.893 C 7.540 19.843,9.118 18.290,13.774 13.643 C 17.181 10.242,20.107 7.303,20.276 7.111 C 20.862 6.446,21.087 5.860,21.087 5.000 C 21.087 4.396,21.001 4.022,20.756 3.561 C 20.139 2.404,18.900 1.761,17.592 1.920 M18.440 3.963 C 18.856 4.151,19.119 4.553,19.119 5.000 C 19.119 5.395,19.013 5.577,18.464 6.120 L 17.999 6.579 17.210 5.790 L 16.421 5.001 16.880 4.536 C 17.424 3.987,17.605 3.881,18.000 3.881 C 18.175 3.882,18.319 3.908,18.440 3.963 M15.800 7.220 L 16.580 8.000 11.523 13.057 L 6.467 18.113 5.424 18.374 C 4.851 18.518,4.378 18.631,4.373 18.627 C 4.369 18.622,4.482 18.151,4.624 17.579 L 4.884 16.540 9.932 11.490 C 12.708 8.713,14.989 6.440,15.000 6.440 C 15.012 6.440,15.371 6.791,15.800 7.220 M11.800 19.037 C 11.337 19.132,11.028 19.517,11.028 20.000 C 11.028 20.398,11.213 20.698,11.579 20.894 L 11.740 20.980 16.500 20.980 L 21.260 20.980 21.421 20.894 C 21.787 20.698,21.972 20.398,21.972 20.000 C 21.972 19.602,21.787 19.302,21.421 19.106 L 21.260 19.020 16.600 19.014 C 14.037 19.011,11.877 19.021,11.800 19.037 " stroke="none" fill-rule="evenodd" fill="black"></path></svg>