<svg xmlns="http://www.w3.org/2000/svg" width="24" height="24" fill="none" viewBox="0 0 24 24"><path stroke="#C533B9" stroke-linecap="round" stroke-linejoin="round" stroke-width="2" d="M4.5 10H4a2 2 0 0 1-2-2V4a2 2 0 0 1 2-2h16a2 2 0 0 1 2 2v4a2 2 0 0 1-2 2h-.5m-15 4H4a2 2 0 0 0-2 2v4a2 2 0 0 0 2 2h16a2 2 0 0 0 2-2v-4a2 2 0 0 0-2-2h-.5M6 6h.01M6 18h.01m9.69-4.6-.9-.3m-5.6-2.2-.9-.3m2.3 5.1.3-.9m2.7.9-.4-1m-2.4-5.4-.4-1m-2.1 5.3 1-.4m5.4-2.4 1-.4m-2.3-2.1-.3.9M15 12a3 3 0 1 1-6 0 3 3 0 0 1 6 0Z"/></svg>