<svg xmlns="http://www.w3.org/2000/svg" width="24" height="24" fill="none" viewBox="0 0 24 24"><path d="M11.530 2.044 C 9.435 2.231,7.643 3.776,7.159 5.813 C 6.555 8.357,7.970 10.905,10.447 11.737 C 11.368 12.046,12.632 12.046,13.553 11.737 C 14.956 11.266,16.055 10.238,16.617 8.871 C 17.092 7.717,17.092 6.283,16.617 5.129 C 15.773 3.077,13.744 1.846,11.530 2.044 M12.940 4.137 C 13.494 4.324,13.973 4.660,14.337 5.116 C 14.613 5.461,14.730 5.670,14.866 6.060 C 14.970 6.357,14.978 6.425,14.978 7.000 C 14.978 7.575,14.970 7.643,14.866 7.940 C 14.730 8.330,14.613 8.539,14.337 8.884 C 13.975 9.337,13.500 9.671,12.940 9.866 C 12.643 9.970,12.575 9.978,12.000 9.978 C 11.425 9.978,11.357 9.970,11.060 9.866 C 10.670 9.730,10.461 9.613,10.116 9.337 C 9.428 8.787,9.049 8.048,9.010 7.177 C 8.966 6.229,9.233 5.527,9.880 4.880 C 10.524 4.235,11.153 3.990,12.100 4.015 C 12.537 4.026,12.671 4.045,12.940 4.137 M8.530 14.044 C 6.315 14.241,4.500 15.909,4.093 18.124 C 4.036 18.432,4.023 18.749,4.022 19.880 C 4.020 21.217,4.023 21.265,4.106 21.421 C 4.302 21.787,4.602 21.972,5.000 21.972 C 5.398 21.972,5.699 21.786,5.893 21.421 C 5.974 21.268,5.979 21.189,6.001 19.820 L 6.023 18.380 6.134 18.060 C 6.269 17.671,6.386 17.461,6.663 17.116 C 7.024 16.664,7.498 16.330,8.060 16.133 L 8.380 16.020 12.000 16.020 L 15.620 16.020 15.940 16.133 C 16.502 16.330,16.976 16.664,17.337 17.116 C 17.614 17.461,17.731 17.671,17.866 18.060 L 17.977 18.380 17.999 19.820 C 18.021 21.189,18.026 21.268,18.107 21.421 C 18.301 21.786,18.602 21.972,19.000 21.972 C 19.398 21.972,19.698 21.787,19.894 21.421 C 19.977 21.265,19.980 21.217,19.978 19.880 C 19.977 18.749,19.964 18.432,19.907 18.124 C 19.595 16.429,18.468 15.040,16.871 14.383 C 16.416 14.195,15.968 14.091,15.400 14.041 C 14.854 13.993,9.076 13.995,8.530 14.044 " stroke="none" fill-rule="evenodd" fill="black"></path></svg>