<svg xmlns="http://www.w3.org/2000/svg" width="24" height="24" fill="none" viewBox="0 0 24 24"><path d="M8.800 1.037 C 8.525 1.094,8.258 1.291,8.134 1.531 C 7.975 1.839,7.172 4.133,6.835 5.240 C 5.981 8.051,5.799 10.316,6.306 11.840 C 6.922 13.693,8.302 15.073,10.162 15.696 C 10.328 15.751,10.584 15.819,10.732 15.847 L 11.000 15.898 11.000 18.447 L 11.000 20.995 9.370 21.008 C 7.791 21.020,7.735 21.023,7.579 21.106 C 7.213 21.302,7.028 21.602,7.028 22.000 C 7.028 22.398,7.213 22.698,7.579 22.894 L 7.740 22.980 12.000 22.980 L 16.260 22.980 16.421 22.894 C 16.787 22.698,16.972 22.398,16.972 22.000 C 16.972 21.602,16.787 21.302,16.421 21.106 C 16.265 21.023,16.209 21.020,14.630 21.008 L 13.000 20.995 13.000 18.447 L 13.000 15.898 13.268 15.847 C 13.416 15.819,13.672 15.751,13.838 15.696 C 15.696 15.074,17.079 13.691,17.694 11.840 C 18.201 10.315,18.020 8.055,17.164 5.237 C 16.846 4.188,16.018 1.826,15.866 1.531 C 15.785 1.374,15.610 1.208,15.421 1.106 C 15.260 1.020,15.251 1.020,12.100 1.014 C 10.362 1.011,8.877 1.021,8.800 1.037 M14.491 3.490 C 15.249 5.561,15.795 7.560,15.938 8.790 L 15.963 9.000 12.000 9.000 L 8.037 9.000 8.062 8.790 C 8.213 7.498,8.802 5.371,9.607 3.210 L 9.686 3.000 11.999 3.000 L 14.311 3.000 14.491 3.490 M15.880 11.013 C 15.880 11.020,15.838 11.151,15.786 11.303 C 15.365 12.541,14.381 13.466,13.060 13.866 C 12.727 13.967,12.647 13.975,12.000 13.975 C 11.353 13.975,11.273 13.967,10.940 13.866 C 9.839 13.532,8.992 12.858,8.479 11.908 C 8.355 11.677,8.120 11.093,8.120 11.013 C 8.120 11.006,9.866 11.000,12.000 11.000 C 14.134 11.000,15.880 11.006,15.880 11.013 " stroke="none" fill-rule="evenodd" fill="black"></path></svg>