<svg xmlns="http://www.w3.org/2000/svg" width="24" height="24" fill="none" viewBox="0 0 24 24"><path d="M5.800 5.037 C 5.505 5.097,5.256 5.293,5.110 5.579 C 4.994 5.807,4.998 6.199,5.118 6.440 C 5.182 6.568,5.990 7.403,7.893 9.310 L 10.579 12.000 7.893 14.690 C 5.990 16.597,5.182 17.432,5.118 17.560 C 4.937 17.922,5.017 18.406,5.305 18.695 C 5.594 18.983,6.078 19.063,6.440 18.882 C 6.568 18.818,7.403 18.010,9.310 16.107 L 12.000 13.421 14.690 16.107 C 16.597 18.010,17.432 18.818,17.560 18.882 C 17.922 19.063,18.406 18.983,18.695 18.695 C 18.983 18.406,19.063 17.922,18.882 17.560 C 18.818 17.432,18.010 16.597,16.107 14.690 L 13.421 12.000 16.107 9.310 C 18.010 7.403,18.818 6.568,18.882 6.440 C 19.063 6.078,18.983 5.594,18.695 5.305 C 18.406 5.017,17.922 4.937,17.560 5.118 C 17.432 5.182,16.597 5.990,14.690 7.893 L 12.000 10.579 9.310 7.893 C 7.575 6.162,6.563 5.180,6.460 5.129 C 6.270 5.036,5.994 4.997,5.800 5.037 " stroke="none" fill-rule="evenodd" fill="black"></path></svg>