<?xml version="1.0" encoding="UTF-8" standalone="no"?>
<!DOCTYPE svg PUBLIC "-//W3C//DTD SVG 1.1//EN"
 "http://www.w3.org/Graphics/SVG/1.1/DTD/svg11.dtd">
<!-- Generated by graphviz version 12.1.1 (0)
 -->
<!-- Title: model_scoring Pages: 1 -->
<svg width="657pt" height="656pt"
 viewBox="0.00 0.00 657.40 656.26" xmlns="http://www.w3.org/2000/svg" xmlns:xlink="http://www.w3.org/1999/xlink">
<g id="graph0" class="graph" transform="scale(1 1) rotate(0) translate(4 652.26)">
<title>model_scoring</title>
<g id="clust1" class="cluster">
<title>cluster_pipeline</title>
<path fill="none" stroke="#64748b" stroke-width="3" d="M20,-8C20,-8 493,-8 493,-8 499,-8 505,-14 505,-20 505,-20 505,-628.26 505,-628.26 505,-634.26 499,-640.26 493,-640.26 493,-640.26 20,-640.26 20,-640.26 14,-640.26 8,-634.26 8,-628.26 8,-628.26 8,-20 8,-20 8,-14 14,-8 20,-8"/>
<text text-anchor="middle" x="256.5" y="-623.91" font-family="Helvetica,sans-Serif" font-size="13.00">FELDERA PIPELINE</text>
</g>
<g id="clust2" class="cluster">
<title>cluster_compute</title>
<path fill="#eff6ff" stroke="#93c5fd" stroke-width="1.5" d="M28,-16.54C28,-16.54 194,-16.54 194,-16.54 200,-16.54 206,-22.54 206,-28.54 206,-28.54 206,-595.76 206,-595.76 206,-601.76 200,-607.76 194,-607.76 194,-607.76 28,-607.76 28,-607.76 22,-607.76 16,-601.76 16,-595.76 16,-595.76 16,-28.54 16,-28.54 16,-22.54 22,-16.54 28,-16.54"/>
<text text-anchor="middle" x="111" y="-593.31" font-family="Helvetica,sans-Serif" font-size="11.00" fill="#1d4ed8">compute features</text>
</g>
<g id="clust3" class="cluster">
<title>cluster_consume</title>
<path fill="#f0fdf4" stroke="#86efac" stroke-width="1.5" d="M226,-16C226,-16 485,-16 485,-16 491,-16 497,-22 497,-28 497,-28 497,-595.76 497,-595.76 497,-601.76 491,-607.76 485,-607.76 485,-607.76 226,-607.76 226,-607.76 220,-607.76 214,-601.76 214,-595.76 214,-595.76 214,-28 214,-28 214,-22 220,-16 226,-16"/>
<text text-anchor="middle" x="355.5" y="-593.31" font-family="Helvetica,sans-Serif" font-size="11.00" fill="#15803d">analyze predictions</text>
</g>
<!-- transaction -->
<g id="node1" class="node">
<title>transaction</title>
<polygon fill="#dbeafe" stroke="#60a5fa" points="103.77,-578.26 24.23,-578.26 24.23,-542.26 103.77,-542.26 103.77,-578.26"/>
<text text-anchor="middle" x="64" y="-556.56" font-family="Helvetica,sans-Serif" font-size="11.00">transaction</text>
</g>
<!-- recent_transaction -->
<g id="node4" class="node">
<title>recent_transaction</title>
<polygon fill="#ffffff" stroke="#94a3b8" points="144.01,-495.01 23.98,-495.01 23.98,-459.01 144.01,-459.01 144.01,-495.01"/>
<text text-anchor="middle" x="84" y="-473.31" font-family="Helvetica,sans-Serif" font-size="11.00">recent_transaction</text>
</g>
<!-- transaction&#45;&gt;recent_transaction -->
<g id="edge1" class="edge">
<title>transaction&#45;&gt;recent_transaction</title>
<path fill="none" stroke="#555555" d="M68.24,-542.03C70.77,-531.76 74.04,-518.46 76.95,-506.65"/>
<polygon fill="#555555" stroke="#555555" points="80.34,-507.51 79.33,-496.97 73.55,-505.84 80.34,-507.51"/>
<text text-anchor="middle" x="93.2" y="-515.71" font-family="Helvetica,sans-Serif" font-size="9.00">30 days</text>
</g>
<!-- cardholder -->
<g id="node2" class="node">
<title>cardholder</title>
<polygon fill="#dbeafe" stroke="#60a5fa" points="197.89,-578.26 122.11,-578.26 122.11,-542.26 197.89,-542.26 197.89,-578.26"/>
<text text-anchor="middle" x="160" y="-556.56" font-family="Helvetica,sans-Serif" font-size="11.00">cardholder</text>
</g>
<!-- asof_features -->
<g id="node3" class="node">
<title>asof_features</title>
<polygon fill="#fde68a" stroke="#d97706" points="168.89,-422.01 87.11,-422.01 87.11,-384.93 168.89,-384.93 168.89,-422.01"/>
<text text-anchor="middle" x="128" y="-406.52" font-family="Helvetica,sans-Serif" font-size="11.00">ASOF JOIN</text>
<text text-anchor="middle" x="128" y="-393.02" font-family="Helvetica,sans-Serif" font-size="11.00">t.ts &gt;= c.ts</text>
</g>
<!-- cardholder&#45;&gt;asof_features -->
<g id="edge3" class="edge">
<title>cardholder&#45;&gt;asof_features</title>
<path fill="none" stroke="#555555" d="M160.66,-541.93C161,-521.71 160.24,-487.41 153,-459.01 150.71,-450.03 146.99,-440.7 143.11,-432.35"/>
<polygon fill="#555555" stroke="#555555" points="146.26,-430.83 138.7,-423.41 139.99,-433.92 146.26,-430.83"/>
</g>
<!-- features -->
<g id="node5" class="node">
<title>features</title>
<polygon fill="#ffffff" stroke="#94a3b8" points="159.52,-347.93 96.48,-347.93 96.48,-311.93 159.52,-311.93 159.52,-347.93"/>
<text text-anchor="middle" x="128" y="-326.23" font-family="Helvetica,sans-Serif" font-size="11.00">features</text>
</g>
<!-- asof_features&#45;&gt;features -->
<g id="edge4" class="edge">
<title>asof_features&#45;&gt;features</title>
<path fill="none" stroke="#555555" d="M128,-384.79C128,-377.25 128,-368.26 128,-359.8"/>
<polygon fill="#555555" stroke="#555555" points="131.5,-359.92 128,-349.92 124.5,-359.92 131.5,-359.92"/>
</g>
<!-- recent_transaction&#45;&gt;asof_features -->
<g id="edge2" class="edge">
<title>recent_transaction&#45;&gt;asof_features</title>
<path fill="none" stroke="#555555" d="M94.65,-458.69C99.57,-450.7 105.52,-441.02 111.03,-432.06"/>
<polygon fill="#555555" stroke="#555555" points="113.94,-434.02 116.19,-423.66 107.97,-430.35 113.94,-434.02"/>
</g>
<!-- fingerprinted_features -->
<g id="node6" class="node">
<title>fingerprinted_features</title>
<polygon fill="#ffffff" stroke="#94a3b8" points="197.39,-264.68 58.61,-264.68 58.61,-228.68 197.39,-228.68 197.39,-264.68"/>
<text text-anchor="middle" x="128" y="-242.98" font-family="Helvetica,sans-Serif" font-size="11.00">fingerprinted_features</text>
</g>
<!-- features&#45;&gt;fingerprinted_features -->
<g id="edge5" class="edge">
<title>features&#45;&gt;fingerprinted_features</title>
<path fill="none" stroke="#555555" d="M128,-311.7C128,-301.43 128,-288.13 128,-276.32"/>
<polygon fill="#555555" stroke="#555555" points="131.5,-276.68 128,-266.68 124.5,-276.68 131.5,-276.68"/>
<text text-anchor="middle" x="152.38" y="-285.38" font-family="Helvetica,sans-Serif" font-size="9.00">fingerprint</text>
</g>
<!-- anti_pending -->
<g id="node7" class="node">
<title>anti_pending</title>
<polygon fill="#fde68a" stroke="#d97706" points="197.64,-163.42 54.36,-163.42 54.36,-126.34 197.64,-126.34 197.64,-163.42"/>
<text text-anchor="middle" x="126" y="-147.93" font-family="Helvetica,sans-Serif" font-size="11.00">ANTI JOIN</text>
<text text-anchor="middle" x="126" y="-134.43" font-family="Helvetica,sans-Serif" font-size="11.00">fingerprint, event_time</text>
</g>
<!-- fingerprinted_features&#45;&gt;anti_pending -->
<g id="edge6" class="edge">
<title>fingerprinted_features&#45;&gt;anti_pending</title>
<path fill="none" stroke="#555555" d="M127.65,-228.3C127.36,-213.67 126.93,-192.43 126.59,-175.18"/>
<polygon fill="#555555" stroke="#555555" points="130.09,-175.18 126.39,-165.25 123.09,-175.32 130.09,-175.18"/>
</g>
<!-- join_scored -->
<g id="node11" class="node">
<title>join_scored</title>
<polygon fill="#fde68a" stroke="#d97706" points="365.64,-163.42 222.36,-163.42 222.36,-126.34 365.64,-126.34 365.64,-163.42"/>
<text text-anchor="middle" x="294" y="-147.93" font-family="Helvetica,sans-Serif" font-size="11.00">JOIN</text>
<text text-anchor="middle" x="294" y="-134.43" font-family="Helvetica,sans-Serif" font-size="11.00">fingerprint, event_time</text>
</g>
<!-- fingerprinted_features&#45;&gt;join_scored -->
<g id="edge12" class="edge">
<title>fingerprinted_features&#45;&gt;join_scored</title>
<path fill="none" stroke="#555555" stroke-dasharray="5,2" d="M156.91,-228.3C183.87,-212.09 224.31,-187.78 254.29,-169.76"/>
<polygon fill="#555555" stroke="#555555" points="255.95,-172.84 262.72,-164.69 252.35,-166.84 255.95,-172.84"/>
</g>
<!-- unpredicted_features -->
<g id="node8" class="node">
<title>unpredicted_features</title>
<polygon fill="#ffffff" stroke="#94a3b8" points="192.76,-60.54 59.23,-60.54 59.23,-24.54 192.76,-24.54 192.76,-60.54"/>
<text text-anchor="middle" x="126" y="-38.84" font-family="Helvetica,sans-Serif" font-size="11.00">unpredicted_features</text>
</g>
<!-- anti_pending&#45;&gt;unpredicted_features -->
<g id="edge8" class="edge">
<title>anti_pending&#45;&gt;unpredicted_features</title>
<path fill="none" stroke="#555555" d="M126,-125.94C126,-111.08 126,-89.68 126,-72.41"/>
<polygon fill="#555555" stroke="#555555" points="129.5,-72.5 126,-62.5 122.5,-72.5 129.5,-72.5"/>
</g>
<!-- model_server -->
<g id="node17" class="node">
<title>model_server</title>
<polygon fill="#fef3c7" stroke="#f59e0b" stroke-width="2" points="649.4,-191.68 512.6,-191.68 512.6,-98.08 649.4,-98.08 649.4,-191.68"/>
<text text-anchor="middle" x="581" y="-148.63" font-family="Helvetica,sans-Serif" font-size="15.00">MODEL</text>
<text text-anchor="middle" x="581" y="-130.63" font-family="Helvetica,sans-Serif" font-size="15.00">SERVER</text>
</g>
<!-- unpredicted_features&#45;&gt;model_server -->
<g id="edge9" class="edge">
<title>unpredicted_features:s&#45;&gt;model_server:s</title>
<path fill="none" stroke="#b45309" stroke-width="2" d="M126,-23.54C126,-16.12 186.53,-20.52 192.76,-24.54 207.86,-34.27 195.33,-50.72 210,-61.08 274.38,-106.53 551.94,-24.03 578.89,-87.17"/>
<polygon fill="#b45309" stroke="#b45309" stroke-width="2" points="575.09,-85.95 580.43,-95.11 581.97,-84.63 575.09,-85.95"/>
</g>
<!-- model_prediction -->
<g id="node9" class="node">
<title>model_prediction</title>
<polygon fill="#dbeafe" stroke="#60a5fa" points="333.51,-578.26 222.49,-578.26 222.49,-542.26 333.51,-542.26 333.51,-578.26"/>
<text text-anchor="middle" x="278" y="-556.56" font-family="Helvetica,sans-Serif" font-size="11.00">model_prediction</text>
</g>
<!-- live_prediction -->
<g id="node13" class="node">
<title>live_prediction</title>
<polygon fill="#ffffff" stroke="#94a3b8" points="336.39,-495.01 239.61,-495.01 239.61,-459.01 336.39,-459.01 336.39,-495.01"/>
<text text-anchor="middle" x="288" y="-473.31" font-family="Helvetica,sans-Serif" font-size="11.00">live_prediction</text>
</g>
<!-- model_prediction&#45;&gt;live_prediction -->
<g id="edge11" class="edge">
<title>model_prediction&#45;&gt;live_prediction</title>
<path fill="none" stroke="#555555" d="M280.12,-542.03C281.38,-531.76 283.02,-518.46 284.48,-506.65"/>
<polygon fill="#555555" stroke="#555555" points="287.92,-507.35 285.66,-497 280.97,-506.5 287.92,-507.35"/>
<text text-anchor="middle" x="301.6" y="-515.71" font-family="Helvetica,sans-Serif" font-size="9.00">90 days</text>
</g>
<!-- confirmed_fraud_label -->
<g id="node10" class="node">
<title>confirmed_fraud_label</title>
<polygon fill="#dbeafe" stroke="#60a5fa" points="488.64,-578.26 351.36,-578.26 351.36,-542.26 488.64,-542.26 488.64,-578.26"/>
<text text-anchor="middle" x="420" y="-556.56" font-family="Helvetica,sans-Serif" font-size="11.00">confirmed_fraud_label</text>
</g>
<!-- left_confusion -->
<g id="node12" class="node">
<title>left_confusion</title>
<polygon fill="#fde68a" stroke="#d97706" points="465.89,-422.01 336.11,-422.01 336.11,-384.93 465.89,-384.93 465.89,-422.01"/>
<text text-anchor="middle" x="401" y="-406.52" font-family="Helvetica,sans-Serif" font-size="11.00">LEFT JOIN</text>
<text text-anchor="middle" x="401" y="-393.02" font-family="Helvetica,sans-Serif" font-size="11.00">trans_id, event_time</text>
</g>
<!-- confirmed_fraud_label&#45;&gt;left_confusion -->
<g id="edge16" class="edge">
<title>confirmed_fraud_label&#45;&gt;left_confusion</title>
<path fill="none" stroke="#555555" d="M417.86,-541.8C414.62,-515.44 408.45,-465.18 404.54,-433.32"/>
<polygon fill="#555555" stroke="#555555" points="408.04,-433.1 403.35,-423.6 401.09,-433.95 408.04,-433.1"/>
</g>
<!-- predicted_transaction -->
<g id="node16" class="node">
<title>predicted_transaction</title>
<polygon fill="#ffffff" stroke="#cbd5e1" stroke-dasharray="5,2" points="362.26,-61.08 225.74,-61.08 225.74,-24 362.26,-24 362.26,-61.08"/>
<text text-anchor="middle" x="294" y="-45.59" font-family="Helvetica,sans-Serif" font-size="11.00">predicted_transaction</text>
<text text-anchor="middle" x="294" y="-32.09" font-family="Helvetica,sans-Serif" font-size="11.00">(debug)</text>
</g>
<!-- join_scored&#45;&gt;predicted_transaction -->
<g id="edge14" class="edge">
<title>join_scored&#45;&gt;predicted_transaction</title>
<path fill="none" stroke="#555555" stroke-dasharray="5,2" d="M294,-125.94C294,-111.17 294,-89.94 294,-72.73"/>
<polygon fill="#555555" stroke="#555555" points="297.5,-72.84 294,-62.84 290.5,-72.84 297.5,-72.84"/>
</g>
<!-- model_confusion -->
<g id="node14" class="node">
<title>model_confusion</title>
<polygon fill="#ffffff" stroke="#94a3b8" points="455.39,-347.93 346.61,-347.93 346.61,-311.93 455.39,-311.93 455.39,-347.93"/>
<text text-anchor="middle" x="401" y="-326.23" font-family="Helvetica,sans-Serif" font-size="11.00">model_confusion</text>
</g>
<!-- left_confusion&#45;&gt;model_confusion -->
<g id="edge17" class="edge">
<title>left_confusion&#45;&gt;model_confusion</title>
<path fill="none" stroke="#555555" d="M401,-384.79C401,-377.25 401,-368.26 401,-359.8"/>
<polygon fill="#555555" stroke="#555555" points="404.5,-359.92 401,-349.92 397.5,-359.92 404.5,-359.92"/>
</g>
<!-- live_prediction&#45;&gt;anti_pending -->
<g id="edge7" class="edge">
<title>live_prediction&#45;&gt;anti_pending</title>
<path fill="none" stroke="#555555" d="M266.8,-458.61C253.17,-445.37 238,-425.84 238,-404.47 238,-404.47 238,-404.47 238,-245.68 238,-225.29 196.12,-192.52 163.58,-170.13"/>
<polygon fill="#555555" stroke="#555555" points="165.76,-167.38 155.52,-164.68 161.84,-173.18 165.76,-167.38"/>
</g>
<!-- live_prediction&#45;&gt;join_scored -->
<g id="edge13" class="edge">
<title>live_prediction&#45;&gt;join_scored</title>
<path fill="none" stroke="#555555" stroke-dasharray="5,2" d="M289.51,-458.68C290.64,-444.2 292,-423 292,-404.47 292,-404.47 292,-404.47 292,-245.68 292,-222 292.57,-195.17 293.1,-175.29"/>
<polygon fill="#555555" stroke="#555555" points="296.6,-175.51 293.38,-165.42 289.6,-175.32 296.6,-175.51"/>
</g>
<!-- live_prediction&#45;&gt;left_confusion -->
<g id="edge15" class="edge">
<title>live_prediction&#45;&gt;left_confusion</title>
<path fill="none" stroke="#555555" d="M315.35,-458.69C329.74,-449.58 347.6,-438.28 363.29,-428.35"/>
<polygon fill="#555555" stroke="#555555" points="364.86,-431.49 371.44,-423.19 361.12,-425.58 364.86,-431.49"/>
</g>
<!-- model_score -->
<g id="node15" class="node">
<title>model_score</title>
<polygon fill="#dcfce7" stroke="#4ade80" points="444.14,-264.68 357.86,-264.68 357.86,-228.68 444.14,-228.68 444.14,-264.68"/>
<text text-anchor="middle" x="401" y="-242.98" font-family="Helvetica,sans-Serif" font-size="11.00">model_score</text>
</g>
<!-- model_confusion&#45;&gt;model_score -->
<g id="edge18" class="edge">
<title>model_confusion&#45;&gt;model_score</title>
<path fill="none" stroke="#555555" d="M401,-311.7C401,-301.43 401,-288.13 401,-276.32"/>
<polygon fill="#555555" stroke="#555555" points="404.5,-276.68 401,-266.68 397.5,-276.68 404.5,-276.68"/>
</g>
<!-- model_server&#45;&gt;model_prediction -->
<g id="edge10" class="edge">
<title>model_server:n&#45;&gt;model_prediction:n</title>
<path fill="none" stroke="#b45309" stroke-width="2" d="M581,-191.68C581,-304.37 541.54,-331.06 475,-422.01 428.14,-486.06 384.13,-474.39 343,-542.26 334.43,-556.41 346.53,-568.04 333.51,-578.26 326.54,-583.74 300.91,-588.23 287.05,-585.74"/>
<polygon fill="#b45309" stroke="#b45309" stroke-width="2" points="290.63,-584 280.46,-581.02 286.55,-589.69 290.63,-584"/>
</g>
</g>
</svg>
