<?xml version="1.0" standalone="no"?>
<!DOCTYPE svg PUBLIC "-//W3C//DTD SVG 20010904//EN"
 "http://www.w3.org/TR/2001/REC-SVG-20010904/DTD/svg10.dtd">
<svg version="1.0" xmlns="http://www.w3.org/2000/svg"
 width="900.000000pt" height="900.000000pt" viewBox="0 0 900.000000 900.000000"
 preserveAspectRatio="xMidYMid meet">
<metadata>
Created by potrace 1.10, written by Peter Selinger 2001-2011
</metadata>
<g transform="translate(0.000000,900.000000) scale(0.100000,-0.100000)"
fill="#000000" stroke="none">
<path d="M2605 8908 c-138 -22 -310 -84 -420 -151 -168 -102 -360 -308 -425
-454 -5 -13 -19 -42 -30 -65 -25 -51 -53 -137 -75 -230 -22 -94 -22 -365 0
-451 36 -140 51 -185 77 -236 16 -30 28 -59 28 -63 0 -12 87 -145 100 -153 5
-3 10 -13 10 -21 0 -11 -21 -14 -110 -14 -98 0 -110 -2 -120 -19 -5 -11 -10
-70 -10 -131 0 -61 5 -120 10 -131 10 -17 22 -19 140 -19 97 0 130 -3 130 -12
0 -7 0 -579 0 -1270 l0 -1257 -103 -174 c-57 -95 -107 -180 -110 -188 -4 -8
-16 -27 -27 -44 -11 -16 -24 -39 -30 -50 -6 -11 -19 -33 -30 -50 -11 -16 -23
-37 -27 -45 -4 -8 -66 -114 -138 -235 -72 -121 -134 -227 -138 -235 -4 -8 -16
-28 -27 -45 -11 -16 -24 -39 -30 -50 -6 -11 -20 -36 -31 -55 -34 -57 -306
-515 -328 -552 -11 -18 -29 -51 -41 -73 -12 -22 -35 -59 -51 -83 -16 -24 -29
-45 -29 -47 0 -3 -46 -83 -103 -177 -57 -95 -106 -180 -110 -188 -4 -8 -16
-28 -27 -45 -11 -16 -24 -39 -30 -50 -6 -11 -19 -33 -30 -50 -11 -16 -23 -37
-27 -45 -4 -8 -66 -114 -138 -235 -170 -286 -207 -365 -226 -470 -18 -101 -20
-191 -6 -285 14 -92 22 -120 56 -205 70 -178 248 -356 426 -426 181 -72 49
-68 2374 -69 1469 0 2104 3 2150 11 81 13 199 48 207 60 3 5 12 9 20 9 8 0 52
24 97 54 86 56 186 153 229 221 38 60 88 156 88 169 1 31 22 40 121 52 57 6
108 10 114 7 7 -2 18 -16 25 -31 6 -15 19 -43 28 -62 9 -19 29 -54 44 -78 15
-24 28 -47 28 -51 0 -17 166 -177 220 -212 182 -119 363 -164 564 -140 157 18
274 61 397 146 28 19 55 35 59 35 10 0 44 -19 97 -53 24 -15 45 -27 48 -27 3
0 33 -13 67 -29 161 -74 371 -96 573 -62 192 33 372 128 520 276 257 257 351
611 258 970 -18 71 -22 81 -62 165 -66 139 -159 255 -282 351 -83 66 -92 71
-187 119 -273 134 -595 132 -877 -5 -94 -46 -195 -120 -267 -197 -65 -69 -58
-68 -198 -21 l-85 29 -7 75 c-19 203 -86 405 -180 545 -28 42 -36 88 -19 98
16 10 100 190 125 267 141 435 81 874 -172 1249 -164 241 -367 405 -657 531
-44 19 -112 41 -153 50 -71 14 -97 31 -94 59 8 73 5 260 -5 293 -7 21 -10 44
-7 51 3 7 37 27 77 46 184 85 399 273 477 416 12 22 30 53 41 69 10 17 21 37
25 45 72 181 79 204 99 345 18 121 19 204 4 310 -29 221 -121 422 -275 600
-41 48 -74 91 -74 96 0 5 9 37 19 71 39 131 45 168 49 334 5 204 -13 314 -82
499 -65 177 -209 379 -359 505 -186 157 -356 239 -600 291 -162 34 -466 18
-607 -32 -79 -27 -118 -43 -167 -65 -65 -30 -84 -30 -133 1 -22 14 -45 25 -51
25 -6 0 -23 6 -37 14 -37 19 -104 41 -188 61 -55 13 -105 16 -220 12 -82 -2
-158 -7 -170 -11 -16 -6 -36 5 -92 49 -127 99 -269 173 -406 211 -145 40 -345
53 -481 32z m353 -294 c177 -44 310 -121 444 -258 64 -65 88 -71 158 -43 19 8
76 20 127 27 291 40 573 -108 721 -380 35 -64 82 -226 82 -282 l0 -38 141 0
141 0 -7 98 c-4 53 -14 112 -21 131 -8 18 -14 42 -14 52 0 35 -85 211 -138
283 -27 37 -33 52 -25 65 15 24 123 55 242 71 92 12 119 12 225 -3 151 -20
207 -36 315 -88 315 -153 515 -434 562 -792 26 -200 -22 -424 -133 -611 -75
-127 -158 -218 -283 -311 -131 -97 -356 -178 -525 -187 l-45 -3 -3 -132 c-3
-159 -7 -154 123 -142 195 19 406 91 553 190 24 16 45 29 49 29 11 0 159 129
208 181 28 30 66 75 85 102 18 26 36 47 39 47 30 -1 133 -159 171 -262 77
-211 67 -457 -28 -658 -58 -122 -172 -259 -278 -333 -58 -40 -169 -97 -189
-97 -7 0 -24 17 -36 38 -73 122 -206 249 -344 331 -81 48 -226 104 -300 116
-135 21 -166 24 -179 19 -13 -5 -16 -28 -16 -140 0 -153 1 -154 87 -154 120 0
298 -87 411 -201 63 -63 96 -111 139 -199 54 -113 66 -166 66 -303 0 -113 -3
-132 -32 -215 -39 -114 -83 -189 -155 -269 -113 -124 -308 -223 -442 -223 -27
0 -55 -5 -62 -12 -16 -16 -17 -259 -1 -275 7 -7 24 -10 38 -8 202 29 278 50
397 111 173 88 307 214 407 380 36 61 41 65 66 58 14 -4 44 -10 66 -14 22 -3
50 -12 62 -18 12 -7 29 -12 37 -12 20 0 152 -62 219 -103 64 -38 178 -130 234
-189 93 -97 205 -276 248 -398 52 -146 58 -188 58 -385 0 -195 -1 -205 -50
-360 -25 -81 -77 -184 -140 -277 -153 -228 -370 -386 -633 -462 -67 -19 -211
-45 -265 -49 l-40 -2 0 -135 0 -135 110 2 c132 2 215 21 410 90 54 20 196 91
216 109 8 8 19 14 23 14 10 0 164 117 201 153 58 56 61 55 98 -25 60 -129 71
-186 71 -353 -1 -121 -4 -164 -21 -220 -42 -145 -112 -269 -204 -366 -51 -53
-156 -137 -189 -152 -8 -4 -22 -11 -30 -16 -25 -16 -103 -48 -145 -61 -22 -6
-53 -16 -70 -21 -16 -5 -65 -12 -107 -16 -88 -7 -75 -22 -103 117 -27 137 -50
184 -242 505 -65 110 -122 207 -126 215 -4 8 -16 29 -27 45 -11 17 -24 39 -30
50 -6 11 -19 34 -30 50 -11 17 -23 37 -27 45 -4 8 -32 58 -64 110 -71 118 -73
128 -54 181 18 50 40 136 48 191 8 51 -8 58 -137 58 -135 0 -156 -8 -156 -57
0 -77 -67 -203 -143 -268 -73 -62 -185 -105 -277 -105 -159 0 -318 104 -390
254 -31 65 -33 78 -36 195 -2 69 -4 132 -4 139 0 16 -58 13 -202 -8 -209 -30
-429 49 -593 216 -110 112 -165 222 -192 389 -23 145 5 307 78 441 138 256
426 403 712 364 51 -7 107 -18 126 -26 18 -8 40 -14 47 -14 7 0 51 -22 96 -49
75 -44 166 -124 216 -191 65 -86 125 -240 137 -353 l7 -67 139 0 c76 0 140 4
143 8 7 11 -20 205 -31 228 -6 10 -13 36 -16 57 -8 53 -103 245 -137 277 -3 3
-22 28 -42 55 -107 148 -353 299 -563 346 l-60 14 -3 1218 -2 1217 124 0 c68
0 131 3 140 6 24 9 24 279 0 288 -9 3 -126 6 -260 6 -163 0 -244 3 -244 10 0
6 18 34 39 63 39 52 141 254 141 281 0 7 7 32 15 55 19 55 48 250 40 278 -5
22 -9 23 -134 23 -95 0 -131 -3 -140 -13 -6 -8 -15 -55 -20 -105 -5 -50 -14
-100 -20 -111 -6 -11 -11 -27 -11 -35 0 -23 -58 -142 -99 -206 -44 -66 -142
-173 -195 -212 l-39 -28 -489 0 -489 0 -93 93 c-98 97 -137 149 -179 238 -99
210 -112 405 -43 644 19 69 91 203 133 251 19 21 42 49 50 62 27 40 174 147
253 184 74 36 97 44 195 72 71 21 279 20 363 0z m670 -3056 l2 -1207 -24 -16
c-13 -9 -48 -20 -77 -24 -124 -21 -318 -130 -445 -249 -115 -108 -218 -273
-258 -412 -10 -36 -23 -78 -29 -95 -6 -16 -13 -102 -16 -190 l-6 -160 -554 -3
c-335 -1 -559 2 -564 7 -8 8 22 71 80 166 7 11 17 29 23 40 6 11 19 34 30 50
11 17 24 39 29 50 5 11 21 37 35 58 14 21 26 40 26 42 0 3 53 94 118 203 65
108 121 204 125 212 4 8 16 29 26 45 11 17 29 47 40 68 21 37 21 42 21 1332
l0 1295 708 -2 707 -3 3 -1207z m-758 -2651 c9 -7 35 -45 59 -86 51 -87 166
-211 260 -280 145 -108 312 -171 491 -186 96 -8 120 -17 120 -45 0 -39 79
-199 128 -259 96 -118 213 -198 362 -247 43 -15 86 -19 200 -19 125 0 154 3
208 23 79 28 156 67 199 100 18 13 39 22 47 19 11 -5 146 -218 146 -232 0 -2
12 -21 26 -42 14 -21 30 -47 35 -58 5 -11 18 -33 29 -50 11 -16 24 -39 30 -50
6 -11 19 -33 30 -50 11 -16 23 -37 27 -45 4 -8 30 -53 58 -100 143 -236 159
-280 158 -425 0 -79 -5 -123 -18 -155 -72 -188 -171 -286 -355 -351 -52 -18
-87 -19 -742 -19 -386 0 -688 4 -688 9 0 5 32 19 72 32 79 25 183 76 238 117
48 36 162 149 192 192 37 51 87 148 108 205 46 130 51 162 51 302 0 126 -3
146 -31 233 -65 202 -164 340 -330 462 -131 96 -323 158 -490 158 -189 0 -379
-70 -539 -197 -108 -86 -234 -259 -262 -358 -49 -176 -59 -227 -59 -298 0
-194 85 -417 215 -562 112 -126 233 -206 383 -254 39 -13 69 -27 66 -32 -3 -5
-547 -9 -1257 -9 -1211 0 -1254 1 -1314 20 -73 23 -89 31 -165 88 -136 101
-208 248 -208 422 0 134 20 186 155 410 28 47 54 92 58 100 4 8 16 29 27 45
11 17 24 39 30 50 5 11 14 27 20 35 21 32 250 421 250 425 0 2 13 23 29 47 28
43 61 98 101 173 12 22 35 59 51 83 16 24 29 45 29 46 0 2 46 82 103 177 57
96 106 181 110 189 4 8 16 29 27 45 11 17 24 39 30 50 6 11 19 34 30 50 11 17
23 37 27 45 4 8 16 27 27 43 l20 27 690 0 c528 -1 695 -4 706 -13z m805 -1166
c67 -26 92 -39 152 -84 170 -124 256 -334 224 -538 -40 -250 -222 -433 -472
-476 -80 -13 -98 -13 -178 0 -211 36 -370 167 -446 368 -26 66 -29 86 -28 194
0 129 7 155 66 272 68 135 234 257 387 284 74 13 239 2 295 -20z m4459 -2
c115 -39 196 -89 286 -179 71 -70 94 -102 133 -179 26 -51 47 -101 47 -111 0
-10 7 -34 15 -53 20 -48 21 -261 1 -314 -7 -21 -21 -64 -31 -96 -10 -32 -22
-60 -26 -63 -4 -2 -18 -25 -30 -52 -13 -27 -60 -84 -108 -132 -70 -70 -104
-95 -180 -133 -51 -26 -101 -47 -111 -47 -10 0 -34 -7 -53 -15 -49 -20 -256
-20 -312 0 -22 8 -47 15 -56 15 -27 0 -173 76 -224 117 -27 22 -76 66 -108 97
-32 31 -64 56 -71 56 -8 0 -20 -10 -29 -23 -33 -51 -163 -170 -221 -201 -104
-58 -169 -76 -276 -76 -156 0 -293 56 -398 162 -56 56 -116 145 -127 189 -7
28 5 39 95 87 144 77 323 254 411 407 43 76 99 203 99 226 0 10 7 25 16 34 38
38 193 -33 295 -134 101 -101 155 -209 168 -331 l6 -65 141 -3 c120 -2 143 0
148 13 7 20 -18 162 -44 244 -27 84 -92 203 -145 266 -65 77 -65 84 0 141 62
55 209 144 238 144 10 0 28 6 40 12 58 33 310 31 411 -3z"/>
<path d="M1900 2606 c-112 -38 -163 -69 -240 -146 -114 -114 -170 -246 -170
-400 0 -104 23 -184 87 -305 21 -39 139 -157 178 -178 210 -111 372 -117 573
-20 76 37 198 159 235 235 89 186 90 350 1 534 -39 79 -159 199 -238 238 -145
70 -300 85 -426 42z m297 -297 c49 -30 83 -64 113 -114 22 -35 25 -52 25 -136
0 -87 -2 -99 -27 -136 -36 -55 -66 -85 -113 -114 -35 -21 -52 -24 -136 -24
-95 0 -97 1 -150 37 -30 21 -70 61 -89 89 -34 50 -35 55 -35 148 0 85 3 101
25 136 41 66 107 122 163 136 60 15 183 3 224 -22z"/>
<path d="M7095 6050 c-61 -8 -123 -26 -185 -54 -61 -28 -142 -83 -190 -128
-85 -80 -166 -213 -204 -335 -23 -74 -23 -297 0 -367 48 -147 96 -228 188
-321 84 -85 165 -134 286 -175 80 -27 101 -30 217 -30 128 0 161 6 268 49 105
41 233 140 298 229 44 60 107 181 107 205 0 10 7 32 16 49 24 46 23 279 -1
356 -68 220 -204 381 -395 467 -113 52 -268 73 -405 55z m225 -292 c187 -57
314 -225 313 -413 -1 -190 -141 -368 -323 -411 -165 -40 -347 24 -442 154 -60
84 -87 162 -87 257 -2 218 150 390 379 429 34 6 117 -2 160 -16z"/>
<path d="M7815 4191 c-52 -8 -74 -16 -165 -60 -82 -39 -200 -159 -239 -243
-34 -74 -61 -185 -61 -252 0 -87 36 -230 67 -267 7 -8 13 -19 13 -24 0 -19 88
-120 139 -159 79 -60 161 -96 263 -114 80 -14 96 -14 176 0 220 39 387 183
457 393 28 85 27 256 -3 342 -36 103 -68 153 -146 233 -50 50 -114 89 -218
133 -43 19 -210 29 -283 18z m199 -292 c103 -40 174 -128 192 -237 11 -72 -32
-179 -99 -243 -66 -64 -193 -87 -287 -52 -57 20 -135 95 -161 152 -27 61 -26
167 2 227 43 95 156 172 256 173 22 1 66 -9 97 -20z"/>
</g>
</svg>
