<svg xmlns="http://www.w3.org/2000/svg" width="24" height="24" viewBox="0 0 24 24"><path fill="currentColor" d="m17 21l3-3l-.7-.7l-1.8 1.8V15h-1v4.1l-1.8-1.8l-.7.7l3 3Zm-5-9.575Zm-9-4.55L12 1.7l9 5.175v5.4q-.45-.325-.95-.562T19 11.3V9.1l-3.6 2.075q-1.4.35-2.538 1.188T11 14.4v-1.825L5 9.1v6.85l5.05 2.925q.1.8.375 1.538t.7 1.387L3 17.125V6.875Zm3.075.55L12 10.85l5.925-3.425L12 4L6.075 7.425ZM17 23q-2.075 0-3.538-1.463T12 18q0-2.075 1.463-3.538T17 13q2.075 0 3.538 1.463T22 18q0 2.075-1.463 3.538T17 23Z"/></svg>