<?xml version="1.0" standalone="no"?>
<!DOCTYPE svg PUBLIC "-//W3C//DTD SVG 20010904//EN"
 "http://www.w3.org/TR/2001/REC-SVG-20010904/DTD/svg10.dtd">
<svg version="1.0" xmlns="http://www.w3.org/2000/svg"
 width="185.000000pt" height="200.000000pt" viewBox="0 0 185.000000 200.000000"
 preserveAspectRatio="xMidYMid meet">

<g transform="translate(0.000000,200.000000) scale(0.100000,-0.100000)"
fill="#000000" stroke="none">
<path d="M886 1935 c-21 -7 -51 -26 -67 -41 -80 -76 -56 -234 40 -274 l31 -12
0 -739 0 -739 50 0 50 0 0 738 0 737 39 22 c45 26 81 90 81 145 0 77 -53 147
-128 168 -46 12 -48 12 -96 -5z m104 -115 c27 -27 25 -66 -5 -95 -30 -30 -54
-31 -89 -4 -30 24 -34 63 -10 97 20 29 76 30 104 2z"/>
<path d="M365 1737 c-56 -31 -88 -94 -82 -165 4 -60 26 -95 80 -131 l37 -24 0
-111 0 -111 120 -120 120 -120 0 -412 0 -413 55 0 55 0 0 433 0 432 -125 125
-125 125 0 86 0 86 37 24 c56 37 76 71 80 136 3 47 -1 66 -19 98 -47 80 -151
108 -233 62z m133 -97 c46 -43 15 -120 -48 -120 -62 0 -92 71 -48 117 27 28
67 30 96 3z"/>
<path d="M1355 1744 c-68 -35 -95 -82 -95 -162 0 -58 27 -105 83 -141 l37 -24
0 -86 0 -86 -125 -125 -125 -125 0 -432 0 -433 50 0 50 0 0 410 0 409 125 128
125 127 0 106 0 107 38 24 c108 70 104 235 -6 297 -47 26 -114 29 -157 6z
m120 -109 c28 -27 31 -45 14 -78 -16 -29 -28 -37 -63 -37 -40 0 -66 26 -66 67
0 67 68 96 115 48z"/>
<path d="M224 1081 c-75 -19 -124 -87 -124 -173 0 -66 27 -113 83 -143 l37
-20 0 -110 0 -110 90 -90 90 -90 0 -107 0 -108 50 0 50 0 0 128 0 127 -90 90
-90 90 0 92 c0 55 4 93 10 93 5 0 28 16 50 36 133 120 17 338 -156 295z m76
-106 c50 -26 52 -90 5 -121 -73 -48 -147 61 -79 115 32 25 37 25 74 6z"/>
<path d="M1557 1075 c-102 -36 -144 -140 -98 -242 13 -28 33 -49 60 -65 l41
-23 0 -90 0 -90 -90 -90 -90 -90 0 -127 0 -128 50 0 50 0 0 108 0 107 90 90
90 90 0 110 0 110 40 23 c70 40 103 149 65 221 -20 39 -69 78 -113 91 -46 12
-48 12 -95 -5z m106 -117 c26 -30 22 -73 -9 -97 -15 -12 -34 -21 -44 -21 -29
0 -70 39 -70 66 0 74 76 106 123 52z"/>
</g>
</svg>
