<svg xmlns="http://www.w3.org/2000/svg" width="512" height="512" viewBox="0 0 512 512"><path fill="currentColor" d="M256.977 22.395c-16.8 0-32.49 7.65-45.864 20.177c-13.372 12.53-24.82 29.98-34.363 51.117c-2 4.428-3.91 9.03-5.736 13.777a264.528 264.528 0 0 0-14.83-1.926c-5.77-.575-11.4-.932-16.87-1.06c-16.42-.39-31.427 1.275-44.58 5.262c-17.536 5.317-32.006 15.083-40.406 29.63c-8.4 14.55-9.62 31.964-5.457 49.81c4.165 17.845 13.552 36.484 27.087 55.318c2.84 3.95 5.874 7.912 9.076 11.873a263.816 263.816 0 0 0-9.064 11.86c-13.536 18.833-22.923 37.472-27.087 55.318c-4.164 17.846-2.943 35.26 5.457 49.807c8.4 14.55 22.87 24.315 40.406 29.63c17.537 5.318 38.373 6.507 61.45 4.202c4.838-.484 9.78-1.13 14.808-1.922a263.92 263.92 0 0 0 5.746 13.802c9.543 21.14 20.99 38.587 34.363 51.116c13.373 12.528 29.065 20.18 45.864 20.18c16.798 0 32.49-7.652 45.863-20.18c13.372-12.53 24.82-29.977 34.363-51.116a263.844 263.844 0 0 0 5.746-13.8c5.022.79 9.96 1.437 14.794 1.92c23.078 2.304 43.915 1.115 61.45-4.202c17.538-5.316 32.008-15.082 40.408-29.63c8.4-14.55 9.62-31.962 5.457-49.807c-4.165-17.845-13.553-36.484-27.087-55.318a265.744 265.744 0 0 0-9.065-11.86a262.57 262.57 0 0 0 9.076-11.872c13.535-18.834 22.922-37.473 27.086-55.318c4.164-17.846 2.943-35.26-5.457-49.81c-8.4-14.547-22.87-24.313-40.406-29.63c-13.152-3.987-28.16-5.652-44.578-5.263c-5.474.128-11.105.485-16.874 1.06c-4.84.484-9.787 1.133-14.817 1.925a265.385 265.385 0 0 0-5.737-13.776c-9.543-21.14-20.99-38.59-34.363-51.118c-13.373-12.528-29.065-20.177-45.863-20.177zm0 18.687c11.205 0 22.192 4.923 33.086 15.13c10.893 10.205 21.297 25.653 30.107 45.167a237.315 237.315 0 0 1 4.086 9.643c-21.417 4.762-44.1 12.068-67.285 21.83c-23.18-9.76-45.86-17.064-67.273-21.826c1.322-3.31 2.68-6.536 4.086-9.648c8.81-19.515 19.214-34.963 30.108-45.17c10.894-10.205 21.88-15.128 33.087-15.128zm-123.59 82.057c1.804-.018 3.637-.006 5.498.036c4.96.11 10.117.43 15.443.963c3.406.34 6.887.775 10.424 1.288c-6.586 20.927-11.6 44.222-14.742 69.18c-20.048 15.2-37.718 31.194-52.55 47.363a236.58 236.58 0 0 1-6.327-8.378c-12.495-17.386-20.67-34.12-24.063-48.658c-3.392-14.538-2.16-26.513 3.442-36.217c5.602-9.704 15.36-16.757 29.644-21.088c9.375-2.843 20.6-4.375 33.23-4.49zm247.168 0c12.63.115 23.855 1.647 33.23 4.49c14.286 4.33 24.04 11.383 29.643 21.087c5.602 9.704 6.835 21.68 3.443 36.217c-3.39 14.537-11.57 31.272-24.063 48.658a238.384 238.384 0 0 1-6.325 8.38c-14.83-16.167-32.495-32.157-52.537-47.355c-3.14-24.962-8.16-48.26-14.746-69.19c3.533-.513 7.01-.95 10.413-1.288a200.322 200.322 0 0 1 15.444-.964a171.87 171.87 0 0 1 5.498-.037zm-49.92 5.64c4.97 15.438 9.085 32.472 12.156 50.7a508.006 508.006 0 0 0-30.446-19.035a508.29 508.29 0 0 0-31.69-16.843c17.32-6.455 34.127-11.407 49.98-14.82zm-147.317.003c15.85 3.414 32.655 8.366 49.97 14.82a508.802 508.802 0 0 0-31.69 16.842a509.235 509.235 0 0 0-30.434 19.024c3.07-18.223 7.184-35.253 12.154-50.687zm73.653 24.46c15.207 6.708 30.643 14.504 46.03 23.388c15.393 8.888 29.87 18.36 43.285 28.18c1.796 16.527 2.762 33.798 2.762 51.57c0 17.762-.963 35.026-2.758 51.546c-13.415 9.818-27.89 19.288-43.278 28.174c-15.39 8.885-30.83 16.684-46.04 23.392c-15.212-6.708-30.652-14.507-46.042-23.392c-15.385-8.883-29.854-18.35-43.264-28.164c-1.795-16.523-2.76-33.79-2.76-51.557c0-17.775.965-35.048 2.762-51.577c13.413-9.817 27.885-19.288 43.273-28.172c15.388-8.883 30.824-16.68 46.03-23.386zm1.264 28.116l-53.502 33.017l53.502 33.02l53.502-33.02l-53.502-33.018zm-110.76 39.134a509.17 509.17 0 0 0-1.257 35.885c0 12.198.43 24.172 1.258 35.864c-14.25-11.77-26.943-23.85-37.827-35.873c10.884-12.022 23.577-24.104 37.827-35.876zm219.005.01c14.243 11.77 26.933 23.847 37.813 35.867c-10.88 12.02-23.57 24.097-37.813 35.864a508.92 508.92 0 0 0 1.256-35.855c0-12.204-.43-24.18-1.257-35.876zm-173.8 8.394v65.198l56.19 34.677v-65.195l-56.19-34.68zm131.058.034l-56.177 34.67v65.164l56.178-34.67V228.93zm-226.28 41.84c14.834 16.17 32.502 32.16 52.548 47.36c3.14 24.955 8.156 48.248 14.74 69.175c-3.53.51-7.006.947-10.406 1.287c-21.304 2.127-39.887.84-54.172-3.49c-14.286-4.33-24.04-11.386-29.643-21.09c-5.602-9.705-6.835-21.68-3.443-36.217c3.392-14.537 11.568-31.272 24.063-48.658a236.048 236.048 0 0 1 6.314-8.367zm319.024.003c2.207 2.8 4.32 5.59 6.313 8.364c12.494 17.385 20.67 34.12 24.062 48.657c3.392 14.537 2.162 26.512-3.44 36.217c-5.604 9.704-15.36 16.76-29.646 21.09c-14.284 4.33-32.864 5.617-54.168 3.49a239.38 239.38 0 0 1-10.395-1.285c6.585-20.932 11.6-44.23 14.74-69.19c20.04-15.196 37.706-31.182 52.535-47.345zm-73.687 62.483c-3.07 18.226-7.184 35.26-12.154 50.697c-15.854-3.413-32.663-8.368-49.984-14.822a509.453 509.453 0 0 0 31.7-16.848a509.238 509.238 0 0 0 30.44-19.027zm-171.635.01a508.383 508.383 0 0 0 30.424 19.017a510.02 510.02 0 0 0 31.7 16.848c-17.316 6.453-34.12 11.407-49.973 14.82c-4.97-15.434-9.08-32.464-12.15-50.685zm86.37.85l.68.42l.677-.42h-1.356zm-.56 45.767c23.19 9.76 45.874 17.065 67.294 21.826a236.641 236.641 0 0 1-4.094 9.67c-8.81 19.513-19.214 34.96-30.108 45.167c-10.893 10.206-21.88 15.13-33.085 15.13c-11.206 0-22.193-4.924-33.086-15.13c-10.893-10.206-21.297-25.654-30.107-45.168a239.258 239.258 0 0 1-4.095-9.67c21.416-4.762 44.098-12.066 67.283-21.825z"/></svg>