<svg width="500" height="140" xmlns="http://www.w3.org/2000/svg" xmlns:xlink="http://www.w3.org/1999/xlink" overflow="hidden"><g><rect x="0" y="0" width="1280" height="720" fill="#FFFFFF"/><rect x="142.5" y="13.5001" width="77" height="54" stroke="#000000" stroke-width="3" stroke-miterlimit="8" fill="none"/><text font-family="Cambria Math,Cambria Math_MSFontService,sans-serif" font-weight="400" font-size="24" transform="translate(160.821 49)">ğ·ğµ</text><path d="M103.059 37.0009 131.507 37.835 131.39 41.8333 102.941 40.9991ZM129.625 33.7781 141.444 40.1272 129.274 45.773Z"/><path d="M219.07 37.0012 242.503 37.8181 242.364 41.8157 218.93 40.9988ZM240.644 33.7508 252.427 40.1652 240.225 45.7435Z"/><text font-family="Cambria Math,Cambria Math_MSFontService,sans-serif" font-weight="400" font-size="24" transform="translate(61.4229 47)">Î”</text><text font-family="Cambria Math,Cambria Math_MSFontService,sans-serif" font-weight="400" font-size="24" transform="translate(75.7562 47)">ğ‘‡</text><rect x="338.5" y="13.5001" width="77" height="54" stroke="#000000" stroke-width="3" stroke-miterlimit="8" fill="none"/><text font-family="Cambria Math,Cambria Math_MSFontService,sans-serif" font-weight="400" font-size="24" transform="translate(357.531 49)">ğ·ğµ</text><path d="M305.068 37.0011 328.42 37.7905 328.285 41.7883 304.932 40.9989ZM326.556 33.7253 338.347 40.1272 326.151 45.7184Z"/><text font-family="Cambria Math,Cambria Math_MSFontService,sans-serif" font-weight="400" font-size="24" transform="translate(264.616 47)">Î”C</text><text font-family="Calibri,Calibri_MSFontService,sans-serif" font-weight="400" font-size="24" transform="translate(15.371 94)">transaction</text><text font-family="Calibri,Calibri_MSFontService,sans-serif" font-weight="400" font-size="24" transform="translate(216.959 93)">change data</text><text font-family="Calibri,Calibri_MSFontService,sans-serif" font-weight="400" font-size="24" transform="translate(241.746 122)">capture</text></g></svg>
