<svg width="24" height="24" viewBox="0 0 24 24" fill="none" xmlns="http://www.w3.org/2000/svg">
<path d="M6 12H4C3.46957 12 2.96086 11.7893 2.58579 11.4142C2.21071 11.0391 2 10.5304 2 10V5C2 4.46957 2.21071 3.96086 2.58579 3.58579C2.96086 3.21071 3.46957 3 4 3H20C20.5304 3 21.0391 3.21071 21.4142 3.58579C21.7893 3.96086 22 4.46957 22 5V10C22 10.5304 21.7893 11.0391 21.4142 11.4142C21.0391 11.7893 20.5304 12 20 12H18M6 8H18M18.3 17.7C18.7231 18.1424 18.9692 18.7246 18.9916 19.3364C19.0141 19.9481 18.8113 20.5468 18.4217 21.019C18.0321 21.4912 17.4828 21.804 16.878 21.8982C16.2731 21.9924 15.6547 21.8614 15.14 21.53C14.8053 21.3106 14.5275 21.0148 14.3293 20.6672C14.1312 20.3195 14.0183 19.9298 14 19.53V12M6.60005 15.6C6.36375 15.8317 6.18864 16.1184 6.0904 16.4344C5.99216 16.7504 5.97387 17.0858 6.03717 17.4106C6.10047 17.7355 6.24338 18.0395 6.45309 18.2955C6.66279 18.5515 6.93275 18.7514 7.23874 18.8774C7.54474 19.0034 7.87723 19.0515 8.20639 19.0174C8.53555 18.9833 8.85111 18.8681 9.12477 18.682C9.39843 18.4959 9.62164 18.2449 9.7744 17.9513C9.92716 17.6578 10.0047 17.3309 10 17V12" stroke="#C533B9" stroke-width="2" stroke-linecap="round" stroke-linejoin="round"/>
</svg>
