<svg width="24" height="24" viewBox="0 0 24 24" fill="none" xmlns="http://www.w3.org/2000/svg">
<path d="M19 8L18.2 11C18.1 11.6 17.6 12 17 12H7C6.4 12 5.9 11.6 5.8 11L5 8M16 21C16 18.5 18 18.5 18 16M11 21C11 18.5 13 18.5 13 16M6 21C6 18.5 8 18.5 8 16M4 8C3.46957 8 2.96086 7.78929 2.58579 7.41421C2.21071 7.03914 2 6.53043 2 6V3H22V6C22 6.53043 21.7893 7.03914 21.4142 7.41421C21.0391 7.78929 20.5304 8 20 8H4Z" stroke="#C533B9" stroke-width="2" stroke-linecap="round" stroke-linejoin="round"/>
</svg>
