<svg width="24" height="24" viewBox="0 0 24 24" fill="none" xmlns="http://www.w3.org/2000/svg">
<path d="M12 2V22M8 10H4C3.46957 10 2.96086 9.78929 2.58579 9.41421C2.21071 9.03914 2 8.53043 2 8V6C2 4.9 2.9 4 4 4H8M16 10H20C20.5304 10 21.0391 9.78929 21.4142 9.41421C21.7893 9.03914 22 8.53043 22 8V6C22 5.46957 21.7893 4.96086 21.4142 4.58579C21.0391 4.21071 20.5304 4 20 4H16M8 20H7C6.46957 20 5.96086 19.7893 5.58579 19.4142C5.21071 19.0391 5 18.5304 5 18V16C5 14.9 5.9 14 7 14H8M16 14H17C17.5304 14 18.0391 14.2107 18.4142 14.5858C18.7893 14.9609 19 15.4696 19 16V18C19 18.5304 18.7893 19.0391 18.4142 19.4142C18.0391 19.7893 17.5304 20 17 20H16" stroke="#C533B9" stroke-width="2" stroke-linecap="round" stroke-linejoin="round"/>
</svg>
