<svg width="24" height="24" viewBox="0 0 24 24" fill="none" xmlns="http://www.w3.org/2000/svg">
<path d="M10 10H6M14 18V6C14 5.46957 13.7893 4.96086 13.4142 4.58579C13.0391 4.21071 12.5304 4 12 4H4C3.46957 4 2.96086 4.21071 2.58579 4.58579C2.21071 4.96086 2 5.46957 2 6V17C2 17.2652 2.10536 17.5196 2.29289 17.7071C2.48043 17.8946 2.73478 18 3 18H5M5 18C5 19.1046 5.89543 20 7 20C8.10457 20 9 19.1046 9 18M5 18C5 16.8954 5.89543 16 7 16C8.10457 16 9 16.8954 9 18M19 18H21C21.2652 18 21.5196 17.8946 21.7071 17.7071C21.8946 17.5196 22 17.2652 22 17V13.72C21.9998 13.5102 21.9337 13.3058 21.8109 13.1356C21.6882 12.9655 21.515 12.8383 21.316 12.772L19.393 12.131C19.2684 12.0894 19.1532 12.0236 19.0541 11.9375C18.9549 11.8514 18.8737 11.7465 18.815 11.629L17.276 8.553C17.193 8.38692 17.0654 8.24722 16.9075 8.14955C16.7496 8.05188 16.5677 8.0001 16.382 8H14M19 18C19 19.1046 18.1046 20 17 20C15.8954 20 15 19.1046 15 18M19 18C19 16.8954 18.1046 16 17 16C15.8954 16 15 16.8954 15 18M8 8V12M9 18H15" stroke="#C533B9" stroke-width="2" stroke-linecap="round" stroke-linejoin="round"/>
</svg>
