<svg width="24" height="24" viewBox="0 0 24 24" fill="none" xmlns="http://www.w3.org/2000/svg">
<path d="M10 17C5 14 3 10 3 8C3 7.46957 3.21071 6.96086 3.58579 6.58579C3.96086 6.21071 4.46957 6 5 6C5.53043 6 6.03914 6.21071 6.41421 6.58579C6.78929 6.96086 7 7.46957 7 8C7 10.5 2 10.5 2 14C2 15.7 3.3 17 5 17C7.8 17 10 14.8 10 12M22 17C17 14 15 10 15 8C15 7.46957 15.2107 6.96086 15.5858 6.58579C15.9609 6.21071 16.4696 6 17 6C17.5304 6 18.0391 6.21071 18.4142 6.58579C18.7893 6.96086 19 7.46957 19 8C19 10.5 14 10.5 14 14C14 15.7 15.3 17 17 17C19.8 17 22 14.8 22 12" stroke="#C533B9" stroke-width="2" stroke-linecap="round" stroke-linejoin="round"/>
</svg>
