<svg width="24" height="24" viewBox="0 0 24 24" fill="none" xmlns="http://www.w3.org/2000/svg">
<path d="M7 10H6C4.93913 10 3.92172 9.57857 3.17157 8.82843C2.42143 8.07828 2 7.06087 2 6C2 5.73478 2.10536 5.48043 2.29289 5.29289C2.48043 5.10536 2.73478 5 3 5H7M7 5C7 4.73478 7.10536 4.48043 7.29289 4.29289C7.48043 4.10536 7.73478 4 8 4H21C21.2652 4 21.5196 4.10536 21.7071 4.29289C21.8946 4.48043 22 4.73478 22 5C22 6.85652 21.2625 8.63699 19.9497 9.94975C18.637 11.2625 16.8565 12 15 12M7 5V11C7 11.2652 7.10536 11.5196 7.29289 11.7071C7.48043 11.8946 7.73478 12 8 12H15M15 12V17M9 12V17M5 20C5 19.2044 5.31607 18.4413 5.87868 17.8787C6.44129 17.3161 7.20435 17 8 17H16C16.7956 17 17.5587 17.3161 18.1213 17.8787C18.6839 18.4413 19 19.2044 19 20C19 20.2652 18.8946 20.5196 18.7071 20.7071C18.5196 20.8946 18.2652 21 18 21H6C5.73478 21 5.48043 20.8946 5.29289 20.7071C5.10536 20.5196 5 20.2652 5 20Z" stroke="#C533B9" stroke-width="2" stroke-linecap="round" stroke-linejoin="round"/>
</svg>
