<svg width="24" height="24" viewBox="0 0 24 24" fill="none" xmlns="http://www.w3.org/2000/svg">
<path d="M4 8V19C4 19.5304 4.21071 20.0391 4.58579 20.4142C4.96086 20.7893 5.46957 21 6 21H8M20 8V19C20 19.5304 19.7893 20.0391 19.4142 20.4142C19.0391 20.7893 18.5304 21 18 21H16M9 15L12 12M12 12L15 15M12 12V21M3 3H21C21.5523 3 22 3.44772 22 4V7C22 7.55228 21.5523 8 21 8H3C2.44772 8 2 7.55228 2 7V4C2 3.44772 2.44772 3 3 3Z" stroke="#C533B9" stroke-width="2" stroke-linecap="round" stroke-linejoin="round"/>
</svg>
