<svg width="24" height="24" viewBox="0 0 24 24" fill="none" xmlns="http://www.w3.org/2000/svg">
<path d="M19 9V6C19 5.46957 18.7893 4.96086 18.4142 4.58579C18.0391 4.21071 17.5304 4 17 4H7C6.46957 4 5.96086 4.21071 5.58579 4.58579C5.21071 4.96086 5 5.46957 5 6V9M19 9C19.5304 9 20.0391 9.21071 20.4142 9.58579C20.7893 9.96086 21 10.4696 21 11V16C21 16.5304 20.7893 17.0391 20.4142 17.4142C20.0391 17.7893 19.5304 18 19 18M19 9C18.4696 9 17.9609 9.21071 17.5858 9.58579C17.2107 9.96086 17 10.4696 17 11V13H7V11C7 10.4696 6.78929 9.96086 6.41421 9.58579C6.03914 9.21071 5.53043 9 5 9M5 9C4.46957 9 3.96086 9.21071 3.58579 9.58579C3.21071 9.96086 3 10.4696 3 11V16C3 16.5304 3.21071 17.0391 3.58579 17.4142C3.96086 17.7893 4.46957 18 5 18M5 18H19M5 18V20M19 18V20" stroke="#C533B9" stroke-width="2" stroke-linecap="round" stroke-linejoin="round"/>
</svg>
