<svg width="24" height="24" viewBox="0 0 24 24" fill="none" xmlns="http://www.w3.org/2000/svg">
<path d="M16 8.00001V13C16 13.7957 16.3161 14.5587 16.8787 15.1213C17.4413 15.6839 18.2044 16 19 16C19.7957 16 20.5587 15.6839 21.1213 15.1213C21.6839 14.5587 22 13.7957 22 13V12C22 9.74731 21.2394 7.56061 19.8414 5.79418C18.4434 4.02775 16.49 2.78508 14.2975 2.26752C12.1051 1.74996 9.80215 1.98782 7.76178 2.94256C5.72141 3.89731 4.06318 5.513 3.05574 7.52787C2.0483 9.54274 1.75069 11.8387 2.21111 14.0439C2.67154 16.249 3.86303 18.2341 5.59254 19.6775C7.32205 21.1209 9.48825 21.9381 11.7402 21.9966C13.9921 22.0552 16.1979 21.3516 18 20M16 12C16 14.2091 14.2091 16 12 16C9.79086 16 8 14.2091 8 12C8 9.79086 9.79086 8 12 8C14.2091 8 16 9.79086 16 12Z" stroke="#C533B9" stroke-width="2" stroke-linecap="round" stroke-linejoin="round"/>
</svg>
