<svg width="24" height="24" viewBox="0 0 24 24" fill="none" xmlns="http://www.w3.org/2000/svg">
<path d="M11.9995 13C12.5518 13 12.9995 12.5523 12.9995 12C12.9995 11.4477 12.5518 11 11.9995 11C11.4472 11 10.9995 11.4477 10.9995 12C10.9995 12.5523 11.4472 13 11.9995 13Z" stroke="#C533B9" stroke-width="2" stroke-linecap="round" stroke-linejoin="round"/>
<path d="M20.1994 20.1999C22.2394 18.1699 20.2194 12.8399 15.6994 8.29989C11.1594 3.77989 5.8294 1.75989 3.7994 3.79989C1.7594 5.82989 3.7794 11.1599 8.2994 15.6999C12.8394 20.2199 18.1694 22.2399 20.1994 20.1999Z" stroke="#C533B9" stroke-width="2" stroke-linecap="round" stroke-linejoin="round"/>
<path d="M15.6994 15.6999C20.2194 11.1599 22.2394 5.82989 20.1994 3.79989C18.1694 1.75989 12.8394 3.77989 8.2994 8.29989C3.7794 12.8399 1.7594 18.1699 3.7994 20.1999C5.8294 22.2399 11.1594 20.2199 15.6994 15.6999Z" stroke="#C533B9" stroke-width="2" stroke-linecap="round" stroke-linejoin="round"/>
</svg>
