<svg width="24" height="24" viewBox="0 0 24 24" fill="none" xmlns="http://www.w3.org/2000/svg">
<path d="M9.00049 12H9.01049M15.0005 12H15.0105M10.0005 16C10.5005 16.3 11.2005 16.5 12.0005 16.5C12.8005 16.5 13.5005 16.3 14.0005 16M19.0005 6.3C19.9065 7.43567 20.524 8.77378 20.8005 10.2C21.1386 10.3638 21.4238 10.6195 21.6233 10.9378C21.8229 11.2562 21.9287 11.6243 21.9287 12C21.9287 12.3757 21.8229 12.7438 21.6233 13.0622C21.4238 13.3805 21.1386 13.6362 20.8005 13.8C20.3688 15.8135 19.2597 17.618 17.6582 18.9125C16.0567 20.207 14.0597 20.9132 12.0005 20.9132C9.94124 20.9132 7.94428 20.207 6.3428 18.9125C4.74132 17.618 3.63219 15.8135 3.20049 13.8C2.86234 13.6362 2.57717 13.3805 2.37763 13.0622C2.1781 12.7438 2.07227 12.3757 2.07227 12C2.07227 11.6243 2.1781 11.2562 2.37763 10.9378C2.57717 10.6195 2.86234 10.3638 3.20049 10.2C3.61475 8.1705 4.71638 6.34602 6.31951 5.03437C7.92264 3.72271 9.92915 3.00418 12.0005 3C14.0005 3 15.5005 4.1 15.5005 5.5C15.5005 6.9 14.6005 8 13.5005 8C12.7005 8 12.0005 7.6 12.0005 7" stroke="#C533B9" stroke-width="2" stroke-linecap="round" stroke-linejoin="round"/>
</svg>
