<svg width="24" height="24" viewBox="0 0 24 24" fill="none" xmlns="http://www.w3.org/2000/svg">
<path d="M15 7H16C16.5304 7 17.0391 7.21071 17.4142 7.58579C17.7893 7.96086 18 8.46957 18 9V15C18 15.5304 17.7893 16.0391 17.4142 16.4142C17.0391 16.7893 16.5304 17 16 17H14M6 7H4C3.46957 7 2.96086 7.21071 2.58579 7.58579C2.21071 7.96086 2 8.46957 2 9V15C2 15.5304 2.21071 16.0391 2.58579 16.4142C2.96086 16.7893 3.46957 17 4 17H5M11 7L8 12H12L9 17M22 11V13" stroke="#C533B9" stroke-width="2" stroke-linecap="round" stroke-linejoin="round"/>
</svg>
