<svg width="24" height="24" viewBox="0 0 24 24" fill="none" xmlns="http://www.w3.org/2000/svg">
<path d="M9.0007 9C8.3607 9.64 7.4797 9.954 6.5987 10.165C5.16926 10.5073 3.91521 11.3625 3.07448 12.5682C2.23376 13.7738 1.86486 15.2462 2.03777 16.7058C2.21068 18.1655 2.91338 19.5109 4.01254 20.4868C5.1117 21.4627 6.53084 22.0011 8.0007 22C9.83958 22.0023 11.6608 21.6413 13.3597 20.9377C15.0587 20.2341 16.6019 19.2018 17.9007 17.9M10.7505 5.09307C11.3946 3.929 12.4072 3.01199 13.6293 2.48623C14.8514 1.96047 16.2135 1.85578 17.5016 2.18861C18.7896 2.52145 19.9306 3.27293 20.7449 4.32491C21.5593 5.37689 22.001 6.6697 22.0005 8.00007C22.0005 10.4111 21.3905 12.6801 20.3175 14.6601M5.34131 10.6201C5.60437 11.2142 6.0082 11.7353 6.51789 12.1383C7.02758 12.5413 7.62777 12.8141 8.26656 12.9331C8.90535 13.052 9.5635 13.0136 10.1841 12.821C10.8047 12.6285 11.369 12.2877 11.8283 11.8281M10.6203 5.34106C11.5292 5.74504 12.2558 6.47198 12.6593 7.38106M2.00049 2L22.0005 22" stroke="#C533B9" stroke-width="2" stroke-linecap="round" stroke-linejoin="round"/>
</svg>
