<svg width="24" height="24" viewBox="0 0 24 24" fill="none" xmlns="http://www.w3.org/2000/svg">
<path d="M5.34131 10.6201C5.60495 11.2134 6.00903 11.7336 6.51867 12.1357C7.02831 12.5379 7.62818 12.81 8.26649 12.9285C8.9048 13.047 9.56237 13.0084 10.1824 12.8159C10.8024 12.6235 11.3663 12.283 11.8253 11.8239C12.2844 11.3648 12.6247 10.8008 12.8171 10.1808C13.0094 9.56069 13.0479 8.90312 12.9293 8.26484C12.8107 7.62655 12.5385 7.02673 12.1362 6.51716C11.7339 6.0076 11.2136 5.60362 10.6203 5.34009M10.1657 6.59797C9.9547 7.47797 9.6407 8.35997 9.0007 8.99997C8.3607 9.63997 7.4797 9.95397 6.5987 10.165C5.16926 10.5073 3.91521 11.3624 3.07448 12.5681C2.23376 13.7738 1.86486 15.2461 2.03777 16.7058C2.21068 18.1655 2.91338 19.5109 4.01254 20.4867C5.1117 21.4626 6.53084 22.0011 8.0007 22C15.7327 22 22.0007 15.732 22.0007 7.99997C22.0018 6.53011 21.4634 5.11097 20.4875 4.01181C19.5116 2.91265 18.1662 2.20995 16.7065 2.03704C15.2469 1.86412 13.7745 2.23303 12.5688 3.07375C11.3632 3.91447 10.508 5.16853 10.1657 6.59797Z" stroke="#C533B9" stroke-width="2" stroke-linecap="round" stroke-linejoin="round"/>
</svg>
