<svg width="24" height="24" viewBox="0 0 24 24" fill="none" xmlns="http://www.w3.org/2000/svg">
<path d="M2 20V12C2 11.4696 2.21071 10.9609 2.58579 10.5858C2.96086 10.2107 3.46957 10 4 10M4 10H20M4 10V6C4 5.46957 4.21071 4.96086 4.58579 4.58579C4.96086 4.21071 5.46957 4 6 4H18C18.5304 4 19.0391 4.21071 19.4142 4.58579C19.7893 4.96086 20 5.46957 20 6V10M20 10C20.5304 10 21.0391 10.2107 21.4142 10.5858C21.7893 10.9609 22 11.4696 22 12V20M12 4V10M2 18H22" stroke="#C533B9" stroke-width="2" stroke-linecap="round" stroke-linejoin="round"/>
</svg>
