<svg width="24" height="24" viewBox="0 0 24 24" fill="none" xmlns="http://www.w3.org/2000/svg">
<path d="M3 20V12C3 11.4696 3.21071 10.9609 3.58579 10.5858C3.96086 10.2107 4.46957 10 5 10M5 10H19M5 10V6C5 5.46957 5.21071 4.96086 5.58579 4.58579C5.96086 4.21071 6.46957 4 7 4H17C17.5304 4 18.0391 4.21071 18.4142 4.58579C18.7893 4.96086 19 5.46957 19 6V10M19 10C19.5304 10 20.0391 10.2107 20.4142 10.5858C20.7893 10.9609 21 11.4696 21 12V20M3 18H21" stroke="#C533B9" stroke-width="2" stroke-linecap="round" stroke-linejoin="round"/>
</svg>
