<svg width="24" height="24" viewBox="0 0 24 24" fill="none" xmlns="http://www.w3.org/2000/svg">
<path d="M8.69995 3.00001C9.60376 2.4048 10.6517 2.06511 11.7329 2.01694C12.814 1.96876 13.888 2.21388 14.8412 2.72634C15.7943 3.23879 16.5912 3.99951 17.1473 4.9279C17.7033 5.8563 17.998 6.91781 18 8.00001C18.0015 9.68453 18.2029 11.3629 18.6 13M17 17H3C3 17 6 15 6 8.00005C5.99349 7.41966 6.09522 6.84315 6.3 6.30005M10.3 21C10.4674 21.3044 10.7135 21.5583 11.0125 21.7352C11.3116 21.912 11.6526 22.0053 12 22.0053C12.3475 22.0053 12.6885 21.912 12.9876 21.7352C13.2866 21.5583 13.5327 21.3044 13.7 21M2 2L22 22" stroke="#C533B9" stroke-width="2" stroke-linecap="round" stroke-linejoin="round"/>
</svg>
