<svg width="24" height="24" viewBox="0 0 24 24" fill="none" xmlns="http://www.w3.org/2000/svg">
<path d="M12 17.5V14L9 11L13 8L15 11H17M22 17.5C22 19.433 20.433 21 18.5 21C16.567 21 15 19.433 15 17.5C15 15.567 16.567 14 18.5 14C20.433 14 22 15.567 22 17.5ZM9 17.5C9 19.433 7.433 21 5.5 21C3.567 21 2 19.433 2 17.5C2 15.567 3.567 14 5.5 14C7.433 14 9 15.567 9 17.5ZM16 5C16 5.55228 15.5523 6 15 6C14.4477 6 14 5.55228 14 5C14 4.44772 14.4477 4 15 4C15.5523 4 16 4.44772 16 5Z" stroke="#C533B9" stroke-width="2" stroke-linecap="round" stroke-linejoin="round"/>
</svg>
