<svg width="24" height="24" viewBox="0 0 24 24" fill="none" xmlns="http://www.w3.org/2000/svg">
<path d="M12 13.8999C13.1046 13.8999 14 13.0045 14 11.8999C14 10.7953 13.1046 9.8999 12 9.8999C10.8954 9.8999 10 10.7953 10 11.8999C10 13.0045 10.8954 13.8999 12 13.8999ZM12 13.8999L12 15.5M6.7 3.3999C5.8 5.8999 6.7 8.5999 8.9 10.0999M8.9 10.0999C6.5 8.9999 3.7 9.5999 2 11.5999M8.9 10.0999L10.2999 10.9001M17.3001 3.3999C18.2001 5.8999 17.3001 8.5999 15.1001 10.0999M15.1001 10.0999C17.5001 8.8999 20.3001 9.4999 22.0001 11.5999M15.1001 10.0999L13.7 10.9001M16.7 20.8C14.1 20.4 12.1 18.2 12 15.5M12 15.5C11.8 18.1 9.90005 20.3 7.30005 20.7M13.5 5.4C12.5 5.2 11.5 5.2 10.5 5.4M17 16.3999C17.7 15.6999 18.2 14.7999 18.5 13.8999M5.5 13.8999C5.8 14.7999 6.3 15.6999 7 16.3999" stroke="#C533B9" stroke-width="2" stroke-linecap="round" stroke-linejoin="round"/>
</svg>
