<svg width="24" height="24" viewBox="0 0 24 24" fill="none" xmlns="http://www.w3.org/2000/svg">
<path d="M17 10C17.7 9.3 18.69 10 19.5 10C20.163 10 20.7989 9.73661 21.2678 9.26777C21.7366 8.79893 22 8.16304 22 7.5C22 6.83696 21.7366 6.20107 21.2678 5.73223C20.7989 5.26339 20.163 5 19.5 5C19.3674 5 19.2402 4.94732 19.1464 4.85355C19.0527 4.75979 19 4.63261 19 4.5C19 3.83696 18.7366 3.20107 18.2678 2.73223C17.7989 2.26339 17.163 2 16.5 2C15.837 2 15.2011 2.26339 14.7322 2.73223C14.2634 3.20107 14 3.83696 14 4.5C14 5.31 14.7 6.3 14 7L7 14C6.3 14.7 5.31 14 4.5 14C3.83696 14 3.20107 14.2634 2.73223 14.7322C2.26339 15.2011 2 15.837 2 16.5C2 17.163 2.26339 17.7989 2.73223 18.2678C3.20107 18.7366 3.83696 19 4.5 19C4.78 19 5 19.22 5 19.5C5 20.163 5.26339 20.7989 5.73223 21.2678C6.20107 21.7366 6.83696 22 7.5 22C8.16304 22 8.79893 21.7366 9.26777 21.2678C9.73661 20.7989 10 20.163 10 19.5C10 18.69 9.3 17.7 10 17L17 10Z" stroke="#C533B9" stroke-width="2" stroke-linecap="round" stroke-linejoin="round"/>
</svg>
