<svg width="24" height="24" viewBox="0 0 24 24" fill="none" xmlns="http://www.w3.org/2000/svg">
<path d="M2 16V4C2 3.46957 2.21071 2.96086 2.58579 2.58579C2.96086 2.21071 3.46957 2 4 2H15M2 16C2 15.4696 2.21071 14.9609 2.58579 14.5858C2.96086 14.2107 3.46957 14 4 14H5M2 16C2 16.5304 2.21071 17.0391 2.58579 17.4142C2.96086 17.7893 3.46957 18 4 18H5M22 18H11C10.4696 18 9.96086 18.2107 9.58579 18.5858C9.21071 18.9609 9 19.4696 9 20M9 20C9 20.5304 9.21071 21.0391 9.58579 21.4142C9.96086 21.7893 10.4696 22 11 22H22V6H11C10.4696 6 9.96086 6.21071 9.58579 6.58579C9.21071 6.96086 9 7.46957 9 8V20Z" stroke="#C533B9" stroke-width="2" stroke-linecap="round" stroke-linejoin="round"/>
</svg>
