<svg width="24" height="24" viewBox="0 0 24 24" fill="none" xmlns="http://www.w3.org/2000/svg">
<path d="M4 19.5V4.5C4 3.83696 4.26339 3.20107 4.73223 2.73223C5.20107 2.26339 5.83696 2 6.5 2H20V22H6.5C5.83696 22 5.20107 21.7366 4.73223 21.2678C4.26339 20.7989 4 20.163 4 19.5ZM4 19.5C4 18.837 4.26339 18.2011 4.73223 17.7322C5.20107 17.2634 5.83696 17 6.5 17H20M16 8.2C16 7 15 6 13.8 6C13 6 12.4 6.3 12 6.9C11.6 6.3 11 6 10.2 6C9 6 8 7 8 8.2C8 8.8 8.3 9.4 8.7 9.8C10 11.1 12 13 12 13C12 13 14 11.1 15.3 9.9C15.7 9.5 16 8.9 16 8.2Z" stroke="#C533B9" stroke-width="2" stroke-linecap="round" stroke-linejoin="round"/>
</svg>
