<svg width="24" height="24" viewBox="0 0 24 24" fill="none" xmlns="http://www.w3.org/2000/svg">
<path d="M4 19.5V4.5C4 3.83696 4.26339 3.20107 4.73223 2.73223C5.20107 2.26339 5.83696 2 6.5 2H10M4 19.5C4 20.163 4.26339 20.7989 4.73223 21.2678C5.20107 21.7366 5.83696 22 6.5 22H20V15M4 19.5C4 18.837 4.26339 18.2011 4.73223 17.7322C5.20107 17.2634 5.83696 17 6.5 17H20M18 6V4C18 3.46957 17.7893 2.96086 17.4142 2.58579C17.0391 2.21071 16.5304 2 16 2C15.4696 2 14.9609 2.21071 14.5858 2.58579C14.2107 2.96086 14 3.46957 14 4V6M13 6H19C19.5523 6 20 6.44772 20 7V10C20 10.5523 19.5523 11 19 11H13C12.4477 11 12 10.5523 12 10V7C12 6.44772 12.4477 6 13 6Z" stroke="#C533B9" stroke-width="2" stroke-linecap="round" stroke-linejoin="round"/>
</svg>
