<svg width="24" height="24" viewBox="0 0 24 24" fill="none" xmlns="http://www.w3.org/2000/svg">
<path d="M8 3H7C6.46957 3 5.96086 3.21071 5.58579 3.58579C5.21071 3.96086 5 4.46957 5 5V10C5 10.5304 4.78929 11.0391 4.41421 11.4142C4.03914 11.7893 3.53043 12 3 12C3.53043 12 4.03914 12.2107 4.41421 12.5858C4.78929 12.9609 5 13.4696 5 14V19C5 20.1 5.9 21 7 21H8M16 21H17C17.5304 21 18.0391 20.7893 18.4142 20.4142C18.7893 20.0391 19 19.5304 19 19V14C19 12.9 19.9 12 21 12C20.4696 12 19.9609 11.7893 19.5858 11.4142C19.2107 11.0391 19 10.5304 19 10V5C19 4.46957 18.7893 3.96086 18.4142 3.58579C18.0391 3.21071 17.5304 3 17 3H16" stroke="#C533B9" stroke-width="2" stroke-linecap="round" stroke-linejoin="round"/>
</svg>
