<svg width="24" height="24" viewBox="0 0 24 24" fill="none" xmlns="http://www.w3.org/2000/svg">
<path d="M12.0008 5.00005C12.002 4.60008 11.9232 4.20391 11.769 3.83485C11.6148 3.46579 11.3884 3.13128 11.1031 2.851C10.8177 2.57072 10.4792 2.35032 10.1075 2.20278C9.7357 2.05524 9.33819 1.98353 8.9383 1.99186C8.53842 2.0002 8.14424 2.08841 7.77894 2.25132C7.41365 2.41422 7.08462 2.64853 6.81121 2.94045C6.53779 3.23238 6.32552 3.57604 6.18686 3.9512C6.0482 4.32637 5.98596 4.72548 6.00381 5.12505M12.0008 5.00005V18M12.0008 5.00005C11.9996 4.60008 12.0784 4.20391 12.2326 3.83485C12.3867 3.46579 12.6131 3.13128 12.8985 2.851C13.1838 2.57072 13.5223 2.35032 13.8941 2.20278C14.2659 2.05524 14.6634 1.98353 15.0633 1.99186C15.4631 2.0002 15.8573 2.08841 16.2226 2.25132C16.5879 2.41422 16.9169 2.64853 17.1903 2.94045C17.4638 3.23238 17.676 3.57604 17.8147 3.9512C17.9534 4.32637 18.0156 4.72548 17.9977 5.12505C18.5855 5.27619 19.1312 5.5591 19.5935 5.95236C20.0558 6.34562 20.4225 6.83892 20.6659 7.3949C20.9093 7.95087 21.023 8.55494 20.9984 9.16136C20.9737 9.76778 20.8114 10.3606 20.5237 10.8951M6.00381 5.12505C5.41601 5.27619 4.87031 5.5591 4.40804 5.95236C3.94577 6.34562 3.57905 6.83892 3.33565 7.3949C3.09225 7.95087 2.97857 8.55494 3.0032 9.16136C3.02782 9.76778 3.19013 10.3606 3.47781 10.8951M6.00381 5.12505C6.02358 5.60878 6.15999 6.0805 6.40166 6.5M3.47781 10.8951C2.97199 11.306 2.57423 11.8343 2.31915 12.434C2.06406 13.0337 1.95936 13.6866 2.01417 14.336C2.06898 14.9854 2.28162 15.6116 2.63361 16.1601C2.9856 16.7085 3.46627 17.1627 4.03381 17.4831M3.47781 10.8951C3.66075 10.7461 3.85649 10.6145 4.06278 10.5M4.03381 17.4831C3.96372 18.0253 4.00555 18.5761 4.15669 19.1016C4.30784 19.627 4.5651 20.1159 4.91259 20.538C5.26008 20.9601 5.69042 21.3065 6.17703 21.5558C6.66364 21.8051 7.19618 21.952 7.74178 21.9874C8.28738 22.0228 8.83445 21.946 9.34919 21.7617C9.86394 21.5774 10.3354 21.2895 10.7346 20.9158C11.1337 20.5421 11.452 20.0906 11.6698 19.5891C11.8876 19.0876 12.0002 18.5468 12.0008 18M4.03381 17.4831C4.63407 17.8216 5.31152 18.0002 6.00069 17.9999M12.0008 18C12.0014 18.5468 12.114 19.0876 12.3318 19.5891C12.5496 20.0906 12.8679 20.5421 13.267 20.9158C13.6661 21.2895 14.1376 21.5774 14.6524 21.7617C15.1671 21.946 15.7142 22.0228 16.2598 21.9874C16.8054 21.952 17.3379 21.8051 17.8245 21.5558C18.3111 21.3065 18.7415 20.9601 19.089 20.538C19.4364 20.1159 19.6937 19.627 19.8449 19.1016C19.996 18.5761 20.0378 18.0253 19.9677 17.4831M20.5237 10.8951C21.0296 11.306 21.4273 11.8343 21.6824 12.434C21.9375 13.0337 22.0422 13.6866 21.9874 14.336C21.9326 14.9854 21.7199 15.6116 21.3679 16.1601C21.016 16.7085 20.5353 17.1627 19.9677 17.4831M20.5237 10.8951C20.3408 10.7461 20.145 10.6145 19.9387 10.5M19.9677 17.4831C19.3675 17.8216 18.6899 18.0002 18.0007 17.9999M15.0007 13C14.1612 12.7047 13.4281 12.167 12.8941 11.455C12.3601 10.743 12.0492 9.88867 12.0007 9C11.9523 9.88867 11.6414 10.743 11.1074 11.455C10.5734 12.167 9.84029 12.7047 9.00073 13M17.5999 6.5C17.8419 6.08059 17.9788 5.60882 17.9989 5.125" stroke="#C533B9" stroke-width="2" stroke-linecap="round" stroke-linejoin="round"/>
</svg>
