<svg width="24" height="24" viewBox="0 0 24 24" fill="none" xmlns="http://www.w3.org/2000/svg">
<path d="M17.5999 6.5C17.8419 6.08059 17.9788 5.60882 17.9989 5.125M6.00366 5.125C6.02344 5.60873 6.15999 6.0805 6.40166 6.5M3.47778 10.896C3.66072 10.747 3.85649 10.6145 4.06278 10.5M19.9387 10.5C20.145 10.6145 20.3408 10.747 20.5237 10.896M6.00069 17.9999C5.31152 18.0002 4.63396 17.8225 4.03369 17.4839M19.9677 17.4839C19.3675 17.8225 18.6899 18.0002 18.0007 17.9999M15.7008 10.3999L14.8008 10.7999M9.20078 13.2L8.30078 13.6M13.6007 15.7L13.2007 14.8M10.8006 9.20005L10.4006 8.30005M15.7008 13.5001L14.8008 13.1001M9.20078 10.9L8.30078 10.5M10.5007 15.7L10.9007 14.8M13.1008 9.20005L13.5008 8.30005M12.0008 4.99994C11.9997 4.60068 11.919 4.20566 11.7632 3.83802C11.6075 3.47037 11.38 3.13751 11.094 2.85894C10.808 2.58037 10.4692 2.3617 10.0976 2.21573C9.72597 2.06976 9.32895 1.99945 8.9298 2.0089C8.53065 2.01835 8.13741 2.10738 7.77311 2.27077C7.40882 2.43416 7.0808 2.66863 6.80829 2.96042C6.53578 3.25222 6.32425 3.59547 6.18611 3.97007C6.04797 4.34467 5.98599 4.74308 6.00381 5.14194C5.41601 5.29308 4.87031 5.57599 4.40804 5.96925C3.94577 6.36252 3.57905 6.85582 3.33565 7.41179C3.09225 7.96777 2.97857 8.57184 3.0032 9.17826C3.02782 9.78467 3.19013 10.3775 3.47781 10.9119C2.97199 11.3229 2.57423 11.8512 2.31915 12.4509C2.06406 13.0506 1.95936 13.7035 2.01417 14.3529C2.06898 15.0023 2.28162 15.6285 2.63361 16.177C2.9856 16.7254 3.46627 17.1796 4.03381 17.4999C3.91026 18.4558 4.13598 19.4241 4.66944 20.2267C5.2029 21.0294 6.00823 21.6125 6.93732 21.8687C7.86641 22.125 8.85677 22.0371 9.72627 21.6214C10.5958 21.2057 11.2859 20.49 11.6698 19.6059C11.7406 19.4292 11.7955 19.2465 11.8338 19.0599C11.8618 18.9299 12.1398 18.9299 12.1688 19.0599C12.2068 19.2464 12.2613 19.4292 12.3318 19.6059C12.7157 20.49 13.4058 21.2057 14.2753 21.6214C15.1448 22.0371 16.1352 22.125 17.0643 21.8687C17.9934 21.6125 18.7987 21.0294 19.3322 20.2267C19.8656 19.4241 20.0914 18.4558 19.9678 17.4999C20.5353 17.1796 21.016 16.7254 21.368 16.177C21.72 15.6285 21.9326 15.0023 21.9874 14.3529C22.0423 13.7035 21.9376 13.0506 21.6825 12.4509C21.4274 11.8512 21.0296 11.3229 20.5238 10.9119C20.8115 10.3775 20.9738 9.78467 20.9984 9.17826C21.023 8.57184 20.9094 7.96777 20.666 7.41179C20.4226 6.85582 20.0558 6.36252 19.5936 5.96925C19.1313 5.57599 18.5856 5.29308 17.9978 5.14194C18.0156 4.74308 17.9536 4.34467 17.8155 3.97007C17.6774 3.59547 17.4658 3.25222 17.1933 2.96042C16.9208 2.66863 16.5928 2.43416 16.2285 2.27077C15.8642 2.10738 15.471 2.01835 15.0718 2.0089C14.6727 1.99945 14.2756 2.06976 13.904 2.21573C13.5324 2.3617 13.1937 2.58037 12.9076 2.85894C12.6216 3.13751 12.3941 3.47037 12.2384 3.83802C12.0827 4.20566 12.0019 4.60068 12.0008 4.99994ZM15.0007 12C15.0007 13.6569 13.6576 15 12.0007 15C10.3439 15 9.00073 13.6569 9.00073 12C9.00073 10.3431 10.3439 9 12.0007 9C13.6576 9 15.0007 10.3431 15.0007 12Z" stroke="#C533B9" stroke-width="2" stroke-linecap="round" stroke-linejoin="round"/>
</svg>
