<svg width="24" height="24" viewBox="0 0 24 24" fill="none" xmlns="http://www.w3.org/2000/svg">
<path d="M6.00381 5.12505C5.98596 4.72548 6.0482 4.32637 6.18686 3.9512C6.32552 3.57604 6.53779 3.23238 6.81121 2.94045C7.08462 2.64853 7.41365 2.41422 7.77894 2.25132C8.14424 2.08841 8.53842 2.0002 8.9383 1.99186C9.33819 1.98353 9.7357 2.05524 10.1075 2.20278C10.4792 2.35032 10.8177 2.57072 11.1031 2.851C11.3884 3.13128 11.6148 3.46579 11.769 3.83485C11.9232 4.20391 12.002 4.60008 12.0008 5.00005V18M6.00381 5.12505C5.41601 5.27619 4.87031 5.5591 4.40804 5.95236C3.94577 6.34562 3.57905 6.83892 3.33565 7.3949C3.09225 7.95087 2.97857 8.55494 3.0032 9.16136C3.02782 9.76778 3.19013 10.3606 3.47781 10.8951M6.00381 5.12505C6.02358 5.60878 6.15999 6.0805 6.40166 6.5M3.47781 10.8951C2.97199 11.306 2.57423 11.8343 2.31915 12.434C2.06406 13.0337 1.95936 13.6866 2.01417 14.336C2.06898 14.9854 2.28162 15.6116 2.63361 16.1601C2.9856 16.7085 3.46627 17.1627 4.03381 17.4831M3.47781 10.8951C3.66075 10.7461 3.85649 10.6145 4.06278 10.5M4.03381 17.4831C3.96372 18.0253 4.00555 18.5761 4.15669 19.1016C4.30784 19.627 4.5651 20.1159 4.91259 20.538C5.26008 20.9601 5.69042 21.3065 6.17703 21.5558C6.66364 21.8051 7.19618 21.952 7.74178 21.9874C8.28738 22.0228 8.83445 21.946 9.34919 21.7617C9.86394 21.5774 10.3354 21.2895 10.7346 20.9158C11.1337 20.5421 11.452 20.0906 11.6698 19.5891C11.8876 19.0876 12.0002 18.5468 12.0008 18M4.03381 17.4831C4.63407 17.8216 5.31152 18.0002 6.00069 17.9999M12.0008 18L18.0007 18C18.5312 18 19.0399 18.2107 19.4149 18.5858C19.79 18.9609 20.0007 19.4696 20.0007 20V21M9.00073 13C9.84029 12.7047 10.5734 12.167 11.1074 11.455C11.6414 10.743 11.9523 9.88867 12.0007 9M12.0007 13H16.0007M12.0007 8H20.0007M16.0007 8V5C16.0007 4.46957 16.2114 3.96086 16.5865 3.58579C16.9616 3.21071 17.4703 3 18.0007 3M16.5007 13C16.5007 13.2761 16.2769 13.5 16.0007 13.5C15.7246 13.5 15.5007 13.2761 15.5007 13C15.5007 12.7239 15.7246 12.5 16.0007 12.5C16.2769 12.5 16.5007 12.7239 16.5007 13ZM18.5007 3C18.5007 3.27614 18.2769 3.5 18.0007 3.5C17.7246 3.5 17.5007 3.27614 17.5007 3C17.5007 2.72386 17.7246 2.5 18.0007 2.5C18.2769 2.5 18.5007 2.72386 18.5007 3ZM20.5007 21C20.5007 21.2761 20.2769 21.5 20.0007 21.5C19.7246 21.5 19.5007 21.2761 19.5007 21C19.5007 20.7239 19.7246 20.5 20.0007 20.5C20.2769 20.5 20.5007 20.7239 20.5007 21ZM20.5007 8C20.5007 8.27614 20.2769 8.5 20.0007 8.5C19.7246 8.5 19.5007 8.27614 19.5007 8C19.5007 7.72386 19.7246 7.5 20.0007 7.5C20.2769 7.5 20.5007 7.72386 20.5007 8Z" stroke="#C533B9" stroke-width="2" stroke-linecap="round" stroke-linejoin="round"/>
</svg>
