<svg width="24" height="24" viewBox="0 0 24 24" fill="none" xmlns="http://www.w3.org/2000/svg">
<path d="M9.06006 11.8999L17.1301 3.83992C17.3931 3.56836 17.7076 3.35186 18.0551 3.20303C18.4027 3.05419 18.7764 2.97599 19.1544 2.97299C19.5325 2.96999 19.9074 3.04224 20.2573 3.18553C20.6071 3.32883 20.925 3.5403 21.1923 3.80765C21.4597 4.07499 21.6711 4.39285 21.8144 4.74272C21.9577 5.09259 22.03 5.46747 22.027 5.84554C22.024 6.22361 21.9458 6.59729 21.7969 6.94484C21.6481 7.29239 21.4316 7.60686 21.1601 7.86992L13.1001 15.9499M7.07002 14.9399C5.41002 14.9399 4.07002 16.2899 4.07002 17.9599C4.07002 19.2899 1.57002 19.4799 2.07002 19.9799C3.15002 21.0799 4.56002 21.9999 6.07002 21.9999C8.27002 21.9999 10.07 20.1999 10.07 17.9599C10.0713 17.5647 9.99478 17.173 9.84473 16.8073C9.69468 16.4416 9.47407 16.1091 9.19549 15.8286C8.91691 15.5482 8.58583 15.3254 8.22114 15.1729C7.85645 15.0204 7.4653 14.9413 7.07002 14.9399Z" stroke="#C533B9" stroke-width="2" stroke-linecap="round" stroke-linejoin="round"/>
</svg>
