<svg width="24" height="24" viewBox="0 0 24 24" fill="none" xmlns="http://www.w3.org/2000/svg">
<path d="M14.1201 3.88L16.0001 2M18 11C18 9.93913 17.5786 8.92172 16.8284 8.17157C16.0783 7.42143 15.0609 7 14 7H10C8.93913 7 7.92172 7.42143 7.17157 8.17157C6.42143 8.92172 6 9.93913 6 11V14C6.00232 14.8479 6.18137 15.686 6.52573 16.4608C6.87009 17.2356 7.37219 17.9301 8 18.5M20.97 5C20.97 7.1 19.37 8.8 17.47 9M3 21C3 18.9 4.7 17.1 6.8 17M6 13H2M6.53 9C4.6 8.8 3 7.1 3 5M8 2L9.88 3.88M9.00007 7.13012V6.13012C8.98194 5.72486 9.04611 5.32014 9.1887 4.94037C9.33129 4.5606 9.54934 4.21365 9.8297 3.92047C10.1101 3.62728 10.4469 3.39394 10.8199 3.23453C11.193 3.07511 11.5944 2.99292 12.0001 2.99292C12.4057 2.99292 12.8072 3.07511 13.1802 3.23453C13.5532 3.39394 13.8901 3.62728 14.1704 3.92047C14.4508 4.21365 14.6689 4.5606 14.8114 4.94037C14.954 5.32014 15.0182 5.72486 15.0001 6.13012V7.13012M12.765 21.5221C12.6893 21.5694 12.6023 21.5956 12.5131 21.5979C12.4239 21.6003 12.3357 21.5787 12.2576 21.5354C12.1796 21.4922 12.1145 21.4288 12.0692 21.3519C12.0239 21.275 12 21.1874 12 21.0981V12.9021C12 12.8128 12.0239 12.7252 12.0692 12.6483C12.1145 12.5714 12.1796 12.508 12.2576 12.4648C12.3357 12.4215 12.4239 12.3999 12.5131 12.4023C12.6023 12.4046 12.6893 12.4308 12.765 12.4781L18.643 16.1521C18.7868 16.242 18.9054 16.367 18.9876 16.5153C19.0699 16.6637 19.113 16.8305 19.113 17.0001C19.113 17.1697 19.0699 17.3365 18.9876 17.4849C18.9054 17.6332 18.7868 17.7582 18.643 17.8481L12.765 21.5221Z" stroke="#C533B9" stroke-width="2" stroke-linecap="round" stroke-linejoin="round"/>
</svg>
