<svg width="24" height="24" viewBox="0 0 24 24" fill="none" xmlns="http://www.w3.org/2000/svg">
<path d="M15 7.13V6C14.9995 5.40461 14.8219 4.82282 14.4897 4.32871C14.1575 3.8346 13.6858 3.4505 13.1346 3.22532C12.5835 3.00013 11.9778 2.94404 11.3946 3.06419C10.8115 3.18434 10.2773 3.47529 9.86 3.9L8 2M14.1201 3.88L16.0001 2M22 13H18V11C18 9.93913 17.5785 8.92172 16.8284 8.17157C16.0782 7.42143 15.0608 7 14 7H12.7M20.97 5C20.97 7.1 19.37 8.8 17.47 9M2 2L22 22M7.70009 7.69995C7.17114 8.07168 6.74017 8.56608 6.4441 9.1408C6.14803 9.71553 5.99568 10.3535 6.00009 11V14C5.9961 15.3112 6.42177 16.5877 7.21198 17.6341C8.0022 18.6805 9.11345 19.4392 10.3757 19.7942C11.638 20.1492 12.9819 20.0809 14.2017 19.5997C15.4215 19.1186 16.45 18.2511 17.1301 17.13M12 20V12M6 13H2M3 21C3 18.9 4.7 17.1 6.8 17" stroke="#C533B9" stroke-width="2" stroke-linecap="round" stroke-linejoin="round"/>
</svg>
