<svg width="24" height="24" viewBox="0 0 24 24" fill="none" xmlns="http://www.w3.org/2000/svg">
<path d="M8 2L9.88 3.88M14.1201 3.88L16.0001 2M9.00007 7.13012V6.13012C8.98194 5.72486 9.04611 5.32014 9.1887 4.94037C9.33129 4.5606 9.54934 4.21365 9.8297 3.92047C10.1101 3.62728 10.4469 3.39394 10.8199 3.23453C11.193 3.07511 11.5944 2.99292 12.0001 2.99292C12.4057 2.99292 12.8072 3.07511 13.1802 3.23453C13.5532 3.39394 13.8901 3.62728 14.1704 3.92047C14.4508 4.21365 14.6689 4.5606 14.8114 4.94037C14.954 5.32014 15.0182 5.72486 15.0001 6.13012V7.13012M12 20C8.7 20 6 17.3 6 14V11C6 9.93913 6.42143 8.92172 7.17157 8.17157C7.92172 7.42143 8.93913 7 10 7H14C15.0609 7 16.0783 7.42143 16.8284 8.17157C17.5786 8.92172 18 9.93913 18 11V14C18 17.3 15.3 20 12 20ZM12 20V11M6.53 9C4.6 8.8 3 7.1 3 5M6 13H2M3 21C3 18.9 4.7 17.1 6.8 17M20.97 5C20.97 7.1 19.37 8.8 17.47 9M22 13H18M17.2 17C19.3 17.1 21 18.9 21 21" stroke="#C533B9" stroke-width="2" stroke-linecap="round" stroke-linejoin="round"/>
</svg>
