<svg width="24" height="24" viewBox="0 0 24 24" fill="none" xmlns="http://www.w3.org/2000/svg">
<path d="M8 6V12M15 6V12M2 12H21.6M18 18H21C21 18 21.5 16.3 21.8 15.2C21.9 14.8 22 14.4 22 14C22 13.6 21.9 13.2 21.8 12.8L20.4 7.8C20.1 6.8 19.1 6 18 6H4C3.46957 6 2.96086 6.21071 2.58579 6.58579C2.21071 6.96086 2 7.46957 2 8V18H5M18 18C18 19.1046 17.1046 20 16 20C14.8954 20 14 19.1046 14 18M18 18C18 16.8954 17.1046 16 16 16C14.8954 16 14 16.8954 14 18M5 18C5 19.1046 5.89543 20 7 20C8.10457 20 9 19.1046 9 18M5 18C5 16.8954 5.89543 16 7 16C8.10457 16 9 16.8954 9 18M9 18H14" stroke="#C533B9" stroke-width="2" stroke-linecap="round" stroke-linejoin="round"/>
</svg>
