<svg width="24" height="24" viewBox="0 0 24 24" fill="none" xmlns="http://www.w3.org/2000/svg">
<path d="M3 5V3M7 5V3M19 15V6.5C19 5.57174 18.6313 4.6815 17.9749 4.02513C17.3185 3.36875 16.4283 3 15.5 3C14.5717 3 13.6815 3.36875 13.0251 4.02513C12.3687 4.6815 12 5.57174 12 6.5V17.5C12 18.4283 11.6313 19.3185 10.9749 19.9749C10.3185 20.6313 9.42826 21 8.5 21C7.57174 21 6.6815 20.6313 6.02513 19.9749C5.36875 19.3185 5 18.4283 5 17.5V9M17 21V19M21 21V19M4 9C3.46957 9 2.96086 8.78929 2.58579 8.41421C2.21071 8.03914 2 7.53043 2 7V5H8V7C8 7.53043 7.78929 8.03914 7.41421 8.41421C7.03914 8.78929 6.53043 9 6 9H4ZM22 19H16V17C16 16.4696 16.2107 15.9609 16.5858 15.5858C16.9609 15.2107 17.4696 15 18 15H20C20.5304 15 21.0391 15.2107 21.4142 15.5858C21.7893 15.9609 22 16.4696 22 17V19Z" stroke="#C533B9" stroke-width="2" stroke-linecap="round" stroke-linejoin="round"/>
</svg>
