<svg width="24" height="24" viewBox="0 0 24 24" fill="none" xmlns="http://www.w3.org/2000/svg">
<path d="M3 10H21V6C21 5.46957 20.7893 4.96086 20.4142 4.58579C20.0391 4.21071 19.5304 4 19 4H5C4.46957 4 3.96086 4.21071 3.58579 4.58579C3.21071 4.96086 3 5.46957 3 6V20C3 20.5304 3.21071 21.0391 3.58579 21.4142C3.96086 21.7893 4.46957 22 5 22H12M8 2V6M16 2V6M21.2902 14.6999C20.9494 14.3609 20.5158 14.1305 20.044 14.0379C19.5723 13.9453 19.0838 13.9948 18.6402 14.1799C18.3402 14.2999 18.0702 14.4799 17.8402 14.7099L17.5002 15.0499L17.1502 14.7099C16.8105 14.3692 16.3774 14.1369 15.9056 14.0426C15.4339 13.9482 14.9447 13.996 14.5002 14.1799C14.2002 14.2999 13.9402 14.4799 13.7102 14.7099C12.7602 15.6499 12.7102 17.2399 13.9102 18.4499L17.5002 21.9999L21.1002 18.4499C22.3002 17.2399 22.2402 15.6499 21.2902 14.7099V14.6999Z" stroke="#C533B9" stroke-width="2" stroke-linecap="round" stroke-linejoin="round"/>
</svg>
