<svg width="24" height="24" viewBox="0 0 24 24" fill="none" xmlns="http://www.w3.org/2000/svg">
<path d="M2 2L22 22M7 7H4C3.46957 7 2.96086 7.21071 2.58579 7.58579C2.21071 7.96086 2 8.46957 2 9V18C2 18.5304 2.21071 19.0391 2.58579 19.4142C2.96086 19.7893 3.46957 20 4 20H20M9.5 4H14.5L17 7H20C20.5304 7 21.0391 7.21071 21.4142 7.58579C21.7893 7.96086 22 8.46957 22 9V16.5M14.1209 15.1209C13.8453 15.4122 13.5142 15.6453 13.147 15.8065C12.7798 15.9676 12.3841 16.0535 11.9831 16.0591C11.5822 16.0647 11.1842 15.9898 10.8127 15.8389C10.4411 15.6881 10.1036 15.4642 9.82009 15.1807C9.53654 14.8972 9.31272 14.5596 9.16185 14.1881C9.01098 13.8166 8.93612 13.4186 8.9417 13.0177C8.94727 12.6167 9.03317 12.2209 9.19431 11.8538C9.35546 11.4866 9.58858 11.1554 9.8799 10.8799" stroke="#C533B9" stroke-width="2" stroke-linecap="round" stroke-linejoin="round"/>
</svg>
