<svg width="24" height="24" viewBox="0 0 24 24" fill="none" xmlns="http://www.w3.org/2000/svg">
<path d="M14 6.5V16.5M10 7.5V17.5M16 7L17 2L18.37 2.68C18.7828 2.88767 19.2379 2.99718 19.7 3H21V4.3C21 4.76 21.1 5.22 21.32 5.63L22 7L17 8M8 17L7 22L5.63 21.32C5.21723 21.1123 4.76206 21.0028 4.3 21H3V19.7C2.99718 19.2379 2.88767 18.7828 2.68 18.37L2 17L7 16M9.5 7.5L7.5 9.5C7.03273 9.95793 6.66087 10.5039 6.40593 11.1065C6.15098 11.709 6.01802 12.3561 6.01471 13.0104C6.01141 13.6646 6.13783 14.313 6.38668 14.9181C6.63552 15.5232 7.00184 16.0729 7.46447 16.5355C7.92709 16.9982 8.47684 17.3645 9.08192 17.6133C9.687 17.8622 10.3354 17.9886 10.9896 17.9853C11.6439 17.982 12.291 17.849 12.8935 17.5941C13.4961 17.3391 14.0421 16.9673 14.5 16.5L16.5 14.5C16.9673 14.0421 17.3391 13.4961 17.5941 12.8935C17.849 12.291 17.982 11.6439 17.9853 10.9896C17.9886 10.3354 17.8622 9.687 17.6133 9.08192C17.3645 8.47684 16.9982 7.92709 16.5355 7.46447C16.0729 7.00184 15.5232 6.63552 14.9181 6.38668C14.313 6.13783 13.6646 6.01141 13.0104 6.01471C12.3561 6.01802 11.709 6.15098 11.1065 6.40593C10.5039 6.66087 9.95793 7.03273 9.5 7.5Z" stroke="#C533B9" stroke-width="2" stroke-linecap="round" stroke-linejoin="round"/>
</svg>
