<svg width="24" height="24" viewBox="0 0 24 24" fill="none" xmlns="http://www.w3.org/2000/svg">
<g clip-path="url(#clip0_1196_4206)">
<path d="M17.7493 7.0001L14.9993 2.1001M10.8992 4.80005L12.9992 9.00005M7.89917 9.69995L9.89917 14.1M4.89917 14.7L6.99917 18.9M5.69916 20.9999C5.56784 21.2297 5.39254 21.4314 5.18327 21.5935C4.974 21.7556 4.73485 21.8748 4.47949 21.9445C3.96377 22.0851 3.41329 22.0151 2.94916 21.7499C2.48503 21.4847 2.14527 21.046 2.00462 20.5303C1.86397 20.0145 1.93395 19.4641 2.19916 18.9999L10.7992 4.99993C11.5948 3.6208 12.9057 2.61423 14.4435 2.20165C15.9813 1.78907 17.62 2.00428 18.9992 2.79993C20.3783 3.59558 21.3849 4.9065 21.7974 6.44429C22.21 7.98209 21.9948 9.6208 21.1992 10.9999C21.0688 11.2292 20.8944 11.4305 20.6859 11.5921C20.4775 11.7537 20.2391 11.8724 19.9845 11.9415C19.73 12.0107 19.4643 12.0287 19.2027 11.9947C18.9412 11.9607 18.6889 11.8753 18.4605 11.7435C18.2321 11.6116 18.032 11.4358 17.8718 11.2263C17.7116 11.0168 17.5944 10.7776 17.527 10.5226C17.4595 10.2676 17.4432 10.0018 17.479 9.74048C17.5147 9.47915 17.6018 9.22747 17.7352 8.99993C17.8686 8.77239 17.9556 8.52071 17.9914 8.25938C18.0271 7.99805 18.0108 7.73224 17.9434 7.47724C17.8759 7.22224 17.7588 6.98309 17.5985 6.77357C17.4383 6.56405 17.2382 6.38829 17.0098 6.2564C16.7814 6.12452 16.5291 6.03912 16.2676 6.00512C16.006 5.97113 15.7403 5.9892 15.4858 6.05831C15.2312 6.12742 14.9929 6.24619 14.7844 6.40779C14.576 6.5694 14.4015 6.77064 14.2712 6.99993L5.69916 20.9999Z" stroke="#C533B9" stroke-width="2" stroke-linecap="round" stroke-linejoin="round"/>
</g>
<defs>
<clipPath id="clip0_1196_4206">
<rect width="24" height="24" fill="white"/>
</clipPath>
</defs>
</svg>
