<svg width="24" height="24" viewBox="0 0 24 24" fill="none" xmlns="http://www.w3.org/2000/svg">
<path d="M10 2H14M21 8.00004L19 10M19 10L17.5 6.30004C17.3585 5.92138 17.1057 5.59446 16.7747 5.36239C16.4437 5.13032 16.0502 5.00399 15.646 5.00004H8.4C7.9925 4.99068 7.59188 5.10605 7.25177 5.3307C6.91166 5.55536 6.64832 5.87856 6.497 6.25704L5 10M19 10H5M19 10C20.1046 10 21 10.8954 21 12V16C21 17.1046 20.1046 18 19 18M5 10L3 8.00004M5 10C3.89543 10 3 10.8954 3 12V16C3 17.1046 3.89543 18 5 18M7 14H7.01M17 14H17.01M19 18H5M19 18V20M5 18V20" stroke="#C533B9" stroke-width="2" stroke-linecap="round" stroke-linejoin="round"/>
</svg>
