<svg width="24" height="24" viewBox="0 0 24 24" fill="none" xmlns="http://www.w3.org/2000/svg">
<path d="M8.00049 14V14.5M16.0005 14V14.5M12.0006 5.00002C12.6706 5.00002 13.3506 5.09002 14.0006 5.26002C15.7806 3.26002 19.0306 2.42002 20.4206 3.00002C21.8206 3.58002 20.0006 10 20.0006 10C20.5706 11.07 21.0006 12.24 21.0006 13.44C21.0006 17.9 16.9706 21 12.0006 21C7.03057 21 3.00057 18 3.00057 13.44C3.00057 12.19 3.50057 11.04 4.00057 10C4.00057 10 2.11057 3.58002 3.50057 3.00002C4.89057 2.42002 8.22057 3.23002 10.0006 5.23002C10.6566 5.07913 11.3274 5.00198 12.0006 5.00002ZM11.2505 16.25H12.7505L12.0005 17L11.2505 16.25Z" stroke="#C533B9" stroke-width="2" stroke-linecap="round" stroke-linejoin="round"/>
</svg>
