<svg width="24" height="24" viewBox="0 0 24 24" fill="none" xmlns="http://www.w3.org/2000/svg">
<path d="M6.00024 17H18.0002M17.0001 20.9999C17.2654 20.9999 17.5197 20.8946 17.7073 20.707C17.8948 20.5195 18.0001 20.2651 18.0001 19.9999V14.6499C18.0001 14.1929 18.3161 13.8059 18.7271 13.6089C19.5781 13.203 20.2583 12.5095 20.6478 11.6508C21.0372 10.7921 21.1108 9.82351 20.8556 8.91586C20.6003 8.00822 20.0327 7.21991 19.2528 6.69005C18.473 6.16019 17.531 5.92285 16.5931 6.01991C16.2069 5.12211 15.566 4.3572 14.7497 3.81974C13.9334 3.28229 12.9775 2.99585 12.0001 2.99585C11.0228 2.99585 10.0669 3.28229 9.25057 3.81974C8.43427 4.3572 7.79338 5.12211 7.40714 6.01991C6.46973 5.92353 5.52838 6.16121 4.74908 6.69104C3.96977 7.22088 3.40255 8.00884 3.14743 8.91601C2.8923 9.82317 2.96565 10.7913 3.35455 11.6497C3.74344 12.508 4.42291 13.2015 5.27314 13.6079C5.68414 13.8059 6.00014 14.1929 6.00014 14.6489V19.9999C6.00014 20.2651 6.1055 20.5195 6.29304 20.707C6.48057 20.8946 6.73493 20.9999 7.00014 20.9999H17.0001Z" stroke="#C533B9" stroke-width="2" stroke-linecap="round" stroke-linejoin="round"/>
</svg>
