<svg width="24" height="24" viewBox="0 0 24 24" fill="none" xmlns="http://www.w3.org/2000/svg">
<path d="M12 16.9999C12 18.326 11.4732 19.5977 10.5355 20.5354C9.59785 21.4731 8.32608 21.9999 7 21.9999C5.67392 21.9999 4.40215 21.4731 3.46447 20.5354C2.52678 19.5977 2 18.326 2 16.9999C2 14.2399 4.5 11.9999 7 13.9999M12 16.9999C12 14.2399 9.5 11.9999 7 13.9999M12 16.9999C12 18.326 12.5268 19.5977 13.4645 20.5354C14.4021 21.4731 15.6739 21.9999 17 21.9999C18.3261 21.9999 19.5979 21.4731 20.5355 20.5354C21.4732 19.5977 22 18.326 22 16.9999C22 14.2399 19.5 11.9999 17 13.9999M12 16.9999C12 14.2399 14.5 11.9999 17 13.9999M7 13.9999C10.22 11.0899 11.29 5.25 12 2M17 13.9999C16.94 10.9999 13.66 4.38 12 2M12 2C14.86 6.67 17.71 9 22 9C22 6.67 17.71 2 12 2Z" stroke="#C533B9" stroke-width="2" stroke-linecap="round" stroke-linejoin="round"/>
</svg>
