<svg width="24" height="24" viewBox="0 0 24 24" fill="none" xmlns="http://www.w3.org/2000/svg">
<path d="M15.5998 2.69996C13.461 1.86904 11.1015 1.79892 8.91713 2.50138C6.73275 3.20383 4.85639 4.63611 3.60282 6.55796C2.34925 8.4798 1.79472 10.7743 2.03226 13.0565C2.26981 15.3387 3.28498 17.4698 4.90746 19.0923C6.52995 20.7148 8.66105 21.73 10.9433 21.9675C13.2255 22.2051 15.52 21.6505 17.4418 20.397C19.3637 19.1434 20.7959 17.267 21.4984 15.0826C22.2008 12.8983 22.1307 10.5388 21.2998 8.39996M13.3997 10.6L18.9997 5M13.9998 12C13.9998 13.1046 13.1043 14 11.9998 14C10.8952 14 9.99976 13.1046 9.99976 12C9.99976 10.8954 10.8952 10 11.9998 10C13.1043 10 13.9998 10.8954 13.9998 12Z" stroke="#C533B9" stroke-width="2" stroke-linecap="round" stroke-linejoin="round"/>
</svg>
