<svg width="24" height="24" viewBox="0 0 24 24" fill="none" xmlns="http://www.w3.org/2000/svg">
<path d="M10.1003 2.18191C11.3554 1.93904 12.6453 1.93904 13.9003 2.18191M13.9003 21.8181C12.6453 22.061 11.3554 22.061 10.1003 21.8181M17.6091 3.72095C18.6706 4.44017 19.5839 5.35682 20.2991 6.42095M2.18216 13.9001C1.93928 12.6451 1.93928 11.3551 2.18216 10.1001M20.2793 17.6089C19.5601 18.6704 18.6435 19.5836 17.5793 20.2989M21.8184 10.1001C22.0612 11.3551 22.0612 12.6451 21.8184 13.9001M3.72119 6.39093C4.44041 5.32946 5.35706 4.41621 6.42119 3.70093M6.39117 20.2791C5.3297 19.5599 4.41645 18.6432 3.70117 17.5791" stroke="#C533B9" stroke-width="2" stroke-linecap="round" stroke-linejoin="round"/>
</svg>
