<svg width="24" height="24" viewBox="0 0 24 24" fill="none" xmlns="http://www.w3.org/2000/svg">
<g clip-path="url(#clip0_1196_4146)">
<path d="M10.0996 2.18005C11.3545 1.93543 12.6448 1.93543 13.8996 2.18005M17.5996 3.70996C18.6619 4.42822 19.5753 5.34503 20.2896 6.40996M21.8196 10.1001C22.0642 11.355 22.0642 12.6452 21.8196 13.9001M20.2896 17.6001C19.5713 18.6624 18.6545 19.5758 17.5896 20.2901M13.8996 21.8201C12.6447 22.0644 11.3545 22.0644 10.0996 21.8201M6.39947 20.2901C5.3372 19.5718 4.42378 18.655 3.70947 17.5901M2.17956 13.9001C1.93494 12.6452 1.93494 11.355 2.17956 10.1001M3.70947 6.39996C4.42773 5.33769 5.34454 4.42427 6.40947 3.70996M12.9995 12C12.9995 12.5523 12.5518 13 11.9995 13C11.4472 13 10.9995 12.5523 10.9995 12C10.9995 11.4477 11.4472 11 11.9995 11C12.5518 11 12.9995 11.4477 12.9995 12Z" stroke="#C533B9" stroke-width="2" stroke-linecap="round" stroke-linejoin="round"/>
</g>
<defs>
<clipPath id="clip0_1196_4146">
<rect width="24" height="24" fill="white"/>
</clipPath>
</defs>
</svg>
