<svg width="24" height="24" viewBox="0 0 24 24" fill="none" xmlns="http://www.w3.org/2000/svg">
<path d="M12 12V7M16 9C16.5571 9.74285 16.8964 10.6262 16.9798 11.551C17.0632 12.4758 16.8874 13.4055 16.4721 14.2361C16.0569 15.0666 15.4185 15.7651 14.6287 16.2533C13.8388 16.7414 12.9286 17 12 17C11.0714 17 10.1612 16.7414 9.37135 16.2533C8.58147 15.7651 7.94313 15.0666 7.52787 14.2361C7.1126 13.4055 6.93682 12.4758 7.02021 11.551C7.1036 10.6262 7.44287 9.74285 8 9M22 12C22 17.5228 17.5228 22 12 22C6.47715 22 2 17.5228 2 12C2 6.47715 6.47715 2 12 2C17.5228 2 22 6.47715 22 12Z" stroke="#C533B9" stroke-width="2" stroke-linecap="round" stroke-linejoin="round"/>
</svg>
