<svg width="24" height="24" viewBox="0 0 24 24" fill="none" xmlns="http://www.w3.org/2000/svg">
<path d="M19.6492 15.6601C18.1354 17.0957 16.1207 17.8833 14.0346 17.8547C11.9485 17.8262 9.95611 16.9839 8.48219 15.5073C7.00827 14.0308 6.16946 12.0369 6.14461 9.95076C6.11976 7.86462 6.91084 5.85131 8.34917 4.34009M13.999 10L8.49902 15.5M13.999 10L13.9989 17.85M13.999 10H6.14893M21.6592 17.6699C21.7683 17.7739 21.8545 17.8996 21.9121 18.0389C21.9698 18.1782 21.9976 18.328 21.9938 18.4787C21.9901 18.6295 21.9548 18.7777 21.8903 18.914C21.8257 19.0502 21.7334 19.1715 21.6192 19.2699C19.3166 21.1622 16.3922 22.13 13.4154 21.9848C10.4385 21.8396 7.6222 20.5918 5.51473 18.4843C3.40726 16.3769 2.15947 13.5606 2.01426 10.5837C1.86906 7.60683 2.83684 4.68245 4.72919 2.37988C4.82936 2.26674 4.95175 2.17545 5.08876 2.11171C5.22576 2.04796 5.37443 2.01313 5.52548 2.00937C5.67654 2.00562 5.82676 2.03303 5.96676 2.08989C6.10675 2.14676 6.23354 2.23186 6.33919 2.33988L21.6592 17.6699Z" stroke="#C533B9" stroke-width="2" stroke-linecap="round" stroke-linejoin="round"/>
</svg>
