<svg width="24" height="24" viewBox="0 0 24 24" fill="none" xmlns="http://www.w3.org/2000/svg">
<path d="M3.00093 11L20.2009 5.99995L19.4009 3.39995C19.1009 2.39995 18.0009 1.79995 16.9009 2.09995L3.40093 6.09995C2.40093 6.39995 1.80093 7.49995 2.10093 8.59995L3.00093 11ZM3.00093 11L21.001 11V19C21.001 19.5304 20.7903 20.0391 20.4152 20.4142C20.0401 20.7893 19.5314 21 19.001 21H5.00098C4.47054 21 3.96184 20.7893 3.58676 20.4142C3.21169 20.0391 3.00098 19.5304 3.00098 19L3.00093 11ZM6.20117 5.30005L9.30117 9.20005M12.4009 3.3999L15.5009 7.3999" stroke="#C533B9" stroke-width="2" stroke-linecap="round" stroke-linejoin="round"/>
</svg>
