<svg width="24" height="24" viewBox="0 0 24 24" fill="none" xmlns="http://www.w3.org/2000/svg">
<path d="M16 4H18C18.5304 4 19.0391 4.21071 19.4142 4.58579C19.7893 4.96086 20 5.46957 20 6V20C20 20.5304 19.7893 21.0391 19.4142 21.4142C19.0391 21.7893 18.5304 22 18 22H12.5M4 13.5V6C4 5.46957 4.21071 4.96086 4.58579 4.58579C4.96086 4.21071 5.46957 4 6 4H8M9 2H15C15.5523 2 16 2.44772 16 3V5C16 5.55228 15.5523 6 15 6H9C8.44772 6 8 5.55228 8 5V3C8 2.44772 8.44772 2 9 2ZM10.4 12.6001C10.7978 12.2023 11.3374 11.9788 11.9 11.9788C12.4626 11.9788 13.0022 12.2023 13.4 12.6001C13.7978 12.9979 14.0213 13.5375 14.0213 14.1001C14.0213 14.6627 13.7978 15.2023 13.4 15.6001L8 21.0001L4 22.0001L5 18.0001L10.4 12.6001Z" stroke="#C533B9" stroke-width="2" stroke-linecap="round" stroke-linejoin="round"/>
</svg>
