<svg width="24" height="24" viewBox="0 0 24 24" fill="none" xmlns="http://www.w3.org/2000/svg">
<path d="M10.0991 9C10.335 7.60463 11.0565 6.33754 12.1361 5.42261C13.2157 4.50767 14.584 4.00379 15.9991 4C15.2035 4.79565 14.7565 5.87478 14.7565 7C14.7565 7.55715 14.8662 8.10885 15.0794 8.62359C15.2926 9.13833 15.6052 9.60603 15.9991 10C16.3931 10.394 16.8608 10.7065 17.3755 10.9197C17.8903 11.1329 18.442 11.2426 18.9991 11.2426C20.1243 11.2426 21.2035 10.7956 21.9991 10C21.9993 11.0534 21.7221 12.0882 21.1955 13.0005C20.6689 13.9128 19.9114 14.6703 18.9991 15.197M12.999 16C13.7946 16 14.5577 16.3161 15.1203 16.8787C15.6829 17.4413 15.999 18.2044 15.999 19C15.999 19.7956 15.6829 20.5587 15.1203 21.1213C14.5577 21.6839 13.7946 22 12.999 22H6.99898C6.05295 21.9998 5.12639 21.7312 4.32691 21.2255C3.52742 20.7197 2.88783 19.9975 2.48241 19.1427C2.07699 18.288 1.92238 17.3358 2.03654 16.3966C2.1507 15.4575 2.52895 14.5701 3.12734 13.8373C3.72574 13.1046 4.51973 12.5567 5.4171 12.2572C6.31448 11.9577 7.2784 11.9189 8.19692 12.1454C9.11545 12.3718 9.95088 12.8542 10.6062 13.5366C11.2615 14.2189 11.7098 15.0731 11.899 16H12.999Z" stroke="#C533B9" stroke-width="2" stroke-linecap="round" stroke-linejoin="round"/>
</svg>
