<svg width="24" height="24" viewBox="0 0 24 24" fill="none" xmlns="http://www.w3.org/2000/svg">
<path d="M1.99902 2L21.999 22M5.78106 5.78198C4.38733 6.50262 3.27611 7.6706 2.62576 9.09847C1.9754 10.5264 1.82361 12.1313 2.19476 13.6558C2.5659 15.1803 3.43846 16.5359 4.67238 17.505C5.90631 18.4742 7.43005 19.0006 8.99906 19H17.4991C17.9418 19.0003 18.3823 18.9353 18.8061 18.807M21.531 16.5001C21.8714 15.8139 22.0311 15.0522 21.9949 14.2872C21.9586 13.5221 21.7277 12.7789 21.3239 12.128C20.9202 11.4771 20.357 10.94 19.6876 10.5677C19.0183 10.1953 18.265 9.99992 17.499 10.0001H15.709C15.3265 8.71934 14.5857 7.57472 13.574 6.70121C12.5623 5.82769 11.3218 5.26173 9.99902 5.07007" stroke="#C533B9" stroke-width="2" stroke-linecap="round" stroke-linejoin="round"/>
</svg>
