<svg width="24" height="24" viewBox="0 0 24 24" fill="none" xmlns="http://www.w3.org/2000/svg">
<path d="M5.99936 16.326C4.94559 15.8256 4.03358 15.0698 3.34622 14.1273C2.65886 13.1848 2.21794 12.0855 2.06354 10.9292C1.90914 9.77291 2.04616 8.59638 2.46214 7.50653C2.87812 6.41669 3.55987 5.44808 4.44542 4.68874C5.33098 3.9294 6.39227 3.40342 7.53282 3.15859C8.67338 2.91376 9.85703 2.95785 10.9762 3.28686C12.0954 3.61587 13.1146 4.21935 13.9412 5.04247C14.7678 5.86559 15.3756 6.88223 15.7094 8.00001H17.4994C18.6508 7.998 19.7593 8.43748 20.5966 9.22801C21.4338 10.0185 21.9362 11.0999 22.0002 12.2496C22.0643 13.3993 21.6852 14.5299 20.941 15.4085C20.1967 16.2872 19.1439 16.8471 17.9994 16.973M12.9993 12L9.99927 17H13.9993L10.9993 22" stroke="#C533B9" stroke-width="2" stroke-linecap="round" stroke-linejoin="round"/>
</svg>
