<svg width="24" height="24" viewBox="0 0 24 24" fill="none" xmlns="http://www.w3.org/2000/svg">
<path d="M4.19937 15.1001C3.41858 14.3632 2.81776 13.4566 2.44336 12.4504C2.06896 11.4442 1.93102 10.3654 2.0402 9.29737C2.14939 8.22934 2.50278 7.20074 3.07304 6.29111C3.64329 5.38149 4.41514 4.61523 5.32887 4.05158C6.24261 3.48794 7.27375 3.14203 8.34254 3.04059C9.41133 2.93916 10.4891 3.08492 11.4926 3.46661C12.496 3.84831 13.3983 4.45569 14.1294 5.2418C14.8606 6.02791 15.4012 6.97167 15.7094 8.00009H17.4994C18.4532 8.01295 19.3783 8.32861 20.1411 8.9015C20.9039 9.47439 21.4649 10.2749 21.7431 11.1874C22.0213 12.0999 22.0023 13.0772 21.6889 13.9782C21.3755 14.8792 20.7838 15.6573 19.9994 16.2001M15.6993 18.4001L14.7993 18.1001M9.19932 15.9001L8.29932 15.6001M10.5994 20.7001L10.8994 19.8M13.0994 14.2L13.3994 13.3M13.5992 20.7L13.1992 19.7M10.7992 14.3L10.3992 13.3M8.29932 18.6L9.29932 18.2M14.6992 15.7999L15.6992 15.3999M14.9993 17C14.9993 18.6569 13.6561 20 11.9993 20C10.3424 20 8.99927 18.6569 8.99927 17C8.99927 15.3431 10.3424 14 11.9993 14C13.6561 14 14.9993 15.3431 14.9993 17Z" stroke="#C533B9" stroke-width="2" stroke-linecap="round" stroke-linejoin="round"/>
</svg>
