<svg width="24" height="24" viewBox="0 0 24 24" fill="none" xmlns="http://www.w3.org/2000/svg">
<path d="M11.999 2V4M4.92896 4.92993L6.33896 6.33993M19.999 12H21.999M19.0689 4.92993L17.6589 6.33993M15.946 12.6501C16.0691 11.9046 15.9785 11.1395 15.6847 10.4433C15.3909 9.74717 14.906 9.14847 14.286 8.71654C13.666 8.28461 12.9364 8.03711 12.1816 8.00269C11.4268 7.96827 10.6777 8.14835 10.021 8.52206M12.999 22H6.99898C6.05295 21.9998 5.12639 21.7312 4.32691 21.2255C3.52742 20.7197 2.88783 19.9975 2.48241 19.1427C2.07699 18.288 1.92238 17.3358 2.03654 16.3966C2.1507 15.4575 2.52895 14.5701 3.12734 13.8373C3.72574 13.1046 4.51973 12.5567 5.4171 12.2572C6.31448 11.9577 7.2784 11.9189 8.19692 12.1454C9.11545 12.3718 9.95088 12.8542 10.6062 13.5366C11.2615 14.2189 11.7098 15.0731 11.899 16H12.999C13.7946 16 14.5577 16.3161 15.1203 16.8787C15.6829 17.4413 15.999 18.2044 15.999 19C15.999 19.7956 15.6829 20.5587 15.1203 21.1213C14.5577 21.6839 13.7946 22 12.999 22Z" stroke="#C533B9" stroke-width="2" stroke-linecap="round" stroke-linejoin="round"/>
</svg>
