<svg width="24" height="24" viewBox="0 0 24 24" fill="none" xmlns="http://www.w3.org/2000/svg">
<path d="M10.0835 9C10.3202 7.60193 11.0443 6.33281 12.1273 5.4176C13.2104 4.50239 14.5825 4.00018 16.0005 4C15.2219 4.79915 14.7894 5.87284 14.7966 6.98856C14.8039 8.10429 15.2503 9.17226 16.0393 9.96121C16.8282 10.7502 17.8962 11.1966 19.0119 11.2039C20.1277 11.2111 21.2013 10.7786 22.0005 10C22.0005 12.22 20.7945 14.16 19.0005 15.197M3.00055 20.0001C2.55109 19.4002 2.24225 18.707 2.09688 17.9716C1.95151 17.2363 1.97334 16.4777 2.16073 15.7519C2.34813 15.0261 2.69631 14.3518 3.17951 13.7788C3.66271 13.2057 4.26857 12.7487 4.95226 12.4414C5.63595 12.1341 6.37998 11.9845 7.12931 12.0036C7.87864 12.0227 8.61408 12.21 9.28124 12.5517C9.9484 12.8934 10.5302 13.3807 10.9836 13.9776C11.437 14.5745 11.7504 15.2657 11.9005 16.0001H13.0006C13.609 15.9992 14.2033 16.1833 14.7047 16.5281C15.2061 16.8728 15.5908 17.3619 15.8077 17.9303C16.0247 18.4988 16.0637 19.1198 15.9195 19.7109C15.7754 20.302 15.4549 20.8353 15.0006 21.2401M11.0005 20V22M7.00049 19V21" stroke="#C533B9" stroke-width="2" stroke-linecap="round" stroke-linejoin="round"/>
</svg>
