<svg width="24" height="24" viewBox="0 0 24 24" fill="none" xmlns="http://www.w3.org/2000/svg">
<path d="M16.17 7.83008L2 22.0001M16.17 7.83008C16.4398 7.5599 16.6518 7.23787 16.7937 6.88343C16.9356 6.529 17.0043 6.14949 16.9955 5.7678C16.9868 5.38611 16.9008 5.01015 16.7428 4.6626C16.5848 4.31504 16.358 4.00309 16.0761 3.74557C15.7943 3.48804 15.4632 3.29028 15.1028 3.1642C14.7424 3.03813 14.3603 2.98635 13.9793 3.012C13.5984 3.03765 13.2266 3.1402 12.8864 3.31345C12.5462 3.4867 12.2446 3.72707 11.9998 4.02006C11.755 3.72707 11.4534 3.4867 11.1132 3.31345C10.773 3.1402 10.4012 3.03765 10.0203 3.012C9.63936 2.98635 9.25718 3.03813 8.89681 3.1642C8.53644 3.29028 8.20534 3.48804 7.92348 3.74557C7.64162 4.00309 7.41485 4.31504 7.25684 4.6626C7.09882 5.01015 7.01285 5.38611 7.0041 5.7678C6.99534 6.14949 7.06399 6.529 7.20591 6.88343C7.34782 7.23787 7.56006 7.55988 7.82981 7.83006M16.17 7.83008C16.4402 7.56032 16.762 7.34806 17.1164 7.20615C17.4709 7.06424 17.8504 6.99559 18.2321 7.00434C18.6138 7.01309 18.9897 7.09907 19.3373 7.25708C19.6848 7.41509 19.9968 7.64187 20.2543 7.92372C20.5118 8.20558 20.7096 8.53668 20.8357 8.89706C20.9617 9.25743 21.0135 9.6396 20.9879 10.0205C20.9622 10.4015 20.8597 10.7732 20.6864 11.1135C20.5132 11.4537 20.2728 11.7553 19.9798 12.0001C20.2728 12.2448 20.5132 12.5464 20.6864 12.8867C20.8597 13.2269 20.9622 13.5987 20.9879 13.9796C21.0135 14.3605 20.9617 14.7427 20.8357 15.1031C20.7096 15.4634 20.5118 15.7945 20.2543 16.0764C19.9968 16.3582 19.6848 16.585 19.3373 16.743C18.9897 16.901 18.6138 16.987 18.2321 16.9958C17.8504 17.0045 17.4709 16.9359 17.1164 16.794C16.762 16.652 16.44 16.4398 16.1698 16.1701M4.01981 12.0001C3.72682 11.7553 3.48646 11.4537 3.3132 11.1135C3.13995 10.7732 3.03741 10.4015 3.01176 10.0205C2.98611 9.6396 3.03788 9.25743 3.16396 8.89706C3.29003 8.53668 3.4878 8.20558 3.74532 7.92372C4.00285 7.64187 4.3148 7.41509 4.66235 7.25708C5.00991 7.09907 5.38587 7.01309 5.76756 7.00434C6.14925 6.99559 6.52875 7.06424 6.88319 7.20615C7.23762 7.34806 7.55964 7.5603 7.82981 7.83006M7.82981 7.83006L16.1698 16.1701M16.1698 16.1701C16.4396 16.4402 16.6518 16.7622 16.7937 17.1167C16.9356 17.4711 17.0043 17.8506 16.9955 18.2323C16.9868 18.614 16.9008 18.99 16.7428 19.3375C16.5848 19.6851 16.358 19.997 16.0761 20.2545C15.7943 20.5121 15.4632 20.7098 15.1028 20.8359C14.7424 20.962 14.3603 21.0138 13.9793 20.9881C13.5984 20.9625 13.2266 20.8599 12.8864 20.6867C12.5462 20.5134 12.2446 20.273 11.9998 19.9801C11.755 20.273 11.4534 20.5134 11.1132 20.6867C10.773 20.8599 10.4012 20.9625 10.0203 20.9881C9.63936 21.0138 9.25718 20.962 8.89681 20.8359C8.53644 20.7098 8.20534 20.5121 7.92348 20.2545C7.64162 19.997 7.41485 19.6851 7.25684 19.3375C7.09882 18.99 7.01285 18.614 7.0041 18.2323C6.99534 17.8506 7.06399 17.4711 7.20591 17.1167C7.34782 16.7622 7.56006 16.4402 7.82981 16.1701C7.27684 16.6779 6.54475 16.9454 5.7946 16.9135C5.04446 16.8816 4.3377 16.553 3.82981 16.0001C3.32192 15.4471 3.0545 14.715 3.08639 13.9648C3.11827 13.2147 3.44684 12.5079 3.99981 12.0001" stroke="#C533B9" stroke-width="2" stroke-linecap="round" stroke-linejoin="round"/>
</svg>
