<svg width="24" height="24" viewBox="0 0 24 24" fill="none" xmlns="http://www.w3.org/2000/svg">
<path d="M11.9994 17.66C11.4748 18.4052 10.7733 19.0083 9.95791 19.4153C9.14253 19.8222 8.23881 20.0201 7.32798 19.9913C6.41715 19.9625 5.52775 19.7078 4.73973 19.2501C3.9517 18.7924 3.28975 18.1461 2.81335 17.3693C2.33696 16.5924 2.06106 15.7094 2.01044 14.7995C1.95983 13.8896 2.13609 12.9814 2.52339 12.1565C2.91069 11.3317 3.49688 10.6159 4.22928 10.0737C4.96169 9.53144 5.81735 9.17968 6.71936 9.05001C6.48029 8.23032 6.43534 7.36622 6.58808 6.52614C6.74082 5.68606 7.08705 4.89309 7.59936 4.21001C8.11167 3.52693 8.77598 2.97251 9.53969 2.59066C10.3034 2.20881 11.1455 2.01001 11.9994 2.01001C12.8532 2.01001 13.6953 2.20881 14.459 2.59066C15.2227 2.97251 15.8871 3.52693 16.3994 4.21001C16.9117 4.89309 17.2579 5.68606 17.4106 6.52614C17.5634 7.36622 17.5184 8.23032 17.2794 9.05001V9.06001C18.1825 9.18851 19.0394 9.53961 19.7731 10.0817C20.5067 10.6238 21.094 11.3398 21.4821 12.1654C21.8701 12.9909 22.0468 13.9 21.9961 14.8108C21.9454 15.7216 21.669 16.6055 21.1917 17.3828C20.7144 18.1602 20.0513 18.8067 19.262 19.264C18.4727 19.7213 17.5821 19.9752 16.6703 20.0027C15.7586 20.0302 14.8543 19.8304 14.0389 19.4215C13.2235 19.0125 12.5226 18.4072 11.9994 17.66ZM11.9994 17.66L11.9995 21.9999" stroke="#C533B9" stroke-width="2" stroke-linecap="round" stroke-linejoin="round"/>
</svg>
