<svg width="24" height="24" viewBox="0 0 24 24" fill="none" xmlns="http://www.w3.org/2000/svg">
<path d="M14 2C15.1 2 16 2.9 16 4V8C16 9.1 15.1 10 14 10M20 2C21.1 2 22 2.9 22 4V8C22 9.1 21.1 10 20 10M10 18H5C3.3 18 2 16.7 2 15V14M10 18L7 21M10 18L7 15M4 2H8C9.10457 2 10 2.89543 10 4V8C10 9.10457 9.10457 10 8 10H4C2.89543 10 2 9.10457 2 8V4C2 2.89543 2.89543 2 4 2ZM16 14H20C21.1046 14 22 14.8954 22 16V20C22 21.1046 21.1046 22 20 22H16C14.8954 22 14 21.1046 14 20V16C14 14.8954 14.8954 14 16 14Z" stroke="#C533B9" stroke-width="2" stroke-linecap="round" stroke-linejoin="round"/>
</svg>
