<svg width="24" height="24" viewBox="0 0 24 24" fill="none" xmlns="http://www.w3.org/2000/svg">
<path d="M15 6V18C15 18.5933 15.1759 19.1734 15.5056 19.6667C15.8352 20.1601 16.3038 20.5446 16.852 20.7716C17.4001 20.9987 18.0033 21.0581 18.5853 20.9424C19.1672 20.8266 19.7018 20.5409 20.1213 20.1213C20.5409 19.7018 20.8266 19.1672 20.9424 18.5853C21.0581 18.0033 20.9987 17.4001 20.7716 16.852C20.5446 16.3038 20.1601 15.8352 19.6667 15.5056C19.1734 15.1759 18.5933 15 18 15H6C5.40666 15 4.82664 15.1759 4.33329 15.5056C3.83994 15.8352 3.45543 16.3038 3.22836 16.852C3.0013 17.4001 2.94189 18.0033 3.05765 18.5853C3.1734 19.1672 3.45912 19.7018 3.87868 20.1213C4.29824 20.5409 4.83279 20.8266 5.41473 20.9424C5.99667 21.0581 6.59987 20.9987 7.14805 20.7716C7.69623 20.5446 8.16477 20.1601 8.49441 19.6667C8.82405 19.1734 9 18.5933 9 18V6C9 5.40666 8.82405 4.82664 8.49441 4.33329C8.16477 3.83994 7.69623 3.45543 7.14805 3.22836C6.59987 3.0013 5.99667 2.94189 5.41473 3.05765C4.83279 3.1734 4.29824 3.45912 3.87868 3.87868C3.45912 4.29824 3.1734 4.83279 3.05765 5.41473C2.94189 5.99667 3.0013 6.59987 3.22836 7.14805C3.45543 7.69623 3.83994 8.16477 4.33329 8.49441C4.82664 8.82405 5.40666 9 6 9H18C18.5933 9 19.1734 8.82405 19.6667 8.49441C20.1601 8.16477 20.5446 7.69623 20.7716 7.14805C20.9987 6.59987 21.0581 5.99667 20.9424 5.41473C20.8266 4.83279 20.5409 4.29824 20.1213 3.87868C19.7018 3.45912 19.1672 3.1734 18.5853 3.05765C18.0033 2.94189 17.4001 3.0013 16.852 3.22836C16.3038 3.45543 15.8352 3.83994 15.5056 4.33329C15.1759 4.82664 15 5.40666 15 6Z" stroke="#C533B9" stroke-width="2" stroke-linecap="round" stroke-linejoin="round"/>
</svg>
