<svg width="24" height="24" viewBox="0 0 24 24" fill="none" xmlns="http://www.w3.org/2000/svg">
<path d="M9.99989 9.29998C9.39305 9.02218 8.70694 8.97028 8.06522 9.15363C7.4235 9.33698 6.86837 9.74352 6.49989 10.3C6.16865 10.8051 5.99219 11.3959 5.99219 12C5.99219 12.604 6.16865 13.1949 6.49989 13.7C6.85348 14.2731 7.4085 14.6934 8.05604 14.8785C8.70357 15.0635 9.39687 14.9998 9.99989 14.7M16.9999 9.29998C16.3931 9.02218 15.7069 8.97028 15.0652 9.15363C14.4235 9.33698 13.8684 9.74352 13.4999 10.3C13.1687 10.8051 12.9922 11.3959 12.9922 12C12.9922 12.604 13.1687 13.1949 13.4999 13.7C13.8535 14.2731 14.4085 14.6934 15.056 14.8785C15.7036 15.0635 16.3969 14.9998 16.9999 14.7M22 12C22 17.5228 17.5228 22 12 22C6.47715 22 2 17.5228 2 12C2 6.47715 6.47715 2 12 2C17.5228 2 22 6.47715 22 12Z" stroke="#C533B9" stroke-width="2" stroke-linecap="round" stroke-linejoin="round"/>
</svg>
