<svg width="24" height="24" viewBox="0 0 24 24" fill="none" xmlns="http://www.w3.org/2000/svg">
<path d="M10.5 9.5L9.5 7.21C9.2 6.48 8.8 6 8 6M8 6H4.5C2.79 6 2 6.5 2 8.5C2.08384 10.2938 2.7912 12.002 4 13.33M8 6C8 4.45 8.24 2 6 2C4 2 3.5 4.17 3.5 6M14.4999 13.5L16.7899 14.5C17.5199 14.8 17.9999 15.2 17.9999 16M17.9999 16V19.5C17.9999 21.21 17.4999 22 15.4999 22C13.7061 21.9162 11.9979 21.2088 10.6699 20M17.9999 16C19.5499 16 22 15.7599 22 17.9999C22 19.9999 19.83 20.4999 18 20.4999M4.59991 13.1101L10.3899 9.90008C12.2799 8.85008 15.1799 11.6801 14.0999 13.6101L10.8799 19.4201C8.79992 23.1601 0.789915 15.2301 4.59991 13.1101Z" stroke="#C533B9" stroke-width="2" stroke-linecap="round" stroke-linejoin="round"/>
</svg>
