<svg width="24" height="24" viewBox="0 0 24 24" fill="none" xmlns="http://www.w3.org/2000/svg">
<path d="M11 2C10.4696 2 9.96086 2.21071 9.58579 2.58579C9.21071 2.96086 9 3.46957 9 4V9H4C3.46957 9 2.96086 9.21071 2.58579 9.58579C2.21071 9.96086 2 10.4696 2 11V13C2 14.1 2.9 15 4 15H9V20C9 21.1 9.9 22 11 22H13C13.5304 22 14.0391 21.7893 14.4142 21.4142C14.7893 21.0391 15 20.5304 15 20V15H20C20.5304 15 21.0391 14.7893 21.4142 14.4142C21.7893 14.0391 22 13.5304 22 13V11C22 10.4696 21.7893 9.96086 21.4142 9.58579C21.0391 9.21071 20.5304 9 20 9H15V4C15 3.46957 14.7893 2.96086 14.4142 2.58579C14.0391 2.21071 13.5304 2 13 2H11Z" stroke="#C533B9" stroke-width="2" stroke-linecap="round" stroke-linejoin="round"/>
</svg>
