<svg width="24" height="24" viewBox="0 0 24 24" fill="none" xmlns="http://www.w3.org/2000/svg">
<path d="M4.99951 21H18.9995M11.5614 3.26592C11.6046 3.18753 11.668 3.12216 11.7451 3.07663C11.8221 3.0311 11.91 3.00708 11.9994 3.00708C12.0889 3.00708 12.1768 3.0311 12.2538 3.07663C12.3309 3.12216 12.3943 3.18753 12.4374 3.26592L15.3894 8.86992C15.4598 8.99969 15.5581 9.11225 15.6772 9.19954C15.7962 9.28683 15.9331 9.34668 16.078 9.37478C16.223 9.40289 16.3723 9.39856 16.5154 9.3621C16.6584 9.32564 16.7916 9.25797 16.9054 9.16392L21.1824 5.49992C21.2646 5.43315 21.3657 5.39414 21.4714 5.38853C21.5771 5.38291 21.6818 5.41097 21.7705 5.46867C21.8593 5.52637 21.9274 5.61073 21.9651 5.70961C22.0028 5.8085 22.0082 5.9168 21.9804 6.01892L19.1464 16.2649C19.0886 16.4746 18.964 16.6597 18.7915 16.7921C18.6189 16.9246 18.4079 16.9972 18.1904 16.9989H5.80945C5.59178 16.9974 5.38056 16.9249 5.20784 16.7924C5.03512 16.66 4.91034 16.4748 4.85245 16.2649L2.01945 6.01992C1.9917 5.9178 1.99707 5.8095 2.03479 5.71061C2.07251 5.61173 2.14063 5.52737 2.22935 5.46967C2.31807 5.41197 2.42281 5.38391 2.52849 5.38953C2.63417 5.39514 2.73534 5.43415 2.81745 5.50092L7.09345 9.16492C7.20725 9.25897 7.34046 9.32664 7.48351 9.3631C7.62657 9.39956 7.77592 9.40389 7.92085 9.37578C8.06578 9.34768 8.20268 9.28783 8.32174 9.20054C8.4408 9.11325 8.53905 9.00069 8.60945 8.87092L11.5614 3.26592Z" stroke="#C533B9" stroke-width="2" stroke-linecap="round" stroke-linejoin="round"/>
</svg>
