<svg width="24" height="24" viewBox="0 0 24 24" fill="none" xmlns="http://www.w3.org/2000/svg">
<path d="M10 21.9999V13.9999M10 13.9999L2.25 9.1499M10 13.9999L21.77 7.12988M21.12 6.39991L15.07 2.33991C14.7515 2.12358 14.3773 2.00378 13.9924 1.99492C13.6074 1.98605 13.2281 2.08848 12.9 2.28991L2.95 8.4099C2.65992 8.58884 2.42038 8.83894 2.25411 9.13647C2.08785 9.43399 2.00038 9.76907 2 10.1099V15.9299C1.99951 16.2575 2.0795 16.5802 2.23294 16.8697C2.38639 17.1591 2.60858 17.4064 2.88 17.5899L8.93 21.6599C9.24852 21.8762 9.6227 21.996 10.0076 22.0049C10.3926 22.0138 10.7719 21.9113 11.1 21.7099L21.05 15.5899C21.3401 15.411 21.5796 15.1609 21.7459 14.8633C21.9122 14.5658 21.9996 14.2307 22 13.8899V8.05991C22.0005 7.7323 21.9205 7.40959 21.7671 7.12014C21.6136 6.83069 21.3914 6.58336 21.12 6.39991Z" stroke="#C533B9" stroke-width="2" stroke-linecap="round" stroke-linejoin="round"/>
</svg>
