<svg width="24" height="24" viewBox="0 0 24 24" fill="none" xmlns="http://www.w3.org/2000/svg">
<path d="M6 8L7.75 20.28C7.81792 20.7606 8.05827 21.2 8.42624 21.5165C8.79421 21.8329 9.26469 22.0048 9.75 22H14.29C14.7753 22.0048 15.2458 21.8329 15.6138 21.5165C15.9817 21.2 16.2221 20.7606 16.29 20.28L18 8M5 8H19M7 15.0001C7.79175 14.6684 8.64158 14.4976 9.5 14.4976C10.3584 14.4976 11.2083 14.6684 12 15.0001C12.7917 15.3318 13.6416 15.5026 14.5 15.5026C15.3584 15.5026 16.2083 15.3318 17 15.0001M12 8L13 2H15" stroke="#C533B9" stroke-width="2" stroke-linecap="round" stroke-linejoin="round"/>
</svg>
