<svg width="24" height="24" viewBox="0 0 24 24" fill="none" xmlns="http://www.w3.org/2000/svg">
<path d="M21 5C21 6.65685 16.9706 8 12 8C7.02944 8 3 6.65685 3 5M21 5C21 3.34315 16.9706 2 12 2C7.02944 2 3 3.34315 3 5M21 5V9.3M3 5L3 19C2.99937 19.6487 3.62952 20.28 4.796 20.7992C5.96248 21.3184 7.60242 21.6976 9.47 21.88M3 12C2.99856 12.5592 3.46595 13.1073 4.34943 13.5826C5.23292 14.0579 6.49733 14.4415 8 14.69M12 12V16M12 16H16M12 16L14.09 13.91C14.96 13.04 16.17 12.5 17.5 12.5C18.6935 12.5 19.8381 12.9741 20.682 13.818C21.5259 14.6619 22 15.8065 22 17C22 18.0494 21.6698 19.0722 21.0562 19.9236C20.4426 20.7749 19.5767 21.4116 18.5811 21.7434C17.5856 22.0753 16.5108 22.0855 15.5092 21.7726C14.5075 21.4597 13.6296 20.8395 13 20" stroke="#C533B9" stroke-width="2" stroke-linecap="round" stroke-linejoin="round"/>
</svg>
