<svg width="24" height="24" viewBox="0 0 24 24" fill="none" xmlns="http://www.w3.org/2000/svg">
<path d="M9.19922 9.19995H9.20922M14.499 9.5L9.49902 14.5M14.6992 14.8H14.7092M2.69893 10.2999C2.47488 10.5237 2.29714 10.7895 2.17587 11.0821C2.05461 11.3746 1.99219 11.6882 1.99219 12.0049C1.99219 12.3216 2.05461 12.6352 2.17587 12.9278C2.29714 13.2203 2.47488 13.4861 2.69893 13.7099L10.2889 21.2999C10.5128 21.524 10.7785 21.7017 11.0711 21.823C11.3637 21.9442 11.6772 22.0067 11.9939 22.0067C12.3106 22.0067 12.6242 21.9442 12.9168 21.823C13.2093 21.7017 13.4751 21.524 13.6989 21.2999L21.2889 13.7099C21.513 13.4861 21.6907 13.2203 21.812 12.9278C21.9333 12.6352 21.9957 12.3216 21.9957 12.0049C21.9957 11.6882 21.9333 11.3746 21.812 11.0821C21.6907 10.7895 21.513 10.5237 21.2889 10.2999L13.6989 2.70992C13.4751 2.48587 13.2093 2.30813 12.9168 2.18686C12.6242 2.06559 12.3106 2.00317 11.9939 2.00317C11.6772 2.00317 11.3637 2.06559 11.0711 2.18686C10.7785 2.30813 10.5128 2.48587 10.2889 2.70992L2.69893 10.2999Z" stroke="#C533B9" stroke-width="2" stroke-linecap="round" stroke-linejoin="round"/>
</svg>
