<svg width="24" height="24" viewBox="0 0 24 24" fill="none" xmlns="http://www.w3.org/2000/svg">
<path d="M2.70089 10.3C2.47684 10.5239 2.2991 10.7896 2.17783 11.0822C2.05656 11.3748 1.99414 11.6883 1.99414 12.005C1.99414 12.3217 2.05656 12.6353 2.17783 12.9279C2.2991 13.2204 2.47684 13.4862 2.70089 13.71L10.2909 21.3C10.5147 21.5241 10.7805 21.7018 11.073 21.8231C11.3656 21.9444 11.6792 22.0068 11.9959 22.0068C12.3126 22.0068 12.6262 21.9444 12.9187 21.8231C13.2113 21.7018 13.4771 21.5241 13.7009 21.3L21.2909 13.71C21.5149 13.4862 21.6927 13.2204 21.8139 12.9279C21.9352 12.6353 21.9976 12.3217 21.9976 12.005C21.9976 11.6883 21.9352 11.3748 21.8139 11.0822C21.6927 10.7896 21.5149 10.5239 21.2909 10.3L13.7009 2.71004C13.4771 2.48599 13.2113 2.30825 12.9187 2.18698C12.6262 2.06571 12.3126 2.0033 11.9959 2.0033C11.6792 2.0033 11.3656 2.06571 11.073 2.18698C10.7805 2.30825 10.5147 2.48599 10.2909 2.71004L2.70089 10.3Z" stroke="#C533B9" stroke-width="2" stroke-linecap="round" stroke-linejoin="round"/>
</svg>
