<svg width="24" height="24" viewBox="0 0 24 24" fill="none" xmlns="http://www.w3.org/2000/svg">
<g clip-path="url(#clip0_1196_4022)">
<path d="M6.48047 3.65999C8.40356 2.38539 10.7082 1.81495 13.0038 2.04538C15.2994 2.2758 17.4448 3.29291 19.0762 4.92431C20.7076 6.55571 21.7247 8.70102 21.9551 10.9966C22.1855 13.2922 21.6151 15.5969 20.3405 17.52M6.41064 6.40991L17.5906 17.5899M3.66073 6.47998C2.38612 8.40307 1.81568 10.7077 2.04611 13.0033C2.27654 15.299 3.29365 17.4443 4.92504 19.0757C6.55644 20.7071 8.70175 21.7242 10.9974 21.9546C13.293 22.185 15.5976 21.6146 17.5207 20.34M21.0005 19C21.0005 20.1046 20.1051 21 19.0005 21C17.8959 21 17.0005 20.1046 17.0005 19C17.0005 17.8954 17.8959 17 19.0005 17C20.1051 17 21.0005 17.8954 21.0005 19ZM7.00049 5C7.00049 6.10457 6.10506 7 5.00049 7C3.89592 7 3.00049 6.10457 3.00049 5C3.00049 3.89543 3.89592 3 5.00049 3C6.10506 3 7.00049 3.89543 7.00049 5Z" stroke="#C533B9" stroke-width="2" stroke-linecap="round" stroke-linejoin="round"/>
</g>
<defs>
<clipPath id="clip0_1196_4022">
<rect width="24" height="24" fill="white"/>
</clipPath>
</defs>
</svg>
