<svg width="24" height="24" viewBox="0 0 24 24" fill="none" xmlns="http://www.w3.org/2000/svg">
<path d="M9.999 5.17211C9.999 3.78211 8.422 2.67911 6.499 3.00011C3.676 3.47011 2.386 9.00611 2.499 10.0001C2.579 10.7031 4.224 11.7221 6.155 11.0001C7.41601 10.5281 8.115 9.55011 8.499 8.50011M14.2661 5.17211C14.2661 3.78211 15.8431 2.67911 17.7661 3.00011C20.5891 3.47011 21.8791 9.00611 21.7661 10.0001C21.6861 10.7031 20.0411 11.7221 18.1101 11.0001C16.8491 10.5281 16.2551 9.55011 15.8711 8.50011M7.99902 14V14.5M15.999 14V14.5M4.41903 11.2471C4.13916 12.3278 3.99803 13.4397 3.99903 14.5561C3.99903 18.7281 7.58103 21.0001 11.999 21.0001C16.417 21.0001 19.999 18.7281 19.999 14.5561C19.999 13.4951 19.837 12.3561 19.506 11.2471M10.263 5.16509C10.8348 5.05275 11.4163 4.99748 11.999 5.00009C12.779 5.00009 13.499 5.10809 14.16 5.30609M11.249 16.25H12.749L11.999 17L11.249 16.25Z" stroke="#C533B9" stroke-width="2" stroke-linecap="round" stroke-linejoin="round"/>
</svg>
