<svg width="24" height="24" viewBox="0 0 24 24" fill="none" xmlns="http://www.w3.org/2000/svg">
<path d="M20.5006 9.99998C20.1341 9.99274 19.7736 9.90498 19.4448 9.74292C19.116 9.58086 18.8268 9.34846 18.5978 9.0622C18.3688 8.77594 18.2056 8.44282 18.1196 8.08644C18.0337 7.73006 18.0272 7.35915 18.1006 6.99998H18.0006C17.4826 7.00543 16.9723 6.87438 16.521 6.62C16.0697 6.36562 15.6934 5.99689 15.4298 5.55089C15.1663 5.1049 15.0248 4.59737 15.0197 4.07935C15.0146 3.56134 15.1459 3.0511 15.4006 2.59998C13.3097 1.83553 11.0235 1.79065 8.90426 2.47245C6.78499 3.15424 4.95382 4.52373 3.70088 6.36393C2.44795 8.20413 1.8449 10.4098 1.98728 12.6315C2.12966 14.8532 3.00932 16.9638 4.4869 18.629C5.96448 20.2943 7.95548 21.4188 10.1445 21.8245C12.3334 22.2302 14.5952 21.8939 16.5714 20.8688C18.5476 19.8437 20.1252 18.1885 21.0543 16.1654C21.9834 14.1423 22.2109 11.867 21.7006 9.69998C21.4006 9.89998 20.9006 9.99998 20.5006 9.99998Z" stroke="#C533B9" stroke-width="2" stroke-linecap="round" stroke-linejoin="round"/>
<path d="M12.0005 15C13.6573 15 15.0005 13.6569 15.0005 12C15.0005 10.3431 13.6573 9 12.0005 9C10.3436 9 9.00049 10.3431 9.00049 12C9.00049 13.6569 10.3436 15 12.0005 15Z" stroke="#C533B9" stroke-width="2" stroke-linecap="round" stroke-linejoin="round"/>
</svg>
