<svg width="24" height="24" viewBox="0 0 24 24" fill="none" xmlns="http://www.w3.org/2000/svg">
<path d="M18 6H22M14 4H17C17.2652 4 17.5196 4.10536 17.7071 4.29289C17.8946 4.48043 18 4.73478 18 5V7C18 7.26522 17.8946 7.51957 17.7071 7.70711C17.5196 7.89464 17.2652 8 17 8H14M5 10L3 18M3 18C2.4 18 2 18.4 2 19C2 20.7 3.3 22 5 22H10C10.6 22 11 21.6 11 21V19C11 18.4 10.6 18 10 18H3ZM12 10V13C12 13.6 11.6 14 11 14H8M7 18L9 10M14 9C14 9.6 13.6 10 13 10H4C3.46957 10 2.96086 9.78929 2.58579 9.41421C2.21071 9.03914 2 8.53043 2 8V4C2 3.46957 2.21071 2.96086 2.58579 2.58579C2.96086 2.21071 3.46957 2 4 2H13C13.6 2 14 2.4 14 3V9Z" stroke="#C533B9" stroke-width="2" stroke-linecap="round" stroke-linejoin="round"/>
</svg>
