<svg width="24" height="24" viewBox="0 0 24 24" fill="none" xmlns="http://www.w3.org/2000/svg">
<path d="M8.29074 12.71L5.69074 15.31C5.3732 15.135 5.02141 15.0312 4.65977 15.0058C4.29812 14.9804 3.93527 15.0339 3.59637 15.1627C3.25747 15.2914 2.95064 15.4924 2.69714 15.7516C2.44364 16.0107 2.24954 16.3219 2.12831 16.6636C2.00707 17.0053 1.96159 17.3692 1.99503 17.7302C2.02847 18.0912 2.14002 18.4406 2.32195 18.7542C2.50389 19.0678 2.75184 19.3381 3.04864 19.5463C3.34543 19.7545 3.68395 19.8956 4.04074 19.96C4.11075 20.3121 4.25579 20.645 4.46599 20.9361C4.67619 21.2272 4.94661 21.4696 5.25887 21.6468C5.57113 21.824 5.9179 21.9318 6.27557 21.963C6.63325 21.9942 6.99345 21.948 7.33167 21.8275C7.66989 21.707 7.97818 21.5151 8.23559 21.2648C8.493 21.0145 8.69347 20.7117 8.82338 20.377C8.95328 20.0423 9.00956 19.6835 8.9884 19.3251C8.96724 18.9667 8.86913 18.6171 8.70074 18.3L11.2907 15.71M15.4008 15.6301C13.9042 16.1103 12.4195 16.1219 11.1652 15.6632C9.91085 15.2046 8.95323 14.2999 8.43321 13.0824C7.9132 11.8648 7.85826 10.3987 8.27649 8.8997C8.69472 7.40074 9.56402 5.94816 10.7565 4.75572C11.9489 3.56329 13.4015 2.69398 14.9004 2.27576C16.3994 1.85753 17.8655 1.91247 19.0831 2.43248C20.3007 2.95249 21.2053 3.91012 21.664 5.16442C22.1226 6.41872 22.111 7.90344 21.6308 9.40008C20.936 9.00374 20.0551 8.90515 19.1362 9.1209C18.2174 9.33665 17.3166 9.85357 16.5855 10.5847C15.8543 11.3159 15.3374 12.2166 15.1216 13.1355C14.9059 14.0544 15.0045 14.9353 15.4008 15.6301Z" stroke="#C533B9" stroke-width="2" stroke-linecap="round" stroke-linejoin="round"/>
</svg>
