<svg width="24" height="24" viewBox="0 0 24 24" fill="none" xmlns="http://www.w3.org/2000/svg">
<path d="M6 8.5C6 6.77609 6.68482 5.12279 7.90381 3.90381C9.12279 2.68482 10.7761 2 12.5 2C14.2239 2 15.8772 2.68482 17.0962 3.90381C18.3152 5.12279 19 6.77609 19 8.5C19 14.5 13 14.5 13 18.5C13 18.9596 12.9095 19.4148 12.7336 19.8394C12.5577 20.264 12.2999 20.6499 11.9749 20.9749C11.6499 21.2999 11.264 21.5577 10.8394 21.7336C10.4148 21.9095 9.95963 22 9.5 22C9.04037 22 8.58525 21.9095 8.16061 21.7336C7.73597 21.5577 7.35013 21.2999 7.02513 20.9749C6.70012 20.6499 6.44231 20.264 6.26642 19.8394C6.09053 19.4148 6 18.9596 6 18.5M15 8.5C15 7.83696 14.7366 7.20107 14.2678 6.73223C13.7989 6.26339 13.163 6 12.5 6C11.837 6 11.2011 6.26339 10.7322 6.73223C10.2634 7.20107 10 7.83696 10 8.5V9.5C10.5304 9.5 11.0391 9.71071 11.4142 10.0858C11.7893 10.4609 12 10.9696 12 11.5C12 12.0304 11.7893 12.5391 11.4142 12.9142C11.0391 13.2893 10.5304 13.5 10 13.5" stroke="#C533B9" stroke-width="2" stroke-linecap="round" stroke-linejoin="round"/>
</svg>
