<svg width="24" height="24" viewBox="0 0 24 24" fill="none" xmlns="http://www.w3.org/2000/svg">
<path d="M6.99951 3.34009V5.00009C6.99951 5.79574 7.31558 6.5588 7.87819 7.12141C8.4408 7.68402 9.20386 8.00009 9.99951 8.00009M10.9996 21.95V18C10.9996 17.4696 10.7888 16.9609 10.4138 16.5858C10.0387 16.2107 9.52999 16 8.99956 16C8.46913 16 7.96042 15.7893 7.58535 15.4142C7.21027 15.0391 6.99956 14.5304 6.99956 14V13C6.99956 12.4696 6.78885 11.9609 6.41377 11.5858C6.0387 11.2107 5.52999 11 4.99956 11H2.04956M14.9995 21.54V17C14.9995 16.4696 15.2102 15.9609 15.5853 15.5858C15.9604 15.2107 16.4691 15 16.9995 15H21.5395C20.985 16.7631 19.9527 18.338 18.5573 19.55C17.1619 20.7619 15.4579 21.5634 13.6346 21.8655C11.8112 22.1676 9.93981 21.9585 8.22811 21.2614C6.51641 20.5642 5.03139 19.4064 3.93793 17.9163C2.84446 16.4263 2.18533 14.6623 2.03371 12.8204C1.88209 10.9784 2.24392 9.1304 3.07901 7.4816C3.91411 5.83281 5.18981 4.4477 6.76448 3.48007C8.33915 2.51243 10.1512 2.00011 11.9994 2M19.9995 6V4C19.9995 3.46957 19.7888 2.96086 19.4137 2.58579C19.0387 2.21071 18.5299 2 17.9995 2C17.4691 2 16.9604 2.21071 16.5853 2.58579C16.2102 2.96086 15.9995 3.46957 15.9995 4V6M14.9995 6H20.9995C21.5518 6 21.9995 6.44772 21.9995 7V10C21.9995 10.5523 21.5518 11 20.9995 11H14.9995C14.4472 11 13.9995 10.5523 13.9995 10V7C13.9995 6.44772 14.4472 6 14.9995 6Z" stroke="#C533B9" stroke-width="2" stroke-linecap="round" stroke-linejoin="round"/>
</svg>
