<svg width="24" height="24" viewBox="0 0 24 24" fill="none" xmlns="http://www.w3.org/2000/svg">
<path d="M9.88013 9.87988C9.58538 10.1545 9.34897 10.4857 9.185 10.8537C9.02103 11.2217 8.93287 11.619 8.92576 12.0218C8.91865 12.4246 8.99275 12.8247 9.14364 13.1983C9.29452 13.5718 9.5191 13.9112 9.80397 14.196C10.0888 14.4809 10.4282 14.7055 10.8017 14.8564C11.1753 15.0073 11.5754 15.0814 11.9782 15.0742C12.381 15.0671 12.7783 14.979 13.1463 14.815C13.5143 14.651 13.8455 14.4146 14.1201 14.1199M10.73 5.08C11.1513 5.02751 11.5754 5.00079 12 5C19 5 22 12 22 12C21.5529 12.9571 20.9922 13.8569 20.33 14.68M6.61 6.61011C4.62125 7.96473 3.02987 9.82537 2 12.0001C2 12.0001 5 19.0001 12 19.0001C13.9159 19.0052 15.7908 18.4452 17.39 17.3901M2 2L22 22" stroke="#C533B9" stroke-width="2" stroke-linecap="round" stroke-linejoin="round"/>
</svg>
