<svg width="24" height="24" viewBox="0 0 24 24" fill="none" xmlns="http://www.w3.org/2000/svg">
<path d="M12 12V12.01M10.8271 16.3791C9.77924 16.9086 8.60053 17.1235 7.43323 16.9979C6.26593 16.8723 5.15993 16.4115 4.24873 15.6712C3.33753 14.9309 2.66009 13.9426 2.29816 12.8258C1.93623 11.7089 1.9053 10.5111 2.20909 9.37709L7.62109 10.8271C7.09157 9.77924 6.87664 8.60053 7.00225 7.43323C7.12787 6.26593 7.58865 5.15993 8.32898 4.24873C9.06932 3.33753 10.0576 2.66009 11.1744 2.29816C12.2913 1.93623 13.489 1.9053 14.6231 2.20909L13.1731 7.62109C14.2209 7.09157 15.3996 6.87664 16.5669 7.00225C17.7343 7.12787 18.8402 7.58865 19.7514 8.32898C20.6626 9.06932 21.3401 10.0576 21.702 11.1744C22.0639 12.2913 22.0949 13.489 21.7911 14.6231L16.3791 13.1731C16.9086 14.2209 17.1235 15.3996 16.9979 16.5669C16.8723 17.7343 16.4115 18.8402 15.6712 19.7514C14.9309 20.6626 13.9426 21.3401 12.8258 21.702C11.7089 22.0639 10.5111 22.0949 9.37709 21.7911L10.8271 16.3791Z" stroke="#C533B9" stroke-width="2" stroke-linecap="round" stroke-linejoin="round"/>
</svg>
