<svg width="24" height="24" viewBox="0 0 24 24" fill="none" xmlns="http://www.w3.org/2000/svg">
<path d="M12 22H18C18.5304 22 19.0391 21.7893 19.4142 21.4142C19.7893 21.0391 20 20.5304 20 20V7L15 2H6C5.46957 2 4.96086 2.21071 4.58579 2.58579C4.21071 2.96086 4 3.46957 4 4V14M14 2V6C14 6.53043 14.2107 7.03914 14.5858 7.41421C14.9609 7.78929 15.4696 8 16 8H20M10.4 12.6001C10.7978 12.2023 11.3374 11.9788 11.9 11.9788C12.4626 11.9788 13.0022 12.2023 13.4 12.6001C13.7978 12.9979 14.0213 13.5375 14.0213 14.1001C14.0213 14.6627 13.7978 15.2023 13.4 15.6001L8 21.0001L4 22.0001L5 18.0001L10.4 12.6001Z" stroke="#C533B9" stroke-width="2" stroke-linecap="round" stroke-linejoin="round"/>
</svg>
