<svg width="24" height="24" viewBox="0 0 24 24" fill="none" xmlns="http://www.w3.org/2000/svg">
<path d="M14.0005 2V6C14.0005 6.53043 14.2112 7.03914 14.5863 7.41421C14.9613 7.78929 15.4701 8 16.0005 8H20.0005M16.0005 22H18.0005C18.5309 22 19.0396 21.7893 19.4147 21.4142C19.7898 21.0391 20.0005 20.5304 20.0005 20V7L15.0005 2H6.00049C5.47006 2 4.96135 2.21071 4.58627 2.58579C4.2112 2.96086 4.00049 3.46957 4.00049 4V7.5M4.01744 11.512C3.40581 12.0547 2.91159 12.7168 2.56513 13.4576C2.21867 14.1983 2.02728 15.002 2.00271 15.8194C1.97814 16.6368 2.12092 17.4505 2.42227 18.2107C2.72362 18.9709 3.17718 19.6615 3.75511 20.24C4.33303 20.8186 5.02312 21.2729 5.78299 21.575C6.54286 21.8772 7.35648 22.0208 8.17388 21.9971C8.99128 21.9734 9.79521 21.7829 10.5363 21.4372C11.2774 21.0915 11.94 20.598 12.4834 19.987M8.00049 16V10C9.59179 10 11.1179 10.6321 12.2431 11.7574C13.3683 12.8826 14.0005 14.4087 14.0005 16H8.00049Z" stroke="#C533B9" stroke-width="2" stroke-linecap="round" stroke-linejoin="round"/>
</svg>
