<svg width="24" height="24" viewBox="0 0 24 24" fill="none" xmlns="http://www.w3.org/2000/svg">
<path d="M14.501 22H18.001C18.5314 22 19.0401 21.7893 19.4152 21.4142C19.7903 21.0391 20.001 20.5304 20.001 20V7L15.001 2H6.00098C5.47054 2 4.96184 2.21071 4.58676 2.58579C4.21169 2.96086 4.00098 3.46957 4.00098 4V8M14.001 2V6C14.001 6.53043 14.2117 7.03914 14.5868 7.41421C14.9618 7.78929 15.4705 8 16.001 8H20.001M7.00098 17V22M7.00098 17L11.701 14.2M7.00098 17L2.30103 14.2M3.00106 13.1C2.69288 13.2779 2.43773 13.5348 2.26195 13.8442C2.08616 14.1536 1.9961 14.5042 2.00106 14.86V18.1C1.98948 18.4562 2.07329 18.8091 2.24383 19.122C2.41437 19.435 2.66544 19.6967 2.97106 19.88L6.00106 21.7C6.30774 21.8827 6.65773 21.98 7.01469 21.9817C7.37166 21.9835 7.72259 21.8897 8.03106 21.71L11.0011 19.9C11.3092 19.7222 11.5644 19.4653 11.7402 19.1559C11.9159 18.8465 12.006 18.4958 12.0011 18.14V14.9C12.0126 14.5438 11.9288 14.191 11.7583 13.878C11.5877 13.5651 11.3367 13.3034 11.0311 13.12L8.00106 11.3C7.69437 11.1174 7.34438 11.0201 6.98742 11.0183C6.63046 11.0166 6.27953 11.1104 5.97106 11.29L3.00106 13.1Z" stroke="#C533B9" stroke-width="2" stroke-linecap="round" stroke-linejoin="round"/>
</svg>
