<svg width="24" height="24" viewBox="0 0 24 24" fill="none" xmlns="http://www.w3.org/2000/svg">
<path d="M18 5L15 2H6C5.46957 2 4.96086 2.21071 4.58579 2.58579C4.21071 2.96086 4 3.46957 4 4V20C4 20.5304 4.21071 21.0391 4.58579 21.4142C4.96086 21.7893 5.46957 22 6 22H18C18.5304 22 19.0391 21.7893 19.4142 21.4142C19.7893 21.0391 20 20.5304 20 20M8 18H9M18.4 9.60008C18.7978 9.20226 19.3374 8.97876 19.9 8.97876C20.4626 8.97876 21.0022 9.20226 21.4 9.60008C21.7978 9.99791 22.0213 10.5375 22.0213 11.1001C22.0213 11.6627 21.7978 12.2023 21.4 12.6001L17 17.0001L13 18.0001L14 14.0001L18.4 9.60008Z" stroke="#C533B9" stroke-width="2" stroke-linecap="round" stroke-linejoin="round"/>
</svg>
