<svg width="24" height="24" viewBox="0 0 24 24" fill="none" xmlns="http://www.w3.org/2000/svg">
<path d="M15 6.5V3M15 3C15 2.73478 14.8946 2.48043 14.7071 2.29289C14.5196 2.10536 14.2652 2 14 2H12C11.7348 2 11.4804 2.10536 11.2929 2.29289C11.1054 2.48043 11 2.73478 11 3M15 3H18M11 3V6.5M11 3C9.4087 3 7.88258 3.63214 6.75736 4.75736C5.63214 5.88258 5 7.4087 5 9V20M9 18H17M5 13H9M17 10C17 8.93913 16.5786 7.92172 15.8284 7.17157C15.0783 6.42143 14.0609 6 13 6C11.9391 6 10.9217 6.42143 10.1716 7.17157C9.42143 7.92172 9 8.93913 9 10V20C9 20.5304 9.21071 21.0391 9.58579 21.4142C9.96086 21.7893 10.4696 22 11 22H15C15.5304 22 16.0391 21.7893 16.4142 21.4142C16.7893 21.0391 17 20.5304 17 20V10Z" stroke="#C533B9" stroke-width="2" stroke-linecap="round" stroke-linejoin="round"/>
</svg>
