<svg width="24" height="24" viewBox="0 0 24 24" fill="none" xmlns="http://www.w3.org/2000/svg">
<path d="M18.001 12.5V12M17.526 17.526C16.7225 17.8443 15.8652 18.0053 15.001 18C11.441 18 7.44098 15.47 6.50098 12C6.84898 10.72 7.61498 9.567 8.62198 8.62M12.066 6.532C13.0069 6.18898 13.9995 6.00907 15.001 6C18.561 6 21.061 8.54 22.001 12C21.692 13.14 21.215 14.177 20.588 15.058M7.00096 10.67C7.00096 8 5.58096 5.97 2.73096 5.5C1.73096 7 1.73096 10.5 2.96096 12C1.72096 13.5 1.72096 17 2.73096 18.5C5.58096 18.03 7.00096 16 7.00096 13.33M14.481 8.958C14.8221 7.91692 15.336 6.94064 16.001 6.07M16.001 17.93C15.181 16.8564 14.5926 15.6245 14.273 14.312M16.011 17.93L15.781 19.33C15.7027 19.798 15.4606 20.2229 15.0978 20.5288C14.7351 20.8348 14.2755 21.0018 13.801 21H9.50098C10.4698 19.9015 11.0002 18.4847 10.991 17.02M8.53098 3H13.801C14.2755 2.99824 14.7351 3.16524 15.0978 3.47117C15.4606 3.77709 15.7027 4.202 15.781 4.67L16.011 6.07M2.00098 2L22.001 22" stroke="#C533B9" stroke-width="2" stroke-linecap="round" stroke-linejoin="round"/>
</svg>
