<svg width="24" height="24" viewBox="0 0 24 24" fill="none" xmlns="http://www.w3.org/2000/svg">
<path d="M18.001 12V12.5M16.0011 17.9301C14.7003 16.2269 13.9956 14.1432 13.9956 12.0001C13.9956 9.85695 14.7003 7.77328 16.0011 6.07007M7.00096 10.67C7.00096 8 5.58096 5.97 2.73096 5.5C1.73096 7 1.73096 10.5 2.96096 12C1.72096 13.5 1.72096 17 2.73096 18.5C5.58096 18.03 7.00096 16 7.00096 13.33M10.461 7.26001C10.201 5.88001 9.17098 4.24001 8.00098 3.00001H13.801C14.2755 2.99826 14.7351 3.16526 15.0978 3.47118C15.4606 3.7771 15.7027 4.20202 15.781 4.67001L16.011 6.07001M16.011 17.93L15.781 19.33C15.7027 19.798 15.4606 20.2229 15.0978 20.5289C14.7351 20.8348 14.2755 21.0018 13.801 21H9.50098C10.4698 19.9015 11.0002 18.4847 10.991 17.02M6.50098 12C7.44098 8.54 11.441 6 15.001 6C18.561 6 21.061 8.54 22.001 12C21.061 15.47 18.561 18 15.001 18C11.441 18 7.44098 15.47 6.50098 12Z" stroke="#C533B9" stroke-width="2" stroke-linecap="round" stroke-linejoin="round"/>
</svg>
