<svg width="24" height="24" viewBox="0 0 24 24" fill="none" xmlns="http://www.w3.org/2000/svg">
<path d="M5 22L19 18M5 18L19 22M12 2C13 5 14.5 5.5 15.5 6.5C16.4421 7.42315 16.9812 8.68115 17 10C17 11.3261 16.4732 12.5979 15.5355 13.5355C14.5979 14.4732 13.3261 15 12 15C10.6739 15 9.40215 14.4732 8.46447 13.5355C7.52678 12.5979 7 11.3261 7 10C7 9.7 7 9.4 7.1 9.1C7.18451 9.39574 7.33608 9.668 7.54294 9.89562C7.74981 10.1232 8.00638 10.3001 8.29272 10.4124C8.57905 10.5247 8.88743 10.5695 9.19389 10.5432C9.50034 10.5169 9.7966 10.4203 10.0596 10.2609C10.3227 10.1015 10.5454 9.88355 10.7105 9.62403C10.8756 9.36452 10.9786 9.07043 11.0115 8.76462C11.0445 8.45882 11.0064 8.14954 10.9004 7.86083C10.7943 7.57212 10.6231 7.31176 10.4 7.1C8 4.5 11 2 12 2Z" stroke="#C533B9" stroke-width="2" stroke-linecap="round" stroke-linejoin="round"/>
</svg>
