<svg width="24" height="24" viewBox="0 0 24 24" fill="none" xmlns="http://www.w3.org/2000/svg">
<path d="M10.0003 2V9.527C10.0006 9.83801 9.92831 10.1448 9.78926 10.423L4.72027 20.55C4.64317 20.703 4.60667 20.8732 4.61426 21.0444C4.62186 21.2155 4.6733 21.3818 4.76364 21.5274C4.85399 21.6729 4.98021 21.7928 5.13021 21.8756C5.28021 21.9584 5.44895 22.0012 5.62027 22H18.3803C18.5516 22.0012 18.7203 21.9584 18.8703 21.8756C19.0203 21.7928 19.1465 21.6729 19.2369 21.5274C19.3272 21.3818 19.3787 21.2155 19.3863 21.0444C19.3939 20.8732 19.3574 20.703 19.2803 20.55L14.2113 10.423C14.0722 10.1448 14 9.83801 14.0003 9.527V2M8.50024 2H15.5002M7.00024 16H17.0002" stroke="#C533B9" stroke-width="2" stroke-linecap="round" stroke-linejoin="round"/>
</svg>
