<svg width="24" height="24" viewBox="0 0 24 24" fill="none" xmlns="http://www.w3.org/2000/svg">
<path d="M10.7 20.0001H4C3.46957 20.0001 2.96086 19.7894 2.58579 19.4143C2.21071 19.0392 2 18.5305 2 18.0001V5.0001C2 4.46966 2.21071 3.96096 2.58579 3.58588C2.96086 3.21081 3.46957 3.0001 4 3.0001H7.9C8.23449 2.99682 8.56445 3.07748 8.8597 3.23472C9.15495 3.39195 9.40604 3.62072 9.59 3.9001L10.4 5.1001C10.5821 5.37663 10.83 5.60362 11.1215 5.7607C11.413 5.91778 11.7389 6.00004 12.07 6.0001H20C20.5304 6.0001 21.0391 6.21081 21.4142 6.58588C21.7893 6.96096 22 7.46966 22 8.0001V12.1001M21 21L19.5 19.5M20 17C20 18.6569 18.6569 20 17 20C15.3431 20 14 18.6569 14 17C14 15.3431 15.3431 14 17 14C18.6569 14 20 15.3431 20 17Z" stroke="#C533B9" stroke-width="2" stroke-linecap="round" stroke-linejoin="round"/>
</svg>
