<svg width="24" height="24" viewBox="0 0 24 24" fill="none" xmlns="http://www.w3.org/2000/svg">
<path d="M2 11.5V5C2 4.46957 2.21071 3.96086 2.58579 3.58579C2.96086 3.21071 3.46957 3 4 3H7.9C8.6 3 9.2 3.3 9.6 3.9L10.4 5.1C10.8 5.7 11.4 6 12.1 6H20C20.5304 6 21.0391 6.21071 21.4142 6.58579C21.7893 6.96086 22 7.46957 22 8V18C22 18.5304 21.7893 19.0391 21.4142 19.4142C21.0391 19.7893 20.5304 20 20 20H10.5M8.4 10.6001C8.79782 10.2023 9.33739 9.97876 9.9 9.97876C10.1786 9.97876 10.4544 10.0336 10.7118 10.1402C10.9692 10.2468 11.203 10.4031 11.4 10.6001C11.597 10.7971 11.7532 11.0309 11.8598 11.2883C11.9665 11.5457 12.0213 11.8215 12.0213 12.1001C12.0213 12.3787 11.9665 12.6545 11.8598 12.9119C11.7532 13.1692 11.597 13.4031 11.4 13.6001L6 19.0001L2 20.0001L3 16.0001L8.4 10.6001Z" stroke="#C533B9" stroke-width="2" stroke-linecap="round" stroke-linejoin="round"/>
</svg>
