<svg width="24" height="24" viewBox="0 0 24 24" fill="none" xmlns="http://www.w3.org/2000/svg">
<path d="M15 17C13.8954 17 13 17.8954 13 19C13 20.1046 13.8954 21 15 21C16.1046 21 17 20.1046 17 19C17 17.8954 16.1046 17 15 17ZM15 17V15M20.9 19.8C21.2329 19.6323 21.5122 19.3749 21.7066 19.0568C21.901 18.7388 22.0026 18.3727 22 18V8C22 7.46957 21.7893 6.96086 21.4142 6.58579C21.0391 6.21071 20.5304 6 20 6H12.1C11.7655 6.00328 11.4355 5.92261 11.1403 5.76538C10.8451 5.60815 10.594 5.37938 10.41 5.1L9.6 3.9C9.41789 3.62347 9.16997 3.39648 8.8785 3.2394C8.58702 3.08231 8.26111 3.00005 7.93 3H4C3.46957 3 2.96086 3.21071 2.58579 3.58579C2.21071 3.96086 2 4.46957 2 5V18C2 18.5304 2.21071 19.0391 2.58579 19.4142C2.96086 19.7893 3.46957 20 4 20H9.1M15 11V10" stroke="#C533B9" stroke-width="2" stroke-linecap="round" stroke-linejoin="round"/>
</svg>
