<svg width="24" height="24" viewBox="0 0 24 24" fill="none" xmlns="http://www.w3.org/2000/svg">
<path d="M6 14L7.5 11.1C7.66307 10.7761 7.91112 10.5027 8.21761 10.3089C8.5241 10.1152 8.8775 10.0084 9.24 9.99997H20M20 9.99997C20.3055 9.99944 20.6071 10.0689 20.8816 10.2031C21.1561 10.3372 21.3963 10.5325 21.5836 10.7738C21.7709 11.0152 21.9004 11.2963 21.9622 11.5955C22.024 11.8947 22.0164 12.2041 21.94 12.5L20.4 18.5C20.2886 18.9315 20.0362 19.3135 19.6829 19.5853C19.3296 19.857 18.8957 20.003 18.45 20H4C3.46957 20 2.96086 19.7893 2.58579 19.4142C2.21071 19.0391 2 18.5304 2 18V4.99997C2 4.46954 2.21071 3.96083 2.58579 3.58576C2.96086 3.21069 3.46957 2.99997 4 2.99997H7.9C8.23449 2.99669 8.56445 3.07736 8.8597 3.23459C9.15495 3.39183 9.40604 3.6206 9.59 3.89997L10.4 5.09997C10.5821 5.3765 10.83 5.60349 11.1215 5.76058C11.413 5.91766 11.7389 5.99992 12.07 5.99997H18C18.5304 5.99997 19.0391 6.21069 19.4142 6.58576C19.7893 6.96083 20 7.46954 20 7.99997V9.99997Z" stroke="#C533B9" stroke-width="2" stroke-linecap="round" stroke-linejoin="round"/>
</svg>
