<svg width="24" height="24" viewBox="0 0 24 24" fill="none" xmlns="http://www.w3.org/2000/svg">
<path d="M11 20.0001H4C3.46957 20.0001 2.96086 19.7894 2.58579 19.4143C2.21071 19.0392 2 18.5305 2 18.0001V5.0001C2 4.46966 2.21071 3.96096 2.58579 3.58588C2.96086 3.21081 3.46957 3.0001 4 3.0001H7.9C8.23449 2.99682 8.56445 3.07748 8.8597 3.23472C9.15495 3.39195 9.40604 3.62072 9.59 3.9001L10.4 5.1001C10.5821 5.37663 10.83 5.60362 11.1215 5.7607C11.413 5.91778 11.7389 6.00004 12.07 6.0001H20C20.5304 6.0001 21.0391 6.21081 21.4142 6.58588C21.7893 6.96096 22 7.46966 22 8.0001V9.5001M13.8999 17.4501C12.6999 16.2501 12.7599 14.6501 13.6999 13.7201C13.9257 13.4939 14.1938 13.3145 14.4889 13.1921C14.784 13.0696 15.1004 13.0066 15.4199 13.0066C15.7395 13.0066 16.0559 13.0696 16.351 13.1921C16.6461 13.3145 16.9142 13.4939 17.1399 13.7201L17.4999 14.0601L17.8399 13.7201C18.0652 13.4918 18.3334 13.3103 18.6291 13.1861C18.9248 13.0619 19.2421 12.9975 19.5629 12.9966C19.8836 12.9957 20.2013 13.0582 20.4977 13.1807C20.7941 13.3031 21.0634 13.4831 21.2899 13.7101C22.2399 14.6601 22.2899 16.2401 21.0899 17.4501L17.4999 21.0001L13.8999 17.4501Z" stroke="#C533B9" stroke-width="2" stroke-linecap="round" stroke-linejoin="round"/>
</svg>
