<svg width="24" height="24" viewBox="0 0 24 24" fill="none" xmlns="http://www.w3.org/2000/svg">
<path d="M2 8V19C2 19.5304 2.21071 20.0391 2.58579 20.4142C2.96086 20.7893 3.46957 21 4 21H18M20 17C20.5304 17 21.0391 16.7893 21.4142 16.4142C21.7893 16.0391 22 15.5304 22 15V9C22 8.46957 21.7893 7.96086 21.4142 7.58579C21.0391 7.21071 20.5304 7 20 7H16.1C15.7655 7.00328 15.4355 6.92261 15.1403 6.76538C14.8451 6.60815 14.594 6.37938 14.41 6.1L13.6 4.9C13.4179 4.62347 13.17 4.39648 12.8785 4.2394C12.587 4.08231 12.2611 4.00005 11.93 4H8C7.46957 4 6.96086 4.21071 6.58579 4.58579C6.21071 4.96086 6 5.46957 6 6V15C6 15.5304 6.21071 16.0391 6.58579 16.4142C6.96086 16.7893 7.46957 17 8 17H20Z" stroke="#C533B9" stroke-width="2" stroke-linecap="round" stroke-linejoin="round"/>
</svg>
