<svg width="24" height="24" viewBox="0 0 24 24" fill="none" xmlns="http://www.w3.org/2000/svg">
<path d="M16.0007 17H20.0007M4.00073 13H8.00073M4.00064 16V13.62C4.00064 11.5 2.97064 10.5 3.00064 8C3.03064 5.28 4.49064 2 7.50064 2C9.37064 2 10.0006 3.8 10.0006 5.5C10.0006 8.61 8.00064 11.16 8.00064 14.18V16C8.00064 16.5304 7.78993 17.0391 7.41486 17.4142C7.03978 17.7893 6.53108 18 6.00064 18C5.47021 18 4.9615 17.7893 4.58643 17.4142C4.21136 17.0391 4.00064 16.5304 4.00064 16ZM20.0007 20V17.62C20.0007 15.5 21.0307 14.5 21.0007 12C20.9707 9.28 19.5107 6 16.5007 6C14.6307 6 14.0007 7.8 14.0007 9.5C14.0007 12.61 16.0007 15.16 16.0007 18.18V20C16.0007 20.5304 16.2114 21.0391 16.5865 21.4142C16.9616 21.7893 17.4703 22 18.0007 22C18.5312 22 19.0399 21.7893 19.4149 21.4142C19.79 21.0391 20.0007 20.5304 20.0007 20Z" stroke="#C533B9" stroke-width="2" stroke-linecap="round" stroke-linejoin="round"/>
</svg>
