<svg width="24" height="24" viewBox="0 0 24 24" fill="none" xmlns="http://www.w3.org/2000/svg">
<path d="M12 12H5C4.46957 12 3.96086 12.2107 3.58579 12.5858C3.21071 12.9609 3 13.4696 3 14V19M3 19C3 20.1046 3.89543 21 5 21C6.10457 21 7 20.1046 7 19C7 17.8954 6.10457 17 5 17C3.89543 17 3 17.8954 3 19ZM11 19C11 20.1046 11.8954 21 13 21C14.1046 21 15 20.1046 15 19C15 17.8954 14.1046 17 13 17C11.8954 17 11 17.8954 11 19ZM11 19H8M16 2V19H22M6 12V7C6 5.9 6.9 5 8 5H11L16 10" stroke="#C533B9" stroke-width="2" stroke-linecap="round" stroke-linejoin="round"/>
</svg>
