<svg width="24" height="24" viewBox="0 0 24 24" fill="none" xmlns="http://www.w3.org/2000/svg">
<path d="M21.9996 13.29L18.6696 3.29001C18.6404 3.21825 18.592 3.15595 18.5296 3.11001C18.4705 3.04997 18.3931 3.01128 18.3096 3.00001C18.2275 2.99854 18.147 3.02304 18.0796 3.07001C18.0172 3.11595 17.9688 3.17825 17.9396 3.25001L15.6796 9.92001H8.31958L6.09958 3.26001C6.0817 3.19264 6.04734 3.13079 5.99958 3.08001C5.92576 3.02218 5.83315 2.99368 5.73958 3.00001C5.65746 2.99854 5.57697 3.02304 5.50958 3.07001C5.44721 3.11595 5.39876 3.17825 5.36958 3.25001L1.99958 13.29C1.9508 13.4391 1.95066 13.5999 1.99919 13.7491C2.04772 13.8982 2.14241 14.0281 2.26958 14.12L11.9996 21L21.6896 14.12C21.8277 14.0373 21.9336 13.9101 21.9899 13.7593C22.0463 13.6085 22.0497 13.443 21.9996 13.29Z" stroke="#C533B9" stroke-width="2" stroke-linecap="round" stroke-linejoin="round"/>
</svg>
