<svg width="24" height="24" viewBox="0 0 24 24" fill="none" xmlns="http://www.w3.org/2000/svg">
<path d="M10 15C10 17.2091 8.20914 19 6 19C3.79086 19 2 17.2091 2 15C2 12.7909 3.79086 11 6 11C8.20914 11 10 12.7909 10 15ZM10 15C10 14.4696 10.2107 13.9609 10.5858 13.5858C10.9609 13.2107 11.4696 13 12 13C12.5304 13 13.0391 13.2107 13.4142 13.5858C13.7893 13.9609 14 14.4696 14 15M14 15C14 17.2091 15.7909 19 18 19C20.2091 19 22 17.2091 22 15C22 12.7909 20.2091 11 18 11C15.7909 11 14 12.7909 14 15ZM2.5 13L5 7C5.7 5.7 6.4 5 8 5M21.5 13L19 7C18.3 5.7 17.5 5 16 5" stroke="#C533B9" stroke-width="2" stroke-linecap="round" stroke-linejoin="round"/>
</svg>
