<svg width="24" height="24" viewBox="0 0 24 24" fill="none" xmlns="http://www.w3.org/2000/svg">
<path d="M15.6861 15C15.13 17.6299 13.8538 20.0534 12.0001 22C9.43232 19.3038 8.00008 15.7233 8.00008 12C8.00008 8.27674 9.43232 4.69615 12.0001 2C10.1519 2.00048 8.3401 2.51311 6.76567 3.48098C5.19125 4.44885 3.91583 5.8341 3.08102 7.48294C2.24621 9.13178 1.88466 10.9797 2.0365 12.8216C2.18834 14.6635 2.84764 16.4273 3.9412 17.9171C5.03477 19.407 6.51982 20.5647 8.23149 21.2616C9.94316 21.9586 11.8145 22.1676 13.6378 21.8654C15.461 21.5632 17.1649 20.7617 18.5602 19.5498C19.9555 18.3379 20.9876 16.763 21.5421 15M2 12H10.5M20 6V4C20 3.46957 19.7893 2.96086 19.4142 2.58579C19.0391 2.21071 18.5304 2 18 2C17.4696 2 16.9609 2.21071 16.5858 2.58579C16.2107 2.96086 16 3.46957 16 4V6M15 6H21C21.5523 6 22 6.44772 22 7V10C22 10.5523 21.5523 11 21 11H15C14.4477 11 14 10.5523 14 10V7C14 6.44772 14.4477 6 15 6Z" stroke="#C533B9" stroke-width="2" stroke-linecap="round" stroke-linejoin="round"/>
</svg>
