<svg width="24" height="24" viewBox="0 0 24 24" fill="none" xmlns="http://www.w3.org/2000/svg">
<path d="M11.9998 13V2L19.9998 6L11.9998 10M20.5607 10.2219C21.0928 11.862 21.1426 13.6205 20.7041 15.2881C20.2656 16.9558 19.3573 18.4623 18.0872 19.6286C16.8172 20.7948 15.2388 21.5717 13.5399 21.8667C11.841 22.1617 10.0932 21.9625 8.50424 21.2928C6.91532 20.623 5.55224 19.5109 4.57717 18.0888C3.6021 16.6666 3.05609 14.9943 3.00409 13.2708C2.9521 11.5473 3.39631 9.8451 4.28388 8.36677C5.17145 6.88844 6.46502 5.6962 8.01068 4.93188M8.00165 9.99707C7.50056 10.6641 7.17433 11.4459 7.0527 12.2713C6.93106 13.0966 7.01788 13.9393 7.30525 14.7225C7.59262 15.5057 8.07141 16.2046 8.69798 16.7554C9.32455 17.3063 10.079 17.6916 10.8926 17.8762C11.7062 18.0609 12.553 18.039 13.356 17.8127C14.159 17.5863 14.8925 17.1626 15.4899 16.5802C16.0872 15.9977 16.5293 15.2751 16.7759 14.4781C17.0225 13.6811 17.0657 12.8351 16.9017 12.0171" stroke="#C533B9" stroke-width="2" stroke-linecap="round" stroke-linejoin="round"/>
</svg>
