<svg width="24" height="24" viewBox="0 0 24 24" fill="none" xmlns="http://www.w3.org/2000/svg">
<path d="M22.0007 10V16M6.00073 12.5V16C6.00073 16.7956 6.63287 17.5587 7.75809 18.1213C8.88331 18.6839 10.4094 19 12.0007 19C13.592 19 15.1182 18.6839 16.2434 18.1213C17.3686 17.5587 18.0007 16.7956 18.0007 16V12.5M21.4208 10.9221C21.5998 10.8431 21.7517 10.7134 21.8577 10.5489C21.9637 10.3845 22.0191 10.1925 22.0171 9.99685C22.0151 9.8012 21.9557 9.61044 21.8463 9.4482C21.737 9.28596 21.5824 9.15937 21.4018 9.08411L12.8308 5.18011C12.5702 5.06126 12.2872 4.99976 12.0008 4.99976C11.7144 4.99976 11.4313 5.06126 11.1708 5.18011L2.60077 9.08011C2.42274 9.15809 2.27129 9.28625 2.16494 9.44893C2.05859 9.61161 2.00195 9.80176 2.00195 9.99611C2.00195 10.1905 2.05859 10.3806 2.16494 10.5433C2.27129 10.706 2.42274 10.8341 2.60077 10.9121L11.1708 14.8201C11.4313 14.939 11.7144 15.0005 12.0008 15.0005C12.2872 15.0005 12.5702 14.939 12.8308 14.8201L21.4208 10.9221Z" stroke="#C533B9" stroke-width="2" stroke-linecap="round" stroke-linejoin="round"/>
</svg>
