<svg width="24" height="24" viewBox="0 0 24 24" fill="none" xmlns="http://www.w3.org/2000/svg">
<path d="M22.0001 5V2L16.1101 7.89M19.6001 15.8899C19.6001 17.5467 18.257 18.8899 16.6001 18.8899C14.9432 18.8899 13.6001 17.5467 13.6001 15.8899C13.6001 14.233 14.9432 12.8899 16.6001 12.8899C18.257 12.8899 19.6001 14.233 19.6001 15.8899ZM11.1101 7.3999C11.1101 9.05676 9.76696 10.3999 8.11011 10.3999C6.45325 10.3999 5.11011 9.05676 5.11011 7.3999C5.11011 5.74305 6.45325 4.3999 8.11011 4.3999C9.76696 4.3999 11.1101 5.74305 11.1101 7.3999ZM15.3501 11.6499C15.3501 13.3068 14.007 14.6499 12.3501 14.6499C10.6932 14.6499 9.3501 13.3068 9.3501 11.6499C9.3501 9.99305 10.6932 8.6499 12.3501 8.6499C14.007 8.6499 15.3501 9.99305 15.3501 11.6499ZM16.9099 5.8501C16.9099 7.50695 15.5668 8.8501 13.9099 8.8501C12.2531 8.8501 10.9099 7.50695 10.9099 5.8501C10.9099 4.19324 12.2531 2.8501 13.9099 2.8501C15.5668 2.8501 16.9099 4.19324 16.9099 5.8501ZM21.1499 10.0901C21.1499 11.7469 19.8068 13.0901 18.1499 13.0901C16.493 13.0901 15.1499 11.7469 15.1499 10.0901C15.1499 8.43323 16.493 7.09009 18.1499 7.09009C19.8068 7.09009 21.1499 8.43323 21.1499 10.0901ZM9.56006 13.2C9.56006 14.8568 8.21691 16.2 6.56006 16.2C4.9032 16.2 3.56006 14.8568 3.56006 13.2C3.56006 11.5431 4.9032 10.2 6.56006 10.2C8.21691 10.2 9.56006 11.5431 9.56006 13.2ZM13.8 17.4399C13.8 19.0968 12.4569 20.4399 10.8 20.4399C9.14319 20.4399 7.80005 19.0968 7.80005 17.4399C7.80005 15.7831 9.14319 14.4399 10.8 14.4399C12.4569 14.4399 13.8 15.7831 13.8 17.4399ZM8 19C8 20.6569 6.65685 22 5 22C3.34315 22 2 20.6569 2 19C2 17.3431 3.34315 16 5 16C6.65685 16 8 17.3431 8 19Z" stroke="#C533B9" stroke-width="2" stroke-linecap="round" stroke-linejoin="round"/>
</svg>
