<svg width="24" height="24" viewBox="0 0 24 24" fill="none" xmlns="http://www.w3.org/2000/svg">
<path d="M13.143 21.1439C14.113 20.1739 14.9405 19.0804 15.5781 17.9257C16.2158 16.771 16.6512 15.5778 16.8594 14.4143C17.0676 13.2507 17.0446 12.1395 16.7917 11.1442C16.5388 10.1489 16.061 9.28898 15.3855 8.61346C14.7099 7.93794 13.85 7.46009 12.8547 7.2072C11.8594 6.9543 10.7482 6.93131 9.58467 7.13955C8.42111 7.34778 7.22793 7.78315 6.07325 8.42081C4.91857 9.05846 3.82502 9.88591 2.85501 10.8559M13.143 21.1439C13.9617 20.3252 14.205 18.9983 13.8192 17.4547C13.4334 15.9112 12.4503 14.2775 11.086 12.9133C9.7217 11.549 8.08809 10.5658 6.54451 10.18C5.00093 9.79423 3.67369 10.0372 2.85501 10.8559M13.143 21.1439C12.3243 21.9626 10.9974 22.206 9.45379 21.8202C7.91022 21.4344 6.2766 20.4512 4.91233 19.0869C3.54805 17.7226 2.56488 16.089 2.17908 14.5455C1.79328 13.0019 2.03634 11.6746 2.85501 10.8559M16.564 10.4351L18.599 8.40006C18.9167 8.57609 19.2689 8.68081 19.6311 8.70695C19.9934 8.73309 20.357 8.68001 20.6966 8.55141C21.0363 8.42282 21.3439 8.22179 21.598 7.96229C21.8521 7.7028 22.0467 7.39108 22.1681 7.04879C22.2896 6.70651 22.335 6.34188 22.3013 5.98025C22.2676 5.61862 22.1555 5.26868 21.9729 4.95475C21.7902 4.64082 21.5414 4.37043 21.2437 4.16239C20.946 3.95435 20.6066 3.81365 20.249 3.75006C20.179 3.39792 20.0339 3.06498 19.8237 2.77391C19.6135 2.48284 19.3431 2.24046 19.0308 2.06326C18.7186 1.88605 18.3718 1.77819 18.0141 1.747C17.6565 1.71581 17.2963 1.76203 16.958 1.88251C16.6198 2.00299 16.3115 2.19491 16.0541 2.4452C15.7967 2.6955 15.5962 2.9983 15.4663 3.33301C15.3364 3.66773 15.2801 4.02649 15.3013 4.3849C15.3225 4.74331 15.4206 5.09296 15.589 5.41006L13.565 7.43506M8.49906 16.5L7.49906 15.5" stroke="#C533B9" stroke-width="2" stroke-linecap="round" stroke-linejoin="round"/>
</svg>
