<svg width="24" height="24" viewBox="0 0 24 24" fill="none" xmlns="http://www.w3.org/2000/svg">
<path d="M15.0002 12L6.62718 20.373C6.22935 20.7708 5.68979 20.9943 5.12718 20.9943C4.56457 20.9943 4.025 20.7708 3.62718 20.373C3.22936 19.9752 3.00586 19.4356 3.00586 18.873C3.00586 18.3104 3.22936 17.7708 3.62718 17.373L12.0002 9M18.0002 15L22.0002 11M21.5002 11.5L19.5862 9.58596C19.2111 9.21098 19.0004 8.70235 19.0002 8.17196V6.99996L16.7402 4.73996C15.6248 3.62515 14.1153 2.99432 12.5382 2.98396L9.00024 2.95996L9.92024 3.77996C10.5737 4.35935 11.0969 5.07066 11.4555 5.867C11.814 6.66335 11.9997 7.52663 12.0002 8.39996V9.99996L14.0002 12H15.1722C15.7026 12.0001 16.2113 12.2109 16.5862 12.586L18.5002 14.5" stroke="#C533B9" stroke-width="2" stroke-linecap="round" stroke-linejoin="round"/>
</svg>
