<svg width="24" height="24" viewBox="0 0 24 24" fill="none" xmlns="http://www.w3.org/2000/svg">
<path d="M11 17L13 19C13.197 19.197 13.4308 19.3532 13.6882 19.4598C13.9456 19.5665 14.2214 19.6213 14.5 19.6213C14.7786 19.6213 15.0544 19.5665 15.3118 19.4598C15.5692 19.3532 15.803 19.197 16 19C16.197 18.803 16.3532 18.5692 16.4598 18.3118C16.5665 18.0544 16.6213 17.7786 16.6213 17.5C16.6213 17.2214 16.5665 16.9456 16.4598 16.6882C16.3532 16.4308 16.197 16.197 16 16M14 14L16.5 16.5C16.8978 16.8978 17.4374 17.1213 18 17.1213C18.5626 17.1213 19.1022 16.8978 19.5 16.5C19.8978 16.1022 20.1213 15.5626 20.1213 15C20.1213 14.4374 19.8978 13.8978 19.5 13.5L15.62 9.62002C15.0575 9.05821 14.295 8.74265 13.5 8.74265C12.705 8.74265 11.9425 9.05821 11.38 9.62002L10.5 10.5C10.1022 10.8978 9.56259 11.1213 8.99998 11.1213C8.43737 11.1213 7.89781 10.8978 7.49998 10.5C7.10216 10.1022 6.87866 9.56262 6.87866 9.00002C6.87866 8.43741 7.10216 7.89784 7.49998 7.50002L10.31 4.69002C11.2222 3.78016 12.4119 3.20057 13.6906 3.04299C14.9694 2.88541 16.2641 3.15885 17.37 3.82002L17.84 4.10002C18.2658 4.357 18.772 4.44613 19.26 4.35002L21 4.00002M21 3L22 14H20M3 3L2 14L8.5 20.5C8.89782 20.8978 9.43739 21.1213 10 21.1213C10.5626 21.1213 11.1022 20.8978 11.5 20.5C11.8978 20.1022 12.1213 19.5626 12.1213 19C12.1213 18.4374 11.8978 17.8978 11.5 17.5M3 4H11" stroke="#C533B9" stroke-width="2" stroke-linecap="round" stroke-linejoin="round"/>
</svg>
