<svg width="24" height="24" viewBox="0 0 24 24" fill="none" xmlns="http://www.w3.org/2000/svg">
<path d="M18 11V6C18 5.46957 17.7893 4.96086 17.4142 4.58579C17.0391 4.21071 16.5304 4 16 4C15.4696 4 14.9609 4.21071 14.5858 4.58579C14.2107 4.96086 14 5.46957 14 6M14 10V4C14 3.46957 13.7893 2.96086 13.4142 2.58579C13.0391 2.21071 12.5304 2 12 2C11.4696 2 10.9609 2.21071 10.5858 2.58579C10.2107 2.96086 10 3.46957 10 4V6M10 6V10.5M10 6C10 5.46957 9.78929 4.96086 9.41421 4.58579C9.03914 4.21071 8.53043 4 8 4C7.46957 4 6.96086 4.21071 6.58579 4.58579C6.21071 4.96086 6 5.46957 6 6V14M18.0001 8C18.0001 7.46957 18.2108 6.96086 18.5859 6.58579C18.961 6.21071 19.4697 6 20.0001 6C20.5305 6 21.0392 6.21071 21.4143 6.58579C21.7894 6.96086 22.0001 7.46957 22.0001 8V14C22.0001 16.1217 21.1572 18.1566 19.657 19.6569C18.1567 21.1571 16.1218 22 14.0001 22H12.0001C9.2001 22 7.5001 21.14 6.0101 19.66L2.4101 16.06C2.06604 15.6789 1.88169 15.1802 1.89523 14.6669C1.90876 14.1537 2.11915 13.6653 2.48282 13.303C2.8465 12.9406 3.3356 12.7319 3.84888 12.7202C4.36215 12.7085 4.86027 12.8946 5.2401 13.24L7.0001 15" stroke="#C533B9" stroke-width="2" stroke-linecap="round" stroke-linejoin="round"/>
</svg>
