<svg width="24" height="24" viewBox="0 0 24 24" fill="none" xmlns="http://www.w3.org/2000/svg">
<path d="M11 14H13C13.5304 14 14.0391 13.7893 14.4142 13.4142C14.7893 13.0391 15 12.5304 15 12C15 11.4696 14.7893 10.9609 14.4142 10.5858C14.0391 10.2107 13.5304 10 13 10H10C9.4 10 8.9 10.2 8.6 10.6L3 16M7 20L8.6 18.6C8.9 18.2 9.4 18 10 18H14C15.1 18 16.1 17.6 16.8 16.8L21.4 12.4C21.7859 12.0354 22.0111 11.5323 22.0261 11.0016C22.0411 10.4709 21.8447 9.95592 21.48 9.57003C21.1153 9.18414 20.6123 8.95892 20.0816 8.94392C19.5508 8.92891 19.0359 9.12535 18.65 9.49003L14.45 13.39M2 15L8 21M19.4999 8.5C20.1999 7.8 20.9999 6.9 20.9999 5.8C21.0698 5.18893 20.9313 4.57216 20.6068 4.04964C20.2824 3.52712 19.791 3.12947 19.2123 2.92114C18.6336 2.71281 18.0015 2.706 17.4184 2.90182C16.8354 3.09763 16.3355 3.4846 15.9999 4C15.6429 3.52458 15.1429 3.17613 14.5734 3.00578C14.0038 2.83544 13.3946 2.85219 12.8352 3.05356C12.2758 3.25494 11.7957 3.63034 11.4654 4.12465C11.1351 4.61896 10.9719 5.20614 10.9999 5.8C10.9999 7 11.7999 7.8 12.4999 8.6L15.9999 12L19.4999 8.5Z" stroke="#C533B9" stroke-width="2" stroke-linecap="round" stroke-linejoin="round"/>
</svg>
