<svg width="24" height="24" viewBox="0 0 24 24" fill="none" xmlns="http://www.w3.org/2000/svg">
<path d="M12 3V2M5 9.99997C5.2805 8.34643 6.13729 6.84557 7.41856 5.76335C8.69983 4.68112 10.3228 4.0874 12 4.0874C13.6772 4.0874 15.3002 4.68112 16.5814 5.76335C17.8627 6.84557 18.7195 8.34643 19 9.99997M4 10H20M2 14H14C14.5304 14 15.0391 14.2107 15.4142 14.5858C15.7893 14.9609 16 15.4696 16 16C16 16.5304 15.7893 17.0391 15.4142 17.4142C15.0391 17.7893 14.5304 18 14 18H12M15.4 17.4L18.6 14.6C18.9846 14.2287 19.5009 14.0254 20.0354 14.0347C20.5698 14.0441 21.0787 14.2654 21.45 14.65C21.8213 15.0346 22.0246 15.5509 22.0153 16.0853C22.0059 16.6198 21.7846 17.1287 21.4 17.5L17.8 20.8C17.1 21.6 16.1 22 15 22H11C9.9 22 8.9 21.6 8.2 20.8L5 18M5 14V21H2" stroke="#C533B9" stroke-width="2" stroke-linecap="round" stroke-linejoin="round"/>
</svg>
