<svg width="24" height="24" viewBox="0 0 24 24" fill="none" xmlns="http://www.w3.org/2000/svg">
<path d="M10 10V5C10 4.73478 10.1054 4.48043 10.2929 4.29289C10.4804 4.10536 10.7348 4 11 4H13C13.2652 4 13.5196 4.10536 13.7071 4.29289C13.8946 4.48043 14 4.73478 14 5V10M4 15V12C4 10.4087 4.63214 8.88258 5.75736 7.75736C6.88258 6.63214 8.4087 6 10 6M14 6C15.5913 6 17.1174 6.63214 18.2426 7.75736C19.3679 8.88258 20 10.4087 20 12V15M2 18C2 18.2652 2.10536 18.5196 2.29289 18.7071C2.48043 18.8946 2.73478 19 3 19H21C21.2652 19 21.5196 18.8946 21.7071 18.7071C21.8946 18.5196 22 18.2652 22 18V16C22 15.7348 21.8946 15.4804 21.7071 15.2929C21.5196 15.1054 21.2652 15 21 15H3C2.73478 15 2.48043 15.1054 2.29289 15.2929C2.10536 15.4804 2 15.7348 2 16V18Z" stroke="#C533B9" stroke-width="2" stroke-linecap="round" stroke-linejoin="round"/>
</svg>
