<svg width="24" height="24" viewBox="0 0 24 24" fill="none" xmlns="http://www.w3.org/2000/svg">
<path d="M3 11H6C6.53043 11 7.03914 11.2107 7.41421 11.5858C7.78929 11.9609 8 12.4696 8 13V16C8 16.5304 7.78929 17.0391 7.41421 17.4142C7.03914 17.7893 6.53043 18 6 18H5C4.46957 18 3.96086 17.7893 3.58579 17.4142C3.21071 17.0391 3 16.5304 3 16V11ZM3 11C3 9.8181 3.23279 8.64778 3.68508 7.55585C4.13738 6.46392 4.80031 5.47177 5.63604 4.63604C6.47177 3.80031 7.46392 3.13738 8.55585 2.68508C9.64778 2.23279 10.8181 2 12 2C13.1819 2 14.3522 2.23279 15.4442 2.68508C16.5361 3.13738 17.5282 3.80031 18.364 4.63604C19.1997 5.47177 19.8626 6.46392 20.3149 7.55585C20.7672 8.64778 21 9.8181 21 11M21 11V16M21 11H18C17.4696 11 16.9609 11.2107 16.5858 11.5858C16.2107 11.9609 16 12.4696 16 13V16C16 16.5304 16.2107 17.0391 16.5858 17.4142C16.9609 17.7893 17.4696 18 18 18H19C19.5304 18 20.0391 17.7893 20.4142 17.4142C20.7893 17.0391 21 16.5304 21 16M21 16V18C21 19.0609 20.5786 20.0783 19.8284 20.8284C19.0783 21.5786 18.0609 22 17 22H12" stroke="#C533B9" stroke-width="2" stroke-linecap="round" stroke-linejoin="round"/>
</svg>
