<svg width="24" height="24" viewBox="0 0 24 24" fill="none" xmlns="http://www.w3.org/2000/svg">
<path d="M10.8201 16.1201C12.5101 16.7201 14.7301 16.9101 16.0001 16.9701C16.2801 16.9801 16.5301 16.8801 16.7001 16.7001M11.1399 20.57C11.6599 20.81 13.5799 21.69 15.2199 21.94C15.6799 22 16.0799 21.6899 16.1199 21.2299C16.2399 19.7099 15.8199 17.8 15.6199 16.95M16.1299 21.05C17.7799 21.68 19.8099 21.89 20.9999 21.96C21.1284 21.9693 21.2574 21.9509 21.3781 21.9061C21.4989 21.8612 21.6086 21.791 21.6999 21.7001M17.9901 5.52002C19.2341 6.87439 20.2933 8.38754 21.1401 10.02C21.1938 10.1382 21.2181 10.2676 21.2106 10.3973C21.2032 10.5269 21.1643 10.6527 21.0974 10.764C21.0305 10.8752 20.9375 10.9685 20.8264 11.0357C20.7154 11.103 20.5896 11.1422 20.4601 11.15C19.2901 11.25 17.9601 11.17 16.5601 10.9M20.5701 11.1399C20.8101 11.6599 21.6901 13.5799 21.9401 15.2199C21.9801 15.5199 21.8601 15.8099 21.6301 15.9699M4.92992 4.92993C3.1771 6.68311 2.138 9.02487 2.01419 11.5009C1.89039 13.9769 2.69073 16.4107 4.25992 18.3299C4.60992 18.7599 5.21992 18.7299 5.42992 18.2099C6.11992 16.4999 6.49992 13.1399 6.49992 11.4999C7.83992 11.9499 9.59992 12.3999 11.3799 12.1199C11.5616 12.0939 11.73 12.0097 11.8599 11.8799M5.52002 17.9899C6.57002 18.9399 8.43002 20.4099 10.02 21.1399C10.1382 21.1937 10.2676 21.2179 10.3973 21.2105C10.5269 21.2031 10.6527 21.1642 10.764 21.0973C10.8752 21.0303 10.9685 20.9373 11.0357 20.8263C11.103 20.7153 11.1422 20.5895 11.15 20.4599C11.35 18.1199 10.82 15.1599 9.58002 12.1799M8.3501 2.67988C10.0041 2.03338 11.8004 1.83898 13.5543 2.11667C15.3083 2.39435 16.9567 3.1341 18.3301 4.25988C18.7601 4.60988 18.7301 5.21988 18.2101 5.42988C16.7101 6.02988 13.9101 6.40988 12.1401 6.47988M2 2L22 22" stroke="#C533B9" stroke-width="2" stroke-linecap="round" stroke-linejoin="round"/>
</svg>
