<svg width="24" height="24" viewBox="0 0 24 24" fill="none" xmlns="http://www.w3.org/2000/svg">
<path d="M10.8196 16.1201C12.5096 16.7201 14.7296 16.9101 15.9996 16.9701C16.5496 17.0001 16.9996 16.5501 16.9696 16.0001C16.9096 14.7301 16.7096 12.5001 16.1196 10.8201M15.6194 16.95C15.8194 17.8 16.2394 19.7099 16.1194 21.2299C16.1112 21.337 16.0808 21.4412 16.03 21.5358C15.9792 21.6304 15.9091 21.7133 15.8244 21.7792C15.7396 21.8451 15.642 21.8926 15.5378 21.9185C15.4336 21.9445 15.3252 21.9484 15.2194 21.93C13.8063 21.655 12.4348 21.1979 11.1394 20.57M16.1294 21.0499C17.7794 21.6799 19.8094 21.8899 20.9994 21.9599C21.1278 21.9688 21.2565 21.95 21.377 21.9049C21.4975 21.8598 21.607 21.7894 21.6979 21.6984C21.7889 21.6074 21.8593 21.498 21.9044 21.3775C21.9495 21.257 21.9683 21.1282 21.9594 20.9999C21.8894 19.3424 21.5864 17.703 21.0594 16.1299M16.9395 15.6199C17.7995 15.8199 19.7095 16.2399 21.2295 16.1199C21.3365 16.1117 21.4407 16.0813 21.5353 16.0304C21.6299 15.9796 21.7128 15.9096 21.7787 15.8249C21.8446 15.7401 21.8921 15.6425 21.918 15.5383C21.944 15.4341 21.9479 15.3257 21.9295 15.2199C21.6545 13.8068 21.1974 12.4353 20.5695 11.1399M17.9895 5.52002C19.2336 6.87432 20.2928 8.38748 21.1395 10.02C21.1932 10.1382 21.2175 10.2676 21.21 10.3973C21.2026 10.5269 21.1637 10.6527 21.0968 10.764C21.0299 10.8752 20.9369 10.9685 20.8258 11.0357C20.7148 11.103 20.589 11.1422 20.4595 11.15C18.1295 11.35 15.1595 10.83 12.1895 9.58002M4.92941 4.93L2.99941 3C2.93289 2.93482 2.88004 2.85703 2.84397 2.77117C2.80789 2.68532 2.78931 2.59313 2.78931 2.5C2.78931 2.40687 2.80789 2.31468 2.84397 2.22883C2.88004 2.14297 2.93289 2.06518 2.99941 2M9.57953 12.1799C10.8195 15.1599 11.3495 18.1299 11.1495 20.4599C11.1417 20.5895 11.1025 20.7153 11.0352 20.8263C10.968 20.9373 10.8747 21.0303 10.7635 21.0973C10.6522 21.1642 10.5264 21.2031 10.3968 21.2105C10.2672 21.2179 10.1377 21.1937 10.0195 21.1399C8.387 20.2933 6.87383 19.2341 5.51953 17.9899M11.4995 6.50003C13.1395 6.50003 16.4995 6.12003 18.2095 5.43003C18.7295 5.23003 18.7595 4.61003 18.3295 4.26003C16.4099 2.69381 13.9772 1.89595 11.5028 2.02107C9.02845 2.14619 6.68863 3.18537 4.93675 4.93724C3.18488 6.68911 2.1457 9.02894 2.02058 11.5033C1.89546 13.9777 2.69332 16.4104 4.25954 18.33C4.60954 18.76 5.21954 18.73 5.42954 18.21C6.11954 16.5 6.49954 13.14 6.49954 11.5C7.83954 11.95 9.59954 12.4 11.3795 12.12C11.564 12.0902 11.7342 12.0024 11.8655 11.8693C11.9967 11.7363 12.0822 11.5649 12.1095 11.38C12.4095 9.24003 11.9595 7.88003 11.4995 6.50003Z" stroke="#C533B9" stroke-width="2" stroke-linecap="round" stroke-linejoin="round"/>
</svg>
