<svg width="24" height="24" viewBox="0 0 24 24" fill="none" xmlns="http://www.w3.org/2000/svg">
<path d="M7 11L11.08 21.35C11.1568 21.5304 11.285 21.6842 11.4486 21.7923C11.6122 21.9004 11.8039 21.9581 12 21.9581C12.1961 21.9581 12.3878 21.9004 12.5514 21.7923C12.715 21.6842 12.8432 21.5304 12.92 21.35L17 11M7 11H17M7 11C6.46957 11 5.96086 10.7893 5.58579 10.4142C5.21071 10.0391 5 9.53043 5 9C5 8.46957 5.21071 7.96086 5.58579 7.58579C5.96086 7.21071 6.46957 7 7 7C7 5.67392 7.52678 4.40215 8.46447 3.46447C9.40215 2.52678 10.6739 2 12 2C13.3261 2 14.5979 2.52678 15.5355 3.46447C16.4732 4.40215 17 5.67392 17 7C17.5304 7 18.0391 7.21071 18.4142 7.58579C18.7893 7.96086 19 8.46957 19 9C19 9.53043 18.7893 10.0391 18.4142 10.4142C18.0391 10.7893 17.5304 11 17 11" stroke="#C533B9" stroke-width="2" stroke-linecap="round" stroke-linejoin="round"/>
</svg>
