<svg width="24" height="24" viewBox="0 0 24 24" fill="none" xmlns="http://www.w3.org/2000/svg">
<path d="M8 20.9999H16M12 17.9999V20.9999M5.14 10.9999C4.9848 10.4776 4.95367 9.92633 5.0491 9.3899C5.14454 8.85347 5.36389 8.34673 5.6897 7.91002C6.01551 7.47331 6.43877 7.1187 6.9258 6.87442C7.41282 6.63013 7.95015 6.50293 8.495 6.50293C9.03985 6.50293 9.57718 6.63013 10.0642 6.87442C10.5512 7.1187 10.9745 7.47331 11.3003 7.91002C11.6261 8.34673 11.8455 8.85347 11.9409 9.3899C12.0363 9.92633 12.0052 10.4776 11.85 10.9999M12.1401 10.9999C11.9849 10.4776 11.9538 9.92633 12.0492 9.3899C12.1447 8.85347 12.364 8.34673 12.6898 7.91002C13.0156 7.47331 13.4389 7.1187 13.9259 6.87442C14.4129 6.63013 14.9503 6.50293 15.4951 6.50293C16.04 6.50293 16.5773 6.63013 17.0643 6.87442C17.5513 7.1187 17.9746 7.47331 18.3004 7.91002C18.6262 8.34673 18.8456 8.85347 18.941 9.3899C19.0364 9.92633 19.0053 10.4776 18.8501 10.9999M15.5 6.5C15.5 6.04037 15.4095 5.58525 15.2336 5.16061C15.0577 4.73597 14.7999 4.35013 14.4749 4.02513C14.1499 3.70012 13.764 3.44231 13.3394 3.26642C12.9148 3.09053 12.4596 3 12 3C11.5404 3 11.0852 3.09053 10.6606 3.26642C10.236 3.44231 9.85013 3.70012 9.52513 4.02513C9.20012 4.35013 8.94231 4.73597 8.76642 5.16061C8.59053 5.58525 8.5 6.04037 8.5 6.5M12 16.9999C17 16.9999 20 14.3099 20 10.9999H4C4 14.3099 7 16.9999 12 16.9999Z" stroke="#C533B9" stroke-width="2" stroke-linecap="round" stroke-linejoin="round"/>
</svg>
