<svg width="24" height="24" viewBox="0 0 24 24" fill="none" xmlns="http://www.w3.org/2000/svg">
<path d="M18 22H4C3.46957 22 2.96086 21.7893 2.58579 21.4142C2.21071 21.0391 2 20.5304 2 20V6M22 13L20.704 11.704C20.252 11.2522 19.6391 10.9983 19 10.9983C18.3609 10.9983 17.748 11.2522 17.296 11.704L11 18M14 8C14 9.10457 13.1046 10 12 10C10.8954 10 10 9.10457 10 8C10 6.89543 10.8954 6 12 6C13.1046 6 14 6.89543 14 8ZM8 2H20C21.1046 2 22 2.89543 22 4V16C22 17.1046 21.1046 18 20 18H8C6.89543 18 6 17.1046 6 16V4C6 2.89543 6.89543 2 8 2Z" stroke="#C533B9" stroke-width="2" stroke-linecap="round" stroke-linejoin="round"/>
</svg>
