<svg width="24" height="24" viewBox="0 0 24 24" fill="none" xmlns="http://www.w3.org/2000/svg">
<path d="M2 2L22 22M10.41 10.4101C10.2242 10.5959 10.0036 10.7433 9.7608 10.8439C9.51802 10.9444 9.2578 10.9962 8.99501 10.9962C8.73222 10.9962 8.472 10.9444 8.22922 10.8439C7.98643 10.7433 7.76583 10.5959 7.58001 10.4101C7.39419 10.2243 7.24679 10.0037 7.14622 9.76087C7.04566 9.51808 6.9939 9.25787 6.9939 8.99508C6.9939 8.73229 7.04566 8.47207 7.14622 8.22929C7.24679 7.9865 7.39419 7.7659 7.58001 7.58008M13.5 13.5L6 21M18 12L21 15V5C21 4.46957 20.7893 3.96086 20.4142 3.58579C20.0391 3.21071 19.5304 3 19 3H9M3.59 3.59009C3.40358 3.77463 3.25548 3.9942 3.15423 4.23618C3.05298 4.47817 3.00056 4.73778 3 5.00009V19.0001C3 19.5305 3.21071 20.0392 3.58579 20.4143C3.96086 20.7894 4.46957 21.0001 5 21.0001H19C19.55 21.0001 20.052 20.7801 20.41 20.4101" stroke="#C533B9" stroke-width="2" stroke-linecap="round" stroke-linejoin="round"/>
</svg>
