<svg width="24" height="24" viewBox="0 0 24 24" fill="none" xmlns="http://www.w3.org/2000/svg">
<path d="M12 12C10 9.33 8 8 6 8C4.93913 8 3.92172 8.42143 3.17157 9.17157C2.42143 9.92172 2 10.9391 2 12C2 13.0609 2.42143 14.0783 3.17157 14.8284C3.92172 15.5786 4.93913 16 6 16C8 16 10 14.67 12 12ZM12 12C14 14.67 16 16 18 16C19.0609 16 20.0783 15.5786 20.8284 14.8284C21.5786 14.0783 22 13.0609 22 12C22 10.9391 21.5786 9.92172 20.8284 9.17157C20.0783 8.42143 19.0609 8 18 8C16 8 14 9.33 12 12Z" stroke="#C533B9" stroke-width="2" stroke-linecap="round" stroke-linejoin="round"/>
</svg>
