<svg width="24" height="24" viewBox="0 0 24 24" fill="none" xmlns="http://www.w3.org/2000/svg">
<path d="M11.999 8L17.999 5L11.999 2V12M7.99914 11.99L2.49914 15.13C2.34524 15.2172 2.21723 15.3437 2.12817 15.4965C2.03911 15.6494 1.99219 15.8231 1.99219 16C1.99219 16.1769 2.03911 16.3506 2.12817 16.5035C2.21723 16.6563 2.34524 16.7828 2.49914 16.87L10.9991 21.73C11.3032 21.9055 11.6481 21.9979 11.9991 21.9979C12.3502 21.9979 12.6951 21.9055 12.9991 21.73L21.4991 16.87C21.653 16.7828 21.781 16.6563 21.8701 16.5035C21.9592 16.3506 22.0061 16.1769 22.0061 16C22.0061 15.8231 21.9592 15.6494 21.8701 15.4965C21.781 15.3437 21.653 15.2172 21.4991 15.13L15.9991 12M6.48901 12.8501L17.509 19.1501M17.509 12.8501L6.49902 19.1501" stroke="#C533B9" stroke-width="2" stroke-linecap="round" stroke-linejoin="round"/>
</svg>
