<svg width="24" height="24" viewBox="0 0 24 24" fill="none" xmlns="http://www.w3.org/2000/svg">
<path d="M20.0003 16V7C20.0003 6.46957 19.7896 5.96086 19.4145 5.58579C19.0394 5.21071 18.5307 5 18.0003 5H6.00027C5.46983 5 4.96112 5.21071 4.58605 5.58579C4.21098 5.96086 4.00027 6.46957 4.00027 7V16M20.0003 16H4.00027M20.0003 16L21.2803 18.55C21.3574 18.703 21.3939 18.8732 21.3863 19.0444C21.3787 19.2155 21.3272 19.3818 21.2369 19.5274C21.1465 19.6729 21.0203 19.7928 20.8703 19.8756C20.7203 19.9584 20.5516 20.0012 20.3803 20H3.62027C3.44895 20.0012 3.28021 19.9584 3.13021 19.8756C2.98021 19.7928 2.85399 19.6729 2.76364 19.5274C2.6733 19.3818 2.62186 19.2155 2.61426 19.0444C2.60667 18.8732 2.64317 18.703 2.72027 18.55L4.00027 16" stroke="#C533B9" stroke-width="2" stroke-linecap="round" stroke-linejoin="round"/>
</svg>
