<svg width="24" height="24" viewBox="0 0 24 24" fill="none" xmlns="http://www.w3.org/2000/svg">
<path d="M9 9H9.01M15 9H15.01M22 12C22 17.5228 17.5228 22 12 22C6.47715 22 2 17.5228 2 12C2 6.47715 6.47715 2 12 2C17.5228 2 22 6.47715 22 12ZM18 13C17.7614 14.4124 17.0254 15.6929 15.9249 16.6099C14.8245 17.5269 13.4323 18.02 12 18C10.5677 18.02 9.1755 17.5269 8.07507 16.6099C6.97464 15.6929 6.2386 14.4124 6 13H18Z" stroke="#C533B9" stroke-width="2" stroke-linecap="round" stroke-linejoin="round"/>
</svg>
