<svg width="24" height="24" viewBox="0 0 24 24" fill="none" xmlns="http://www.w3.org/2000/svg">
<path d="M6.08045 9.5L2.58045 11.1C2.40865 11.1808 2.26339 11.3087 2.16164 11.469C2.05989 11.6293 2.00586 11.8152 2.00586 12.005C2.00586 12.1948 2.05989 12.3807 2.16164 12.541C2.26339 12.7013 2.40865 12.8292 2.58045 12.91L11.1804 16.82C11.4396 16.9374 11.7209 16.9981 12.0054 16.9981C12.29 16.9981 12.5712 16.9374 12.8304 16.82L21.4104 12.92C21.5879 12.8418 21.7388 12.7136 21.8447 12.5511C21.9506 12.3887 22.007 12.1989 22.007 12.005C22.007 11.8111 21.9506 11.6213 21.8447 11.4589C21.7388 11.2964 21.5879 11.1682 21.4104 11.09L17.9104 9.5M6.08045 14.5L2.58045 16.1C2.40865 16.1808 2.26339 16.3087 2.16164 16.469C2.05989 16.6293 2.00586 16.8152 2.00586 17.005C2.00586 17.1948 2.05989 17.3807 2.16164 17.541C2.26339 17.7013 2.40865 17.8292 2.58045 17.91L11.1804 21.82C11.4396 21.9374 11.7209 21.9981 12.0054 21.9981C12.29 21.9981 12.5712 21.9374 12.8304 21.82L21.4104 17.92C21.5879 17.8418 21.7388 17.7136 21.8447 17.5511C21.9506 17.3887 22.007 17.1989 22.007 17.005C22.007 16.8111 21.9506 16.6213 21.8447 16.4589C21.7388 16.2964 21.5879 16.1682 21.4104 16.09L17.9104 14.5M12.8305 2.18011C12.5699 2.06126 12.2868 1.99976 12.0005 1.99976C11.7141 1.99976 11.431 2.06126 11.1705 2.18011L2.60045 6.08011C2.423 6.15836 2.27213 6.28651 2.16621 6.44897C2.0603 6.61143 2.00391 6.80118 2.00391 6.99511C2.00391 7.18905 2.0603 7.3788 2.16621 7.54126C2.27213 7.70371 2.423 7.83187 2.60045 7.91011L11.1805 11.8201C11.441 11.939 11.7241 12.0005 12.0105 12.0005C12.2968 12.0005 12.5799 11.939 12.8405 11.8201L21.4205 7.92011C21.5979 7.84187 21.7488 7.71371 21.8547 7.55126C21.9606 7.3888 22.017 7.19905 22.017 7.00511C22.017 6.81118 21.9606 6.62143 21.8547 6.45897C21.7488 6.29651 21.5979 6.16836 21.4205 6.09011L12.8305 2.18011Z" stroke="#C533B9" stroke-width="2" stroke-linecap="round" stroke-linejoin="round"/>
</svg>
