<svg width="24" height="24" viewBox="0 0 24 24" fill="none" xmlns="http://www.w3.org/2000/svg">
<path d="M2 21C2 18 3.85 15.64 7.08 15C9.5 14.52 12 13 13 12M11 20C9.24404 20.0053 7.55023 19.3505 6.2545 18.1654C4.95876 16.9803 4.15575 15.3515 4.00471 13.6021C3.85368 11.8527 4.36567 10.1104 5.43913 8.72074C6.51259 7.33112 8.06911 6.3957 9.79998 6.1C15.5 5 17 4.48 19 2C20 4 21 6.18 21 10C21 15.5 16.22 20 11 20Z" stroke="#C533B9" stroke-width="2" stroke-linecap="round" stroke-linejoin="round"/>
</svg>
