<svg width="24" height="24" viewBox="0 0 24 24" fill="none" xmlns="http://www.w3.org/2000/svg">
<path d="M2.00053 22C3.25053 21.013 4.27053 20.025 5.90053 19.8C7.31166 19.7997 8.67011 20.3359 9.70053 21.3C10.2353 21.6746 10.8536 21.9126 11.5015 21.9933C12.1494 22.0739 12.8072 21.9947 13.4174 21.7626C14.0277 21.5306 14.5718 21.1526 15.0024 20.6618C15.433 20.171 15.7369 19.5823 15.8875 18.947C16.5363 19.0627 17.2046 18.9928 17.8155 18.7455C18.4264 18.4981 18.955 18.0833 19.3405 17.5488C19.726 17.0143 19.9528 16.3818 19.9947 15.7241C20.0367 15.0664 19.8921 14.4102 19.5775 13.831C20.1508 13.6458 20.6665 13.3158 21.0749 12.8729C21.4832 12.4299 21.7703 11.8891 21.9084 11.3027C22.0465 10.7163 22.0308 10.1042 21.863 9.52564C21.6952 8.94705 21.3809 8.42157 20.9505 8.00004C21.2756 7.67502 21.5334 7.28916 21.7093 6.8645C21.8852 6.43984 21.9757 5.98469 21.9757 5.52504C21.9757 5.06539 21.8852 4.61024 21.7093 4.18558C21.5334 3.76092 21.2756 3.37506 20.9505 3.05004C20.6255 2.72502 20.2397 2.4672 19.815 2.2913C19.3903 2.1154 18.9352 2.02486 18.4755 2.02486C17.5472 2.02486 16.6569 2.39363 16.0005 3.05004C15.579 2.61965 15.0535 2.30534 14.4749 2.13754C13.8963 1.96974 13.2842 1.95412 12.6978 2.09219C12.1115 2.23027 11.5706 2.51736 11.1277 2.9257C10.6848 3.33403 10.3547 3.84978 10.1695 4.42304C9.59038 4.10852 8.9342 3.96391 8.2765 4.00584C7.61879 4.04778 6.98629 4.27456 6.45177 4.66009C5.91726 5.04561 5.50245 5.57422 5.25509 6.18508C5.00773 6.79594 4.93787 7.46423 5.05353 8.11304C4.42379 8.2664 3.84075 8.5705 3.35459 8.99915C2.86843 9.4278 2.49372 9.96818 2.2627 10.5738C2.03169 11.1793 1.95129 11.832 2.02843 12.4755C2.10557 13.1191 2.33794 13.7342 2.70553 14.268C3.49953 15.42 4.40953 16.712 4.20053 18.1C3.92653 19.743 3.01453 20.732 2.00053 22ZM2.00053 22L17.0005 7" stroke="#C533B9" stroke-width="2" stroke-linecap="round" stroke-linejoin="round"/>
</svg>
