<svg width="24" height="24" viewBox="0 0 24 24" fill="none" xmlns="http://www.w3.org/2000/svg">
<path d="M10.0002 13C10.4297 13.5741 10.9776 14.0491 11.6068 14.3929C12.236 14.7367 12.9318 14.9411 13.6469 14.9923C14.362 15.0435 15.0798 14.9403 15.7516 14.6897C16.4233 14.4392 17.0334 14.047 17.5402 13.54L20.5402 10.54C21.451 9.59695 21.955 8.33394 21.9436 7.02296C21.9322 5.71198 21.4064 4.45791 20.4793 3.53087C19.5523 2.60383 18.2982 2.07799 16.9872 2.0666C15.6763 2.0552 14.4133 2.55918 13.4702 3.46997L11.7502 5.17997M14.0002 11C13.5707 10.4259 13.0228 9.9508 12.3936 9.60704C11.7645 9.26328 11.0687 9.05886 10.3535 9.00765C9.63841 8.95643 8.92061 9.05961 8.24885 9.3102C7.5771 9.56079 6.96709 9.95291 6.4602 10.46L3.4602 13.46C2.54941 14.403 2.04544 15.666 2.05683 16.977C2.06822 18.288 2.59407 19.542 3.52111 20.4691C4.44815 21.3961 5.70221 21.922 7.01319 21.9334C8.32418 21.9447 9.58719 21.4408 10.5302 20.53L12.2402 18.82" stroke="#C533B9" stroke-width="2" stroke-linecap="round" stroke-linejoin="round"/>
</svg>
