<svg width="24" height="24" viewBox="0 0 24 24" fill="none" xmlns="http://www.w3.org/2000/svg">
<path d="M19 11C19 15.4183 15.4183 19 11 19C6.58172 19 3 15.4183 3 11C3 6.58172 6.58172 3 11 3C15.4183 3 19 6.58172 19 11ZM19 11C19 12.5913 18.3679 14.1174 17.2426 15.2426C16.1174 16.3679 14.5913 17 13 17C11.4087 17 9.88258 16.3679 8.75736 15.2426C7.63214 14.1174 7 12.5913 7 11C7 9.93913 7.42143 8.92172 8.17157 8.17157C8.92172 7.42143 9.93913 7 11 7C12.0609 7 13.0783 7.42143 13.8284 8.17157C14.5786 8.92172 15 9.93913 15 11C15 11.5304 14.7893 12.0391 14.4142 12.4142C14.0391 12.7893 13.5304 13 13 13C12.4696 13 11.9609 12.7893 11.5858 12.4142C11.2107 12.0391 11 11.5304 11 11M21 21L16.7 16.7" stroke="#C533B9" stroke-width="2" stroke-linecap="round" stroke-linejoin="round"/>
</svg>
