<svg width="24" height="24" viewBox="0 0 24 24" fill="none" xmlns="http://www.w3.org/2000/svg">
<path d="M6 20C5.46957 20 4.96086 19.7893 4.58579 19.4142C4.21071 19.0391 4 18.5304 4 18V8C4 7.46957 4.21071 6.96086 4.58579 6.58579C4.96086 6.21071 5.46957 6 6 6H18C18.5304 6 19.0391 6.21071 19.4142 6.58579C19.7893 6.96086 20 7.46957 20 8V18C20 18.5304 19.7893 19.0391 19.4142 19.4142C19.0391 19.7893 18.5304 20 18 20M6 20C6 21.1046 6.89543 22 8 22C9.10457 22 10 21.1046 10 20M6 20C6 18.8954 6.89543 18 8 18M18 20C18 21.1046 17.1046 22 16 22C14.8954 22 14 21.1046 14 20M18 20C18 18.8954 17.1046 18 16 18M8 18V4C8 3.46957 8.21071 2.96086 8.58579 2.58579C8.96086 2.21071 9.46957 2 10 2H14C14.5304 2 15.0391 2.21071 15.4142 2.58579C15.7893 2.96086 16 3.46957 16 4V18M8 18C9.10457 18 10 18.8954 10 20M16 18C14.8954 18 14 18.8954 14 20M10 20H14" stroke="#C533B9" stroke-width="2" stroke-linecap="round" stroke-linejoin="round"/>
</svg>
