<svg width="24" height="24" viewBox="0 0 24 24" fill="none" xmlns="http://www.w3.org/2000/svg">
<path d="M6.5 5C4 5 2 7 2 9.5V17C2 17.5304 2.21071 18.0391 2.58579 18.4142C2.96086 18.7893 3.46957 19 4 19H20C20.5304 19 21.0391 18.7893 21.4142 18.4142C21.7893 18.0391 22 17.5304 22 17V9C22 6.8 20.2 5 18 5H6.5ZM6.5 5C9 5 11 7 11 9.5V17C11 17.5304 10.7893 18.0391 10.4142 18.4142C10.0391 18.7893 9.53043 19 9 19M15 9H18V11M6 10H7" stroke="#C533B9" stroke-width="2" stroke-linecap="round" stroke-linejoin="round"/>
</svg>
