<svg width="24" height="24" viewBox="0 0 24 24" fill="none" xmlns="http://www.w3.org/2000/svg">
<path d="M22 12.5V6C22 5.46957 21.7893 4.96086 21.4142 4.58579C21.0391 4.21071 20.5304 4 20 4H4C3.46957 4 2.96086 4.21071 2.58579 4.58579C2.21071 4.96086 2 5.46957 2 6V18C2 19.1 2.9 20 4 20H11.5M22 7L13.03 12.7C12.7213 12.8934 12.3643 12.996 12 12.996C11.6357 12.996 11.2787 12.8934 10.97 12.7L2 7M18 21C18.7956 21 19.5587 20.6839 20.1213 20.1213C20.6839 19.5587 21 18.7956 21 18M18 21C17.2044 21 16.4413 20.6839 15.8787 20.1213C15.3161 19.5587 15 18.7956 15 18M18 21C19.6569 21 21 19.6569 21 18M18 21C16.3431 21 15 19.6569 15 18M21 18C21 17.2044 20.6839 16.4413 20.1213 15.8787C19.5587 15.3161 18.7956 15 18 15M21 18C21 16.3431 19.6569 15 18 15M18 15C17.2044 15 16.4413 15.3161 15.8787 15.8787C15.3161 16.4413 15 17.2044 15 18M18 15C16.3431 15 15 16.3431 15 18M22 22L20.5 20.5" stroke="#C533B9" stroke-width="2" stroke-linecap="round" stroke-linejoin="round"/>
</svg>
