<svg width="24" height="24" viewBox="0 0 24 24" fill="none" xmlns="http://www.w3.org/2000/svg">
<path d="M7.20947 15L2.65947 7.14C2.46327 6.80087 2.371 6.41159 2.39411 6.02048C2.41722 5.62937 2.5547 5.25366 2.78947 4.94L4.39947 2.8C4.58576 2.55161 4.82733 2.35 5.10504 2.21115C5.38275 2.07229 5.68898 2 5.99947 2H17.9995C18.31 2 18.6162 2.07229 18.8939 2.21115C19.1716 2.35 19.4132 2.55161 19.5995 2.8L21.1995 4.94C21.4358 5.25265 21.575 5.62784 21.5999 6.01897C21.6248 6.4101 21.5343 6.79992 21.3395 7.14L16.7895 15M10.9996 12L5.11963 2.19995M12.9995 12L18.8795 2.19995M7.99951 7H15.9995M11.9995 18V16H11.4995M16.9995 17C16.9995 19.7614 14.7609 22 11.9995 22C9.23809 22 6.99951 19.7614 6.99951 17C6.99951 14.2386 9.23809 12 11.9995 12C14.7609 12 16.9995 14.2386 16.9995 17Z" stroke="#C533B9" stroke-width="2" stroke-linecap="round" stroke-linejoin="round"/>
</svg>
