<svg width="24" height="24" viewBox="0 0 24 24" fill="none" xmlns="http://www.w3.org/2000/svg">
<path d="M6 19V16M10 19V16M14 19V16M18 19V16M8 11V9M16 11V9M12 11V9M2 15H22M2 7C2 6.46957 2.21071 5.96086 2.58579 5.58579C2.96086 5.21071 3.46957 5 4 5H20C20.5304 5 21.0391 5.21071 21.4142 5.58579C21.7893 5.96086 22 6.46957 22 7V8.1C21.5858 8.22202 21.2222 8.47483 20.9635 8.82063C20.7049 9.16644 20.5651 9.58667 20.5651 10.0185C20.5651 10.4503 20.7049 10.8706 20.9635 11.2164C21.2222 11.5622 21.5858 11.815 22 11.937V17C22 17.5304 21.7893 18.0391 21.4142 18.4142C21.0391 18.7893 20.5304 19 20 19H4C3.46957 19 2.96086 18.7893 2.58579 18.4142C2.21071 18.0391 2 17.5304 2 17V11.9C2.41423 11.778 2.77784 11.5252 3.03648 11.1794C3.29512 10.8336 3.43488 10.4133 3.43488 9.9815C3.43488 9.54967 3.29512 9.12944 3.03648 8.78363C2.77784 8.43783 2.41423 8.18502 2 8.063V7Z" stroke="#C533B9" stroke-width="2" stroke-linecap="round" stroke-linejoin="round"/>
</svg>
