<svg width="24" height="24" viewBox="0 0 24 24" fill="none" xmlns="http://www.w3.org/2000/svg">
<path d="M15.8001 9.19999C15.3328 8.74193 14.7045 8.48535 14.0501 8.48535C13.3958 8.48535 12.7675 8.74193 12.3001 9.19999L12.0001 9.59999L11.6501 9.29999C11.4209 9.05186 11.1422 8.85447 10.8321 8.72054C10.5219 8.5866 10.1872 8.51908 9.84938 8.52233C9.51157 8.52557 9.17818 8.59951 8.87067 8.73938C8.56316 8.87926 8.28835 9.08196 8.06391 9.33446C7.83947 9.58695 7.67038 9.88364 7.56752 10.2054C7.46467 10.5272 7.43033 10.867 7.46671 11.2028C7.50309 11.5387 7.60939 11.8632 7.77877 12.1555C7.94814 12.4478 8.17684 12.7014 8.45014 12.9L12.0501 16.4L15.6501 12.9C16.8501 11.7 16.7501 10.2 15.8501 9.19999M7.9 20C9.80858 20.9791 12.0041 21.2443 14.0909 20.7478C16.1777 20.2514 18.0186 19.0259 19.2818 17.2922C20.545 15.5586 21.1474 13.4308 20.9806 11.2922C20.8137 9.15366 19.8886 7.14502 18.3718 5.62824C16.855 4.11146 14.8464 3.1863 12.7078 3.01946C10.5693 2.85263 8.44147 3.45509 6.70782 4.71829C4.97417 5.98149 3.74869 7.82236 3.25222 9.90916C2.75575 11.996 3.02094 14.1915 4 16.1L2 22L7.9 20Z" stroke="#C533B9" stroke-width="2" stroke-linecap="round" stroke-linejoin="round"/>
</svg>
