<svg width="24" height="24" viewBox="0 0 24 24" fill="none" xmlns="http://www.w3.org/2000/svg">
<path d="M21 15C21 15.5304 20.7893 16.0391 20.4142 16.4142C20.0391 16.7893 19.5304 17 19 17H7L3 21V5C3 4.46957 3.21071 3.96086 3.58579 3.58579C3.96086 3.21071 4.46957 3 5 3H19C19.5304 3 20.0391 3.21071 20.4142 3.58579C20.7893 3.96086 21 4.46957 21 5V15Z" stroke="#C533B9" stroke-width="2" stroke-linecap="round" stroke-linejoin="round"/>
<path d="M14.7999 7.50001C14.4549 7.1556 13.9874 6.96216 13.4999 6.96216C13.0124 6.96216 12.5449 7.1556 12.1999 7.50001L11.9999 7.80001L11.6999 7.50001C11.5161 7.34242 11.303 7.22259 11.0728 7.14735C10.8427 7.07212 10.5999 7.04296 10.3585 7.06153C10.1171 7.0801 9.88165 7.14604 9.6657 7.25559C9.44976 7.36514 9.2575 7.51616 9.09992 7.70001C8.94233 7.88386 8.8225 8.09695 8.74726 8.32711C8.67203 8.55727 8.64287 8.79999 8.66144 9.04143C8.68001 9.28286 8.74595 9.51827 8.8555 9.73422C8.96505 9.95016 9.11606 10.1424 9.29992 10.3L11.9999 13L14.6999 10.3C15.5999 9.40001 15.4999 8.20001 14.7999 7.50001Z" stroke="#C533B9" stroke-width="2" stroke-linecap="round" stroke-linejoin="round"/>
</svg>
