<svg width="24" height="24" viewBox="0 0 24 24" fill="none" xmlns="http://www.w3.org/2000/svg">
<path d="M13.5 3.1C13 3.1 12.5 3 12 3C11.5 3 11 3.1 10.5 3.1M19.3002 6.79995C18.7037 6.00355 17.9966 5.29641 17.2002 4.69995M20.8999 13.5C20.9999 13 20.9999 12.5 20.9999 12C20.9999 11.5 20.8999 11 20.8999 10.5M17.2002 19.2999C17.9966 18.7035 18.7037 17.9964 19.3002 17.2M10.5 20.8999C11 20.9999 11.5 20.9999 12 20.9999C12.5 20.9999 13 20.8999 13.5 20.8999M3.5 17.5L2 22L6.5 20.5M3.1 10.5C3.1 11 3 11.5 3 12C3 12.5 3.1 13 3.1 13.5M6.8002 4.69995C6.00379 5.29641 5.29665 6.00355 4.7002 6.79995" stroke="#C533B9" stroke-width="2" stroke-linecap="round" stroke-linejoin="round"/>
</svg>
