<svg width="24" height="24" viewBox="0 0 24 24" fill="none" xmlns="http://www.w3.org/2000/svg">
<path d="M12.0008 8L2.96079 17.06C2.67145 17.3147 2.43739 17.6259 2.27305 17.9746C2.10872 18.3232 2.01761 18.7019 2.00534 19.0871C1.99307 19.4724 2.0599 19.856 2.20172 20.2144C2.34353 20.5728 2.55732 20.8984 2.82987 21.1709C3.10241 21.4435 3.42794 21.6573 3.78635 21.7991C4.14475 21.9409 4.52843 22.0077 4.91367 21.9955C5.29892 21.9832 5.67756 21.8921 6.02622 21.7277C6.37487 21.5634 6.68614 21.3293 6.94079 21.04L16.0008 12M22.0007 7C22.0007 9.76142 19.7622 12 17.0007 12C14.2393 12 12.0007 9.76142 12.0007 7C12.0007 4.23858 14.2393 2 17.0007 2C19.7622 2 22.0007 4.23858 22.0007 7Z" stroke="#C533B9" stroke-width="2" stroke-linecap="round" stroke-linejoin="round"/>
</svg>
