<svg width="24" height="24" viewBox="0 0 24 24" fill="none" xmlns="http://www.w3.org/2000/svg">
<path d="M6 18H14M3 22H21M14 22C15.8565 22 17.637 21.2625 18.9497 19.9497C20.2625 18.637 21 16.8565 21 15C21 13.1435 20.2625 11.363 18.9497 10.0503C17.637 8.7375 15.8565 8 14 8H13M9 14H11M12 6V3C12 2.73478 11.8946 2.48043 11.7071 2.29289C11.5196 2.10536 11.2652 2 11 2H9C8.73478 2 8.48043 2.10536 8.29289 2.29289C8.10536 2.48043 8 2.73478 8 3V6M9 12C8.46957 12 7.96086 11.7893 7.58579 11.4142C7.21071 11.0391 7 10.5304 7 10V6H13V10C13 10.5304 12.7893 11.0391 12.4142 11.4142C12.0391 11.7893 11.5304 12 11 12H9Z" stroke="#C533B9" stroke-width="2" stroke-linecap="round" stroke-linejoin="round"/>
</svg>
