<svg width="24" height="24" viewBox="0 0 24 24" fill="none" xmlns="http://www.w3.org/2000/svg">
<path d="M8 2H16M9 2V4.789C8.99998 5.57879 8.76616 6.3509 8.328 7.008L7.672 7.992C7.23366 8.64939 6.99982 9.42187 7 10.212V20C7 20.5304 7.21071 21.0391 7.58579 21.4142C7.96086 21.7893 8.46957 22 9 22H15C15.5304 22 16.0391 21.7893 16.4142 21.4142C16.7893 21.0391 17 20.5304 17 20V10.211C17 9.42121 16.7662 8.6491 16.328 7.992L15.672 7.008C15.2337 6.35061 14.9998 5.57813 15 4.788V2M7 14.9999C7.79177 14.6683 8.6416 14.4976 9.5 14.4976C10.3584 14.4976 11.2082 14.6683 12 14.9999C12.7917 15.3316 13.6416 15.5024 14.5 15.5024C15.3584 15.5024 16.2083 15.3316 17 14.9999" stroke="#C533B9" stroke-width="2" stroke-linecap="round" stroke-linejoin="round"/>
</svg>
