<svg width="24" height="24" viewBox="0 0 24 24" fill="none" xmlns="http://www.w3.org/2000/svg">
<path d="M5 16V13C5 12.7348 5.10536 12.4804 5.29289 12.2929C5.48043 12.1054 5.73478 12 6 12H18C18.2652 12 18.5196 12.1054 18.7071 12.2929C18.8946 12.4804 19 12.7348 19 13V16M12 12V8M17 16H21C21.5523 16 22 16.4477 22 17V21C22 21.5523 21.5523 22 21 22H17C16.4477 22 16 21.5523 16 21V17C16 16.4477 16.4477 16 17 16ZM3 16H7C7.55228 16 8 16.4477 8 17V21C8 21.5523 7.55228 22 7 22H3C2.44772 22 2 21.5523 2 21V17C2 16.4477 2.44772 16 3 16ZM10 2H14C14.5523 2 15 2.44772 15 3V7C15 7.55228 14.5523 8 14 8H10C9.44772 8 9 7.55228 9 7V3C9 2.44772 9.44772 2 10 2Z" stroke="#C533B9" stroke-width="2" stroke-linecap="round" stroke-linejoin="round"/>
</svg>
