<svg width="24" height="24" viewBox="0 0 24 24" fill="none" xmlns="http://www.w3.org/2000/svg">
<path d="M13.4 2H6C5.46957 2 4.96086 2.21071 4.58579 2.58579C4.21071 2.96086 4 3.46957 4 4V20C4 20.5304 4.21071 21.0391 4.58579 21.4142C4.96086 21.7893 5.46957 22 6 22H18C18.5304 22 19.0391 21.7893 19.4142 21.4142C19.7893 21.0391 20 20.5304 20 20V12.6M2 6H6M2 10H6M2 14H6M2 18H6M18.4 2.59999C18.8168 2.33093 19.3133 2.21284 19.8066 2.26538C20.3 2.31793 20.7604 2.53794 21.1112 2.88876C21.4621 3.23957 21.6821 3.70001 21.7346 4.19336C21.7872 4.6867 21.6691 5.18315 21.4 5.59999L16 11L12 12L13 7.99999L18.4 2.59999Z" stroke="#C533B9" stroke-width="2" stroke-linecap="round" stroke-linejoin="round"/>
</svg>
