<svg width="24" height="24" viewBox="0 0 24 24" fill="none" xmlns="http://www.w3.org/2000/svg">
<path d="M12 4V2M12 4C16 4 19.5 6 20 8C20.242 8.97 20.703 9.964 22 11C20.683 11.157 20.032 10.916 19 10M12 4C11.26 4 10.539 4.068 9.85 4.192M5 10V14C5.00017 15.5569 5.51905 17.0693 6.47468 18.2984C7.4303 19.5275 8.7682 20.4031 10.277 20.787C10.689 20.891 11.079 21.079 11.379 21.379L12 22L12.621 21.379C12.921 21.079 13.311 20.891 13.723 20.787C15.4162 20.3557 16.8873 19.3075 17.848 17.848M5 10C5.54 10.92 5.982 11.356 7 12C8.452 11.353 8.954 10.902 9.5 10C10.095 10.995 10.651 11.427 12 12M5 10C3.972 10.71 3.31 10.918 2 11C3.081 9.952 3.757 8.97 4 8C4.194 7.224 4.84 6.449 5.79 5.79M19 10V13.343M19 10C18.724 10.896 18.331 11.33 17.444 11.787M2 2L22 22" stroke="#C533B9" stroke-width="2" stroke-linecap="round" stroke-linejoin="round"/>
</svg>
