<svg width="24" height="24" viewBox="0 0 24 24" fill="none" xmlns="http://www.w3.org/2000/svg">
<path d="M12 4V2M12 4C8 4 4.5 6 4 8C3.757 8.97 3.081 9.952 2 11C3.31 10.918 3.972 10.71 5 10M12 4C16 4 19.5 6 20 8C20.242 8.97 20.703 9.964 22 11C20.683 11.157 20.032 10.916 19 10M5 10V14C5.00017 15.5569 5.51905 17.0693 6.47468 18.2984C7.4303 19.5275 8.7682 20.4031 10.277 20.787C10.689 20.891 11.079 21.079 11.379 21.379L12 22L12.621 21.379C12.921 21.079 13.311 20.891 13.723 20.787C15.2319 20.4033 16.5699 19.5277 17.5255 18.2986C18.4812 17.0694 19 15.5569 19 14V10M5 10C5.54 10.92 5.982 11.356 7 12C8.452 11.353 8.954 10.902 9.5 10C10.095 10.995 10.651 11.427 12 12C13.31 11.379 13.862 10.942 14.5 10C15.129 10.977 15.662 11.423 17 12C18.209 11.452 18.68 11.033 19 10" stroke="#C533B9" stroke-width="2" stroke-linecap="round" stroke-linejoin="round"/>
</svg>
