<svg width="24" height="24" viewBox="0 0 24 24" fill="none" xmlns="http://www.w3.org/2000/svg">
<g clip-path="url(#clip0_1196_3535)">
<path d="M10.3997 21.8999C12.3224 22.2158 14.2956 21.9631 16.0767 21.1729C17.8578 20.3826 19.3692 19.0892 20.4252 17.4516C21.4812 15.814 22.0358 13.9036 22.0207 11.9551C22.0057 10.0066 21.4218 8.105 20.3407 6.48389M13.4998 2.09996C11.5849 1.80754 9.62631 2.07757 7.86198 2.87726C6.09765 3.67694 4.60356 4.97184 3.56126 6.60461C2.51896 8.23739 1.97332 10.1377 1.99063 12.0748C2.00795 14.0118 2.58749 15.9021 3.65882 17.516M14.9998 12C14.9998 13.6569 13.6566 15 11.9998 15C10.3429 15 8.99976 13.6569 8.99976 12C8.99976 10.3431 10.3429 9 11.9998 9C13.6566 9 14.9998 10.3431 14.9998 12ZM20.9998 5C20.9998 6.10457 20.1043 7 18.9998 7C17.8952 7 16.9998 6.10457 16.9998 5C16.9998 3.89543 17.8952 3 18.9998 3C20.1043 3 20.9998 3.89543 20.9998 5ZM6.99976 19C6.99976 20.1046 6.10433 21 4.99976 21C3.89519 21 2.99976 20.1046 2.99976 19C2.99976 17.8954 3.89519 17 4.99976 17C6.10433 17 6.99976 17.8954 6.99976 19Z" stroke="#C533B9" stroke-width="2" stroke-linecap="round" stroke-linejoin="round"/>
</g>
<defs>
<clipPath id="clip0_1196_3535">
<rect width="24" height="24" fill="white"/>
</clipPath>
</defs>
</svg>
