<svg width="24" height="24" viewBox="0 0 24 24" fill="none" xmlns="http://www.w3.org/2000/svg">
<path d="M13.5 7C13.7761 7 14 6.77614 14 6.5C14 6.22386 13.7761 6 13.5 6C13.2239 6 13 6.22386 13 6.5C13 6.77614 13.2239 7 13.5 7Z" fill="#360E3B"/>
<path d="M17.5 11C17.7761 11 18 10.7761 18 10.5C18 10.2239 17.7761 10 17.5 10C17.2239 10 17 10.2239 17 10.5C17 10.7761 17.2239 11 17.5 11Z" fill="#360E3B"/>
<path d="M8.5 8C8.77614 8 9 7.77614 9 7.5C9 7.22386 8.77614 7 8.5 7C8.22386 7 8 7.22386 8 7.5C8 7.77614 8.22386 8 8.5 8Z" fill="#360E3B"/>
<path d="M6.5 13C6.77614 13 7 12.7761 7 12.5C7 12.2239 6.77614 12 6.5 12C6.22386 12 6 12.2239 6 12.5C6 12.7761 6.22386 13 6.5 13Z" fill="#360E3B"/>
<path d="M13.5 7C13.7761 7 14 6.77614 14 6.5C14 6.22386 13.7761 6 13.5 6C13.2239 6 13 6.22386 13 6.5C13 6.77614 13.2239 7 13.5 7Z" stroke="#C533B9" stroke-width="2" stroke-linecap="round" stroke-linejoin="round"/>
<path d="M17.5 11C17.7761 11 18 10.7761 18 10.5C18 10.2239 17.7761 10 17.5 10C17.2239 10 17 10.2239 17 10.5C17 10.7761 17.2239 11 17.5 11Z" stroke="#C533B9" stroke-width="2" stroke-linecap="round" stroke-linejoin="round"/>
<path d="M8.5 8C8.77614 8 9 7.77614 9 7.5C9 7.22386 8.77614 7 8.5 7C8.22386 7 8 7.22386 8 7.5C8 7.77614 8.22386 8 8.5 8Z" stroke="#C533B9" stroke-width="2" stroke-linecap="round" stroke-linejoin="round"/>
<path d="M6.5 13C6.77614 13 7 12.7761 7 12.5C7 12.2239 6.77614 12 6.5 12C6.22386 12 6 12.2239 6 12.5C6 12.7761 6.22386 13 6.5 13Z" stroke="#C533B9" stroke-width="2" stroke-linecap="round" stroke-linejoin="round"/>
<path d="M12 2C6.5 2 2 6.5 2 12C2 17.5 6.5 22 12 22C12.926 22 13.648 21.254 13.648 20.312C13.648 19.875 13.468 19.477 13.211 19.187C12.921 18.898 12.773 18.535 12.773 18.062C12.7692 17.8419 12.8098 17.6233 12.8922 17.4192C12.9747 17.2151 13.0975 17.0298 13.2531 16.8741C13.4088 16.7185 13.5941 16.5957 13.7982 16.5132C14.0023 16.4308 14.2209 16.3902 14.441 16.394H16.437C19.488 16.394 21.992 13.891 21.992 10.84C21.965 6.012 17.461 2 12 2Z" stroke="#C533B9" stroke-width="2" stroke-linecap="round" stroke-linejoin="round"/>
</svg>
