<svg width="24" height="24" viewBox="0 0 24 24" fill="none" xmlns="http://www.w3.org/2000/svg">
<path d="M21.4403 11.05L12.2503 20.24C11.1244 21.3658 9.59747 21.9983 8.00529 21.9983C6.41311 21.9983 4.88613 21.3658 3.76029 20.24C2.63445 19.1141 2.00195 17.5872 2.00195 15.995C2.00195 14.4028 2.63445 12.8758 3.76029 11.75L12.3303 3.17997C13.0809 2.42808 14.0994 2.00515 15.1618 2.00421C16.2241 2.00328 17.2434 2.42441 17.9953 3.17497C18.7472 3.92554 19.1701 4.94404 19.171 6.00644C19.172 7.06883 18.7509 8.08808 18.0003 8.83997L9.41029 17.41C9.03501 17.7853 8.52602 17.9961 7.99529 17.9961C7.46456 17.9961 6.95557 17.7853 6.58029 17.41C6.20501 17.0347 5.99418 16.5257 5.99418 15.995C5.99418 15.4642 6.20501 14.9553 6.58029 14.58L15.0703 6.09997" stroke="#C533B9" stroke-width="2" stroke-linecap="round" stroke-linejoin="round"/>
</svg>
