<svg width="24" height="24" viewBox="0 0 24 24" fill="none" xmlns="http://www.w3.org/2000/svg">
<g clip-path="url(#clip0_1196_3490)">
<path d="M14.9998 5L18.9998 9M12.9998 7.00005L8.6998 2.70005C8.24818 2.2506 7.63695 1.99829 6.9998 1.99829C6.36265 1.99829 5.75143 2.2506 5.2998 2.70005L2.6998 5.30005C2.25036 5.75167 1.99805 6.36289 1.99805 7.00005C1.99805 7.6372 2.25036 8.24842 2.6998 8.70005L6.9998 13M7.99976 6L9.99976 4M17.9998 16L19.9998 14M16.9998 11L21.2998 15.3C22.2398 16.24 22.2398 17.76 21.2998 18.7L18.6998 21.3C17.7598 22.24 16.2398 22.24 15.2998 21.3L10.9998 17M1.99976 21.9999L7.49976 20.4999L21.1698 6.82989C21.7002 6.29946 21.9982 5.58004 21.9982 4.82989C21.9982 4.07975 21.7002 3.36032 21.1698 2.82989C20.6393 2.29946 19.9199 2.00146 19.1698 2.00146C18.4196 2.00146 17.7002 2.29946 17.1698 2.82989L3.49976 16.4999L1.99976 21.9999Z" stroke="#C533B9" stroke-width="2" stroke-linecap="round" stroke-linejoin="round"/>
</g>
<defs>
<clipPath id="clip0_1196_3490">
<rect width="24" height="24" fill="white"/>
</clipPath>
</defs>
</svg>
