<svg width="24" height="24" viewBox="0 0 24 24" fill="none" xmlns="http://www.w3.org/2000/svg">
<path d="M21.9994 16.92V19.92C22.0006 20.1985 21.9435 20.4741 21.832 20.7293C21.7204 20.9845 21.5567 21.2136 21.3515 21.4018C21.1463 21.5901 20.904 21.7335 20.6402 21.8227C20.3764 21.9119 20.0968 21.945 19.8194 21.92C16.7423 21.5856 13.7864 20.5341 11.1894 18.85C8.77327 17.3146 6.72478 15.2661 5.18945 12.85C3.49942 10.2412 2.44769 7.27097 2.11944 4.17997C2.09446 3.90344 2.12732 3.62474 2.21595 3.3616C2.30457 3.09846 2.44702 2.85666 2.63421 2.6516C2.82141 2.44653 3.04925 2.28268 3.30324 2.1705C3.55722 2.05831 3.83179 2.00024 4.10945 1.99997H7.10945C7.59475 1.9952 8.06524 2.16705 8.43321 2.48351C8.80118 2.79996 9.04152 3.23942 9.10944 3.71997C9.23607 4.68004 9.47089 5.6227 9.80945 6.52997C9.94399 6.8879 9.97311 7.27689 9.89335 7.65086C9.8136 8.02482 9.62831 8.36809 9.35944 8.63998L8.08945 9.90997C9.513 12.4135 11.5859 14.4864 14.0894 15.91L15.3594 14.64C15.6313 14.3711 15.9746 14.1858 16.3486 14.1061C16.7225 14.0263 17.1115 14.0554 17.4694 14.19C18.3767 14.5285 19.3194 14.7634 20.2794 14.89C20.7652 14.9585 21.2088 15.2032 21.526 15.5775C21.8431 15.9518 22.0116 16.4296 21.9994 16.92Z" stroke="#C533B9" stroke-width="2" stroke-linecap="round" stroke-linejoin="round"/>
</svg>
