<svg width="24" height="24" viewBox="0 0 24 24" fill="none" xmlns="http://www.w3.org/2000/svg">
<path d="M10.6799 13.3101C11.6948 14.3258 12.8418 15.2004 14.0899 15.9101L15.3599 14.6401C15.6318 14.3712 15.9751 14.1859 16.3491 14.1062C16.723 14.0264 17.112 14.0556 17.4699 14.1901C18.3772 14.5286 19.3199 14.7635 20.2799 14.8901C20.7605 14.958 21.1999 15.1984 21.5164 15.5663C21.8329 15.9343 22.0047 16.4048 21.9999 16.8901V19.8901C22.0011 20.1686 21.944 20.4443 21.8324 20.6994C21.7209 20.9546 21.5572 21.1837 21.352 21.372C21.1468 21.5602 20.9045 21.7036 20.6407 21.7928C20.3769 21.882 20.0973 21.9152 19.8199 21.8901C16.7428 21.5557 13.7869 20.5042 11.1899 18.8201C9.9852 18.0552 8.86846 17.1597 7.85993 16.1501M5.18993 12.8101C3.50579 10.2131 2.45429 7.25726 2.11993 4.1801C2.09494 3.90356 2.12781 3.62486 2.21643 3.36172C2.30506 3.09859 2.4475 2.85679 2.6347 2.65172C2.82189 2.44665 3.04974 2.28281 3.30372 2.17062C3.55771 2.05843 3.83227 2.00036 4.10993 2.0001H7.10993C7.59524 1.99532 8.06572 2.16718 8.43369 2.48363C8.80166 2.80008 9.04201 3.23954 9.10993 3.7201C9.23656 4.68016 9.47138 5.62282 9.80993 6.5301C9.94448 6.88802 9.9736 7.27701 9.89384 7.65098C9.81408 8.02494 9.6288 8.36821 9.35993 8.6401L8.08993 9.9101M22 2L2 22" stroke="#C533B9" stroke-width="2" stroke-linecap="round" stroke-linejoin="round"/>
</svg>
