<svg width="24" height="24" viewBox="0 0 24 24" fill="none" xmlns="http://www.w3.org/2000/svg">
<path d="M1.99951 14H21.9995M5.99951 14V18M9.99951 14V18M13.9995 14V18M17.9995 14V18M18.4995 7.99996C17.0995 7.99996 15.8995 7.19996 15.2995 5.99996C14.7315 4.4246 13.6076 3.11097 12.1392 2.30599C10.6707 1.501 8.95876 1.26011 7.32517 1.62859C5.69157 1.99707 4.24882 2.94954 3.26811 4.30697C2.2874 5.6644 1.83628 7.3333 1.99953 8.99996V20C1.99953 20.5304 2.21025 21.0391 2.58532 21.4142C2.96039 21.7892 3.4691 22 3.99953 22H19.9995C20.53 22 21.0387 21.7892 21.4137 21.4142C21.7888 21.0391 21.9995 20.5304 21.9995 20V11.5C21.9995 9.59996 20.3995 7.99996 18.4995 7.99996Z" stroke="#C533B9" stroke-width="2" stroke-linecap="round" stroke-linejoin="round"/>
</svg>
