<svg width="24" height="24" viewBox="0 0 24 24" fill="none" xmlns="http://www.w3.org/2000/svg">
<path d="M14.5314 12.469L6.61937 20.38C6.22154 20.7778 5.68198 21.0013 5.11937 21.0013C4.55676 21.0013 4.01719 20.7778 3.61937 20.38C3.22154 19.9822 2.99805 19.4426 2.99805 18.88C2.99805 18.3174 3.22154 17.7778 3.61937 17.38L11.5314 9.46802M15.6865 4.3139C14.1768 3.37339 12.4837 2.76592 10.7204 2.53207C8.9571 2.29823 7.16421 2.44341 5.46151 2.9579C5.30992 3.0544 5.18714 3.18996 5.10608 3.35033C5.02501 3.5107 4.98866 3.68995 5.00083 3.86923C5.01301 4.04851 5.07327 4.2212 5.17528 4.36913C5.27728 4.51707 5.41727 4.63478 5.58051 4.7099C7.85791 5.48772 9.99226 6.63395 11.8985 8.1029M19.6864 8.31396C20.6269 9.82373 21.2343 11.5168 21.4682 13.2801C21.702 15.0434 21.5569 16.8363 21.0424 18.539C20.9459 18.6903 20.8103 18.8128 20.6501 18.8937C20.4898 18.9746 20.3108 19.0109 20.1316 18.9987C19.9525 18.9866 19.78 18.9264 19.6322 18.8246C19.4843 18.7227 19.3666 18.583 19.2914 18.42C18.5137 16.1422 17.3675 14.0075 15.8984 12.101M17.7004 3.69992C17.5135 3.51669 17.2622 3.41406 17.0004 3.41406C16.7387 3.41406 16.4873 3.51669 16.3004 3.69992L11.7004 8.29992C11.5172 8.48685 11.4146 8.73817 11.4146 8.99992C11.4146 9.26167 11.5172 9.51299 11.7004 9.69992L14.3004 12.2999C14.4873 12.4831 14.7387 12.5858 15.0004 12.5858C15.2622 12.5858 15.5135 12.4831 15.7004 12.2999L20.3004 7.69992C20.4836 7.51299 20.5863 7.26167 20.5863 6.99992C20.5863 6.73817 20.4836 6.48685 20.3004 6.29992L17.7004 3.69992Z" stroke="#C533B9" stroke-width="2" stroke-linecap="round" stroke-linejoin="round"/>
</svg>
