<svg width="24" height="24" viewBox="0 0 24 24" fill="none" xmlns="http://www.w3.org/2000/svg">
<path d="M2 22L3 21M3 21H6L15 12M3 21V18L12 9M15.0001 6.00008L18.4001 2.60008C18.7979 2.20226 19.3375 1.97876 19.9001 1.97876C20.4627 1.97876 21.0023 2.20226 21.4001 2.60008C21.7979 2.9979 22.0214 3.53747 22.0214 4.10008C22.0214 4.66269 21.7979 5.20226 21.4001 5.60008L18.0001 9.00008L18.4001 9.40008C18.5971 9.59706 18.7533 9.83092 18.8599 10.0883C18.9665 10.3457 19.0214 10.6215 19.0214 10.9001C19.0214 11.1787 18.9665 11.4545 18.8599 11.7119C18.7533 11.9692 18.5971 12.2031 18.4001 12.4001C18.2031 12.5971 17.9692 12.7533 17.7119 12.8599C17.4545 12.9665 17.1787 13.0214 16.9001 13.0214C16.6215 13.0214 16.3457 12.9665 16.0883 12.8599C15.8309 12.7533 15.5971 12.5971 15.4001 12.4001L11.6001 8.60008C11.4031 8.4031 11.2468 8.16924 11.1402 7.91187C11.0336 7.6545 10.9788 7.37866 10.9788 7.10008C10.9788 6.8215 11.0336 6.54566 11.1402 6.28829C11.2468 6.03092 11.4031 5.79706 11.6001 5.60008C11.7971 5.4031 12.0309 5.24684 12.2883 5.14024C12.5457 5.03363 12.8215 4.97876 13.1001 4.97876C13.3787 4.97876 13.6545 5.03363 13.9119 5.14024C14.1692 5.24684 14.4031 5.4031 14.6001 5.60008L15.0001 6.00008Z" stroke="#C533B9" stroke-width="2" stroke-linecap="round" stroke-linejoin="round"/>
</svg>
