<svg width="24" height="24" viewBox="0 0 24 24" fill="none" xmlns="http://www.w3.org/2000/svg">
<g clip-path="url(#clip0_1196_3454)">
<path d="M3.00024 2V3C3.00024 4 5.00024 4 5.00024 5C5.00024 6 3.00024 6 3.00024 7C3.00024 8 5.00024 8 5.00024 9C5.00024 10 3.00024 10 3.00024 11C3.00024 12 5.00024 12 5.00024 13M18.0002 6H18.0102M6.00024 18H6.01024M18.0002 11.66V22C19.0611 22 20.0785 21.5786 20.8287 20.8284C21.5788 20.0783 22.0002 19.0609 22.0002 18V6M20.8303 8.83003C21.2019 8.45839 21.4967 8.01718 21.6978 7.53161C21.899 7.04604 22.0025 6.52561 22.0025 6.00003C22.0025 5.47445 21.899 4.95401 21.6978 4.46844C21.4967 3.98287 21.2019 3.54167 20.8303 3.17003C20.4586 2.79839 20.0174 2.50358 19.5319 2.30245C19.0463 2.10132 18.5259 1.9978 18.0003 1.9978C17.4747 1.9978 16.9543 2.10132 16.4687 2.30245C15.9831 2.50358 15.5419 2.79839 15.1703 3.17003L3.17027 15.17C2.41971 15.9206 1.99805 16.9386 1.99805 18C1.99805 18.5256 2.10157 19.046 2.3027 19.5316C2.50383 20.0172 2.79863 20.4584 3.17027 20.83C3.54191 21.2017 3.98311 21.4965 4.46869 21.6976C4.95426 21.8987 5.47469 22.0023 6.00027 22.0023C7.06173 22.0023 8.07971 21.5806 8.83027 20.83L20.8303 8.83003Z" stroke="#C533B9" stroke-width="2" stroke-linecap="round" stroke-linejoin="round"/>
</g>
<defs>
<clipPath id="clip0_1196_3454">
<rect width="24" height="24" fill="white"/>
</clipPath>
</defs>
</svg>
