<svg width="24" height="24" viewBox="0 0 24 24" fill="none" xmlns="http://www.w3.org/2000/svg">
<path d="M17.999 8C18.5295 8 19.0382 7.78929 19.4132 7.41421C19.7883 7.03914 19.999 6.53043 19.999 6C19.999 5.46957 19.7883 4.96086 19.4132 4.58579C19.0382 4.21071 18.5295 4 17.999 4C17.999 3.46957 17.7883 2.96086 17.4132 2.58579C17.0382 2.21071 16.5295 2 15.999 2C15.4686 2 14.9599 2.21071 14.5848 2.58579C14.2097 2.96086 13.999 3.46957 13.999 4C13.999 3.46957 13.7883 2.96086 13.4132 2.58579C13.0382 2.21071 12.5295 2 11.999 2C11.4686 2 10.9599 2.21071 10.5848 2.58579C10.2097 2.96086 9.99902 3.46957 9.99902 4C9.99902 3.46957 9.78831 2.96086 9.41324 2.58579C9.03816 2.21071 8.52946 2 7.99902 2C7.46859 2 6.95988 2.21071 6.58481 2.58579C6.20974 2.96086 5.99902 3.46957 5.99902 4C5.46859 4 4.95988 4.21071 4.58481 4.58579C4.20974 4.96086 3.99902 5.46957 3.99902 6C3.99902 6.53043 4.20974 7.03914 4.58481 7.41421C4.95988 7.78929 5.46859 8 5.99902 8M9.99902 22L8.99902 8M13.999 22L14.999 8M19.999 8C20.499 8 20.899 8.4 20.799 9L18.199 21C18.099 21.5 17.499 22 16.999 22H6.99902C6.39902 22 5.89902 21.6 5.79902 21L3.19902 9C3.09902 8.4 3.49902 8 3.99902 8H19.999Z" stroke="#C533B9" stroke-width="2" stroke-linecap="round" stroke-linejoin="round"/>
</svg>
