<svg width="24" height="24" viewBox="0 0 24 24" fill="none" xmlns="http://www.w3.org/2000/svg">
<path d="M18.3601 6.63989C19.4357 7.71604 20.221 9.04733 20.6424 10.5093C21.0639 11.9713 21.1078 13.5163 20.7701 14.9999M6.15997 6.15991C5.20457 6.96234 4.42645 7.95465 3.87501 9.07384C3.32357 10.193 3.01085 11.4146 2.95672 12.6611C2.90258 13.9076 3.10821 15.1518 3.56055 16.3145C4.01289 17.4773 4.70205 18.5334 5.58428 19.4156C6.46652 20.2978 7.52255 20.987 8.68533 21.4393C9.84811 21.8917 11.0922 22.0973 12.3387 22.0432C13.5852 21.989 14.8069 21.6763 15.926 21.1249C17.0452 20.5734 18.0375 19.7953 18.84 18.8399M12 2V6M2 2L22 22" stroke="#C533B9" stroke-width="2" stroke-linecap="round" stroke-linejoin="round"/>
</svg>
