<svg width="24" height="24" viewBox="0 0 24 24" fill="none" xmlns="http://www.w3.org/2000/svg">
<g clip-path="url(#clip0_1196_3441)">
<path d="M19.439 7.84999C19.39 8.17199 19.4981 8.49799 19.7281 8.72799L21.296 10.296C21.766 10.766 22.0021 11.383 22.0021 12C22.0021 12.617 21.767 13.233 21.296 13.704L19.685 15.315C19.5768 15.4232 19.4447 15.5045 19.2993 15.5524C19.154 15.6003 18.9994 15.6135 18.848 15.591C18.378 15.521 18.046 15.111 17.88 14.666C17.7344 14.2728 17.4922 13.9225 17.1758 13.6474C16.8593 13.3722 16.4788 13.1811 16.0692 13.0915C15.6595 13.0019 15.2339 13.0167 14.8315 13.1346C14.4291 13.2525 14.0628 13.4697 13.7663 13.7662C13.4698 14.0627 13.2526 14.429 13.1347 14.8315C13.0168 15.2339 13.0019 15.6595 13.0915 16.0691C13.1811 16.4787 13.3723 16.8593 13.6474 17.1757C13.9226 17.4922 14.2728 17.7343 14.666 17.88C15.112 18.046 15.521 18.377 15.591 18.848C15.6137 18.9994 15.6005 19.1539 15.5526 19.2993C15.5046 19.4447 15.4233 19.5768 15.315 19.685L13.705 21.295C13.4814 21.5194 13.2157 21.6973 12.9231 21.8186C12.6305 21.94 12.3168 22.0023 12 22.002C11.6835 22.0024 11.37 21.9402 11.0776 21.8191C10.7852 21.6979 10.5195 21.5201 10.296 21.296L8.72805 19.728C8.61472 19.6145 8.47634 19.5291 8.32403 19.4787C8.17172 19.4283 8.00972 19.4144 7.85105 19.438C7.35805 19.512 7.01105 19.942 6.83105 20.406C6.68017 20.7932 6.43513 21.1368 6.11809 21.4055C5.80105 21.6742 5.42202 21.8597 5.01528 21.9451C4.60853 22.0305 4.18692 22.0131 3.78857 21.8946C3.39022 21.7761 3.02771 21.5601 2.73383 21.2662C2.43995 20.9723 2.22397 20.6098 2.10543 20.2115C1.98689 19.8131 1.96954 19.3915 2.05494 18.9848C2.14033 18.578 2.32579 18.199 2.59452 17.8819C2.86325 17.5649 3.20679 17.3199 3.59405 17.169C4.05805 16.989 4.48805 16.642 4.56105 16.149C4.58476 15.9904 4.57097 15.8284 4.52079 15.6761C4.4706 15.5238 4.38541 15.3854 4.27205 15.272L2.70405 13.704C2.4799 13.4805 2.30213 13.2149 2.18097 12.9225C2.05981 12.63 1.99765 12.3165 1.99805 12C1.99805 11.383 2.23405 10.766 2.70405 10.296L4.23005 8.76999C4.47005 8.52999 4.81105 8.41699 5.14705 8.46699C5.66205 8.54399 6.02405 8.99499 6.22005 9.47699C6.37575 9.85874 6.62344 10.1961 6.94106 10.4589C7.25869 10.7217 7.63639 10.902 8.04052 10.9835C8.44466 11.065 8.86269 11.0453 9.25737 10.9262C9.65206 10.807 10.0112 10.5921 10.3027 10.3006C10.5942 10.0091 10.8091 9.65 10.9283 9.25531C11.0474 8.86063 11.0671 8.4426 10.9855 8.03846C10.904 7.63433 10.7238 7.25663 10.461 6.939C10.1981 6.62138 9.8608 6.37369 9.47905 6.21799C8.99705 6.02199 8.54605 5.65999 8.46905 5.14499C8.41905 4.80899 8.53105 4.46899 8.77205 4.22799L10.297 2.70299C10.5205 2.47914 10.786 2.30162 11.0782 2.18064C11.3705 2.05966 11.6837 1.99759 12 1.99799C12.617 1.99799 13.234 2.23399 13.704 2.70399L15.272 4.27199C15.502 4.50199 15.828 4.60999 16.149 4.56199C16.642 4.48799 16.989 4.05799 17.169 3.59399C17.3199 3.20673 17.565 2.86319 17.882 2.59446C18.199 2.32573 18.5781 2.14027 18.9848 2.05488C19.3916 1.96948 19.8132 1.98683 20.2115 2.10537C20.6099 2.22391 20.9724 2.43988 21.2663 2.73377C21.5602 3.02765 21.7761 3.39016 21.8947 3.78851C22.0132 4.18686 22.0306 4.60847 21.9452 5.01521C21.8598 5.42196 21.6743 5.80099 21.4056 6.11803C21.1368 6.43507 20.7933 6.68011 20.406 6.83099C19.942 7.01099 19.512 7.35699 19.439 7.84999Z" stroke="#C533B9" stroke-width="2" stroke-linecap="round" stroke-linejoin="round"/>
</g>
<defs>
<clipPath id="clip0_1196_3441">
<rect width="24" height="24" fill="white"/>
</clipPath>
</defs>
</svg>
