<svg width="24" height="24" viewBox="0 0 24 24" fill="none" xmlns="http://www.w3.org/2000/svg">
<path d="M11.9998 2V22M2.49976 16.8801C2.38099 16.8107 2.2778 16.7177 2.19663 16.6066C2.11547 16.4956 2.05807 16.369 2.02804 16.2348C1.99801 16.1006 1.99598 15.9617 2.02209 15.8266C2.04819 15.6916 2.10187 15.5634 2.17976 15.4501L11.1798 2.43008C11.2719 2.29805 11.3946 2.19022 11.5374 2.11577C11.6801 2.04132 11.8388 2.00244 11.9998 2.00244C12.1608 2.00244 12.3194 2.04132 12.4622 2.11577C12.6049 2.19022 12.7276 2.29805 12.8198 2.43008L21.8198 15.4401C21.8993 15.5537 21.9544 15.6827 21.9814 15.8188C22.0084 15.9549 22.0068 16.0951 21.9768 16.2305C21.9467 16.366 21.8887 16.4936 21.8066 16.6055C21.7245 16.7173 21.62 16.8108 21.4998 16.8801L12.9898 21.7401C12.6881 21.9119 12.3469 22.0023 11.9998 22.0023C11.6526 22.0023 11.3114 21.9119 11.0098 21.7401L2.49976 16.8801Z" stroke="#C533B9" stroke-width="2" stroke-linecap="round" stroke-linejoin="round"/>
</svg>
