<svg width="24" height="24" viewBox="0 0 24 24" fill="none" xmlns="http://www.w3.org/2000/svg">
<path d="M13 16C13.5795 15.9992 14.1467 16.1663 14.6333 16.481C15.1198 16.7958 15.5048 17.2446 15.7417 17.7735C15.9787 18.3023 16.0573 18.8884 15.9683 19.461C15.8793 20.0336 15.6263 20.5681 15.24 21M18 12H18.01M18 20.9999H10C8.93913 20.9999 7.92172 20.5785 7.17157 19.8283C6.42143 19.0782 6 18.0608 6 16.9999C6 15.1434 6.7375 13.3629 8.05025 12.0502C9.36301 10.7374 11.1435 9.99992 13 9.99992H13.2L9.6 6.39992C9.41615 6.21607 9.27031 5.99781 9.17081 5.75759C9.07131 5.51738 9.0201 5.25992 9.0201 4.99992C9.0201 4.47482 9.2287 3.97122 9.6 3.59992C9.9713 3.22862 10.4749 3.02002 11 3.02002C11.26 3.02002 11.5175 3.07123 11.7577 3.17073C11.9979 3.27023 12.2161 3.41607 12.4 3.59992L15.8 6.99992H16M16 6.99992C19.3 6.99992 22 9.69992 22 12.9999V13.9999C22 14.5304 21.7893 15.0391 21.4142 15.4141C21.0391 15.7892 20.5304 15.9999 20 15.9999H19C18.2044 15.9999 17.4413 16.316 16.8787 16.8786C16.3161 17.4412 16 18.2043 16 18.9999M16 6.99992V4C16 3.46957 16.2107 2.96086 16.5858 2.58579C16.9609 2.21071 17.4696 2 18 2C18.5304 2 19.0391 2.21071 19.4142 2.58579C19.7893 2.96086 20 3.46957 20 4V8.54M7.6119 12.524C7.3307 12.0263 6.91318 11.6193 6.40849 11.351C5.90379 11.0826 5.33293 10.964 4.76311 11.0091C4.19329 11.0543 3.64822 11.2613 3.19207 11.6057C2.73592 11.9502 2.38767 12.4178 2.18834 12.9536C1.989 13.4893 1.94686 14.0708 2.06688 14.6297C2.1869 15.1885 2.46409 15.7015 2.86581 16.1081C3.26753 16.5148 3.77706 16.7982 4.33443 16.925C4.89179 17.0518 5.47378 17.0168 6.0119 16.8239" stroke="#C533B9" stroke-width="2" stroke-linecap="round" stroke-linejoin="round"/>
</svg>
