<svg width="24" height="24" viewBox="0 0 24 24" fill="none" xmlns="http://www.w3.org/2000/svg">
<path d="M6.99023 3.34005C8.89767 2.23728 11.1159 1.79532 13.3004 2.08284C15.4848 2.37036 17.5131 3.37126 19.0702 4.93005L13.4102 10.5899M4.00024 6H4.01024M2.29035 9.6201C1.91544 11.1472 1.90593 12.7411 2.26258 14.2725C2.61923 15.804 3.33198 17.2297 4.34299 18.434C5.35399 19.6383 6.63474 20.5872 8.08125 21.2037C9.52776 21.8202 11.0993 22.0869 12.6682 21.9822C14.2371 21.8774 15.7592 21.4041 17.1109 20.6008C18.4626 19.7975 19.6058 18.6867 20.4478 17.3587C21.2897 16.0306 21.8065 14.5228 21.9564 12.9575C22.1063 11.3923 21.885 9.81376 21.3104 8.3501M16.2403 7.75992C15.6648 7.18108 14.9773 6.72575 14.2197 6.42179C13.4622 6.11783 12.6506 5.97163 11.8346 5.99213C11.0187 6.01263 10.2155 6.1994 9.47415 6.54103C8.73285 6.88265 8.06904 7.37193 7.52335 7.97894C6.97765 8.58594 6.56155 9.29791 6.3005 10.0713C6.03944 10.8446 5.93893 11.6631 6.0051 12.4767C6.07128 13.2902 6.30275 14.0817 6.68536 14.8027C7.06797 15.5237 7.59366 16.1591 8.23028 16.6699M12.0002 18H12.0102M17.9903 11.6599C18.0447 12.6113 17.8717 13.5619 17.4856 14.4332C17.0996 15.3044 16.5116 16.0711 15.7703 16.6699M14.0002 12C14.0002 13.1046 13.1048 14 12.0002 14C10.8957 14 10.0002 13.1046 10.0002 12C10.0002 10.8954 10.8957 10 12.0002 10C13.1048 10 14.0002 10.8954 14.0002 12Z" stroke="#C533B9" stroke-width="2" stroke-linecap="round" stroke-linejoin="round"/>
</svg>
