<svg width="24" height="24" viewBox="0 0 24 24" fill="none" xmlns="http://www.w3.org/2000/svg">
<path d="M4.89961 16.0999C0.999609 12.1999 0.999609 5.7999 4.89961 1.8999M7.79966 4.69995C6.85096 5.68293 6.25718 6.95422 6.11228 8.31263C5.96738 9.67104 6.27965 11.039 6.99966 12.2M11.9995 11C13.1041 11 13.9995 10.1046 13.9995 9C13.9995 7.89543 13.1041 7 11.9995 7C10.8949 7 9.99951 7.89543 9.99951 9C9.99951 10.1046 10.8949 11 11.9995 11ZM11.9995 11L7.99951 22M11.9995 11L15.9995 22M16.1997 4.80005C18.1997 6.80005 18.4597 9.91005 16.9997 12.27M19.0996 1.8999C20.0266 2.82504 20.7621 3.92393 21.2639 5.13366C21.7657 6.34339 22.024 7.64022 22.024 8.9499C22.024 10.2596 21.7657 11.5564 21.2639 12.7661C20.7621 13.9759 20.0266 15.0748 19.0996 15.9999M9.49951 18H14.4995" stroke="#C533B9" stroke-width="2" stroke-linecap="round" stroke-linejoin="round"/>
</svg>
