<svg width="24" height="24" viewBox="0 0 24 24" fill="none" xmlns="http://www.w3.org/2000/svg">
<path d="M12.001 12H12.011M7.50109 4.19989C7.20109 3.69989 6.60109 3.49989 6.20109 3.79989C3.90109 5.49989 2.30109 8.09989 2.00109 10.9999C1.90109 11.4999 2.40109 11.9999 3.00109 11.9999H8.00109C8.00109 10.4999 8.80109 9.19989 10.0011 8.59989C8.90109 6.69989 8.00109 5.09989 7.50109 4.19989ZM21.001 12C21.601 12 22.001 11.6 22.001 11C21.701 8.09995 20.201 5.49995 17.901 3.89995C17.501 3.59995 16.801 3.69995 16.601 4.19995C16.001 5.09995 15.101 6.69995 14.001 8.49995C15.201 9.19995 16.001 10.5 16.001 12H21.001ZM7.50106 19.8C7.20106 20.3 7.40106 20.9 7.90106 21.1C10.5011 22.3 13.5011 22.3 16.1011 21.1C16.6011 20.9 16.8011 20.3 16.5011 19.8C16.0011 18.9 15.1011 17.3 14.0011 15.5C12.8011 16.2 11.2011 16.2 10.0011 15.5C8.90106 17.3 8.00106 18.9 7.50106 19.8Z" stroke="#C533B9" stroke-width="2" stroke-linecap="round" stroke-linejoin="round"/>
</svg>
