<svg width="24" height="24" viewBox="0 0 24 24" fill="none" xmlns="http://www.w3.org/2000/svg">
<path d="M4.89961 19.0999C0.999609 15.1999 0.999609 8.7999 4.89961 4.8999M7.79971 16.2C5.49971 13.9 5.49971 10.1 7.79971 7.69995M16.1997 7.80005C18.4997 10.1 18.4997 13.9 16.1997 16.3M19.0996 4.8999C22.9996 8.7999 22.9996 15.0999 19.0996 18.9999M13.9995 12C13.9995 13.1046 13.1041 14 11.9995 14C10.8949 14 9.99951 13.1046 9.99951 12C9.99951 10.8954 10.8949 10 11.9995 10C13.1041 10 13.9995 10.8954 13.9995 12Z" stroke="#C533B9" stroke-width="2" stroke-linecap="round" stroke-linejoin="round"/>
</svg>
