<svg width="24" height="24" viewBox="0 0 24 24" fill="none" xmlns="http://www.w3.org/2000/svg">
<path d="M20.3391 17.52C21.7071 15.4531 22.2587 12.9517 21.8869 10.501C21.5151 8.05041 20.2464 5.82518 18.3269 4.25694C16.4074 2.6887 13.9739 1.88923 11.4983 2.01358C9.02279 2.13792 6.68163 3.17723 4.92894 4.92992C3.17625 6.68261 2.13695 9.02376 2.0126 11.4993C1.88825 13.9749 2.68773 16.4084 4.25597 18.3279C5.8242 20.2474 8.04943 21.5161 10.5001 21.8879C12.9507 22.2596 15.4521 21.708 17.5191 20.34M13.4092 13.4099L17.5892 17.5899M20.999 19C20.999 20.1046 20.1036 21 18.999 21C17.8945 21 16.999 20.1046 16.999 19C16.999 17.8954 17.8945 17 18.999 17C20.1036 17 20.999 17.8954 20.999 19ZM13.999 12C13.999 13.1046 13.1036 14 11.999 14C10.8945 14 9.99902 13.1046 9.99902 12C9.99902 10.8954 10.8945 10 11.999 10C13.1036 10 13.999 10.8954 13.999 12Z" stroke="#C533B9" stroke-width="2" stroke-linecap="round" stroke-linejoin="round"/>
</svg>
