<svg width="24" height="24" viewBox="0 0 24 24" fill="none" xmlns="http://www.w3.org/2000/svg">
<path d="M17 5C17 3.3 15.7 2 14 2C12.3 2 11 3.3 11 5C11 5.8 11.3 6.5 11.8 7H11C7.1 7 4 10.1 4 14C4 16.2 5.8 18 8 18M16.8 3.89988C17.1 3.59988 17.4 3.39988 17.8 3.19988C19.3 2.59988 21.1 3.29988 21.7 4.79988C22.3 6.29988 21.6 8.09988 20.1 8.69988L21.7 11.4999C21.9 11.7999 21.9 12.1999 21.9 12.4999C21.7 13.2999 21 13.6999 20.2 13.5999C20.2 13.5999 18.6 13.2999 17.5 12.9999H17C15.3 12.9999 14 14.2999 14 15.9999M13.2 18C13.5841 17.5706 13.8365 17.0398 13.9269 16.4708C14.0174 15.9018 13.9421 15.3189 13.7101 14.7916C13.4781 14.2643 13.0991 13.8149 12.6185 13.4972C12.138 13.1795 11.5761 13.0069 11 13M13 22H4C3.46957 22 2.96086 21.7893 2.58579 21.4142C2.21071 21.0391 2 20.5304 2 20C2 19.4696 2.21071 18.9609 2.58579 18.5858C2.96086 18.2107 3.46957 18 4 18H16M16 9H16.01" stroke="#C533B9" stroke-width="2" stroke-linecap="round" stroke-linejoin="round"/>
</svg>
