<svg width="24" height="24" viewBox="0 0 24 24" fill="none" xmlns="http://www.w3.org/2000/svg">
<path d="M12 6.5V17.5M15.0002 9.4C14.4687 8.77864 13.7596 8.33507 12.9683 8.12905C12.177 7.92303 11.3416 7.96446 10.5746 8.24774C9.80761 8.53102 9.14583 9.04256 8.67843 9.71344C8.21103 10.3843 7.96045 11.1823 7.96045 12C7.96045 12.8177 8.21103 13.6157 8.67843 14.2866C9.14583 14.9574 9.80761 15.469 10.5746 15.7523C11.3416 16.0355 12.177 16.077 12.9683 15.8709C13.7596 15.6649 14.4687 15.2214 15.0002 14.6M4 2V22L6 21L8 22L10 21L12 22L14 21L16 22L18 21L20 22V2L18 3L16 2L14 3L12 2L10 3L8 2L6 3L4 2Z" stroke="#C533B9" stroke-width="2" stroke-linecap="round" stroke-linejoin="round"/>
</svg>
