<svg width="24" height="24" viewBox="0 0 24 24" fill="none" xmlns="http://www.w3.org/2000/svg">
<path d="M8 12H13M16.0002 9.5001C15.4687 8.87874 14.7596 8.43517 13.9683 8.22915C13.177 8.02313 12.3416 8.06455 11.5746 8.34784C10.8076 8.63112 10.1458 9.14265 9.67843 9.81354C9.21103 10.4844 8.96045 11.2824 8.96045 12.1001C8.96045 12.9178 9.21103 13.7158 9.67843 14.3867C10.1458 15.0575 10.8076 15.5691 11.5746 15.8524C12.3416 16.1356 13.177 16.1771 13.9683 15.971C14.7596 15.765 15.4687 15.3215 16.0002 14.7001M4 2V22L6 21L8 22L10 21L12 22L14 21L16 22L18 21L20 22V2L18 3L16 2L14 3L12 2L10 3L8 2L6 3L4 2Z" stroke="#C533B9" stroke-width="2" stroke-linecap="round" stroke-linejoin="round"/>
</svg>
