<svg width="24" height="24" viewBox="0 0 24 24" fill="none" xmlns="http://www.w3.org/2000/svg">
<path d="M6.99977 19H4.81477C4.49934 19.0009 4.18902 18.9203 3.91394 18.7659C3.63886 18.6116 3.40834 18.3887 3.24477 18.119C3.08768 17.8481 3.00461 17.5407 3.00391 17.2275C3.00321 16.9144 3.08489 16.6066 3.24077 16.335L7.19577 9.5M7.19577 9.5L8.29285 13.596M7.19577 9.5L3.09985 10.598M10.9998 19.0001H19.2028C19.5167 18.9977 19.8247 18.9145 20.0972 18.7586C20.3697 18.6028 20.5975 18.3794 20.7588 18.1101C20.9137 17.84 20.9952 17.534 20.9952 17.2226C20.9952 16.9112 20.9137 16.6052 20.7588 16.3351L19.5328 14.2151M10.9998 19.0001L13.9998 16M10.9998 19.0001L13.9998 22M9.34375 5.811L10.4368 3.919C10.5937 3.6454 10.8187 3.41701 11.0899 3.25599C11.3612 3.09497 11.6694 3.00679 11.9847 3C12.2977 2.99942 12.6053 3.08116 12.8766 3.23703C13.148 3.39289 13.3736 3.6174 13.5308 3.888L17.4738 10.731M17.4738 10.731L13.3777 9.63301M17.4738 10.731L18.5707 6.63501" stroke="#C533B9" stroke-width="2" stroke-linecap="round" stroke-linejoin="round"/>
</svg>
