<svg width="24" height="24" viewBox="0 0 24 24" fill="none" xmlns="http://www.w3.org/2000/svg">
<path d="M3 2V8M3 8H9M3 8L6 5.30011C7.29445 4.14232 8.89623 3.38377 10.6121 3.11596C12.3281 2.84815 14.0848 3.08252 15.6705 3.79079C17.2562 4.49907 18.6031 5.651 19.5487 7.10764C20.4944 8.56429 20.9984 10.2634 21 12.0001M21 22V16M21 16H15M21 16L18 18.7C16.7056 19.8578 15.1038 20.6163 13.3879 20.8841C11.6719 21.152 9.9152 20.9176 8.32951 20.2093C6.74382 19.501 5.39691 18.3491 4.45125 16.8925C3.5056 15.4358 3.00158 13.7367 3 12M13 12C13 12.5523 12.5523 13 12 13C11.4477 13 11 12.5523 11 12C11 11.4477 11.4477 11 12 11C12.5523 11 13 11.4477 13 12Z" stroke="#C533B9" stroke-width="2" stroke-linecap="round" stroke-linejoin="round"/>
</svg>
