<svg width="24" height="24" viewBox="0 0 24 24" fill="none" xmlns="http://www.w3.org/2000/svg">
<path d="M5 10H19M15 7V13M5 6C5 4.93913 5.42143 3.92172 6.17157 3.17157C6.92172 2.42143 7.93913 2 9 2H15C16.0609 2 17.0783 2.42143 17.8284 3.17157C18.5786 3.92172 19 4.93913 19 6V20C19 20.5304 18.7893 21.0391 18.4142 21.4142C18.0391 21.7893 17.5304 22 17 22H7C6.46957 22 5.96086 21.7893 5.58579 21.4142C5.21071 21.0391 5 20.5304 5 20V6Z" stroke="#C533B9" stroke-width="2" stroke-linecap="round" stroke-linejoin="round"/>
</svg>
