<svg width="24" height="24" viewBox="0 0 24 24" fill="none" xmlns="http://www.w3.org/2000/svg">
<path d="M17 3V13M12.6699 5.5L21.3299 10.5M12.6699 10.5L21.3299 5.5M9 17C9 16.4696 8.78929 15.9609 8.41421 15.5858C8.03914 15.2107 7.53043 15 7 15H5C4.46957 15 3.96086 15.2107 3.58579 15.5858C3.21071 15.9609 3 16.4696 3 17V19C3 19.5304 3.21071 20.0391 3.58579 20.4142C3.96086 20.7893 4.46957 21 5 21H7C7.53043 21 8.03914 20.7893 8.41421 20.4142C8.78929 20.0391 9 19.5304 9 19V17Z" stroke="#C533B9" stroke-width="2" stroke-linecap="round" stroke-linejoin="round"/>
</svg>
