<svg width="24" height="24" viewBox="0 0 24 24" fill="none" xmlns="http://www.w3.org/2000/svg">
<path d="M17.75 9.01001C17.23 11.09 15.92 12.65 14.57 14.5M17.75 9.01001C17.0999 8.07655 16.2321 7.31558 15.2217 6.79298C14.2113 6.27039 13.0888 6.0019 11.9513 6.01077C10.8138 6.01963 9.69557 6.30558 8.69345 6.84385C7.69133 7.38213 6.83549 8.15652 6.2 9.1C6.06 8.5 6 7.82 6 7C6 3.5 8.83 2 11.98 2C15.24 2 18 3.5 18 7C18 7.73 17.91 8.40001 17.75 9.01001ZM14.57 14.5L11.97 18.04M14.57 14.5L18.5 19.5L14.96 22.04L11.97 18.04M11.97 18.04L9 22.04L5.5 19.5L9.35 14.53M9.35 14.53C7.49 11.92 6.55 10.76 6.19 9.09001M9.35 14.53L11.9901 11.22M11.9901 11.22C13.0001 9.99997 14 9 14 8C14 7.46957 13.7893 6.96086 13.4142 6.58579C13.0391 6.21071 12.5304 6 12 6C11.4696 6 10.9609 6.21071 10.5858 6.58579C10.2107 6.96086 10 7.46957 10 8C10 9 11.0001 9.99997 11.9901 11.22Z" stroke="#C533B9" stroke-width="2" stroke-linecap="round" stroke-linejoin="round"/>
</svg>
