<svg width="24" height="24" viewBox="0 0 24 24" fill="none" xmlns="http://www.w3.org/2000/svg">
<path d="M9 19C9 20.6569 7.65685 22 6 22C4.34315 22 3 20.6569 3 19C3 17.3431 4.34315 16 6 16C7.65685 16 9 17.3431 9 19ZM9 19H17.5C18.4283 19 19.3185 18.6313 19.9749 17.9749C20.6313 17.3185 21 16.4283 21 15.5C21 14.5717 20.6313 13.6815 19.9749 13.0251C19.3185 12.3687 18.4283 12 17.5 12H6.5C5.57174 12 4.6815 11.6313 4.02513 10.9749C3.36875 10.3185 3 9.42826 3 8.5C3 7.57174 3.36875 6.6815 4.02513 6.02513C4.6815 5.36875 5.57174 5 6.5 5H15M15 5C15 6.65685 16.3431 8 18 8C19.6569 8 21 6.65685 21 5C21 3.34315 19.6569 2 18 2C16.3431 2 15 3.34315 15 5Z" stroke="#C533B9" stroke-width="2" stroke-linecap="round" stroke-linejoin="round"/>
</svg>
