<svg width="24" height="24" viewBox="0 0 24 24" fill="none" xmlns="http://www.w3.org/2000/svg">
<g clip-path="url(#clip0_1196_3378)">
<path d="M14.5 12.5L16.5 10.5M11.5 9.5L13.5 7.5M8.5 6.5L10.5 4.5M17.5 15.5L19.5 13.5M21.2998 15.3C21.5235 15.523 21.7011 15.788 21.8222 16.0797C21.9433 16.3714 22.0057 16.6842 22.0057 17C22.0057 17.3159 21.9433 17.6287 21.8222 17.9204C21.7011 18.2121 21.5235 18.4771 21.2998 18.7L18.6998 21.3C18.4768 21.5238 18.2119 21.7013 17.9202 21.8225C17.6284 21.9436 17.3157 22.0059 16.9998 22.0059C16.6839 22.0059 16.3712 21.9436 16.0794 21.8225C15.7877 21.7013 15.5228 21.5238 15.2998 21.3L2.6998 8.70005C2.25036 8.24842 1.99805 7.6372 1.99805 7.00005C1.99805 6.36289 2.25036 5.75167 2.6998 5.30005L5.2998 2.70005C5.75143 2.2506 6.36265 1.99829 6.9998 1.99829C7.63695 1.99829 8.24818 2.2506 8.6998 2.70005L21.2998 15.3Z" stroke="#C533B9" stroke-width="2" stroke-linecap="round" stroke-linejoin="round"/>
</g>
<defs>
<clipPath id="clip0_1196_3378">
<rect width="24" height="24" fill="white"/>
</clipPath>
</defs>
</svg>
