<svg width="24" height="24" viewBox="0 0 24 24" fill="none" xmlns="http://www.w3.org/2000/svg">
<path d="M7 21H17M11.3799 12C10.7743 12.0056 10.1889 11.7821 9.74117 11.3742C9.29346 10.9663 9.01653 10.4042 8.96592 9.80063C8.91531 9.19708 9.09476 8.59672 9.46828 8.11995C9.8418 7.64318 10.3818 7.32527 10.9799 7.22997C10.8841 6.8062 10.9052 6.36438 11.0408 5.95164C11.1765 5.5389 11.4216 5.17072 11.7501 4.88638C12.0786 4.60203 12.4781 4.41219 12.906 4.33709C13.3339 4.262 13.7742 4.30446 14.1799 4.45997C14.3575 4.18033 14.5911 3.9405 14.866 3.75557C15.1409 3.57064 15.451 3.44462 15.777 3.38544C16.103 3.32626 16.4376 3.3352 16.76 3.41171C17.0823 3.48821 17.3853 3.63062 17.6499 3.82997C18.1115 3.46719 18.69 3.28617 19.276 3.32116C19.862 3.35615 20.4149 3.60472 20.83 4.01984C21.2451 4.43496 21.4937 4.98783 21.5287 5.57386C21.5637 6.15988 21.3827 6.7384 21.0199 7.19997C21.2457 7.4999 21.398 7.84862 21.4645 8.2181C21.5311 8.58758 21.51 8.96752 21.403 9.32738C21.296 9.68724 21.1061 10.017 20.8485 10.2901C20.5909 10.5632 20.2729 10.7721 19.9199 10.9C20.0111 11.2599 20.0214 11.6356 19.9499 12M13 12L17 8M10.9001 7.24997C10.3515 6.66523 9.6396 6.25931 8.85703 6.08509C8.07445 5.91087 7.25754 5.97645 6.51278 6.27328C5.76802 6.5701 5.12995 7.0844 4.68175 7.74915C4.23354 8.41389 3.99599 9.19824 4.00005 9.99997C4.00005 10.73 4.20005 11.41 4.54005 12M12 21C14.3869 21 16.6761 20.0518 18.364 18.364C20.0518 16.6761 21 14.3869 21 12H3C3 14.3869 3.94821 16.6761 5.63604 18.364C7.32387 20.0518 9.61305 21 12 21Z" stroke="#C533B9" stroke-width="2" stroke-linecap="round" stroke-linejoin="round"/>
</svg>
