<svg width="24" height="24" viewBox="0 0 24 24" fill="none" xmlns="http://www.w3.org/2000/svg">
<path d="M3 11V14C3 14.2652 3.10536 14.5196 3.29289 14.7071C3.48043 14.8946 3.73478 15 4 15M3 11L10.77 4.96006C11.1214 4.68597 11.5543 4.53711 12 4.53711C12.4457 4.53711 12.8786 4.68597 13.23 4.96006L21 11M3 11H21M4 15H20M4 15C3.73478 15 3.48043 15.1054 3.29289 15.2929C3.10536 15.4804 3 15.7348 3 16V18C3 18.2652 3.10536 18.5196 3.29289 18.7071C3.48043 18.8946 3.73478 19 4 19H12M20 15C20.2652 15 20.5196 14.8946 20.7071 14.7071C20.8946 14.5196 21 14.2652 21 14V11M20 15C20.2652 15 20.5196 15.1054 20.7071 15.2929C20.8946 15.4804 21 15.7348 21 16V18C21 18.2652 20.8946 18.5196 20.7071 18.7071C20.5196 18.8946 20.2652 19 20 19H16.17M12.97 19.77L7 15H19.5L15.75 19.5C15.4134 19.8988 14.9343 20.1502 14.4149 20.2007C13.8956 20.2511 13.377 20.0966 12.97 19.77Z" stroke="#C533B9" stroke-width="2" stroke-linecap="round" stroke-linejoin="round"/>
</svg>
