<svg width="24" height="24" viewBox="0 0 24 24" fill="none" xmlns="http://www.w3.org/2000/svg">
<path d="M8.99902 15L11.999 12M16.999 13C16.999 11.4087 16.3669 9.88258 15.2417 8.75736C14.1164 7.63214 12.5903 7 10.999 7M20.999 13C20.999 10.3478 19.9455 7.8043 18.0701 5.92893C16.1947 4.05357 13.6512 3 10.999 3M3.99927 10C3.18371 11.3951 2.85341 13.0211 3.05999 14.6238C3.26657 16.2265 3.9984 17.7155 5.14106 18.8582C6.28372 20.0009 7.7728 20.7327 9.37551 20.9393C10.9782 21.1459 12.6042 20.8156 13.9993 20L3.99927 10Z" stroke="#C533B9" stroke-width="2" stroke-linecap="round" stroke-linejoin="round"/>
</svg>
