<svg width="24" height="24" viewBox="0 0 24 24" fill="none" xmlns="http://www.w3.org/2000/svg">
<path d="M10 2V6H16M18 18V11H10V18M18 22H4C3.46957 22 2.96086 21.7893 2.58579 21.4142C2.21071 21.0391 2 20.5304 2 20V6M6 4C6 3.46957 6.21071 2.96086 6.58579 2.58579C6.96086 2.21071 7.46957 2 8 2H18L22 6V16.2C21.9503 16.695 21.7178 17.1538 21.348 17.4866C20.9781 17.8195 20.4975 18.0025 20 18H8C7.46957 18 6.96086 17.7893 6.58579 17.4142C6.21071 17.0391 6 16.5304 6 16V4Z" stroke="#C533B9" stroke-width="2" stroke-linecap="round" stroke-linejoin="round"/>
</svg>
