<svg width="24" height="24" viewBox="0 0 24 24" fill="none" xmlns="http://www.w3.org/2000/svg">
<path d="M5.41992 9.41992L7.99992 11.9999M13.9999 6L5.41992 14.58M10.8 14.7998L14 17.9998M16 12H14M22 12H20M6 8C6 9.10457 5.10457 10 4 10C2.89543 10 2 9.10457 2 8C2 6.89543 2.89543 6 4 6C5.10457 6 6 6.89543 6 8ZM6 16C6 17.1046 5.10457 18 4 18C2.89543 18 2 17.1046 2 16C2 14.8954 2.89543 14 4 14C5.10457 14 6 14.8954 6 16Z" stroke="#C533B9" stroke-width="2" stroke-linecap="round" stroke-linejoin="round"/>
</svg>
