<svg width="24" height="24" viewBox="0 0 24 24" fill="none" xmlns="http://www.w3.org/2000/svg">
<path d="M4.5 10H4C3.46957 10 2.96086 9.78929 2.58579 9.41421C2.21071 9.03914 2 8.53043 2 8V4C2 3.46957 2.21071 2.96086 2.58579 2.58579C2.96086 2.21071 3.46957 2 4 2H20C20.5304 2 21.0391 2.21071 21.4142 2.58579C21.7893 2.96086 22 3.46957 22 4V8C22 8.53043 21.7893 9.03914 21.4142 9.41421C21.0391 9.78929 20.5304 10 20 10H19.5M4.5 14H4C3.46957 14 2.96086 14.2107 2.58579 14.5858C2.21071 14.9609 2 15.4696 2 16V20C2 20.5304 2.21071 21.0391 2.58579 21.4142C2.96086 21.7893 3.46957 22 4 22H20C20.5304 22 21.0391 21.7893 21.4142 21.4142C21.7893 21.0391 22 20.5304 22 20V16C22 15.4696 21.7893 14.9609 21.4142 14.5858C21.0391 14.2107 20.5304 14 20 14H19.5M6 6H6.01M6 18H6.01M15.7 13.4001L14.8 13.1001M9.20005 10.9001L8.30005 10.6001M10.6001 15.6998L10.9001 14.7998M13.6 15.7002L13.2 14.7002M10.7999 9.2998L10.3999 8.2998M8.30005 13.6002L9.30005 13.2002M14.7 10.7999L15.7 10.3999M13.4001 8.2998L13.1001 9.1998M15 12C15 13.6569 13.6569 15 12 15C10.3431 15 9 13.6569 9 12C9 10.3431 10.3431 9 12 9C13.6569 9 15 10.3431 15 12Z" stroke="#C533B9" stroke-width="2" stroke-linecap="round" stroke-linejoin="round"/>
</svg>
