<svg width="24" height="24" viewBox="0 0 24 24" fill="none" xmlns="http://www.w3.org/2000/svg">
<path d="M14 11C14 11.5304 13.7893 12.0391 13.4142 12.4142C13.0392 12.7893 12.5304 13 12 13C11.4696 13 10.9609 12.7893 10.5858 12.4142C10.2107 12.0391 10 11.5304 10 11C10 9.93912 10.4214 8.92171 11.1716 8.17156C11.9217 7.42142 12.9391 6.99999 14 6.99999C15.0609 6.99999 16.0783 7.42142 16.8284 8.17156C17.5786 8.92171 18 9.93912 18 11C18 12.5913 17.3679 14.1174 16.2427 15.2426C15.1174 16.3678 13.5913 17 12 17C10.4087 17 8.88259 16.3678 7.75737 15.2426C6.63215 14.1174 6.00001 12.5913 6.00001 11C6.00001 8.87826 6.84287 6.84342 8.34316 5.34313C9.84345 3.84284 11.8783 2.99999 14 2.99999C16.1217 2.99999 18.1566 3.84284 19.6569 5.34313C21.1572 6.84342 22 8.87826 22 11C22 13.6522 20.9464 16.1957 19.0711 18.0711C17.1957 19.9464 14.6522 21 12 21C9.34785 21 6.80431 19.9464 4.92894 18.0711C3.05358 16.1957 2.00001 13.6522 2.00001 11C1.99633 8.39358 2.84631 5.85768 4.42001 3.77999C4.57324 3.55401 4.77111 3.3618 5.00144 3.21519C5.23177 3.06859 5.48967 2.97069 5.75927 2.92754C6.02887 2.88439 6.30444 2.8969 6.56902 2.96429C6.8336 3.03168 7.08158 3.15253 7.29769 3.31939C7.51379 3.48626 7.69344 3.6956 7.82557 3.93453C7.9577 4.17346 8.0395 4.43691 8.06595 4.70865C8.0924 4.9804 8.06293 5.25468 7.97936 5.5146C7.89579 5.77452 7.75988 6.01458 7.58001 6.21999" stroke="#C533B9" stroke-width="2" stroke-linecap="round" stroke-linejoin="round"/>
</svg>
