<svg width="24" height="24" viewBox="0 0 24 24" fill="none" xmlns="http://www.w3.org/2000/svg">
<path d="M20 13C20 18 16.5 20.5 12.34 21.95C12.1222 22.0238 11.8855 22.0203 11.67 21.94C7.5 20.5 4 18 4 13V6.00002C4 5.73481 4.10536 5.48045 4.29289 5.29292C4.48043 5.10538 4.73478 5.00002 5 5.00002C7 5.00002 9.5 3.80002 11.24 2.28002C11.4519 2.09902 11.7214 1.99957 12 1.99957C12.2786 1.99957 12.5481 2.09902 12.76 2.28002C14.51 3.81002 17 5.00002 19 5.00002C19.2652 5.00002 19.5196 5.10538 19.7071 5.29292C19.8946 5.48045 20 5.73481 20 6.00002V13Z" stroke="#C533B9" stroke-width="2" stroke-linecap="round" stroke-linejoin="round"/>
</svg>
