<svg width="24" height="24" viewBox="0 0 24 24" fill="none" xmlns="http://www.w3.org/2000/svg">
<path d="M12 2V9.5M12 9.5C10.6193 9.5 9.5 10.6193 9.5 12M12 9.5C13.3807 9.5 14.5 10.6193 14.5 12M19 5L13.77 10.23M22 12H14.5M14.5 12C14.5 13.3807 13.3807 14.5 12 14.5M19 19L13.77 13.77M12 14.5V22M12 14.5C10.6193 14.5 9.5 13.3807 9.5 12M10.23 13.77L5 19M9.5 12H2M10.23 10.23L5 5M20 12C20 16.4183 16.4183 20 12 20C7.58172 20 4 16.4183 4 12C4 7.58172 7.58172 4 12 4C16.4183 4 20 7.58172 20 12Z" stroke="#C533B9" stroke-width="2" stroke-linecap="round" stroke-linejoin="round"/>
</svg>
