<svg width="24" height="24" viewBox="0 0 24 24" fill="none" xmlns="http://www.w3.org/2000/svg">
<path d="M2 21C2.6 21.5 3.2 22 4.5 22C7 22 7 20 9.5 20C10.8 20 11.4 20.5 12 21C12.6 21.5 13.2 22 14.5 22C17 22 17 20 19.5 20C20.8 20 21.4 20.5 22 21M19.38 20C20.4557 18.1846 21.0158 16.1101 21 14L12 10M12 10L3 14C3 16.9 3.94 19.34 5.81 21.76M12 10V14M19 13V7C19 6.46957 18.7893 5.96086 18.4142 5.58579C18.0391 5.21071 17.5304 5 17 5H7C6.46957 5 5.96086 5.21071 5.58579 5.58579C5.21071 5.96086 5 6.46957 5 7V13M12 2V5" stroke="#C533B9" stroke-width="2" stroke-linecap="round" stroke-linejoin="round"/>
</svg>
