<svg width="24" height="24" viewBox="0 0 24 24" fill="none" xmlns="http://www.w3.org/2000/svg">
<path d="M20.3798 3.46L15.9998 2C15.9998 3.06087 15.5784 4.07828 14.8282 4.82843C14.0781 5.57857 13.0607 6 11.9998 6C10.9389 6 9.92151 5.57857 9.17137 4.82843C8.42122 4.07828 7.9998 3.06087 7.9998 2L3.6198 3.46C3.16718 3.61079 2.78337 3.91842 2.53765 4.32734C2.29193 4.73627 2.20047 5.21956 2.2798 5.69L2.8598 9.16C2.89787 9.39491 3.01848 9.60855 3.19994 9.76251C3.3814 9.91648 3.61182 10.0007 3.8498 10H5.9998V20C5.9998 21.1 6.8998 22 7.9998 22H15.9998C16.5302 22 17.0389 21.7893 17.414 21.4142C17.7891 21.0391 17.9998 20.5304 17.9998 20V10H20.1498C20.3878 10.0007 20.6182 9.91648 20.7997 9.76251C20.9811 9.60855 21.1017 9.39491 21.1398 9.16L21.7198 5.69C21.7991 5.21956 21.7077 4.73627 21.4619 4.32734C21.2162 3.91842 20.8324 3.61079 20.3798 3.46Z" stroke="#C533B9" stroke-width="2" stroke-linecap="round" stroke-linejoin="round"/>
</svg>
