<svg width="24" height="24" viewBox="0 0 24 24" fill="none" xmlns="http://www.w3.org/2000/svg">
<path d="M2.05078 2.0498H4.05078L6.71078 14.4698C6.80836 14.9247 7.06145 15.3313 7.42649 15.6197C7.79153 15.908 8.24569 16.0602 8.71078 16.0498H18.4908C18.946 16.0491 19.3873 15.8931 19.7418 15.6076C20.0964 15.3222 20.3429 14.9243 20.4408 14.4798L22.0908 7.0498H5.12078M9.00073 21C9.00073 21.5523 8.55302 22 8.00073 22C7.44845 22 7.00073 21.5523 7.00073 21C7.00073 20.4477 7.44845 20 8.00073 20C8.55302 20 9.00073 20.4477 9.00073 21ZM20.0007 21C20.0007 21.5523 19.553 22 19.0007 22C18.4484 22 18.0007 21.5523 18.0007 21C18.0007 20.4477 18.4484 20 19.0007 20C19.553 20 20.0007 20.4477 20.0007 21Z" stroke="#C533B9" stroke-width="2" stroke-linecap="round" stroke-linejoin="round"/>
</svg>
