<svg width="24" height="24" viewBox="0 0 24 24" fill="none" xmlns="http://www.w3.org/2000/svg">
<path d="M11.9993 22V15L9.99927 13M13.9993 14L11.9993 16M16.9992 8V8.8C18.1617 9.46723 19.0673 10.5045 19.5716 11.7464C20.0759 12.9883 20.1498 14.3633 19.7816 15.6521C19.4134 16.9409 18.6242 18.0693 17.5399 18.8574C16.4556 19.6454 15.1387 20.0476 13.7992 20H9.99917C8.62811 19.9069 7.32184 19.3817 6.26796 18.4998C5.21408 17.6178 4.46682 16.4246 4.13353 15.0914C3.80023 13.7582 3.89805 12.3537 4.41292 11.0796C4.92779 9.80549 5.83322 8.72734 6.99917 8C6.99917 6.67392 7.52595 5.40215 8.46364 4.46447C9.40132 3.52678 10.6731 3 11.9992 3C13.3253 3 14.597 3.52678 15.5347 4.46447C16.4724 5.40215 16.9992 6.67392 16.9992 8Z" stroke="#C533B9" stroke-width="2" stroke-linecap="round" stroke-linejoin="round"/>
</svg>
