<svg width="24" height="24" viewBox="0 0 24 24" fill="none" xmlns="http://www.w3.org/2000/svg">
<path d="M9 13C9.55228 13 10 12.5523 10 12C10 11.4477 9.55228 11 9 11C8.44772 11 8 11.4477 8 12C8 12.5523 8.44772 13 9 13Z" stroke="#C533B9" stroke-width="2" stroke-linecap="round" stroke-linejoin="round"/>
<path d="M15 13C15.5523 13 16 12.5523 16 12C16 11.4477 15.5523 11 15 11C14.4477 11 14 11.4477 14 12C14 12.5523 14.4477 13 15 13Z" stroke="#C533B9" stroke-width="2" stroke-linecap="round" stroke-linejoin="round"/>
<path d="M8 20V22H16V20" stroke="#C533B9" stroke-width="2" stroke-linecap="round" stroke-linejoin="round"/>
<path d="M12.5 17L12 16L11.5 17H12.5Z" stroke="#C533B9" stroke-width="2" stroke-linecap="round" stroke-linejoin="round"/>
<path d="M16 20C16.3767 19.9998 16.7457 19.8933 17.0644 19.6926C17.3832 19.4918 17.6388 19.2052 17.8018 18.8656C17.9648 18.526 18.0286 18.1473 17.9858 17.773C17.943 17.3987 17.7954 17.0442 17.56 16.7501C18.706 15.6424 19.495 14.2177 19.8258 12.6586C20.1566 11.0994 20.0142 9.47706 19.4168 7.99943C18.8194 6.52181 17.7942 5.25631 16.4728 4.36522C15.1513 3.47412 13.5938 2.99805 12 2.99805C10.4062 2.99805 8.84869 3.47412 7.52725 4.36522C6.2058 5.25631 5.18065 6.52181 4.58324 7.99943C3.98584 9.47706 3.84341 11.0994 4.17423 12.6586C4.50505 14.2177 5.29403 15.6424 6.44 16.7501C6.20457 17.0442 6.05697 17.3987 6.01419 17.773C5.97141 18.1473 6.0352 18.526 6.19821 18.8656C6.36121 19.2052 6.61681 19.4918 6.93558 19.6926C7.25434 19.8933 7.62331 19.9998 8 20" stroke="#C533B9" stroke-width="2" stroke-linecap="round" stroke-linejoin="round"/>
</svg>
