<svg width="24" height="24" viewBox="0 0 24 24" fill="none" xmlns="http://www.w3.org/2000/svg">
<path d="M16 3.5C16 2.67157 15.3284 2 14.5 2C13.6716 2 13 2.67157 13 3.5V8.5C13 9.32843 13.6716 10 14.5 10C15.3284 10 16 9.32843 16 8.5V3.5Z" stroke="#C533B9" stroke-width="2" stroke-linecap="round" stroke-linejoin="round"/>
<path d="M19 8.5V10H20.5C20.7967 10 21.0867 9.91203 21.3334 9.74721C21.58 9.58238 21.7723 9.34812 21.8858 9.07403C21.9993 8.79994 22.0291 8.49834 21.9712 8.20737C21.9133 7.91639 21.7704 7.64912 21.5607 7.43934C21.3509 7.22956 21.0836 7.0867 20.7926 7.02882C20.5017 6.97095 20.2001 7.00065 19.926 7.11418C19.6519 7.22771 19.4176 7.41997 19.2528 7.66665C19.088 7.91332 19 8.20333 19 8.5Z" stroke="#C533B9" stroke-width="2" stroke-linecap="round" stroke-linejoin="round"/>
<path d="M11 15.5C11 14.6716 10.3284 14 9.5 14C8.67157 14 8 14.6716 8 15.5V20.5C8 21.3284 8.67157 22 9.5 22C10.3284 22 11 21.3284 11 20.5V15.5Z" stroke="#C533B9" stroke-width="2" stroke-linecap="round" stroke-linejoin="round"/>
<path d="M5 15.5V14H3.5C3.20333 14 2.91332 14.088 2.66665 14.2528C2.41997 14.4176 2.22771 14.6519 2.11418 14.926C2.00065 15.2001 1.97094 15.5017 2.02882 15.7926C2.0867 16.0836 2.22956 16.3509 2.43934 16.5607C2.64912 16.7704 2.91639 16.9133 3.20737 16.9712C3.49834 17.0291 3.79994 16.9993 4.07403 16.8858C4.34811 16.7723 4.58238 16.58 4.7472 16.3334C4.91203 16.0867 5 15.7967 5 15.5Z" stroke="#C533B9" stroke-width="2" stroke-linecap="round" stroke-linejoin="round"/>
<path d="M20.5 13H15.5C14.6716 13 14 13.6716 14 14.5C14 15.3284 14.6716 16 15.5 16H20.5C21.3284 16 22 15.3284 22 14.5C22 13.6716 21.3284 13 20.5 13Z" stroke="#C533B9" stroke-width="2" stroke-linecap="round" stroke-linejoin="round"/>
<path d="M15.5 19H14V20.5C14 20.7967 14.088 21.0867 14.2528 21.3334C14.4176 21.58 14.6519 21.7723 14.926 21.8858C15.2001 21.9993 15.5017 22.0291 15.7926 21.9712C16.0836 21.9133 16.3509 21.7704 16.5607 21.5607C16.7704 21.3509 16.9133 21.0836 16.9712 20.7926C17.0291 20.5017 16.9993 20.2001 16.8858 19.926C16.7723 19.6519 16.58 19.4176 16.3334 19.2528C16.0867 19.088 15.7967 19 15.5 19Z" stroke="#C533B9" stroke-width="2" stroke-linecap="round" stroke-linejoin="round"/>
<path d="M8.5 8H3.5C2.67157 8 2 8.67157 2 9.5C2 10.3284 2.67157 11 3.5 11H8.5C9.32843 11 10 10.3284 10 9.5C10 8.67157 9.32843 8 8.5 8Z" stroke="#C533B9" stroke-width="2" stroke-linecap="round" stroke-linejoin="round"/>
<path d="M8.5 5H10V3.5C10 3.20333 9.91203 2.91332 9.74721 2.66665C9.58238 2.41997 9.34812 2.22771 9.07403 2.11418C8.79994 2.00065 8.49834 1.97094 8.20737 2.02882C7.91639 2.0867 7.64912 2.22956 7.43934 2.43934C7.22956 2.64912 7.0867 2.91639 7.02882 3.20737C6.97095 3.49834 7.00065 3.79994 7.11418 4.07403C7.22771 4.34811 7.41997 4.58238 7.66665 4.7472C7.91332 4.91203 8.20333 5 8.5 5Z" stroke="#C533B9" stroke-width="2" stroke-linecap="round" stroke-linejoin="round"/>
</svg>
