<svg width="24" height="24" viewBox="0 0 24 24" fill="none" xmlns="http://www.w3.org/2000/svg">
<path d="M2 13C2 13.7879 2.15519 14.5681 2.45672 15.2961C2.75825 16.0241 3.20021 16.6855 3.75736 17.2426C4.31451 17.7998 4.97595 18.2417 5.7039 18.5433C6.43185 18.8448 7.21207 19 8 19C8.78793 19 9.56815 18.8448 10.2961 18.5433C11.0241 18.2417 11.6855 17.7998 12.2426 17.2426C12.7998 16.6855 13.2417 16.0241 13.5433 15.2961C13.8448 14.5681 14 13.7879 14 13C14 11.9391 13.5786 10.9217 12.8284 10.1716C12.0783 9.42143 11.0609 9 10 9C8.93913 9 7.92172 9.42143 7.17157 10.1716C6.42143 10.9217 6 11.9391 6 13C6 13.5304 6.21071 14.0391 6.58579 14.4142C6.96086 14.7893 7.46957 15 8 15C8.53043 15 9.03914 14.7893 9.41421 14.4142C9.78929 14.0391 10 13.5304 10 13M2 13C2 17.4183 5.58172 21 10 21C14.4183 21 18 17.4183 18 13M2 13C2 8.58172 5.58172 5 10 5C14.4183 5 18 8.58172 18 13M18 13V7C18 6.46957 18.2107 5.96086 18.5858 5.58579C18.9609 5.21071 19.4696 5 20 5C20.5304 5 21.0391 5.21071 21.4142 5.58579C21.7893 5.96086 22 6.46957 22 7V13C22 17.4 18.4 21 14 21H2M18 3L19.1 5.2M21.9999 3L20.8999 5.2" stroke="#C533B9" stroke-width="2" stroke-linecap="round" stroke-linejoin="round"/>
</svg>
