<svg width="24" height="24" viewBox="0 0 24 24" fill="none" xmlns="http://www.w3.org/2000/svg">
<path d="M20 9V6C20 5.46957 19.7893 4.96086 19.4142 4.58579C19.0391 4.21071 18.5304 4 18 4H6C5.46957 4 4.96086 4.21071 4.58579 4.58579C4.21071 4.96086 4 5.46957 4 6V9M20 9C20.5304 9 21.0391 9.21071 21.4142 9.58579C21.7893 9.96086 22 10.4696 22 11V16C22 16.5304 21.7893 17.0391 21.4142 17.4142C21.0391 17.7893 20.5304 18 20 18M20 9C19.4696 9 18.9609 9.21071 18.5858 9.58579C18.2107 9.96086 18 10.4696 18 11V13H6V11C6 10.4696 5.78929 9.96086 5.41421 9.58579C5.03914 9.21071 4.53043 9 4 9M4 9C3.46957 9 2.96086 9.21071 2.58579 9.58579C2.21071 9.96086 2 10.4696 2 11V16C2 16.5304 2.21071 17.0391 2.58579 17.4142C2.96086 17.7893 3.46957 18 4 18M4 18H20M4 18V20M20 18V20M12 4V13" stroke="#C533B9" stroke-width="2" stroke-linecap="round" stroke-linejoin="round"/>
</svg>
