<svg width="24" height="24" viewBox="0 0 24 24" fill="none" xmlns="http://www.w3.org/2000/svg">
<path d="M12 3L10.1 8.8C10.0027 9.10122 9.83531 9.37504 9.61157 9.59895C9.38783 9.82287 9.11414 9.99048 8.813 10.088L3 12L8.8 13.9C9.10122 13.9973 9.37504 14.1647 9.59895 14.3884C9.82287 14.6122 9.99048 14.8859 10.088 15.187L12 21L13.9 15.2C13.9973 14.8988 14.1647 14.625 14.3884 14.401C14.6122 14.1771 14.8859 14.0095 15.187 13.912L21 12L15.2 10.1C14.8988 10.0027 14.625 9.83531 14.401 9.61157C14.1771 9.38783 14.0095 9.11414 13.912 8.813L12 3Z" stroke="#C533B9" stroke-width="2" stroke-linecap="round" stroke-linejoin="round"/>
</svg>
