<svg width="24" height="24" viewBox="0 0 24 24" fill="none" xmlns="http://www.w3.org/2000/svg">
<path d="M4.8 2.2999C4.80356 2.36273 4.8268 2.42285 4.86641 2.47176C4.90603 2.52066 4.96002 2.55586 5.02075 2.57238C5.08148 2.58891 5.14586 2.58592 5.2048 2.56383C5.26373 2.54175 5.31422 2.50169 5.34913 2.44932C5.38404 2.39696 5.4016 2.33494 5.39932 2.27204C5.39704 2.20915 5.37504 2.14857 5.33643 2.09887C5.29782 2.04916 5.24456 2.01287 5.18418 1.9951C5.12381 1.97734 5.05937 1.97902 5 1.9999H4C3.46957 1.9999 2.96086 2.21061 2.58579 2.58568C2.21071 2.96076 2 3.46946 2 3.9999V8.9999C2 10.5912 2.63214 12.1173 3.75736 13.2425C4.88258 14.3678 6.4087 14.9999 8 14.9999M8 14.9999C9.5913 14.9999 11.1174 14.3678 12.2426 13.2425C13.3679 12.1173 14 10.5912 14 8.9999V3.9999C14 3.46946 13.7893 2.96076 13.4142 2.58568C13.0391 2.21061 12.5304 1.9999 12 1.9999H11C10.9803 2.0196 10.9647 2.04298 10.954 2.06872C10.9434 2.09446 10.9379 2.12204 10.9379 2.1499C10.9379 2.17776 10.9434 2.20534 10.954 2.23108C10.9647 2.25681 10.9803 2.2802 11 2.2999C11.0197 2.3196 11.0431 2.33522 11.0688 2.34588C11.0946 2.35654 11.1221 2.36203 11.15 2.36203C11.1779 2.36203 11.2054 2.35654 11.2312 2.34588C11.2569 2.33522 11.2803 2.3196 11.3 2.2999M8 14.9999V16C8 17.5913 8.63214 19.1174 9.75736 20.2426C10.8826 21.3679 12.4087 22 14 22C15.5913 22 17.1174 21.3679 18.2426 20.2426C19.3679 19.1174 20 17.5913 20 16V12M20 12C21.1046 12 22 11.1046 22 10C22 8.89543 21.1046 8 20 8C18.8954 8 18 8.89543 18 10C18 11.1046 18.8954 12 20 12Z" stroke="#C533B9" stroke-width="2" stroke-linecap="round" stroke-linejoin="round"/>
</svg>
