<svg width="24" height="24" viewBox="0 0 24 24" fill="none" xmlns="http://www.w3.org/2000/svg">
<path d="M8 2H6C4.89543 2 4 2.89543 4 4V20C4 21.1046 4.89543 22 6 22H8C9.10457 22 10 21.1046 10 20V4C10 2.89543 9.10457 2 8 2Z" stroke="#C533B9" stroke-width="2" stroke-linecap="round" stroke-linejoin="round"/>
<path d="M18 2H16C14.8954 2 14 2.89543 14 4V20C14 21.1046 14.8954 22 16 22H18C19.1046 22 20 21.1046 20 20V4C20 2.89543 19.1046 2 18 2Z" stroke="#C533B9" stroke-width="2" stroke-linecap="round" stroke-linejoin="round"/>
</svg>
