<svg width="24" height="24" viewBox="0 0 24 24" fill="none" xmlns="http://www.w3.org/2000/svg">
<path d="M20 4H4C2.89543 4 2 4.89543 2 6V8C2 9.10457 2.89543 10 4 10H20C21.1046 10 22 9.10457 22 8V6C22 4.89543 21.1046 4 20 4Z" stroke="#C533B9" stroke-width="2" stroke-linecap="round" stroke-linejoin="round"/>
<path d="M20 14H4C2.89543 14 2 14.8954 2 16V18C2 19.1046 2.89543 20 4 20H20C21.1046 20 22 19.1046 22 18V16C22 14.8954 21.1046 14 20 14Z" stroke="#C533B9" stroke-width="2" stroke-linecap="round" stroke-linejoin="round"/>
</svg>
