<svg width="24" height="24" viewBox="0 0 24 24" fill="none" xmlns="http://www.w3.org/2000/svg">
<path d="M10.0644 12.4929L3.88442 13.8109C3.64454 13.863 3.3938 13.8185 3.18645 13.6871C2.9791 13.5558 2.8318 13.348 2.77642 13.1089L2.23942 10.9589C2.17628 10.6999 2.21213 10.4266 2.33995 10.1926C2.46777 9.9586 2.67834 9.78076 2.93042 9.69391L16.4344 5.25391M13.5596 11.7472L17.8916 10.8232M15.9995 21L12.8945 14.79M6.15747 8.63281L7.27147 13.0888M7.99951 21L11.1045 14.79M16.4845 5.94012C16.3559 5.4256 16.437 4.88109 16.7098 4.42634C16.9827 3.97158 17.425 3.64382 17.9395 3.51512L19.0295 3.24312C19.2866 3.17898 19.5586 3.21951 19.7859 3.35583C20.0131 3.49214 20.177 3.71308 20.2415 3.97012L21.7565 10.0301C21.8209 10.2874 21.7805 10.5597 21.6442 10.7872C21.5078 11.0147 21.2867 11.1787 21.0295 11.2431L19.9395 11.5151C19.4249 11.6437 18.8804 11.5626 18.4257 11.2897C17.9709 11.0169 17.6432 10.5746 17.5145 10.0601L16.4845 5.94012ZM13.9995 13C13.9995 14.1046 13.1041 15 11.9995 15C10.8949 15 9.99951 14.1046 9.99951 13C9.99951 11.8954 10.8949 11 11.9995 11C13.1041 11 13.9995 11.8954 13.9995 13Z" stroke="#C533B9" stroke-width="2" stroke-linecap="round" stroke-linejoin="round"/>
</svg>
