<svg width="24" height="24" viewBox="0 0 24 24" fill="none" xmlns="http://www.w3.org/2000/svg">
<path d="M17 14V2M8.99992 18.12L9.99992 14H4.16992C3.85943 14 3.55321 13.9277 3.27549 13.7889C2.99778 13.65 2.75622 13.4484 2.56992 13.2C2.38363 12.9516 2.25772 12.6633 2.20218 12.3578C2.14664 12.0523 2.16298 11.7381 2.24992 11.44L4.57992 3.44C4.70109 3.02457 4.95373 2.65964 5.29992 2.4C5.64611 2.14036 6.06718 2 6.49992 2H19.9999C20.5304 2 21.0391 2.21071 21.4141 2.58579C21.7892 2.96086 21.9999 3.46957 21.9999 4V12C21.9999 12.5304 21.7892 13.0391 21.4141 13.4142C21.0391 13.7893 20.5304 14 19.9999 14H17.2399C16.8678 14.0002 16.5032 14.1042 16.187 14.3003C15.8707 14.4964 15.6155 14.7768 15.4499 15.11L11.9999 22C11.5283 21.9942 11.0642 21.8818 10.6421 21.6714C10.2201 21.461 9.85099 21.1579 9.56252 20.7848C9.27404 20.4117 9.07361 19.9782 8.97618 19.5168C8.87876 19.0554 8.88688 18.5779 8.99992 18.12Z" stroke="#C533B9" stroke-width="2" stroke-linecap="round" stroke-linejoin="round"/>
</svg>
