<svg width="24" height="24" viewBox="0 0 24 24" fill="none" xmlns="http://www.w3.org/2000/svg">
<path d="M2 22V12C2 9.34784 3.05357 6.8043 4.92893 4.92893C6.8043 3.05357 9.34784 2 12 2C14.6522 2 17.1957 3.05357 19.0711 4.92893C20.9464 6.8043 22 9.34784 22 12V22M15 6.7998V8.1998C15 8.94241 14.6839 9.6546 14.1213 10.1797C13.5587 10.7048 12.7956 10.9998 12 10.9998C11.2044 10.9998 10.4413 10.7048 9.87868 10.1797C9.31607 9.6546 9 8.94241 9 8.1998V6.7998M10 15H10.01M14 15H14.01M9 19L7 22M15 19L17 22M10 19C8.93913 19 7.92172 18.5786 7.17157 17.8284C6.42143 17.0783 6 16.0609 6 15V12C6 10.4087 6.63214 8.88258 7.75736 7.75736C8.88258 6.63214 10.4087 6 12 6C13.5913 6 15.1174 6.63214 16.2426 7.75736C17.3679 8.88258 18 10.4087 18 12V15C18 16.0609 17.5786 17.0783 16.8284 17.8284C16.0783 18.5786 15.0609 19 14 19H10Z" stroke="#C533B9" stroke-width="2" stroke-linecap="round" stroke-linejoin="round"/>
</svg>
