<svg width="24" height="24" viewBox="0 0 24 24" fill="none" xmlns="http://www.w3.org/2000/svg">
<path d="M12.0007 22V19M17.0008 14L20.0008 17.3C20.1378 17.4398 20.2308 17.6167 20.2683 17.8088C20.3057 18.001 20.286 18.1998 20.2114 18.3808C20.1369 18.5618 20.0109 18.717 19.849 18.8271C19.6871 18.9371 19.4965 18.9973 19.3008 19H4.7008C4.50507 18.9973 4.31446 18.9371 4.15258 18.8271C3.99071 18.717 3.8647 18.5618 3.79017 18.3808C3.71564 18.1998 3.69587 18.001 3.73331 17.8088C3.77075 17.6167 3.86376 17.4398 4.0008 17.3L7.0008 14H6.7008C6.50507 13.9973 6.31446 13.9371 6.15258 13.8271C5.99071 13.717 5.8647 13.5619 5.79017 13.3808C5.71564 13.1998 5.69587 13.001 5.73331 12.8088C5.77075 12.6167 5.86376 12.4398 6.0008 12.3L9.0008 9H8.8008C8.59655 9.01843 8.39157 8.97361 8.21364 8.87162C8.03572 8.76963 7.89346 8.6154 7.80614 8.42984C7.71881 8.24428 7.69065 8.03636 7.72547 7.83425C7.7603 7.63215 7.85641 7.44564 8.0008 7.3L12.0008 3L16.0008 7.3C16.1452 7.44564 16.2413 7.63215 16.2761 7.83425C16.3109 8.03636 16.2828 8.24428 16.1955 8.42984C16.1081 8.6154 15.9659 8.76963 15.788 8.87162C15.61 8.97361 15.405 9.01843 15.2008 9H15.0008L18.0008 12.3C18.1378 12.4398 18.2308 12.6167 18.2683 12.8088C18.3057 13.001 18.286 13.1998 18.2114 13.3808C18.1369 13.5619 18.0109 13.717 17.849 13.8271C17.6871 13.9371 17.4965 13.9973 17.3008 14H17.0008Z" stroke="#C533B9" stroke-width="2" stroke-linecap="round" stroke-linejoin="round"/>
</svg>
