<svg width="24" height="24" viewBox="0 0 24 24" fill="none" xmlns="http://www.w3.org/2000/svg">
<path d="M12.001 19V22M8.00115 19C7.14315 19.0019 6.30726 18.7279 5.61691 18.2184C4.92656 17.7089 4.41834 16.9909 4.16727 16.1705C3.9162 15.35 3.9356 14.4706 4.22261 13.662C4.50961 12.8534 5.049 12.1586 5.76115 11.68C5.32208 11.1314 5.05831 10.4633 5.00416 9.76273C4.95002 9.06214 5.108 8.36148 5.45756 7.75191C5.80711 7.14235 6.33205 6.65212 6.96406 6.34501C7.59607 6.0379 8.30589 5.92813 9.00115 6.03V6C9.00115 5.20435 9.31722 4.44129 9.87983 3.87868C10.4424 3.31607 11.2055 3 12.0011 3C12.7968 3 13.5599 3.31607 14.1225 3.87868C14.6851 4.44129 15.0011 5.20435 15.0011 6V6.04C15.6964 5.93813 16.4062 6.0479 17.0382 6.35501C17.6702 6.66212 18.1952 7.15235 18.5447 7.76191C18.8943 8.37148 19.0523 9.07214 18.9981 9.77273C18.944 10.4733 18.6802 11.1414 18.2411 11.69C18.9488 12.1702 19.484 12.8645 19.7681 13.6712C20.0522 14.4778 20.0703 15.3543 19.8198 16.1719C19.5692 16.9896 19.0632 17.7055 18.3759 18.2144C17.6887 18.7234 16.8564 18.9987 16.0011 19H8.00115Z" stroke="#C533B9" stroke-width="2" stroke-linecap="round" stroke-linejoin="round"/>
</svg>
