<svg width="24" height="24" viewBox="0 0 24 24" fill="none" xmlns="http://www.w3.org/2000/svg">
<path d="M6.99951 16V22M12.9995 19V22M11.9996 19H20.2996C20.4953 18.9973 20.686 18.9371 20.8478 18.8271C21.0097 18.717 21.1357 18.5618 21.2102 18.3808C21.2848 18.1998 21.3045 18.001 21.2671 17.8088C21.2297 17.6167 21.1367 17.4398 20.9996 17.3L17.9996 14H18.2996C18.4953 13.9973 18.686 13.9371 18.8478 13.8271C19.0097 13.717 19.1357 13.5619 19.2102 13.3808C19.2848 13.1998 19.3045 13.001 19.2671 12.8088C19.2297 12.6167 19.1367 12.4398 18.9996 12.3L15.9996 9H16.1996C16.4039 9.01843 16.6088 8.97361 16.7868 8.87162C16.9647 8.76963 17.1069 8.6154 17.1943 8.42984C17.2816 8.24428 17.3098 8.03636 17.2749 7.83425C17.2401 7.63215 17.144 7.44564 16.9996 7.3L12.9996 3L11.5996 4.5M9.99961 10V10.2C10.6554 10.4522 11.2019 10.9266 11.5438 11.5405C11.8857 12.1544 12.0012 12.8687 11.8703 13.5591C11.7393 14.2494 11.3703 14.8719 10.8274 15.318C10.2845 15.7641 9.60223 16.0054 8.89961 16H4.99961C4.30538 15.9827 3.63864 15.7251 3.11311 15.2712C2.58759 14.8172 2.23584 14.195 2.11784 13.5106C1.99985 12.8263 2.12293 12.1222 2.4661 11.5185C2.80926 10.9147 3.35124 10.4488 3.99961 10.2V10C3.99961 9.20435 4.31568 8.44129 4.87829 7.87868C5.4409 7.31607 6.20396 7 6.99961 7C7.79526 7 8.55832 7.31607 9.12093 7.87868C9.68354 8.44129 9.99961 9.20435 9.99961 10Z" stroke="#C533B9" stroke-width="2" stroke-linecap="round" stroke-linejoin="round"/>
</svg>
