<svg width="24" height="24" viewBox="0 0 24 24" fill="none" xmlns="http://www.w3.org/2000/svg">
<path d="M12 4H6C5.44772 4 5 4.44772 5 5V9C5 9.55228 5.44772 10 6 10H12C12.5523 10 13 9.55228 13 9V5C13 4.44772 12.5523 4 12 4Z" stroke="#C533B9" stroke-width="2" stroke-linecap="round" stroke-linejoin="round"/>
<path d="M18 14H12C11.4477 14 11 14.4477 11 15V19C11 19.5523 11.4477 20 12 20H18C18.5523 20 19 19.5523 19 19V15C19 14.4477 18.5523 14 18 14Z" stroke="#C533B9" stroke-width="2" stroke-linecap="round" stroke-linejoin="round"/>
</svg>
