<svg width="24" height="24" viewBox="0 0 24 24" fill="none" xmlns="http://www.w3.org/2000/svg">
<path d="M6 17V17.01M6 13V13.01M18 17V17.01M18 13V13.01M14 22V17C14 16.4696 13.7893 15.9609 13.4142 15.5858C13.0391 15.2107 12.5304 15 12 15C11.4696 15 10.9609 15.2107 10.5858 15.5858C10.2107 15.9609 10 16.4696 10 17V22M13 10C13 10.5523 12.5523 11 12 11C11.4477 11 11 10.5523 11 10C11 9.44772 11.4477 9 12 9C12.5523 9 13 9.44772 13 10ZM22 20V8H18L12 4L6 8H2V20C2 20.5304 2.21071 21.0391 2.58579 21.4142C2.96086 21.7893 3.46957 22 4 22H20C20.5304 22 21.0391 21.7893 21.4142 21.4142C21.7893 21.0391 22 20.5304 22 20Z" stroke="#C533B9" stroke-width="2" stroke-linecap="round" stroke-linejoin="round"/>
</svg>
