<svg width="24" height="24" viewBox="0 0 24 24" fill="none" xmlns="http://www.w3.org/2000/svg">
<path d="M2 21.0002C2.00012 19.7412 2.29739 18.5 2.86766 17.3775C3.43792 16.255 4.26506 15.283 5.28182 14.5404C6.29858 13.7979 7.47624 13.3058 8.71904 13.1042C9.96183 12.9026 11.2347 12.9972 12.434 13.3802M22.0001 22.0001L20.1001 20.1001M15 8C15 10.7614 12.7614 13 10 13C7.23858 13 5 10.7614 5 8C5 5.23858 7.23858 3 10 3C12.7614 3 15 5.23858 15 8ZM21 18C21 19.6569 19.6569 21 18 21C16.3431 21 15 19.6569 15 18C15 16.3431 16.3431 15 18 15C19.6569 15 21 16.3431 21 18Z" stroke="#C533B9" stroke-width="2" stroke-linecap="round" stroke-linejoin="round"/>
</svg>
