<svg width="24" height="24" viewBox="0 0 24 24" fill="none" xmlns="http://www.w3.org/2000/svg">
<path d="M15.9994 2L13.6994 4.3C13.1497 4.86079 12.8418 5.61474 12.8418 6.4C12.8418 7.18526 13.1497 7.93921 13.6994 8.5L15.4994 10.3C16.0602 10.8497 16.8141 11.1576 17.5994 11.1576C18.3846 11.1576 19.1386 10.8497 19.6994 10.3L21.9994 8M14.9997 14.9998L3.29967 3.2998C2.90056 3.69086 2.58348 4.15762 2.36702 4.67276C2.15056 5.18789 2.03906 5.74104 2.03906 6.2998C2.03906 6.85857 2.15056 7.41172 2.36702 7.92685C2.58348 8.44199 2.90056 8.90875 3.29967 9.2998L10.5997 16.5998C11.2997 17.2998 12.5997 17.2998 13.3997 16.5998L14.9997 14.9998ZM14.9997 14.9998L21.9997 21.9998M2.09961 21.8L8.49961 15.5M18.9995 5L11.9995 12" stroke="#C533B9" stroke-width="2" stroke-linecap="round" stroke-linejoin="round"/>
</svg>
