<svg width="24" height="24" viewBox="0 0 24 24" fill="none" xmlns="http://www.w3.org/2000/svg">
<path d="M2.00024 2C5.01885 4.40804 7.47698 7.44442 9.20386 10.8982C10.9307 14.352 11.885 18.1403 12.0002 22C12.9002 15.18 13.5002 12.5 16.0002 8M16.0002 8C20.0002 8 22.0002 6 22.0002 2C18.0002 2 16.0002 4 16.0002 8ZM17.4101 3.60014C15.335 2.26521 12.8395 1.74463 10.4037 2.13851C7.96787 2.5324 5.76367 3.81294 4.21499 5.73387C2.6663 7.65479 1.88249 10.0805 2.01429 12.5444C2.14608 15.0084 3.18418 17.3366 4.92894 19.0814C6.6737 20.8261 9.00193 21.8642 11.4659 21.996C13.9298 22.1278 16.3555 21.344 18.2764 19.7953C20.1974 18.2466 21.4779 16.0424 21.8718 13.6066C22.2657 11.1708 21.7451 8.67532 20.4101 6.60014" stroke="#C533B9" stroke-width="2" stroke-linecap="round" stroke-linejoin="round"/>
</svg>
