<svg width="24" height="24" viewBox="0 0 24 24" fill="none" xmlns="http://www.w3.org/2000/svg">
<path d="M9 17L15.1 10.9C15.4756 10.5319 15.9811 10.3265 16.5071 10.3284C17.033 10.3302 17.537 10.5392 17.91 10.91L22 15M22 15V5C22 4.46957 21.7893 3.96086 21.4142 3.58579C21.0391 3.21071 20.5304 3 20 3H4C3.46957 3 2.96086 3.21071 2.58579 3.58579C2.21071 3.96086 2 4.46957 2 5V15C2 15.5304 2.21071 16.0391 2.58579 16.4142C2.96086 16.7893 3.46957 17 4 17H20C20.5304 17 21.0391 16.7893 21.4142 16.4142C21.7893 16.0391 22 15.5304 22 15ZM8 21H16M12 17V21M10 9C10 10.1046 9.10457 11 8 11C6.89543 11 6 10.1046 6 9C6 7.89543 6.89543 7 8 7C9.10457 7 10 7.89543 10 9Z" stroke="#C533B9" stroke-width="2" stroke-linecap="round" stroke-linejoin="round"/>
</svg>
