<svg width="24" height="24" viewBox="0 0 24 24" fill="none" xmlns="http://www.w3.org/2000/svg">
<path d="M14.0007 7L17.0007 10M5.00073 6V10M19.0007 14V18M10.0007 2V4M7.00073 8H3.00073M21.0007 16H17.0007M11.0007 3H9.00073M21.6408 3.6398L20.3608 2.3598C20.2483 2.24612 20.1143 2.15587 19.9667 2.09428C19.8191 2.03269 19.6607 2.00098 19.5008 2.00098C19.3408 2.00098 19.1825 2.03269 19.0349 2.09428C18.8872 2.15587 18.7533 2.24612 18.6408 2.3598L2.36078 18.6398C2.24709 18.7523 2.15685 18.8863 2.09526 19.0339C2.03367 19.1815 2.00195 19.3399 2.00195 19.4998C2.00195 19.6598 2.03367 19.8181 2.09526 19.9657C2.15685 20.1133 2.24709 20.2473 2.36078 20.3598L3.64078 21.6398C3.7526 21.7547 3.88631 21.846 4.03402 21.9084C4.18173 21.9708 4.34044 22.0029 4.50078 22.0029C4.66111 22.0029 4.81982 21.9708 4.96753 21.9084C5.11524 21.846 5.24896 21.7547 5.36078 21.6398L21.6408 5.3598C21.7557 5.24798 21.847 5.11427 21.9094 4.96656C21.9717 4.81885 22.0039 4.66014 22.0039 4.4998C22.0039 4.33947 21.9717 4.18076 21.9094 4.03305C21.847 3.88534 21.7557 3.75162 21.6408 3.6398Z" stroke="#C533B9" stroke-width="2" stroke-linecap="round" stroke-linejoin="round"/>
</svg>
