<svg width="24" height="24" viewBox="0 0 24 24" fill="none" xmlns="http://www.w3.org/2000/svg">
<path d="M3 6H6M17 6H17.01M12 18C14.7614 18 17 15.7614 17 13C17 10.2386 14.7614 8 12 8M12 18C9.23858 18 7 15.7614 7 13C7 10.2386 9.23858 8 12 8M12 18C12.663 18 13.2989 17.7366 13.7678 17.2678C14.2366 16.7989 14.5 16.163 14.5 15.5C14.5 14.837 14.2366 14.2011 13.7678 13.7322C13.2989 13.2634 12.663 13 12 13C11.337 13 10.7011 12.7366 10.2322 12.2678C9.76339 11.7989 9.5 11.163 9.5 10.5C9.5 9.83696 9.76339 9.20107 10.2322 8.73223C10.7011 8.26339 11.337 8 12 8M5 2H19C20.1046 2 21 2.89543 21 4V20C21 21.1046 20.1046 22 19 22H5C3.89543 22 3 21.1046 3 20V4C3 2.89543 3.89543 2 5 2Z" stroke="#C533B9" stroke-width="2" stroke-linecap="round" stroke-linejoin="round"/>
</svg>
