<svg width="24" height="24" viewBox="0 0 24 24" fill="none" xmlns="http://www.w3.org/2000/svg">
<path d="M2 6C2.6 6.5 3.2 7 4.5 7C7 7 7 5 9.5 5C12.1 5 11.9 7 14.5 7C17 7 17 5 19.5 5C20.8 5 21.4 5.5 22 6M2 12C2.6 12.5 3.2 13 4.5 13C7 13 7 11 9.5 11C12.1 11 11.9 13 14.5 13C17 13 17 11 19.5 11C20.8 11 21.4 11.5 22 12M2 18C2.6 18.5 3.2 19 4.5 19C7 19 7 17 9.5 17C12.1 17 11.9 19 14.5 19C17 19 17 17 19.5 17C20.8 17 21.4 17.5 22 18" stroke="#C533B9" stroke-width="2" stroke-linecap="round" stroke-linejoin="round"/>
</svg>
