<svg width="24" height="24" viewBox="0 0 24 24" fill="none" xmlns="http://www.w3.org/2000/svg">
<path d="M18 16.98H12.01C10.91 16.98 10.06 17.92 9.53 18.88C9.11045 19.6672 8.43979 20.2917 7.62462 20.654C6.80945 21.0163 5.89656 21.0957 5.03107 20.8796C4.16558 20.6635 3.39715 20.1643 2.84795 19.4614C2.29874 18.7584 2.00028 17.8921 2 17C2.01 16.3 2.2 15.6 2.57 15M6 17.0002L9.13 11.2202C9.66 10.2502 9.23 9.04018 8.63 8.12018C8.34681 7.66728 8.15721 7.16225 8.07236 6.63489C7.98751 6.10753 8.00915 5.56851 8.13599 5.04965C8.26283 4.53078 8.49231 4.04257 8.81088 3.61383C9.12946 3.18509 9.53068 2.82449 9.99087 2.55332C10.4511 2.28215 10.9609 2.10589 11.4903 2.03495C12.0197 1.96401 12.558 1.99982 13.0733 2.14026C13.5887 2.28071 14.0707 2.52296 14.4909 2.8527C14.9111 3.18245 15.261 3.59301 15.52 4.06018M12 6L15.13 11.73C15.66 12.7 16.9 13 18 13C19.0609 13 20.0783 13.4214 20.8284 14.1716C21.5786 14.9217 22 15.9391 22 17C22 18.0609 21.5786 19.0783 20.8284 19.8284C20.0783 20.5786 19.0609 21 18 21" stroke="#C533B9" stroke-width="2" stroke-linecap="round" stroke-linejoin="round"/>
</svg>
