<svg width="24" height="24" viewBox="0 0 24 24" fill="none" xmlns="http://www.w3.org/2000/svg">
<path d="M12.0007 8C13.6576 8 15.0007 6.65685 15.0007 5C15.0007 3.34315 13.6576 2 12.0007 2C10.3439 2 9.00073 3.34315 9.00073 5C9.00073 6.65685 10.3439 8 12.0007 8Z" stroke="#C533B9" stroke-width="2" stroke-linecap="round" stroke-linejoin="round"/>
<path d="M6.5007 8C6.06796 8.00449 5.64834 8.14923 5.30485 8.41248C4.96136 8.67573 4.71253 9.0433 4.5957 9.46L2.1007 18.5C2.02511 18.7926 2.01679 19.0985 2.07639 19.3947C2.13598 19.691 2.26193 19.9699 2.44479 20.2105C2.62764 20.4511 2.86263 20.6471 3.13211 20.7839C3.4016 20.9206 3.69856 20.9945 4.0007 21H20.0007C20.3094 20.9999 20.6138 20.9283 20.8902 20.7909C21.1666 20.6535 21.4075 20.454 21.5939 20.208C21.7804 19.962 21.9073 19.6762 21.9649 19.3729C22.0225 19.0697 22.009 18.7572 21.9257 18.46L19.4007 9.5C19.2906 9.07341 19.0427 8.69512 18.6955 8.42388C18.3483 8.15265 17.9213 8.00364 17.4807 8H6.5007Z" stroke="#C533B9" stroke-width="2" stroke-linecap="round" stroke-linejoin="round"/>
</svg>
