<svg width="24" height="24" viewBox="0 0 24 24" fill="none" xmlns="http://www.w3.org/2000/svg">
<path d="M2 22L16 8M16 8H18C19.0609 8 20.0783 7.57857 20.8284 6.82843C21.5786 6.07828 22 5.06087 22 4V2H20C18.9391 2 17.9217 2.42143 17.1716 3.17157C16.4214 3.92172 16 4.93913 16 6V8ZM6.52997 17.47C7.18337 16.814 7.55023 15.9259 7.55023 15C7.55023 14.0741 7.18337 13.186 6.52997 12.53L4.99997 11L3.46997 12.53C2.81657 13.186 2.44971 14.0741 2.44971 15C2.44971 15.9259 2.81657 16.814 3.46997 17.47L4.99997 19M6.52997 17.47L4.99997 19M6.52997 17.47C7.18595 16.8166 8.07413 16.4497 9 16.4497C9.92587 16.4497 10.814 16.8166 11.47 17.47L13 19L11.47 20.53C10.814 21.1834 9.92587 21.5502 9 21.5502C8.07413 21.5502 7.18598 21.1834 6.53 20.53L4.99997 19M10.53 13.47C11.1834 12.814 11.5502 11.9259 11.5502 11C11.5502 10.0741 11.1834 9.18598 10.53 8.53L8.99997 7L7.46997 8.53C6.81657 9.18598 6.44971 10.0741 6.44971 11C6.44971 11.9259 6.81657 12.814 7.46997 13.47L8.99997 15M10.53 13.47L8.99997 15M10.53 13.47C11.1859 12.8166 12.0741 12.4497 13 12.4497C13.9259 12.4497 14.814 12.8166 15.47 13.47L17 15L15.47 16.53C14.814 17.1834 13.9259 17.5502 13 17.5502C12.0741 17.5502 11.186 17.1834 10.53 16.53L8.99997 15M14.53 9.47C15.1834 8.81402 15.5502 7.92587 15.5502 7C15.5502 6.07413 15.1834 5.18598 14.53 4.53L13 3L11.47 4.53C10.8166 5.18598 10.4497 6.07413 10.4497 7C10.4497 7.92587 10.8166 8.81402 11.47 9.47L13 11M14.53 9.47L13 11M14.53 9.47C15.1859 8.8166 16.0741 8.44971 17 8.44971C17.9259 8.44971 18.814 8.81657 19.47 9.46997L21 11L19.47 12.53C18.814 13.1834 17.9259 13.5502 17 13.5502C16.0741 13.5502 15.186 13.1834 14.53 12.53L13 11" stroke="#C533B9" stroke-width="2" stroke-linecap="round" stroke-linejoin="round"/>
</svg>
