<svg width="24" height="24" viewBox="0 0 24 24" fill="none" xmlns="http://www.w3.org/2000/svg">
<path d="M2 22L12 12M16.0001 8L14.8301 9.17M16.0001 8H18C19.0609 8 20.0783 7.57857 20.8284 6.82843C21.5786 6.07828 22 5.06087 22 4V2H20C18.9391 2 17.9217 2.42143 17.1716 3.17157C16.4214 3.92172 16 4.93913 16 6L16.0001 8ZM6.52997 17.47C7.18337 16.814 7.55023 15.9259 7.55023 15C7.55023 14.0741 7.18337 13.186 6.52997 12.53L4.99997 11L3.46997 12.53C2.81657 13.186 2.44971 14.0741 2.44971 15C2.44971 15.9259 2.81657 16.814 3.46997 17.47L4.99997 19M6.52997 17.47L4.99997 19M6.52997 17.47C7.18595 16.8166 8.07413 16.4497 9 16.4497C9.92587 16.4497 10.814 16.8166 11.47 17.47L13 19L11.47 20.53C10.814 21.1834 9.92587 21.5502 9 21.5502C8.07413 21.5502 7.18598 21.1834 6.53 20.53L4.99997 19M7.99997 8L7.46997 8.53C6.81657 9.18598 6.44971 10.0741 6.44971 11C6.44971 11.9259 6.81657 12.814 7.46997 13.47L8.99997 15M8.99997 15L10.53 13.47M8.99997 15L10.53 16.5302C11.186 17.1836 12.0741 17.5505 13 17.5505C13.9259 17.5505 14.814 17.1836 15.47 16.5302L16 16.0002M10.53 13.47C11.08 12.92 11.41 12.22 11.51 11.5M10.53 13.47C11.0638 12.9395 11.7548 12.5959 12.5 12.4902M10.9099 5.26C11.0599 5 11.2499 4.75 11.4699 4.53L12.9999 3L14.5299 4.53C15.131 5.13401 15.4911 5.93655 15.5426 6.78711C15.5942 7.63767 15.3336 8.47782 14.8099 9.15M18.7401 13.0898C19.0001 12.9398 19.2501 12.7498 19.4701 12.5298L21.0001 10.9998L19.4701 9.4698C18.8661 8.86872 18.0635 8.50865 17.213 8.4571C16.3624 8.40555 15.5223 8.66607 14.8501 9.1898M2 2L22 22" stroke="#C533B9" stroke-width="2" stroke-linecap="round" stroke-linejoin="round"/>
</svg>
