<svg width="24" height="24" viewBox="0 0 24 24" fill="none" xmlns="http://www.w3.org/2000/svg">
<path d="M8 22H16M7 10H10M7 10C7.00306 9.09378 7.10601 8.19066 7.307 7.307M7 10C7.00004 10.8671 7.22557 11.7192 7.65443 12.4728C8.08329 13.2264 8.70075 13.8555 9.44619 14.2984C10.1916 14.7412 11.0394 14.9826 11.9063 14.9989C12.7733 15.0151 13.6295 14.8056 14.391 14.391M17 10H15.657M17 10C17 8 16.5 6 15 2H9C8.872 2.34 8.75 2.668 8.638 2.981M17 10C17 10.407 16.95 10.809 16.855 11.198M12 15V22M2 2L22 22" stroke="#C533B9" stroke-width="2" stroke-linecap="round" stroke-linejoin="round"/>
</svg>
