<svg width="24" height="24" viewBox="0 0 24 24" fill="none" xmlns="http://www.w3.org/2000/svg">
<path d="M7 11V15C7 15.5304 7.21071 16.0391 7.58579 16.4142C7.96086 16.7893 8.46957 17 9 17H13M5 3H9C10.1046 3 11 3.89543 11 5V9C11 10.1046 10.1046 11 9 11H5C3.89543 11 3 10.1046 3 9V5C3 3.89543 3.89543 3 5 3ZM15 13H19C20.1046 13 21 13.8954 21 15V19C21 20.1046 20.1046 21 19 21H15C13.8954 21 13 20.1046 13 19V15C13 13.8954 13.8954 13 15 13Z" stroke="#C533B9" stroke-width="2" stroke-linecap="round" stroke-linejoin="round"/>
</svg>
