<svg width="24" height="24" viewBox="0 0 24 24" fill="none" xmlns="http://www.w3.org/2000/svg">
<path d="M19 12L17.5 15M19.6299 18.8101L21.9999 20.0001M6.4699 8.22993C6.76053 8.06575 7.09348 7.99188 7.42627 8.01773C7.75907 8.04357 8.07662 8.16797 8.33841 8.37505C8.60021 8.58213 8.79439 8.8625 8.89617 9.18039C8.99796 9.49829 9.00274 9.8393 8.9099 10.1599L8.2699 12.2399C7.8539 13.5701 7.85917 14.9963 8.28501 16.3233C8.71085 17.6503 9.53644 18.8133 10.6487 19.653C11.7611 20.4927 13.1057 20.9681 14.4986 21.0141C15.8915 21.0601 17.2646 20.6744 18.4299 19.9099L18.8499 19.6399C19.1263 19.4607 19.3648 19.2287 19.5515 18.9573C19.7383 18.6859 19.8698 18.3804 19.9386 18.0582C20.0073 17.736 20.0119 17.4034 19.952 17.0794C19.8922 16.7554 19.7692 16.4464 19.5899 16.1699C19.4106 15.8935 19.1787 15.6551 18.9073 15.4683C18.6359 15.2815 18.3304 15.15 18.0082 15.0813C17.6859 15.0126 17.3533 15.008 17.0294 15.0678C16.7054 15.1276 16.3963 15.2507 16.1199 15.4299L15.6999 15.6999C15.3971 15.8923 15.0426 15.9876 14.6842 15.9729C14.3257 15.9583 13.9802 15.8344 13.6941 15.6179C13.408 15.4014 13.1948 15.1027 13.0833 14.7616C12.9717 14.4206 12.9671 14.0537 13.0699 13.7099L13.7099 11.6299C14.1194 10.341 14.1269 8.95796 13.7312 7.66472C13.3356 6.37148 12.5556 5.22933 11.495 4.39019C10.4344 3.55105 9.14346 3.05468 7.79388 2.96711C6.44431 2.87953 5.10005 3.20489 3.9399 3.89993L3.2399 4.29993C2.95493 4.46736 2.70573 4.68929 2.50653 4.95303C2.30733 5.21677 2.16203 5.51717 2.07892 5.83707C1.91107 6.48313 2.00675 7.16941 2.3449 7.74493C2.68305 8.32045 3.23598 8.73806 3.88204 8.90591C4.5281 9.07375 5.21438 8.97808 5.7899 8.63993L6.4699 8.22993Z" stroke="#C533B9" stroke-width="2" stroke-linecap="round" stroke-linejoin="round"/>
</svg>
