<svg width="24" height="24" viewBox="0 0 24 24" fill="none" xmlns="http://www.w3.org/2000/svg">
<path d="M2.5005 17C1.80192 13.7033 1.80192 10.2967 2.5005 7C2.59228 6.66521 2.76963 6.36007 3.0151 6.11461C3.26057 5.86914 3.5657 5.69179 3.9005 5.6C9.26394 4.71146 14.737 4.71146 20.1005 5.6C20.4353 5.69179 20.7404 5.86914 20.9859 6.11461C21.2314 6.36007 21.4087 6.66521 21.5005 7C22.1991 10.2967 22.1991 13.7033 21.5005 17C21.4087 17.3348 21.2314 17.6399 20.9859 17.8854C20.7404 18.1309 20.4353 18.3082 20.1005 18.4C14.7371 19.2887 9.26393 19.2887 3.9005 18.4C3.5657 18.3082 3.26057 18.1309 3.0151 17.8854C2.76963 17.6399 2.59228 17.3348 2.5005 17Z" stroke="#C533B9" stroke-width="2" stroke-linecap="round" stroke-linejoin="round"/>
<path d="M10.0005 15L15.0005 12L10.0005 9V15Z" stroke="#C533B9" stroke-width="2" stroke-linecap="round" stroke-linejoin="round"/>
</svg>
