<?xml version="1.0" encoding="UTF-8" standalone="no"?>
<!-- Created with Inkscape (http://www.inkscape.org/) -->

<svg width="200mm" height="64mm" viewBox="0 0 200 64" version="1.1" id="svg5" inkscape:export-filename="bitmap.svg"
   inkscape:export-xdpi="25.4" inkscape:export-ydpi="25.4" xmlns:inkscape="http://www.inkscape.org/namespaces/inkscape"
   xmlns:sodipodi="http://sodipodi.sourceforge.net/DTD/sodipodi-0.dtd" xmlns="http://www.w3.org/2000/svg"
   xmlns:svg="http://www.w3.org/2000/svg">
   <sodipodi:namedview id="namedview7" pagecolor="#ffffff" bordercolor="#000000" borderopacity="0.25"
      inkscape:showpageshadow="2" inkscape:pageopacity="0.0" inkscape:pagecheckerboard="0" inkscape:deskcolor="#d1d1d1"
      inkscape:document-units="mm" showgrid="false" />
   <defs id="defs2" />
   <g inkscape:label="Layer 1" inkscape:groupmode="layer" id="layer1">
      <g aria-label="HTTPS GET" transform="translate(-39.184174,17.906158)" id="text113"
         style="font-size:35.2778px;white-space:pre;inline-size:201.444;stroke-width:0.264583">
         <path
            d="M 42.090605,25.777046 V 0.5244793 H 45.43235 V 10.894224 H 58.558173 V 0.5244793 h 3.341745 V 25.777046 H 58.558173 V 13.874233 H 45.43235 v 11.902813 z"
            style="font-family:Arial;-inkscape-font-specification:Arial" id="path872" />
         <path
            d="M 73.888857,25.777046 V 3.5044889 H 65.568946 V 0.5244793 H 85.584964 V 3.5044889 H 77.230602 V 25.777046 Z"
            style="font-family:Arial;-inkscape-font-specification:Arial" id="path874" />
         <path
            d="M 95.437945,25.777046 V 3.5044889 H 87.118034 V 0.5244793 H 107.13405 V 3.5044889 H 98.77969 V 25.777046 Z"
            style="font-family:Arial;-inkscape-font-specification:Arial" id="path876" />
         <path
            d="M 110.56193,25.777046 V 0.5244793 h 9.52569 q 2.51493,0 3.84129,0.24115685 1.86035,0.31005875 3.11781,1.18855875 1.25746,0.8612744 2.01538,2.4287939 0.77515,1.5675195 0.77515,3.4450978 0,3.2211664 -2.04983,5.4604804 -2.04984,2.222088 -7.40696,2.222088 h -6.47679 v 10.266391 z m 3.34174,-13.246401 h 6.52846 q 3.2384,0 4.59921,-1.205784 1.36081,-1.205784 1.36081,-3.3934214 0,-1.584745 -0.80959,-2.7044018 -0.79238,-1.1368823 -2.10151,-1.4986175 -0.84405,-0.2239314 -3.11782,-0.2239314 h -6.45956 z"
            style="font-family:Arial;-inkscape-font-specification:Arial" id="path878" />
         <path
            d="m 132.95506,17.663841 3.15227,-0.275608 q 0.22393,1.894804 1.03352,3.117814 0.82683,1.205784 2.54938,1.963705 1.72255,0.740696 3.87573,0.740696 1.91203,0 3.3762,-0.568441 1.46416,-0.568441 2.17041,-1.550294 0.72347,-0.999078 0.72347,-2.170411 0,-1.188559 -0.68902,-2.067059 -0.68902,-0.895726 -2.27376,-1.498618 -1.01631,-0.396186 -4.49586,-1.223009 -3.47955,-0.844049 -4.87481,-1.584745 -1.80868,-0.947402 -2.7044,-2.342667 -0.8785,-1.41249 -0.8785,-3.1522644 0,-1.9120292 1.0852,-3.5656762 1.08521,-1.6708724 3.16949,-2.53214687 2.08429,-0.86127446 4.63366,-0.86127446 2.80775,0 4.94372,0.91295093 2.15318,0.8957254 3.30729,2.6527253 1.15411,1.7569999 1.24023,3.979088 l -3.20394,0.2411568 q -0.25838,-2.394343 -1.757,-3.6173527 -1.48139,-1.2230097 -4.3925,-1.2230097 -3.03168,0 -4.42695,1.1196568 -1.37804,1.1024313 -1.37804,2.6699508 0,1.3608136 0.98186,2.2393136 0.96462,0.8784999 5.02984,1.8086761 4.08244,0.912951 5.59828,1.601971 2.20487,1.016304 3.25562,2.583823 1.05076,1.550294 1.05076,3.582902 0,2.015382 -1.15411,3.806833 -1.15411,1.774225 -3.32452,2.773304 -2.15319,0.981852 -4.85759,0.981852 -3.42787,0 -5.75331,-0.999078 -2.30822,-0.999078 -3.63458,-2.997235 -1.30914,-2.015382 -1.37804,-4.547529 z"
            style="" id="path880" />
         <path
            d="m 179.23995,15.87239 v -2.962784 l 10.69703,-0.01723 v 9.370666 q -2.46325,1.963706 -5.08152,2.962785 -2.61827,0.981852 -5.37435,0.981852 -3.72071,0 -6.76962,-1.584745 -3.03169,-1.60197 -4.58198,-4.616431 -1.55029,-3.01446 -1.55029,-6.735166 0,-3.6862545 1.53306,-6.8729699 1.5503,-3.203941 4.44418,-4.754235 2.89388,-1.55029403 6.66626,-1.55029403 2.73886,0 4.94372,0.89572543 2.22209,0.8784999 3.47955,2.4632449 1.25746,1.584745 1.91203,4.1341174 l -3.01446,0.8268235 q -0.56844,-1.9292548 -1.41249,-3.0316861 -0.84405,-1.1024313 -2.41157,-1.7569999 -1.56752,-0.671794 -3.47955,-0.671794 -2.29099,0 -3.96186,0.706245 -1.67087,0.6890196 -2.7044,1.8259018 -1.01631,1.1368823 -1.58475,2.4976959 -0.96463,2.342667 -0.96463,5.081519 0,3.376196 1.15411,5.649961 1.17133,2.273764 3.39342,3.376196 2.22209,1.102431 4.71979,1.102431 2.17041,0 4.23747,-0.826824 2.06706,-0.844049 3.13504,-1.79145 V 15.87239 Z"
            style="font-family:Arial;-inkscape-font-specification:Arial" id="path882" />
         <path
            d="M 194.93237,25.777046 V 0.5244793 h 18.25902 v 2.9800096 h -14.91727 v 7.7342441 h 13.96987 v 2.962785 h -13.96987 v 8.595519 h 15.50294 v 2.980009 z"
            style="font-family:Arial;-inkscape-font-specification:Arial" id="path884" />
         <path
            d="M 224.81859,25.777046 V 3.5044889 h -8.31991 V 0.5244793 h 20.01602 v 2.9800096 h -8.35436 V 25.777046 Z"
            style="font-family:Arial;-inkscape-font-specification:Arial" id="path886" />
      </g>
   </g>
</svg>