<svg viewBox="0 0 34 36" xmlns="http://www.w3.org/2000/svg">
<path d="M17.9712 35.5107V18.7598L33.5269 10.0439C33.5933 10.3096 33.6265 10.6637 33.6265 11.1064V24.3379C33.6265 25.334 33.4549 26.0866 33.1118 26.5957C32.7798 27.0938 32.2651 27.542 31.5679 27.9404L18.3364 35.3447C18.2811 35.3779 18.2202 35.4111 18.1538 35.4443C18.0874 35.4775 18.0265 35.4997 17.9712 35.5107ZM16.0454 35.5107C15.979 35.4997 15.9126 35.4775 15.8462 35.4443C15.7909 35.4111 15.7355 35.3779 15.6802 35.3447L2.43213 27.9404C1.74593 27.542 1.23128 27.0938 0.888184 26.5957C0.545085 26.0866 0.373535 25.334 0.373535 24.3379V11.1064C0.373535 10.6637 0.412272 10.3096 0.489746 10.0439L16.0454 18.7598V35.5107ZM17.0083 17.0664L1.35303 8.28418C1.54118 8.09603 1.81234 7.90788 2.1665 7.71973L8.42529 4.16699L24.23 13.0322L17.0083 17.0664ZM26.2056 11.9033L10.4009 3.05469L14.4849 0.74707C15.3592 0.249023 16.2004 0 17.0083 0C17.8162 0 18.6574 0.249023 19.5317 0.74707L31.8667 7.70312C32.1987 7.90234 32.4644 8.09603 32.6636 8.28418L26.2056 11.9033Z"/>
</svg>

