<svg xmlns="http://www.w3.org/2000/svg" width="24" height="24" viewBox="0 0 24 24"><path d="M6.080 1.044 C 4.955 1.174,3.947 1.871,3.424 2.880 C 3.195 3.323,3.093 3.665,3.042 4.163 C 2.984 4.721,2.984 19.279,3.042 19.837 C 3.165 21.035,3.835 22.034,4.880 22.576 C 5.336 22.812,5.677 22.911,6.213 22.961 C 6.514 22.990,8.883 23.000,13.460 22.992 L 20.260 22.980 20.421 22.894 C 20.625 22.785,20.785 22.625,20.894 22.421 L 20.980 22.260 20.980 12.000 L 20.980 1.740 20.894 1.579 C 20.785 1.375,20.625 1.215,20.421 1.106 L 20.260 1.020 13.320 1.015 C 9.503 1.012,6.245 1.025,6.080 1.044 M9.009 6.630 C 9.020 10.257,9.020 10.260,9.106 10.421 C 9.297 10.778,9.600 10.969,9.978 10.972 C 10.421 10.975,10.489 10.925,11.809 9.610 L 13.000 8.423 14.190 9.607 C 14.979 10.392,15.441 10.821,15.560 10.881 C 15.692 10.948,15.809 10.972,16.000 10.972 C 16.410 10.972,16.722 10.773,16.896 10.400 C 16.979 10.222,16.980 10.184,16.991 6.610 L 17.002 3.000 18.001 3.000 L 19.000 3.000 19.000 9.499 L 19.000 15.997 12.510 16.011 C 5.414 16.025,5.842 16.011,5.242 16.253 L 4.999 16.351 5.010 10.226 L 5.020 4.100 5.124 3.878 C 5.237 3.638,5.564 3.281,5.772 3.173 C 6.074 3.016,6.185 3.005,7.609 3.003 L 8.998 3.000 9.009 6.630 M15.000 5.288 L 15.000 7.575 14.310 6.893 C 13.524 6.116,13.391 6.028,13.000 6.028 C 12.609 6.028,12.476 6.116,11.690 6.893 L 11.000 7.575 11.000 5.288 L 11.000 3.000 13.000 3.000 L 15.000 3.000 15.000 5.288 M19.000 19.500 L 19.000 21.001 12.550 20.990 L 6.100 20.980 5.878 20.876 C 5.593 20.742,5.258 20.407,5.124 20.122 C 5.034 19.929,5.020 19.848,5.020 19.500 C 5.020 19.152,5.034 19.071,5.124 18.878 C 5.237 18.638,5.564 18.281,5.772 18.173 C 6.103 18.001,5.922 18.005,12.610 18.003 L 19.000 18.000 19.000 19.500 " stroke="none" fill-rule="evenodd" fill="black"></path></svg>