<svg xmlns="http://www.w3.org/2000/svg" width="24" height="24" fill="none" viewBox="0 0 24 24"><path d="M8.800 5.037 C 8.505 5.097,8.256 5.293,8.110 5.579 C 7.994 5.807,7.998 6.199,8.118 6.440 C 8.182 6.568,8.990 7.403,10.893 9.310 L 13.579 12.000 10.893 14.690 C 8.990 16.597,8.182 17.432,8.118 17.560 C 7.937 17.922,8.017 18.406,8.305 18.695 C 8.594 18.983,9.078 19.063,9.440 18.882 C 9.695 18.755,15.755 12.695,15.882 12.440 C 15.947 12.309,15.972 12.189,15.972 12.000 C 15.972 11.811,15.947 11.691,15.882 11.560 C 15.762 11.320,9.695 5.245,9.460 5.129 C 9.270 5.036,8.994 4.997,8.800 5.037 " stroke="none" fill-rule="evenodd" fill="black"></path></svg>