<svg xmlns="http://www.w3.org/2000/svg" width="24" height="24" fill="none" viewBox="0 0 24 24"><path d="M11.280 1.043 C 9.068 1.180,6.878 2.029,5.121 3.429 C 4.632 3.819,3.819 4.632,3.429 5.121 C 2.454 6.345,1.693 7.893,1.325 9.406 C 0.922 11.056,0.922 12.944,1.325 14.594 C 1.693 16.107,2.454 17.655,3.429 18.879 C 3.819 19.368,4.632 20.181,5.121 20.571 C 6.036 21.300,7.322 22.011,8.386 22.375 C 11.203 23.340,14.216 23.150,16.860 21.842 C 18.021 21.267,18.860 20.666,19.763 19.763 C 20.666 18.860,21.267 18.021,21.842 16.860 C 22.620 15.287,22.967 13.788,22.967 12.000 C 22.967 10.212,22.620 8.713,21.842 7.140 C 21.267 5.979,20.666 5.140,19.763 4.237 C 18.859 3.332,18.018 2.730,16.860 2.160 C 15.459 1.469,14.199 1.136,12.622 1.039 C 11.963 0.999,11.996 0.998,11.280 1.043 M12.992 3.043 C 16.476 3.427,19.464 5.857,20.561 9.200 C 21.257 11.321,21.131 13.652,20.208 15.710 C 19.473 17.350,18.159 18.816,16.580 19.756 C 14.386 21.063,11.642 21.363,9.200 20.561 C 6.482 19.669,4.331 17.517,3.438 14.799 C 3.137 13.882,3.000 13.007,3.000 12.000 C 3.000 11.285,3.049 10.792,3.186 10.141 C 3.701 7.690,5.248 5.538,7.428 4.239 C 8.449 3.631,9.790 3.177,10.960 3.044 C 11.400 2.994,12.544 2.994,12.992 3.043 M8.800 8.037 C 8.505 8.097,8.256 8.293,8.110 8.579 C 7.994 8.807,7.998 9.200,8.119 9.440 C 8.179 9.559,8.608 10.021,9.393 10.810 L 10.577 12.000 9.393 13.190 C 8.608 13.979,8.179 14.441,8.119 14.560 C 7.937 14.921,8.017 15.406,8.305 15.695 C 8.594 15.983,9.079 16.063,9.440 15.881 C 9.559 15.821,10.021 15.392,10.810 14.607 L 12.000 13.423 13.190 14.607 C 13.979 15.392,14.441 15.821,14.560 15.881 C 14.921 16.063,15.406 15.983,15.695 15.695 C 15.983 15.406,16.063 14.921,15.881 14.560 C 15.821 14.441,15.392 13.979,14.607 13.190 L 13.423 12.000 14.607 10.810 C 15.392 10.021,15.821 9.559,15.881 9.440 C 16.063 9.079,15.983 8.594,15.695 8.305 C 15.406 8.017,14.921 7.937,14.560 8.119 C 14.441 8.179,13.979 8.608,13.190 9.393 L 12.000 10.577 10.810 9.393 C 10.098 8.684,9.556 8.178,9.460 8.130 C 9.271 8.036,8.995 7.997,8.800 8.037 " stroke="none" fill-rule="evenodd" fill="black"></path></svg>