<svg xmlns="http://www.w3.org/2000/svg" width="24" height="24" fill="none" viewBox="0 0 24 24"><path d="M11.500 1.042 C 8.752 1.232,6.408 2.998,5.437 5.611 C 4.895 7.069,4.889 8.900,5.422 10.186 C 5.712 10.889,6.088 11.440,6.791 12.194 C 7.517 12.973,7.762 13.350,7.979 14.021 C 8.056 14.259,8.147 14.495,8.180 14.545 C 8.585 15.164,9.546 15.105,9.878 14.441 C 9.987 14.223,10.003 14.012,9.936 13.686 C 9.830 13.175,9.549 12.540,9.190 12.000 C 8.928 11.607,8.793 11.442,8.230 10.827 C 7.236 9.741,6.967 9.077,7.012 7.820 C 7.035 7.191,7.106 6.811,7.304 6.262 C 7.781 4.939,8.939 3.781,10.263 3.303 C 10.912 3.069,11.205 3.022,12.000 3.022 C 12.636 3.022,12.790 3.034,13.099 3.112 C 13.812 3.292,14.234 3.478,14.823 3.874 C 15.182 4.115,15.770 4.671,16.005 4.993 C 16.621 5.835,16.946 6.752,16.988 7.760 C 17.013 8.384,16.971 8.720,16.800 9.251 C 16.623 9.802,16.397 10.152,15.792 10.806 C 15.499 11.122,15.186 11.470,15.095 11.580 C 14.320 12.520,13.843 13.896,14.110 14.421 C 14.422 15.033,15.218 15.171,15.694 14.695 C 15.843 14.546,15.889 14.450,16.019 14.020 C 16.218 13.357,16.448 12.994,17.081 12.340 C 17.960 11.432,18.361 10.816,18.672 9.900 C 19.110 8.611,19.069 6.990,18.565 5.620 C 17.842 3.657,16.343 2.158,14.380 1.435 C 13.511 1.115,12.479 0.974,11.500 1.042 M8.800 17.037 C 8.337 17.133,8.028 17.517,8.028 18.000 C 8.028 18.398,8.213 18.698,8.579 18.894 C 8.740 18.980,8.741 18.980,12.000 18.980 C 15.259 18.980,15.260 18.980,15.421 18.894 C 15.787 18.698,15.972 18.398,15.972 18.000 C 15.972 17.602,15.787 17.302,15.421 17.106 C 15.260 17.020,15.251 17.020,12.100 17.014 C 10.362 17.011,8.877 17.021,8.800 17.037 M9.800 21.036 C 9.336 21.133,9.028 21.518,9.028 22.000 C 9.028 22.398,9.213 22.698,9.579 22.894 C 9.738 22.979,9.764 22.980,12.000 22.980 C 14.236 22.980,14.262 22.979,14.421 22.894 C 14.787 22.698,14.972 22.398,14.972 22.000 C 14.972 21.602,14.787 21.302,14.421 21.106 C 14.262 21.021,14.228 21.020,12.100 21.014 C 10.912 21.010,9.877 21.020,9.800 21.036 " stroke="none" fill-rule="evenodd" fill="black"></path></svg>