<svg xmlns="http://www.w3.org/2000/svg" width="24" height="24" fill="none" viewBox="0 0 24 24"><path d="M5.800 2.037 C 5.507 2.097,5.262 2.289,5.106 2.579 L 5.020 2.740 5.020 12.000 L 5.020 21.260 5.106 21.421 C 5.301 21.784,5.621 21.978,6.020 21.975 C 6.170 21.974,6.312 21.947,6.400 21.901 C 6.688 21.752,20.598 12.791,20.701 12.688 C 21.063 12.326,21.064 11.669,20.703 11.312 C 20.599 11.210,6.673 2.238,6.420 2.111 C 6.268 2.034,5.981 2.000,5.800 2.037 M12.593 8.414 C 15.633 10.369,18.120 11.983,18.120 12.000 C 18.120 12.026,7.139 19.111,7.033 19.153 C 7.015 19.161,7.000 15.942,7.000 12.000 C 7.000 8.058,7.015 4.839,7.033 4.847 C 7.052 4.854,9.554 6.459,12.593 8.414 " stroke="none" fill-rule="evenodd" fill="black"></path></svg>