<svg xmlns="http://www.w3.org/2000/svg" width="24" height="24" fill="none" viewBox="0 0 24 24"><path d="M11.392 1.039 C 11.012 1.087,10.700 1.184,10.400 1.347 C 9.406 1.887,8.800 2.882,8.800 3.976 C 8.800 4.562,8.620 4.856,8.060 5.185 C 7.496 5.516,7.274 5.518,6.641 5.201 C 6.112 4.935,5.742 4.840,5.236 4.840 C 4.092 4.840,3.198 5.346,2.610 6.326 C 2.174 7.051,2.045 7.407,2.011 7.968 C 1.959 8.853,2.251 9.677,2.823 10.262 C 2.931 10.373,3.209 10.592,3.440 10.750 C 3.675 10.910,3.902 11.100,3.956 11.180 C 4.234 11.593,4.227 12.426,3.943 12.836 C 3.874 12.935,3.661 13.109,3.374 13.302 C 2.838 13.660,2.558 13.967,2.319 14.460 C 2.078 14.956,2.021 15.216,2.021 15.840 C 2.020 16.558,2.111 16.844,2.608 17.672 C 3.196 18.650,4.096 19.160,5.236 19.160 C 5.742 19.160,6.112 19.065,6.641 18.799 C 7.274 18.482,7.496 18.484,8.060 18.815 C 8.621 19.145,8.800 19.438,8.800 20.029 C 8.800 21.338,9.722 22.545,10.983 22.885 C 11.250 22.957,11.410 22.971,12.000 22.971 C 12.590 22.971,12.750 22.957,13.017 22.885 C 14.276 22.545,15.200 21.336,15.200 20.029 C 15.200 19.438,15.379 19.145,15.940 18.815 C 16.504 18.484,16.726 18.482,17.359 18.799 C 17.888 19.065,18.258 19.160,18.764 19.160 C 19.910 19.160,20.817 18.643,21.399 17.658 C 21.849 16.895,21.958 16.590,21.988 16.000 C 22.022 15.336,21.886 14.772,21.554 14.210 C 21.368 13.895,20.914 13.451,20.581 13.260 C 20.057 12.958,19.885 12.695,19.850 12.143 C 19.805 11.423,19.952 11.149,20.623 10.700 C 21.163 10.340,21.441 10.034,21.681 9.540 C 21.922 9.044,21.979 8.784,21.979 8.160 C 21.980 7.442,21.889 7.156,21.392 6.328 C 20.804 5.350,19.904 4.840,18.764 4.840 C 18.260 4.840,17.888 4.935,17.364 5.198 C 16.740 5.511,16.487 5.509,15.943 5.188 C 15.378 4.853,15.200 4.562,15.200 3.971 C 15.200 3.099,14.767 2.203,14.089 1.670 C 13.748 1.402,13.376 1.211,13.018 1.119 C 12.655 1.027,11.816 0.985,11.392 1.039 M12.621 3.075 C 12.822 3.166,13.017 3.359,13.128 3.575 C 13.194 3.702,13.220 3.854,13.245 4.240 C 13.282 4.831,13.319 4.996,13.497 5.381 C 13.772 5.977,14.105 6.360,14.659 6.719 C 15.410 7.204,15.979 7.400,16.636 7.399 C 17.164 7.398,17.491 7.319,18.046 7.059 C 18.323 6.929,18.601 6.827,18.716 6.813 C 18.945 6.786,19.223 6.867,19.422 7.019 C 19.658 7.199,20.040 7.913,20.040 8.174 C 20.040 8.357,19.914 8.684,19.788 8.827 C 19.718 8.908,19.534 9.054,19.380 9.152 C 18.636 9.626,18.182 10.222,17.972 11.000 C 17.871 11.373,17.871 12.627,17.972 13.000 C 18.181 13.773,18.710 14.466,19.383 14.845 C 19.812 15.087,20.016 15.401,20.017 15.820 C 20.018 16.028,19.995 16.105,19.839 16.399 C 19.613 16.828,19.400 17.047,19.121 17.140 C 18.815 17.241,18.601 17.202,18.050 16.943 C 17.475 16.674,17.180 16.601,16.656 16.601 C 15.977 16.600,15.418 16.790,14.659 17.281 C 14.105 17.640,13.772 18.023,13.497 18.619 C 13.319 19.004,13.282 19.169,13.245 19.760 C 13.210 20.309,13.150 20.484,12.917 20.717 C 12.694 20.939,12.583 20.976,12.067 20.993 C 11.519 21.011,11.338 20.963,11.104 20.736 C 10.852 20.491,10.791 20.321,10.755 19.760 C 10.720 19.204,10.698 19.093,10.550 18.729 C 10.305 18.123,9.936 17.675,9.384 17.312 C 8.599 16.795,8.037 16.600,7.344 16.601 C 6.820 16.601,6.525 16.674,5.950 16.943 C 5.676 17.072,5.398 17.173,5.284 17.187 C 5.055 17.214,4.777 17.133,4.578 16.981 C 4.342 16.801,3.960 16.087,3.960 15.826 C 3.960 15.644,4.086 15.316,4.211 15.174 C 4.281 15.094,4.492 14.930,4.679 14.809 C 5.718 14.140,6.159 13.223,6.108 11.840 C 6.083 11.184,6.037 10.957,5.840 10.533 C 5.560 9.931,5.270 9.597,4.685 9.204 C 4.493 9.074,4.279 8.904,4.210 8.825 C 4.086 8.684,3.960 8.356,3.960 8.174 C 3.960 7.913,4.342 7.199,4.578 7.019 C 4.777 6.867,5.055 6.786,5.284 6.813 C 5.399 6.827,5.677 6.929,5.954 7.059 C 6.509 7.319,6.836 7.398,7.364 7.399 C 8.035 7.401,8.607 7.199,9.384 6.688 C 9.943 6.320,10.304 5.879,10.557 5.253 C 10.700 4.899,10.720 4.796,10.757 4.220 C 10.791 3.690,10.853 3.513,11.088 3.279 C 11.313 3.053,11.481 3.002,12.000 3.002 C 12.360 3.002,12.495 3.018,12.621 3.075 M11.579 8.042 C 9.871 8.210,8.456 9.489,8.098 11.191 C 8.012 11.600,8.012 12.400,8.098 12.809 C 8.425 14.365,9.635 15.575,11.191 15.902 C 11.600 15.988,12.400 15.988,12.809 15.902 C 14.154 15.619,15.251 14.675,15.738 13.382 C 15.900 12.951,15.967 12.546,15.967 12.000 C 15.967 11.101,15.752 10.412,15.249 9.700 C 14.418 8.523,13.036 7.899,11.579 8.042 M12.476 10.042 C 13.140 10.196,13.804 10.860,13.958 11.524 C 14.010 11.750,14.010 12.250,13.958 12.476 C 13.804 13.140,13.140 13.804,12.476 13.958 C 12.250 14.010,11.750 14.010,11.524 13.958 C 10.860 13.804,10.196 13.140,10.042 12.476 C 9.990 12.250,9.990 11.750,10.042 11.524 C 10.193 10.870,10.860 10.196,11.508 10.044 C 11.718 9.994,12.264 9.994,12.476 10.042 " stroke="none" fill-rule="evenodd" fill="black"></path></svg>