<svg xmlns="http://www.w3.org/2000/svg" width="24" height="24" fill="none" viewBox="0 0 24 24"><path d="M13.800 1.037 C 13.507 1.097,13.262 1.289,13.106 1.579 C 13.021 1.738,13.020 1.764,13.020 4.000 C 13.020 6.236,13.021 6.262,13.106 6.421 C 13.302 6.787,13.602 6.972,14.000 6.972 C 14.399 6.972,14.703 6.784,14.892 6.421 C 14.963 6.283,14.977 6.169,14.992 5.631 L 15.009 5.003 18.135 4.991 C 21.245 4.980,21.261 4.980,21.421 4.894 C 21.787 4.698,21.972 4.398,21.972 4.000 C 21.972 3.602,21.787 3.302,21.421 3.106 C 21.261 3.020,21.245 3.020,18.135 3.009 L 15.009 2.997 14.992 2.369 C 14.977 1.831,14.963 1.717,14.892 1.579 C 14.678 1.168,14.235 0.948,13.800 1.037 M2.800 3.037 C 2.337 3.132,2.028 3.517,2.028 4.000 C 2.028 4.398,2.213 4.698,2.579 4.894 L 2.740 4.980 6.500 4.980 L 10.260 4.980 10.421 4.894 C 10.787 4.698,10.972 4.398,10.972 4.000 C 10.972 3.602,10.787 3.302,10.421 3.106 L 10.260 3.020 6.600 3.014 C 4.587 3.011,2.877 3.021,2.800 3.037 M7.800 9.037 C 7.506 9.097,7.258 9.291,7.108 9.579 C 7.037 9.717,7.023 9.831,7.008 10.368 L 6.991 10.996 4.865 11.008 C 2.779 11.020,2.737 11.022,2.579 11.106 C 2.213 11.302,2.028 11.602,2.028 12.000 C 2.028 12.398,2.213 12.698,2.579 12.894 C 2.737 12.978,2.779 12.980,4.865 12.992 L 6.991 13.004 7.008 13.632 C 7.023 14.169,7.037 14.283,7.108 14.421 C 7.297 14.784,7.601 14.972,8.000 14.972 C 8.398 14.972,8.698 14.787,8.894 14.421 C 8.979 14.262,8.980 14.236,8.980 12.000 C 8.980 9.764,8.979 9.738,8.894 9.579 C 8.672 9.165,8.234 8.948,7.800 9.037 M11.800 11.037 C 11.337 11.132,11.028 11.517,11.028 12.000 C 11.028 12.398,11.213 12.698,11.579 12.894 L 11.740 12.980 16.500 12.980 L 21.260 12.980 21.421 12.894 C 21.787 12.698,21.972 12.398,21.972 12.000 C 21.972 11.602,21.787 11.302,21.421 11.106 L 21.260 11.020 16.600 11.014 C 14.037 11.011,11.877 11.021,11.800 11.037 M15.800 17.037 C 15.507 17.097,15.262 17.289,15.106 17.579 C 15.021 17.738,15.020 17.764,15.020 20.000 C 15.020 22.236,15.021 22.262,15.106 22.421 C 15.302 22.787,15.602 22.972,16.000 22.972 C 16.399 22.972,16.703 22.784,16.892 22.421 C 16.963 22.283,16.977 22.169,16.992 21.632 L 17.009 21.004 19.135 20.992 C 21.221 20.980,21.263 20.978,21.421 20.894 C 21.787 20.698,21.972 20.398,21.972 20.000 C 21.972 19.602,21.787 19.302,21.421 19.106 C 21.263 19.022,21.221 19.020,19.135 19.008 L 17.009 18.996 16.992 18.368 C 16.977 17.831,16.963 17.717,16.892 17.579 C 16.678 17.168,16.235 16.948,15.800 17.037 M2.800 19.037 C 2.337 19.132,2.028 19.517,2.028 20.000 C 2.028 20.398,2.213 20.698,2.579 20.894 L 2.740 20.980 7.500 20.980 L 12.260 20.980 12.421 20.894 C 12.787 20.698,12.972 20.398,12.972 20.000 C 12.972 19.602,12.787 19.302,12.421 19.106 L 12.260 19.020 7.600 19.014 C 5.037 19.011,2.877 19.021,2.800 19.037 " stroke="none" fill-rule="evenodd" fill="black"></path></svg>